<?xml version="1.0" standalone="no"?>
<!DOCTYPE svg PUBLIC "-//W3C//DTD SVG 1.1//EN" "http://www.w3.org/Graphics/SVG/1.1/DTD/svg11.dtd" >
<svg xmlns="http://www.w3.org/2000/svg" xmlns:xlink="http://www.w3.org/1999/xlink" version="1.1">
<metadata>
Created by FontForge 20170812 at Tue Apr 18 18:31:28 2017
 By www-data
Copyright \(c\) 2016 by Deni Anggara. All rights reserved.
</metadata>
<defs>
<font id="Biotif-Light" horiz-adv-x="519" >
  <font-face 
    font-family="Biotif Light"
    font-weight="300"
    font-stretch="normal"
    units-per-em="1000"
    panose-1="0 0 4 0 0 0 0 0 0 0"
    ascent="800"
    descent="-200"
    x-height="480"
    cap-height="710"
    bbox="-522 -240 1488 998"
    underline-thickness="80"
    underline-position="-195"
    stemh="44"
    stemv="48"
    unicode-range="U+0020-FB02"
  />
<missing-glyph horiz-adv-x="532" 
d="M436 860v-1063h-337v1063h337zM354 789h-175v-35h69v-40h-70v-35h176v35h-70v40h70v35zM284 652h-106v-111h176v36h-70v75zM248 616v-39h-35v39h35zM354 512h-176v-35h70v-39h-70v-35h106v74h70v35zM354 449h-35v-71h-141v-36h176v107zM354 319h-106v-60h36v25h35v-50
h-106v85h-35v-120h176v120zM354 135h-176v-120h176v120zM319 100v-50h-106v50h106zM354 -10h-176v-35h74l-74 -50v-35h176v35h-108l74 50h34v35z" />
    <glyph glyph-name="f_f" unicode="ff" horiz-adv-x="564" 
d="M539 676c-87 14 -118 -21 -118 -88v-108h101v-38h-101v-442h-46v442h-229v-442h-46v442h-75v38h75v108c0 98 62 134 124 134c7 0 17 0 40 -5v-41c-87 14 -118 -21 -118 -88v-108h229v108c0 98 62 134 124 134c7 0 17 0 40 -5v-41z" />
    <glyph glyph-name="f_f_i" unicode="ffi" horiz-adv-x="770" 
d="M416 480h270v-480h-46v442h-224v-442h-46v442h-229v-442h-46v442h-75v38h75v108c0 98 62 134 124 134c7 0 17 0 40 -5v-41c-87 14 -118 -21 -118 -88v-108h229v108c0 98 62 134 124 134c7 0 17 0 40 -5v-41c-87 14 -118 -21 -118 -88v-108zM662 710c28 0 49 -22 49 -50
s-21 -48 -49 -48s-48 20 -48 48s20 50 48 50z" />
    <glyph glyph-name="f_f_l" unicode="ffl" horiz-adv-x="756" 
d="M630 722h46v-722h-46v442h-214v-442h-46v442h-229v-442h-46v442h-75v38h75v108c0 98 62 134 124 134c7 0 17 0 40 -5v-41c-87 14 -118 -21 -118 -88v-108h229v108c0 98 62 134 124 134c7 0 17 0 40 -5v-41c-87 14 -118 -21 -118 -88v-108h214v242z" />
    <glyph glyph-name="f_t" unicode="ft" horiz-adv-x="546" 
d="M535 480v-38h-118v-442h-46v442h-230v-442h-46v442h-75v38h75v108c0 98 62 134 124 134c7 0 17 0 40 -5v-41c-87 14 -118 -21 -118 -88v-108h230v152h46v-152h118z" />
    <glyph glyph-name="f_y" unicode="fy" horiz-adv-x="747" 
d="M688 480h49l-220 -597c-41 -112 -150 -111 -210 -69l14 42c33 -28 122 -45 152 36l27 74l-190 476h-169v-442h-46v442h-75v38h75v108c0 98 62 134 124 134c7 0 17 0 40 -5v-41c-87 14 -118 -21 -118 -88v-108h204l178 -452z" />
    <glyph glyph-name="fi" unicode="fi" horiz-adv-x="495" 
d="M141 480h270v-480h-46v442h-224v-442h-46v442h-75v38h75v108c0 98 62 134 124 134c7 0 17 0 40 -5v-41c-87 14 -118 -21 -118 -88v-108zM387 710c28 0 49 -22 49 -50s-21 -48 -49 -48s-48 20 -48 48s20 50 48 50z" />
    <glyph glyph-name="fl" unicode="fl" horiz-adv-x="481" 
d="M355 722h46v-722h-46v442h-214v-442h-46v442h-75v38h75v108c0 98 62 134 124 134c7 0 17 0 40 -5v-41c-87 14 -118 -21 -118 -88v-108h214v242z" />
    <glyph glyph-name="t_i" unicode="ti" horiz-adv-x="487" 
d="M383 710c28 0 49 -22 49 -50s-21 -48 -49 -48s-48 20 -48 48s20 50 48 50zM163 480h244v-480h-46v442h-198v-442h-46v442h-97v38h97v152h46v-152z" />
    <glyph glyph-name="t_t" unicode="tt" horiz-adv-x="560" 
d="M540 480v-38h-97v-442h-46v442h-97h-137v-442h-46v442h-97v38h97v152h46v-152h168h66v152h46v-152h97z" />
    <glyph glyph-name="t_y" unicode="ty" horiz-adv-x="706" 
d="M647 480h49l-220 -597c-41 -112 -149 -111 -209 -69l14 42c33 -28 122 -45 152 36l27 74l-190 476h-107v-442h-46v442h-97v38h97v152h46v-152h139h3l175 -460z" />
    <glyph glyph-name=".notdef" horiz-adv-x="532" 
d="M436 860v-1063h-337v1063h337zM354 789h-175v-35h69v-40h-70v-35h176v35h-70v40h70v35zM284 652h-106v-111h176v36h-70v75zM248 616v-39h-35v39h35zM354 512h-176v-35h70v-39h-70v-35h106v74h70v35zM354 449h-35v-71h-141v-36h176v107zM354 319h-106v-60h36v25h35v-50
h-106v85h-35v-120h176v120zM354 135h-176v-120h176v120zM319 100v-50h-106v50h106zM354 -10h-176v-35h74l-74 -50v-35h176v35h-108l74 50h34v35z" />
    <glyph glyph-name="DegarismLogo" horiz-adv-x="1528" 
d="M731 180v95h229v-267h-82l-10 80h-9s-20 -88 -146 -88c-120 0 -215 80 -215 253c0 180 116 258 235 258c94 0 200 -51 222 -176h-113c-13 45 -48 79 -107 79c-88 0 -126 -72 -126 -157c0 -82 35 -160 124 -160c59 0 101 35 111 83h-113zM1052 402c-30 0 -55 25 -55 55
s25 54 55 54s54 -24 54 -54s-24 -55 -54 -55zM1190 402c-30 0 -55 25 -55 55s25 54 55 54s54 -24 54 -54s-24 -55 -54 -55zM1276 511v-21h29v-85h25v85h30v21h-84zM1488 511h-44l-14 -88l-12 88h-44v-106h25v91l14 -91h35l15 91v-91h25v106zM234 506c138 0 230 -80 230 -249
s-92 -249 -230 -249h-194v498h194zM234 99c20 0 120 6 120 158c0 150 -100 158 -120 158h-66c-36 2 -62 24 -62 24l-8 -8s16 -15 30 -30c24 -21 22 -56 22 -56v-177c0 -36 -22 -56 -22 -56l-30 -30l8 -7s30 25 70 24h58zM1120 302c22 41 74 47 124 40v-89
c-70 6 -122 -21 -122 -105v-140h-108v257c0 47 -4 64 -7 77h109c1 -7 3 -22 4 -40z" />
    <glyph glyph-name="bracketleftsuperior" horiz-adv-x="208" 
d="M203 280v-45h-153v625h153v-45h-100v-535h100z" />
    <glyph glyph-name="bracketrightsuperior" horiz-adv-x="203" 
d="M0 280h100v535h-100v45h153v-625h-153v45z" />
    <glyph glyph-name="A" unicode="A" horiz-adv-x="628" 
d="M564 0l-73 199h-355l-75 -199h-46l263 710h51h18l266 -710h-49zM152 240h324l-160 435z" />
    <glyph glyph-name="Aacute" unicode="&#xc1;" horiz-adv-x="628" 
d="M403 871l-67 -106h-48l52 106h63zM564 0l-73 199h-355l-75 -199h-46l263 710h51h18l266 -710h-49zM152 240h324l-160 435z" />
    <glyph glyph-name="Abreve" unicode="&#x102;" horiz-adv-x="628" 
d="M312 765c-63 0 -115 45 -115 107h51c0 -32 25 -56 64 -56s64 24 64 56h51c0 -62 -52 -107 -115 -107zM564 0l-73 199h-355l-75 -199h-46l263 710h51h18l266 -710h-49zM152 240h324l-160 435z" />
    <glyph glyph-name="Acircumflex" unicode="&#xc2;" horiz-adv-x="628" 
d="M312 835l-48 -70h-58l70 107h61h10l70 -107h-58zM564 0l-73 199h-355l-75 -199h-46l263 710h51h18l266 -710h-49zM152 240h324l-160 435z" />
    <glyph glyph-name="Adieresis" unicode="&#xc4;" horiz-adv-x="628" 
d="M234 765c-29 0 -53 24 -53 52c0 29 24 54 53 54c28 0 53 -25 53 -54c0 -28 -25 -52 -53 -52zM390 765c-29 0 -53 24 -53 52c0 29 24 54 53 54c28 0 53 -25 53 -54c0 -28 -25 -52 -53 -52zM564 0l-73 199h-355l-75 -199h-46l263 710h51h18l266 -710h-49zM152 240h324
l-160 435z" />
    <glyph glyph-name="Agrave" unicode="&#xc0;" horiz-adv-x="628" 
d="M336 765h-48l-69 106h65zM564 0l-73 199h-355l-75 -199h-46l263 710h51h18l266 -710h-49zM152 240h324l-160 435z" />
    <glyph glyph-name="Amacron" unicode="&#x100;" horiz-adv-x="628" 
d="M440 814v-46h-256v46h256zM564 0l-73 199h-355l-75 -199h-46l263 710h51h18l266 -710h-49zM152 240h324l-160 435z" />
    <glyph glyph-name="Aogonek" unicode="&#x104;" horiz-adv-x="628" 
d="M613 0c-77 -42 -45 -96 0 -84v-45c-106 -28 -124 94 -38 129h-11l-73 199h-355l-75 -199h-46l263 710h51h18zM152 240h324l-160 435z" />
    <glyph glyph-name="Aring" unicode="&#xc5;" horiz-adv-x="628" 
d="M312 766c-55 0 -98 43 -98 99c0 55 45 100 98 100c55 0 100 -46 100 -100s-45 -99 -100 -99zM313 923c-32 0 -56 -25 -56 -56c0 -34 24 -58 56 -58s57 24 57 58c0 30 -25 56 -57 56zM564 0l-73 199h-355l-75 -199h-46l263 710h51h18l266 -710h-49zM152 240h324l-160 435z
" />
    <glyph glyph-name="Aringacute" unicode="&#x1fa;" horiz-adv-x="628" 
d="M403 998l-67 -106h-48l52 106h63zM564 0l-73 199h-355l-75 -199h-46l253 684c-34 15 -58 49 -58 91c0 55 45 100 98 100c55 0 100 -46 100 -100c0 -37 -21 -70 -53 -87l258 -688h-49zM309 833c-32 0 -56 -25 -56 -56c0 -34 24 -58 56 -58s57 24 57 58c0 30 -25 56 -57 56
zM152 240h324l-160 435z" />
    <glyph glyph-name="Atilde" unicode="&#xc3;" horiz-adv-x="628" 
d="M222 789h-43c-2 58 26 88 68 88c50 0 81 -42 121 -42c20 0 33 10 33 42h43c0 -54 -27 -88 -75 -88c-53 0 -83 42 -116 42c-15 0 -31 -8 -31 -42zM564 0l-73 199h-355l-75 -199h-46l263 710h51h18l266 -710h-49zM152 240h324l-160 435z" />
    <glyph glyph-name="AE" unicode="&#xc6;" horiz-adv-x="858" 
d="M428 45h370l-1 -45h-415v219h-245l-81 -219h-46l263 710h47h62h46l369 -1v-46l-369 1v-286h337l-1 -45h-336v-288zM153 260h229v118v286h-79z" />
    <glyph glyph-name="AEacute" unicode="&#x1fc;" horiz-adv-x="858" 
d="M626 871l-67 -106h-48l52 106h63zM428 45h370l-1 -45h-415v219h-245l-81 -219h-46l263 710h47h62h46l369 -1v-46l-369 1v-286h337l-1 -45h-336v-288zM153 260h229v118v286h-79z" />
    <glyph glyph-name="B" unicode="B" horiz-adv-x="629" 
d="M468 358c65 -30 111 -94 111 -171c0 -116 -88 -187 -216 -187h-268v667v43h258c140 0 218 -78 218 -186c0 -79 -41 -136 -103 -166zM356 667h-217v-289h220c106 0 169 58 168 143c-1 91 -69 146 -171 146zM366 44c107 0 170 60 169 146c-1 91 -69 143 -169 143h-227v-289
h227z" />
    <glyph glyph-name="C" unicode="C" horiz-adv-x="720" 
d="M675 515l-45 -18c-33 107 -124 177 -249 177c-167 0 -282 -127 -282 -319s115 -319 281 -319c121 0 215 68 247 160l44 -19c-41 -112 -153 -188 -292 -188c-192 0 -329 147 -329 367s136 366 330 366c151 0 257 -87 295 -207z" />
    <glyph glyph-name="Cacute" unicode="&#x106;" horiz-adv-x="720" 
d="M409 765h-48l52 106h63zM675 515l-45 -18c-33 107 -124 177 -249 177c-167 0 -282 -127 -282 -319s115 -319 281 -319c121 0 215 68 247 160l44 -19c-41 -112 -153 -188 -292 -188c-192 0 -329 147 -329 367s136 366 330 366c151 0 257 -87 295 -207z" />
    <glyph glyph-name="Ccaron" unicode="&#x10c;" horiz-adv-x="720" 
d="M349 765l-70 107h58l48 -70l47 70h58l-70 -107h-71zM380 36c121 0 215 68 247 160l44 -19c-41 -112 -153 -188 -292 -188c-192 0 -329 147 -329 367s136 366 330 366c151 0 257 -87 295 -207l-45 -18c-33 107 -124 177 -249 177c-167 0 -282 -127 -282 -319
s115 -319 281 -319z" />
    <glyph glyph-name="Ccedilla" unicode="&#xc7;" horiz-adv-x="720" 
d="M380 36c121 0 215 68 247 160l44 -19c-38 -104 -138 -177 -263 -187l-15 -18h38c44 0 60 -36 60 -63c0 -28 -22 -60 -58 -60h-88v39h77c17 0 26 13 26 26c-1 12 -9 23 -26 23h-77v34l15 18c-182 10 -310 154 -310 367c0 220 136 366 330 366c151 0 257 -87 295 -207
l-45 -18c-33 107 -124 177 -249 177c-167 0 -282 -127 -282 -319s115 -319 281 -319z" />
    <glyph glyph-name="Ccircumflex" unicode="&#x108;" horiz-adv-x="720" 
d="M385 835l-48 -70h-58l70 107h61h10l70 -107h-58zM380 36c121 0 215 68 247 160l44 -19c-41 -112 -153 -188 -292 -188c-192 0 -329 147 -329 367s136 366 330 366c151 0 257 -87 295 -207l-45 -18c-33 107 -124 177 -249 177c-167 0 -282 -127 -282 -319
s115 -319 281 -319z" />
    <glyph glyph-name="Cdotaccent" unicode="&#x10a;" horiz-adv-x="720" 
d="M385 766c-29 0 -53 24 -53 52c0 29 24 54 53 54c28 0 53 -25 53 -54c0 -28 -25 -52 -53 -52zM675 515l-45 -18c-33 107 -124 177 -249 177c-167 0 -282 -127 -282 -319s115 -319 281 -319c121 0 215 68 247 160l44 -19c-41 -112 -153 -188 -292 -188
c-192 0 -329 147 -329 367s136 366 330 366c151 0 257 -87 295 -207z" />
    <glyph glyph-name="D" unicode="D" horiz-adv-x="702" 
d="M294 710c215 0 358 -142 358 -355s-143 -355 -358 -355h-199v710h199zM294 46c184 0 307 124 307 309s-123 309 -307 309h-151v-618h151z" />
    <glyph glyph-name="Eth" unicode="&#xd0;" horiz-adv-x="695" 
d="M294 710c215 0 358 -142 358 -355s-143 -355 -358 -355h-199v332h-75v46h75v332h199zM294 46c184 0 307 124 307 309s-123 309 -307 309h-151v-286h111v-46h-111v-286h151z" />
    <glyph glyph-name="Dcaron" unicode="&#x10e;" horiz-adv-x="702" 
d="M260 764l-70 107h58l48 -70l47 70h58l-70 -107h-71zM294 710c215 0 358 -142 358 -355s-143 -355 -358 -355h-199v710h199zM294 46c184 0 307 124 307 309s-123 309 -307 309h-151v-618h151z" />
    <glyph glyph-name="Dcroat" unicode="&#x110;" horiz-adv-x="695" 
d="M294 710c215 0 358 -142 358 -355s-143 -355 -358 -355h-199v332h-75v46h75v332h199zM294 46c184 0 307 124 307 309s-123 309 -307 309h-151v-286h111v-46h-111v-286h151z" />
    <glyph glyph-name="E" unicode="E" horiz-adv-x="578" 
d="M142 46h371v-46h-418v710h417v-47h-370v-286h337v-43h-337v-288z" />
    <glyph glyph-name="Eacute" unicode="&#xc9;" horiz-adv-x="578" 
d="M388 871l-67 -106h-48l52 106h63zM142 46h371v-46h-418v710h417v-47h-370v-286h337v-43h-337v-288z" />
    <glyph glyph-name="Ebreve" unicode="&#x114;" horiz-adv-x="578" 
d="M297 765c-63 0 -115 45 -115 107h51c0 -32 25 -56 64 -56s64 24 64 56h51c0 -62 -52 -107 -115 -107zM142 46h371v-46h-418v710h417v-47h-370v-286h337v-43h-337v-288z" />
    <glyph glyph-name="Ecaron" unicode="&#x11a;" horiz-adv-x="578" 
d="M261 765l-70 107h58l48 -70l47 70h58l-70 -107h-71zM142 46h371v-46h-418v710h417v-47h-370v-286h337v-43h-337v-288z" />
    <glyph glyph-name="Ecircumflex" unicode="&#xca;" horiz-adv-x="578" 
d="M297 835l-48 -70h-58l70 107h61h10l70 -107h-58zM142 46h371v-46h-418v710h417v-47h-370v-286h337v-43h-337v-288z" />
    <glyph glyph-name="Edieresis" unicode="&#xcb;" horiz-adv-x="578" 
d="M219 765c-29 0 -53 24 -53 52c0 29 24 54 53 54c28 0 53 -25 53 -54c0 -28 -25 -52 -53 -52zM375 765c-29 0 -53 24 -53 52c0 29 24 54 53 54c28 0 53 -25 53 -54c0 -28 -25 -52 -53 -52zM142 46h371v-46h-418v710h417v-47h-370v-286h337v-43h-337v-288z" />
    <glyph glyph-name="Edotaccent" unicode="&#x116;" horiz-adv-x="578" 
d="M297 766c-29 0 -53 24 -53 52c0 29 24 54 53 54c28 0 53 -25 53 -54c0 -28 -25 -52 -53 -52zM142 46h371v-46h-418v710h417v-47h-370v-286h337v-43h-337v-288z" />
    <glyph glyph-name="Egrave" unicode="&#xc8;" horiz-adv-x="578" 
d="M321 765h-48l-69 106h65zM142 46h371v-46h-418v710h417v-47h-370v-286h337v-43h-337v-288z" />
    <glyph glyph-name="Emacron" unicode="&#x112;" horiz-adv-x="578" 
d="M425 814v-46h-256v46h256zM142 46h371v-46h-418v710h417v-47h-370v-286h337v-43h-337v-288z" />
    <glyph glyph-name="Eogonek" unicode="&#x118;" horiz-adv-x="578" 
d="M142 46h371v-46h-1c-77 -42 -45 -96 0 -84v-45c-106 -28 -124 94 -38 129h-379v710h417v-47h-370v-286h337v-43h-337v-288z" />
    <glyph glyph-name="F" unicode="F" horiz-adv-x="536" 
d="M501 664h-360v-299h302v-43h-302v-322h-48v365v345h408v-46z" />
    <glyph glyph-name="G" unicode="G" horiz-adv-x="746" 
d="M364 377h322v-378h-44v117c-49 -80 -149 -128 -262 -128c-192 0 -330 144 -330 364c0 218 135 370 339 370c137 0 240 -69 281 -183l-41 -20c-40 111 -134 157 -240 157c-177 0 -290 -130 -290 -324c0 -195 118 -318 278 -318c89 0 255 34 264 216v84h-277v43z" />
    <glyph glyph-name="Gbreve" unicode="&#x11e;" horiz-adv-x="746" 
d="M363 766c-63 0 -115 45 -115 107h51c0 -32 25 -56 64 -56s64 24 64 56h51c0 -62 -52 -107 -115 -107zM364 377h322v-378h-44v117c-49 -80 -149 -128 -262 -128c-192 0 -330 144 -330 364c0 218 135 370 339 370c137 0 240 -69 281 -183l-41 -20
c-40 111 -134 157 -240 157c-177 0 -290 -130 -290 -324c0 -195 118 -318 278 -318c89 0 255 34 264 216v84h-277v43z" />
    <glyph glyph-name="Gcircumflex" unicode="&#x11c;" horiz-adv-x="746" 
d="M363 836l-48 -70h-58l70 107h61h10l70 -107h-58zM364 377h322v-378h-44v117c-49 -80 -149 -128 -262 -128c-192 0 -330 144 -330 364c0 218 135 370 339 370c137 0 240 -69 281 -183l-41 -20c-40 111 -134 157 -240 157c-177 0 -290 -130 -290 -324
c0 -195 118 -318 278 -318c89 0 255 34 264 216v84h-277v43z" />
    <glyph glyph-name="Gcommaaccent" unicode="&#x122;" horiz-adv-x="746" 
d="M364 377h322v-378h-44v117c-49 -80 -149 -128 -262 -128c-192 0 -330 144 -330 364c0 218 135 370 339 370c137 0 240 -69 281 -183l-41 -20c-40 111 -134 157 -240 157c-177 0 -290 -130 -290 -324c0 -195 118 -318 278 -318c89 0 255 34 264 216v84h-277v43zM411 -42
c27 0 49 -19 49 -58c0 -57 -50 -88 -80 -87v23c16 1 39 19 40 43c-5 -2 -10 -3 -15 -3c-19 0 -37 13 -37 39s18 43 43 43z" />
    <glyph glyph-name="Gdotaccent" unicode="&#x120;" horiz-adv-x="746" 
d="M363 767c-29 0 -53 24 -53 52c0 29 24 54 53 54c28 0 53 -25 53 -54c0 -28 -25 -52 -53 -52zM364 377h322v-378h-44v117c-49 -80 -149 -128 -262 -128c-192 0 -330 144 -330 364c0 218 135 370 339 370c137 0 240 -69 281 -183l-41 -20c-40 111 -134 157 -240 157
c-177 0 -290 -130 -290 -324c0 -195 118 -318 278 -318c89 0 255 34 264 216v84h-277v43z" />
    <glyph glyph-name="H" unicode="H" horiz-adv-x="699" 
d="M95 0v710h48v-328l413 -1v329h48v-710h-48v339h-413v-339h-48z" />
    <glyph glyph-name="Hbar" unicode="&#x126;" horiz-adv-x="699" 
d="M686 615v-46h-82v-569h-48v339h-413v-339h-48v569h-95v46h95v95h48v-95h413v95h48v-95h82zM556 381v188h-413v-187z" />
    <glyph glyph-name="I" unicode="I" horiz-adv-x="238" 
d="M143 0h-48v710h48v-710z" />
    <glyph glyph-name="Iacute" unicode="&#xcd;" horiz-adv-x="238" 
d="M143 765h-48l52 106h63zM143 0h-48v710h48v-710z" />
    <glyph glyph-name="Icircumflex" unicode="&#xce;" horiz-adv-x="238" 
d="M154 872l70 -107h-58l-47 70l-48 -70h-58l70 107h61h10zM95 0v710h48v-710h-48z" />
    <glyph glyph-name="Idieresis" unicode="&#xcf;" horiz-adv-x="238" 
d="M41 765c-29 0 -53 24 -53 52c0 29 24 54 53 54c28 0 53 -25 53 -54c0 -28 -25 -52 -53 -52zM197 765c-29 0 -53 24 -53 52c0 29 24 54 53 54c28 0 53 -25 53 -54c0 -28 -25 -52 -53 -52zM143 0h-48v710h48v-710z" />
    <glyph glyph-name="Idotaccent" unicode="&#x130;" horiz-adv-x="238" 
d="M119 766c-29 0 -53 24 -53 52c0 29 24 54 53 54c28 0 53 -25 53 -54c0 -28 -25 -52 -53 -52zM143 0h-48v710h48v-710z" />
    <glyph glyph-name="Igrave" unicode="&#xcc;" horiz-adv-x="238" 
d="M95 765l-69 106h65l52 -106h-48zM143 0h-48v710h48v-710z" />
    <glyph glyph-name="Imacron" unicode="&#x12a;" horiz-adv-x="238" 
d="M-9 814h256v-46h-256v46zM143 0h-48v710h48v-710z" />
    <glyph glyph-name="Iogonek" unicode="&#x12e;" horiz-adv-x="238" 
d="M143 0c-77 -42 -45 -96 0 -84v-45c-106 -28 -124 94 -38 129h-10v710h48v-710z" />
    <glyph glyph-name="Itilde" unicode="&#x128;" horiz-adv-x="238" 
d="M-14 789c-2 58 26 88 68 88c50 0 81 -42 121 -42c20 0 33 10 33 42h43c0 -54 -27 -88 -75 -88c-53 0 -83 42 -116 42c-15 0 -31 -8 -31 -42h-43zM143 0h-48v710h48v-710z" />
    <glyph glyph-name="J" unicode="J" horiz-adv-x="497" 
d="M364 710h48v-517c0 -123 -78 -205 -201 -205s-186 82 -186 205v22h47v-22c0 -148 97 -159 139 -159c65 0 153 27 153 159v517z" />
    <glyph glyph-name="Jcircumflex" unicode="&#x134;" horiz-adv-x="497" 
d="M423 874l70 -107h-58l-47 70l-48 -70h-58l70 107h61h10zM364 710h48v-517c0 -123 -78 -205 -201 -205s-186 82 -186 205v22h47v-22c0 -148 97 -159 139 -159c65 0 153 27 153 159v517z" />
    <glyph glyph-name="K" unicode="K" horiz-adv-x="601" 
d="M581 710l-255 -305l249 -405h-60l-219 369l-152 -181v-188h-49v710h49v-451l378 451h59z" />
    <glyph glyph-name="Kcommaaccent" unicode="&#x136;" horiz-adv-x="601" 
d="M581 710l-255 -305l249 -405h-60l-219 369l-152 -181v-188h-49v710h49v-451l378 451h59zM329 -27c27 0 49 -19 49 -58c0 -57 -50 -88 -80 -87v23c16 1 39 19 40 43c-5 -2 -10 -3 -15 -3c-19 0 -37 13 -37 39s18 43 43 43z" />
    <glyph glyph-name="L" unicode="L" horiz-adv-x="471" 
d="M143 44h298v-44h-339h-7v710h48v-666z" />
    <glyph glyph-name="Lacute" unicode="&#x139;" horiz-adv-x="471" 
d="M210 871l-67 -106h-48l52 106h63zM143 44h298v-44h-339h-7v710h48v-666z" />
    <glyph glyph-name="Lcaron" unicode="&#x13d;" horiz-adv-x="471" 
d="M287 633c-19 0 -37 13 -37 39s18 43 43 43c27 0 49 -19 49 -58c0 -57 -50 -88 -80 -87v23c16 1 39 19 40 43c-5 -2 -10 -3 -15 -3zM143 44h298v-44h-339h-7v710h48v-666z" />
    <glyph glyph-name="Lcommaaccent" unicode="&#x13b;" horiz-adv-x="471" 
d="M143 44h298v-44h-339h-7v710h48v-666zM271 -27c27 0 49 -19 49 -58c0 -57 -50 -88 -80 -87v23c16 1 39 19 40 43c-5 -2 -10 -3 -15 -3c-19 0 -37 13 -37 39s18 43 43 43z" />
    <glyph glyph-name="Ldot" unicode="&#x13f;" horiz-adv-x="471" 
d="M143 44h298v-44h-339h-7v710h48v-666zM286 304c-28 0 -53 24 -53 53s24 53 53 53c30 0 54 -24 54 -53s-25 -53 -54 -53z" />
    <glyph glyph-name="Lslash" unicode="&#x141;" horiz-adv-x="464" 
d="M143 44h298v-44h-339h-7v346l-79 -38v57l79 38v307h48v-284l210 100v-57l-210 -100v-325z" />
    <glyph glyph-name="M" unicode="M" horiz-adv-x="830" 
d="M686 710l49 -1v-709h-49v599l-246 -599h-48l-249 597v-597h-48v710h48l273 -652z" />
    <glyph glyph-name="N" unicode="N" horiz-adv-x="703" 
d="M560 710h48v-710h-48l-416 628v-628h-49v710h49l416 -628v628z" />
    <glyph glyph-name="Nacute" unicode="&#x143;" horiz-adv-x="703" 
d="M443 871l-67 -106h-48l52 106h63zM560 710h48v-710h-48l-416 628v-628h-49v710h49l416 -628v628z" />
    <glyph glyph-name="Ncaron" unicode="&#x147;" horiz-adv-x="703" 
d="M316 765l-70 107h58l48 -70l47 70h58l-70 -107h-71zM560 710h48v-710h-48l-416 628v-628h-49v710h49l416 -628v628z" />
    <glyph glyph-name="Ncommaaccent" unicode="&#x145;" horiz-adv-x="703" 
d="M560 710h48v-710h-48l-416 628v-628h-49v710h49l416 -628v628zM356 -27c27 0 49 -19 49 -58c0 -57 -50 -88 -80 -87v23c16 1 39 19 40 43c-5 -2 -10 -3 -15 -3c-19 0 -37 13 -37 39s18 43 43 43z" />
    <glyph glyph-name="Eng" unicode="&#x14a;" horiz-adv-x="678" 
d="M88 0v710h48l406 -621v621h48v-755c0 -76 -55 -129 -141 -110l4 42c52 -12 93 7 93 76v37h-4l-406 621v-621h-48z" />
    <glyph glyph-name="Ntilde" unicode="&#xd1;" horiz-adv-x="703" 
d="M262 789h-43c-2 58 26 88 68 88c50 0 81 -42 121 -42c20 0 33 10 33 42h43c0 -54 -27 -88 -75 -88c-53 0 -83 42 -116 42c-15 0 -31 -8 -31 -42zM560 710h48v-710h-48l-416 628v-628h-49v710h49l416 -628v628z" />
    <glyph glyph-name="O" unicode="O" horiz-adv-x="771" 
d="M721 355c0 213 -138 367 -336 367s-335 -154 -335 -367c0 -214 137 -367 335 -367s336 153 336 367zM672 355c0 -188 -118 -320 -287 -320s-286 132 -286 320s117 320 286 320s287 -132 287 -320z" />
    <glyph glyph-name="Oacute" unicode="&#xd3;" horiz-adv-x="771" 
d="M409 765h-48l52 106h63zM721 355c0 213 -138 367 -336 367s-335 -154 -335 -367c0 -214 137 -367 335 -367s336 153 336 367zM672 355c0 -188 -118 -320 -287 -320s-286 132 -286 320s117 320 286 320s287 -132 287 -320z" />
    <glyph glyph-name="Ocircumflex" unicode="&#xd4;" horiz-adv-x="771" 
d="M385 835l-48 -70h-58l70 107h61h10l70 -107h-58zM385 722c198 0 336 -154 336 -367c0 -214 -138 -367 -336 -367s-335 153 -335 367c0 213 137 367 335 367zM385 35c169 0 287 132 287 320s-118 320 -287 320s-286 -132 -286 -320s117 -320 286 -320z" />
    <glyph glyph-name="Odieresis" unicode="&#xd6;" horiz-adv-x="771" 
d="M307 765c-29 0 -53 24 -53 52c0 29 24 54 53 54c28 0 53 -25 53 -54c0 -28 -25 -52 -53 -52zM463 765c-29 0 -53 24 -53 52c0 29 24 54 53 54c28 0 53 -25 53 -54c0 -28 -25 -52 -53 -52zM721 355c0 213 -138 367 -336 367s-335 -154 -335 -367c0 -214 137 -367 335 -367
s336 153 336 367zM672 355c0 -188 -118 -320 -287 -320s-286 132 -286 320s117 320 286 320s287 -132 287 -320z" />
    <glyph glyph-name="Ograve" unicode="&#xd2;" horiz-adv-x="771" 
d="M361 765l-69 106h65l52 -106h-48zM721 355c0 213 -138 367 -336 367s-335 -154 -335 -367c0 -214 137 -367 335 -367s336 153 336 367zM672 355c0 -188 -118 -320 -287 -320s-286 132 -286 320s117 320 286 320s287 -132 287 -320z" />
    <glyph glyph-name="Ohungarumlaut" unicode="&#x150;" horiz-adv-x="771" 
d="M357 780h-48l52 106h63zM462 780h-48l57 106h63zM721 355c0 213 -138 367 -336 367s-335 -154 -335 -367c0 -214 137 -367 335 -367s336 153 336 367zM672 355c0 -188 -118 -320 -287 -320s-286 132 -286 320s117 320 286 320s287 -132 287 -320z" />
    <glyph glyph-name="Omacron" unicode="&#x14c;" horiz-adv-x="771" 
d="M257 814h256v-46h-256v46zM721 355c0 213 -138 367 -336 367s-335 -154 -335 -367c0 -214 137 -367 335 -367s336 153 336 367zM672 355c0 -188 -118 -320 -287 -320s-286 132 -286 320s117 320 286 320s287 -132 287 -320z" />
    <glyph glyph-name="Oslash" unicode="&#xd8;" horiz-adv-x="751" 
d="M585 646c76 -65 122 -168 122 -291c0 -214 -138 -367 -336 -367c-62 0 -118 15 -166 42l-19 -30h-51l34 55c-83 64 -133 171 -133 300c0 213 137 367 335 367c68 0 128 -18 179 -50l23 38h51zM85 355c0 -111 41 -203 109 -259l330 535c-43 28 -95 44 -153 44
c-169 0 -286 -132 -286 -320zM371 35c169 0 287 132 287 320c0 105 -37 193 -99 250l-329 -534c41 -23 88 -36 141 -36z" />
    <glyph glyph-name="Oslashacute" unicode="&#x1fe;" horiz-adv-x="751" 
d="M467 871l-67 -106h-48l52 106h63zM585 646c76 -65 122 -168 122 -291c0 -214 -138 -367 -336 -367c-62 0 -118 15 -166 42l-19 -30h-51l34 55c-83 64 -133 171 -133 300c0 213 137 367 335 367c68 0 128 -18 179 -50l23 38h51zM85 355c0 -111 41 -203 109 -259l330 535
c-43 28 -95 44 -153 44c-169 0 -286 -132 -286 -320zM371 35c169 0 287 132 287 320c0 105 -37 193 -99 250l-329 -534c41 -23 88 -36 141 -36z" />
    <glyph glyph-name="Otilde" unicode="&#xd5;" horiz-adv-x="771" 
d="M252 789c-2 58 26 88 68 88c50 0 81 -42 121 -42c20 0 33 10 33 42h43c0 -54 -27 -88 -75 -88c-53 0 -83 42 -116 42c-15 0 -31 -8 -31 -42h-43zM721 355c0 213 -138 367 -336 367s-335 -154 -335 -367c0 -214 137 -367 335 -367s336 153 336 367zM672 355
c0 -188 -118 -320 -287 -320s-286 132 -286 320s117 320 286 320s287 -132 287 -320z" />
    <glyph glyph-name="OE" unicode="&#x152;" horiz-adv-x="1163" 
d="M1103 663h-370v-285h337v-45h-337v-288h370v-45h-416v165c-50 -112 -165 -179 -296 -179c-201 0 -346 159 -346 371s145 368 341 368c138 0 255 -76 301 -180v165l416 -1v-46zM392 33c171 0 295 133 295 323c0 189 -124 323 -297 323c-174 0 -298 -136 -298 -321
c0 -187 126 -325 300 -325z" />
    <glyph glyph-name="P" unicode="P" horiz-adv-x="613" 
d="M360 710c135 0 218 -88 218 -220c0 -125 -84 -223 -218 -223h-217v-267h-48v710h265zM352 313c111 0 177 73 177 179c0 107 -67 171 -171 171h-215v-350h209z" />
    <glyph glyph-name="Thorn" unicode="&#xde;" horiz-adv-x="596" 
d="M90 0v710h46v-153h155c287 0 287 -403 0 -403h-155v-154h-46zM136 201h155c227 0 227 310 0 310h-155v-310z" />
    <glyph glyph-name="Q" unicode="Q" horiz-adv-x="771" 
d="M721 355c0 -114 -39 -210 -105 -276l72 -81h-67l-44 49c-53 -38 -118 -59 -192 -59c-198 0 -335 153 -335 367c0 213 137 367 335 367s336 -154 336 -367zM385 35c61 0 115 17 160 48l-122 137h67l93 -105c56 57 89 141 89 240c0 188 -118 320 -287 320
s-286 -132 -286 -320s117 -320 286 -320z" />
    <glyph glyph-name="R" unicode="R" horiz-adv-x="637" 
d="M587 511c0 -104 -60 -178 -155 -198l151 -313h-54l-146 307h-240v-307h-48v710h270c135 0 222 -78 222 -199zM367 354c107 0 169 57 169 155c0 101 -67 155 -171 155h-222v-310h224z" />
    <glyph glyph-name="Racute" unicode="&#x154;" horiz-adv-x="637" 
d="M369 872l-67 -106h-48l52 106h63zM587 511c0 -104 -60 -178 -155 -198l151 -313h-54l-146 307h-240v-307h-48v710h270c135 0 222 -78 222 -199zM367 354c107 0 169 57 169 155c0 101 -67 155 -171 155h-222v-310h224z" />
    <glyph glyph-name="Rcaron" unicode="&#x158;" horiz-adv-x="637" 
d="M242 766l-70 107h58l48 -70l47 70h58l-70 -107h-71zM587 511c0 -104 -60 -178 -155 -198l151 -313h-54l-146 307h-240v-307h-48v710h270c135 0 222 -78 222 -199zM367 354c107 0 169 57 169 155c0 101 -67 155 -171 155h-222v-310h224z" />
    <glyph glyph-name="Rcommaaccent" unicode="&#x156;" horiz-adv-x="637" 
d="M587 511c0 -104 -60 -178 -155 -198l151 -313h-54l-146 307h-240v-307h-48v710h270c135 0 222 -78 222 -199zM367 354c107 0 169 57 169 155c0 101 -67 155 -171 155h-222v-310h224zM335 -27c27 0 49 -19 49 -58c0 -57 -50 -88 -80 -87v23c16 1 39 19 40 43
c-5 -2 -10 -3 -15 -3c-19 0 -37 13 -37 39s18 43 43 43z" />
    <glyph glyph-name="S" unicode="S" horiz-adv-x="565" 
d="M57 531c0 113 89 191 224 191c128 0 209 -70 226 -163l-46 -14c-16 85 -86 134 -181 134c-105 0 -177 -59 -177 -148c0 -74 50 -116 124 -135l126 -32c106 -27 164 -88 164 -181c0 -113 -85 -195 -233 -195c-122 0 -216 56 -235 164l48 14c12 -78 75 -133 186 -133
c109 0 187 53 187 149c0 77 -51 120 -126 139l-123 31c-109 27 -164 90 -164 179z" />
    <glyph glyph-name="Sacute" unicode="&#x15a;" horiz-adv-x="565" 
d="M309 765h-48l52 106h63zM57 531c0 113 89 191 224 191c128 0 209 -70 226 -163l-46 -14c-16 85 -86 134 -181 134c-105 0 -177 -59 -177 -148c0 -74 50 -116 124 -135l126 -32c106 -27 164 -88 164 -181c0 -113 -85 -195 -233 -195c-122 0 -216 56 -235 164l48 14
c12 -78 75 -133 186 -133c109 0 187 53 187 149c0 77 -51 120 -126 139l-123 31c-109 27 -164 90 -164 179z" />
    <glyph glyph-name="Scaron" unicode="&#x160;" horiz-adv-x="565" 
d="M249 765l-70 107h58l48 -70l47 70h58l-70 -107h-71zM353 364c106 -27 164 -88 164 -181c0 -113 -85 -195 -233 -195c-122 0 -216 56 -235 164l48 14c12 -78 75 -133 186 -133c109 0 187 53 187 149c0 77 -51 120 -126 139l-123 31c-109 27 -164 90 -164 179
c0 113 89 191 224 191c128 0 209 -70 226 -163l-46 -14c-16 85 -86 134 -181 134c-105 0 -177 -59 -177 -148c0 -74 50 -116 124 -135z" />
    <glyph glyph-name="Scedilla" unicode="&#x15e;" horiz-adv-x="565" 
d="M517 183c0 -107 -77 -187 -211 -194l-17 -21h38c44 0 60 -36 60 -63c0 -28 -22 -60 -58 -60h-88v39h77c17 0 26 13 26 26c-1 12 -9 23 -26 23h-77v34l18 22c-110 7 -192 62 -210 163l48 14c12 -78 75 -133 186 -133c109 0 187 53 187 149c0 77 -51 120 -126 139l-123 31
c-109 27 -164 90 -164 179c0 113 89 191 224 191c128 0 209 -70 226 -163l-46 -14c-16 85 -86 134 -181 134c-105 0 -177 -59 -177 -148c0 -74 50 -116 124 -135l126 -32c106 -27 164 -88 164 -181z" />
    <glyph glyph-name="Scircumflex" unicode="&#x15c;" horiz-adv-x="565" 
d="M285 835l-48 -70h-58l70 107h61h10l70 -107h-58zM353 364c106 -27 164 -88 164 -181c0 -113 -85 -195 -233 -195c-122 0 -216 56 -235 164l48 14c12 -78 75 -133 186 -133c109 0 187 53 187 149c0 77 -51 120 -126 139l-123 31c-109 27 -164 90 -164 179
c0 113 89 191 224 191c128 0 209 -70 226 -163l-46 -14c-16 85 -86 134 -181 134c-105 0 -177 -59 -177 -148c0 -74 50 -116 124 -135z" />
    <glyph glyph-name="Scommaaccent" unicode="&#x218;" horiz-adv-x="565" 
d="M353 364c106 -27 164 -88 164 -181c0 -113 -85 -195 -233 -195c-122 0 -216 56 -235 164l48 14c12 -78 75 -133 186 -133c109 0 187 53 187 149c0 77 -51 120 -126 139l-123 31c-109 27 -164 90 -164 179c0 113 89 191 224 191c128 0 209 -70 226 -163l-46 -14
c-16 85 -86 134 -181 134c-105 0 -177 -59 -177 -148c0 -74 50 -116 124 -135zM280 -38c27 0 49 -19 49 -58c0 -57 -50 -88 -80 -87v23c16 1 39 19 40 43c-5 -2 -10 -3 -15 -3c-19 0 -37 13 -37 39s18 43 43 43z" />
    <glyph glyph-name="T" unicode="T" horiz-adv-x="525" 
d="M510 710v-44h-223v-666h-48v666h-224v44h272h223z" />
    <glyph glyph-name="Tbar" unicode="&#x166;" horiz-adv-x="525" 
d="M510 666h-223v-232h154v-44h-154v-390h-48v390h-154v44h154v232h-224v44h272h223v-44z" />
    <glyph glyph-name="Tcaron" unicode="&#x164;" horiz-adv-x="525" 
d="M227 765l-70 107h58l48 -70l47 70h58l-70 -107h-71zM510 710v-44h-223v-666h-48v666h-224v44h272h223z" />
    <glyph glyph-name="uni0162" unicode="&#x162;" horiz-adv-x="525" 
d="M287 0h-1l-17 -21h38c44 0 60 -36 60 -63c0 -28 -22 -60 -58 -60h-88v39h77c17 0 26 13 26 26c-1 12 -9 23 -26 23h-77v34l18 22v666h-224v44h272h223v-44h-223v-666z" />
    <glyph glyph-name="uni021A" unicode="&#x21a;" horiz-adv-x="525" 
d="M510 710v-44h-223v-666h-48v666h-224v44h495zM260 -27c27 0 49 -19 49 -58c0 -57 -50 -88 -80 -87v23c16 1 39 19 40 43c-5 -2 -10 -3 -15 -3c-19 0 -37 13 -37 39s18 43 43 43z" />
    <glyph glyph-name="U" unicode="U" horiz-adv-x="687" 
d="M85 234v476h49v-475c1 -163 117 -202 211 -202c103 0 209 51 209 202v475h48v-476c0 -177 -127 -248 -257 -248c-120 0 -260 59 -260 248z" />
    <glyph glyph-name="Uacute" unicode="&#xda;" horiz-adv-x="687" 
d="M368 765h-48l52 106h63zM85 234v476h49v-475c1 -163 117 -202 211 -202c103 0 209 51 209 202v475h48v-476c0 -177 -127 -248 -257 -248c-120 0 -260 59 -260 248z" />
    <glyph glyph-name="Ucircumflex" unicode="&#xdb;" horiz-adv-x="687" 
d="M344 835l-48 -70h-58l70 107h61h10l70 -107h-58zM554 710h48v-476c0 -177 -127 -248 -257 -248c-120 0 -260 59 -260 248v476h49v-475c1 -163 117 -202 211 -202c103 0 209 51 209 202v475z" />
    <glyph glyph-name="Udieresis" unicode="&#xdc;" horiz-adv-x="687" 
d="M266 765c-29 0 -53 24 -53 52c0 29 24 54 53 54c28 0 53 -25 53 -54c0 -28 -25 -52 -53 -52zM422 765c-29 0 -53 24 -53 52c0 29 24 54 53 54c28 0 53 -25 53 -54c0 -28 -25 -52 -53 -52zM85 234v476h49v-475c1 -163 117 -202 211 -202c103 0 209 51 209 202v475h48v-476
c0 -177 -127 -248 -257 -248c-120 0 -260 59 -260 248z" />
    <glyph glyph-name="Ugrave" unicode="&#xd9;" horiz-adv-x="687" 
d="M320 765l-69 106h65l52 -106h-48zM85 234v476h49v-475c1 -163 117 -202 211 -202c103 0 209 51 209 202v475h48v-476c0 -177 -127 -248 -257 -248c-120 0 -260 59 -260 248z" />
    <glyph glyph-name="Uhungarumlaut" unicode="&#x170;" horiz-adv-x="687" 
d="M315 765h-48l52 106h63zM420 765h-48l57 106h63zM85 234v476h49v-475c1 -163 117 -202 211 -202c103 0 209 51 209 202v475h48v-476c0 -177 -127 -248 -257 -248c-120 0 -260 59 -260 248z" />
    <glyph glyph-name="Umacron" unicode="&#x16a;" horiz-adv-x="687" 
d="M216 814h256v-46h-256v46zM85 234v476h49v-475c1 -163 117 -202 211 -202c103 0 209 51 209 202v475h48v-476c0 -177 -127 -248 -257 -248c-120 0 -260 59 -260 248z" />
    <glyph glyph-name="Uogonek" unicode="&#x172;" horiz-adv-x="687" 
d="M554 710h48v-476c0 -167 -113 -240 -236 -247c-59 -41 -28 -87 14 -76v-45c-99 -26 -121 78 -54 121c-116 6 -241 68 -241 247v476h49v-475c1 -163 117 -202 211 -202c103 0 209 51 209 202v475z" />
    <glyph glyph-name="Uring" unicode="&#x16e;" horiz-adv-x="687" 
d="M343 766c-55 0 -98 43 -98 99c0 55 45 100 98 100c55 0 100 -46 100 -100s-45 -99 -100 -99zM344 809c32 0 57 24 57 58c0 30 -25 56 -57 56s-56 -25 -56 -56c0 -34 24 -58 56 -58zM85 234v476h49v-475c1 -163 117 -202 211 -202c103 0 209 51 209 202v475h48v-476
c0 -177 -127 -248 -257 -248c-120 0 -260 59 -260 248z" />
    <glyph glyph-name="Utilde" unicode="&#x168;" horiz-adv-x="687" 
d="M211 789c-2 58 26 88 68 88c50 0 81 -42 121 -42c20 0 33 10 33 42h43c0 -54 -27 -88 -75 -88c-53 0 -83 42 -116 42c-15 0 -31 -8 -31 -42h-43zM85 234v476h49v-475c1 -163 117 -202 211 -202c103 0 209 51 209 202v475h48v-476c0 -177 -127 -248 -257 -248
c-120 0 -260 59 -260 248z" />
    <glyph glyph-name="V" unicode="V" horiz-adv-x="626" 
d="M562 710h49l-272 -710h-51l-273 710h50l249 -644z" />
    <glyph glyph-name="W" unicode="W" horiz-adv-x="965" 
d="M896 710h49l-212 -710h-44l-206 635l-207 -635h-46l-210 710h49l185 -635l204 635h49l203 -638z" />
    <glyph glyph-name="Wacute" unicode="&#x1e82;" horiz-adv-x="965" 
d="M578 871l-67 -106h-48l52 106h63zM896 710h49l-212 -710h-44l-206 635l-207 -635h-46l-210 710h49l185 -635l204 635h49l203 -638z" />
    <glyph glyph-name="Wcircumflex" unicode="&#x174;" horiz-adv-x="965" 
d="M487 835l-48 -70h-58l70 107h61h10l70 -107h-58zM896 710h49l-212 -710h-44l-206 635l-207 -635h-46l-210 710h49l185 -635l204 635h49l203 -638z" />
    <glyph glyph-name="Wdieresis" unicode="&#x1e84;" horiz-adv-x="965" 
d="M409 765c-29 0 -53 24 -53 52c0 29 24 54 53 54c28 0 53 -25 53 -54c0 -28 -25 -52 -53 -52zM565 765c-29 0 -53 24 -53 52c0 29 24 54 53 54c28 0 53 -25 53 -54c0 -28 -25 -52 -53 -52zM896 710h49l-212 -710h-44l-206 635l-207 -635h-46l-210 710h49l185 -635l204 635
h49l203 -638z" />
    <glyph glyph-name="Wgrave" unicode="&#x1e80;" horiz-adv-x="965" 
d="M511 765h-48l-69 106h65zM896 710h49l-212 -710h-44l-206 635l-207 -635h-46l-210 710h49l185 -635l204 635h49l203 -638z" />
    <glyph glyph-name="X" unicode="X" horiz-adv-x="593" 
d="M15 710h56l226 -316l223 316h53l-249 -354l254 -356h-58l-224 315l-222 -315h-55l250 354z" />
    <glyph glyph-name="Y" unicode="Y" horiz-adv-x="546" 
d="M10 710h55l209 -363l209 363h53l-237 -406v-304h-48v304z" />
    <glyph glyph-name="Yacute" unicode="&#xdd;" horiz-adv-x="546" 
d="M298 765h-48l52 106h63zM10 710h55l209 -363l209 363h53l-237 -406v-304h-48v304z" />
    <glyph glyph-name="Ycircumflex" unicode="&#x176;" horiz-adv-x="546" 
d="M274 835l-48 -70h-58l70 107h61h10l70 -107h-58zM483 710h53l-237 -406v-304h-48v304l-241 406h55l209 -363z" />
    <glyph glyph-name="Ydieresis" unicode="&#x178;" horiz-adv-x="546" 
d="M196 765c-29 0 -53 24 -53 52c0 29 24 54 53 54c28 0 53 -25 53 -54c0 -28 -25 -52 -53 -52zM352 765c-29 0 -53 24 -53 52c0 29 24 54 53 54c28 0 53 -25 53 -54c0 -28 -25 -52 -53 -52zM10 710h55l209 -363l209 363h53l-237 -406v-304h-48v304z" />
    <glyph glyph-name="Ygrave" unicode="&#x1ef2;" horiz-adv-x="546" 
d="M250 765l-69 106h65l52 -106h-48zM10 710h55l209 -363l209 363h53l-237 -406v-304h-48v304z" />
    <glyph glyph-name="Z" unicode="Z" horiz-adv-x="566" 
d="M521 710v-46l-416 -618h411v-46h-464l-2 46l416 618h-414v46h469z" />
    <glyph glyph-name="Zacute" unicode="&#x179;" horiz-adv-x="566" 
d="M378 871l-67 -106h-48l52 106h63zM521 710v-46l-416 -618h411v-46h-464l-2 46l416 618h-414v46h469z" />
    <glyph glyph-name="Zcaron" unicode="&#x17d;" horiz-adv-x="566" 
d="M251 765l-70 107h58l48 -70l47 70h58l-70 -107h-71zM521 710v-46l-416 -618h411v-46h-464l-2 46l416 618h-414v46h469z" />
    <glyph glyph-name="Zdotaccent" unicode="&#x17b;" horiz-adv-x="566" 
d="M287 766c-29 0 -53 24 -53 52c0 29 24 54 53 54c28 0 53 -25 53 -54c0 -28 -25 -52 -53 -52zM521 710v-46l-416 -618h411v-46h-464l-2 46l416 618h-414v46h469z" />
    <glyph glyph-name="G.ss01" horiz-adv-x="754" 
d="M357 367h342v-43c0 -211 -129 -335 -317 -335c-198 0 -337 137 -337 361c0 223 137 372 340 372c142 0 253 -75 300 -187l-48 -18c-46 107 -141 157 -252 157c-174 0 -291 -126 -291 -324c0 -195 114 -314 288 -314c159 0 263 101 269 288h-294v43z" />
    <glyph glyph-name="a" unicode="a" 
d="M454 0h-45c-5 19 -8 50 -9 86c-29 -57 -96 -98 -180 -98c-108 0 -175 60 -175 148c0 90 69 152 177 152h178v23c0 106 -63 139 -141 139c-83 0 -132 -38 -155 -88l-37 23c33 68 102 107 193 107c104 0 186 -50 186 -174v-231c0 -28 3 -70 8 -87zM222 29
c121 0 178 87 178 200v17h-171c-88 0 -138 -41 -138 -110c0 -72 55 -107 131 -107z" />
    <glyph glyph-name="aacute" unicode="&#xe1;" 
d="M345 641l-67 -106h-48l52 106h63zM454 0h-45c-5 19 -8 50 -9 86c-29 -57 -96 -98 -180 -98c-108 0 -175 60 -175 148c0 90 69 152 177 152h178v23c0 106 -63 139 -141 139c-83 0 -132 -38 -155 -88l-37 23c33 68 102 107 193 107c104 0 186 -50 186 -174v-231
c0 -28 3 -70 8 -87zM222 29c121 0 178 87 178 200v17h-171c-88 0 -138 -41 -138 -110c0 -72 55 -107 131 -107z" />
    <glyph glyph-name="abreve" unicode="&#x103;" 
d="M254 535c-63 0 -115 45 -115 107h51c0 -32 25 -56 64 -56s64 24 64 56h51c0 -62 -52 -107 -115 -107zM454 0h-45c-5 19 -8 50 -9 86c-29 -57 -96 -98 -180 -98c-108 0 -175 60 -175 148c0 90 69 152 177 152h178v23c0 106 -63 139 -141 139c-83 0 -132 -38 -155 -88
l-37 23c33 68 102 107 193 107c104 0 186 -50 186 -174v-231c0 -28 3 -70 8 -87zM222 29c121 0 178 87 178 200v17h-171c-88 0 -138 -41 -138 -110c0 -72 55 -107 131 -107z" />
    <glyph glyph-name="acircumflex" unicode="&#xe2;" 
d="M254 605l-48 -70h-58l70 107h61h10l70 -107h-58zM454 0h-45c-5 19 -8 50 -9 86c-29 -57 -96 -98 -180 -98c-108 0 -175 60 -175 148c0 90 69 152 177 152h178v23c0 106 -63 139 -141 139c-83 0 -132 -38 -155 -88l-37 23c33 68 102 107 193 107c104 0 186 -50 186 -174
v-231c0 -28 3 -70 8 -87zM222 29c121 0 178 87 178 200v17h-171c-88 0 -138 -41 -138 -110c0 -72 55 -107 131 -107z" />
    <glyph glyph-name="adieresis" unicode="&#xe4;" 
d="M176 535c-29 0 -53 24 -53 52c0 29 24 54 53 54c28 0 53 -25 53 -54c0 -28 -25 -52 -53 -52zM332 535c-29 0 -53 24 -53 52c0 29 24 54 53 54c28 0 53 -25 53 -54c0 -28 -25 -52 -53 -52zM454 0h-45c-5 19 -8 50 -9 86c-29 -57 -96 -98 -180 -98c-108 0 -175 60 -175 148
c0 90 69 152 177 152h178v23c0 106 -63 139 -141 139c-83 0 -132 -38 -155 -88l-37 23c33 68 102 107 193 107c104 0 186 -50 186 -174v-231c0 -28 3 -70 8 -87zM222 29c121 0 178 87 178 200v17h-171c-88 0 -138 -41 -138 -110c0 -72 55 -107 131 -107z" />
    <glyph glyph-name="agrave" unicode="&#xe0;" 
d="M278 535h-48l-69 106h65zM454 0h-45c-5 19 -8 50 -9 86c-29 -57 -96 -98 -180 -98c-108 0 -175 60 -175 148c0 90 69 152 177 152h178v23c0 106 -63 139 -141 139c-83 0 -132 -38 -155 -88l-37 23c33 68 102 107 193 107c104 0 186 -50 186 -174v-231c0 -28 3 -70 8 -87z
M222 29c121 0 178 87 178 200v17h-171c-88 0 -138 -41 -138 -110c0 -72 55 -107 131 -107z" />
    <glyph glyph-name="amacron" unicode="&#x101;" 
d="M382 584v-46h-256v46h256zM454 0h-45c-5 19 -8 50 -9 86c-29 -57 -96 -98 -180 -98c-108 0 -175 60 -175 148c0 90 69 152 177 152h178v23c0 106 -63 139 -141 139c-83 0 -132 -38 -155 -88l-37 23c33 68 102 107 193 107c104 0 186 -50 186 -174v-231c0 -28 3 -70 8 -87
zM222 29c121 0 178 87 178 200v17h-171c-88 0 -138 -41 -138 -110c0 -72 55 -107 131 -107z" />
    <glyph glyph-name="aogonek" unicode="&#x105;" 
d="M454 0c-77 -42 -45 -96 0 -84v-45c-106 -28 -124 94 -38 129h-7c-5 19 -8 50 -9 86c-29 -57 -96 -98 -180 -98c-108 0 -175 60 -175 148c0 90 69 152 177 152h178v23c0 106 -63 139 -141 139c-83 0 -132 -38 -155 -88l-37 23c33 68 102 107 193 107
c104 0 186 -50 186 -174v-231c0 -28 3 -70 8 -87zM222 29c121 0 178 87 178 200v17h-171c-88 0 -138 -41 -138 -110c0 -72 55 -107 131 -107z" />
    <glyph glyph-name="aring" unicode="&#xe5;" 
d="M254 536c-55 0 -98 43 -98 99c0 55 45 100 98 100c55 0 100 -46 100 -100s-45 -99 -100 -99zM255 693c-32 0 -56 -25 -56 -56c0 -34 24 -58 56 -58s57 24 57 58c0 30 -25 56 -57 56zM454 0h-45c-5 19 -8 50 -9 86c-29 -57 -96 -98 -180 -98c-108 0 -175 60 -175 148
c0 90 69 152 177 152h178v23c0 106 -63 139 -141 139c-83 0 -132 -38 -155 -88l-37 23c33 68 102 107 193 107c104 0 186 -50 186 -174v-231c0 -28 3 -70 8 -87zM222 29c121 0 178 87 178 200v17h-171c-88 0 -138 -41 -138 -110c0 -72 55 -107 131 -107z" />
    <glyph glyph-name="aringacute" unicode="&#x1fb;" 
d="M356 774l-67 -106h-48l52 106h63zM454 0h-45c-5 19 -8 50 -9 86c-29 -57 -96 -98 -180 -98c-108 0 -175 60 -175 148c0 90 69 152 177 152h178v23c0 106 -63 139 -141 139c-83 0 -132 -38 -155 -88l-37 23c24 50 67 84 124 99c-15 17 -25 41 -25 67c0 55 45 100 98 100
c55 0 100 -46 100 -100c0 -27 -11 -51 -29 -69c66 -21 111 -72 111 -164v-231c0 -28 3 -70 8 -87zM265 609c-32 0 -56 -25 -56 -56c0 -34 24 -58 56 -58s57 24 57 58c0 30 -25 56 -57 56zM222 29c121 0 178 87 178 200v17h-171c-88 0 -138 -41 -138 -110
c0 -72 55 -107 131 -107z" />
    <glyph glyph-name="atilde" unicode="&#xe3;" 
d="M164 559h-43c-2 58 26 88 68 88c50 0 81 -42 121 -42c20 0 33 10 33 42h43c0 -54 -27 -88 -75 -88c-53 0 -83 42 -116 42c-15 0 -31 -8 -31 -42zM454 0h-45c-5 19 -8 50 -9 86c-29 -57 -96 -98 -180 -98c-108 0 -175 60 -175 148c0 90 69 152 177 152h178v23
c0 106 -63 139 -141 139c-83 0 -132 -38 -155 -88l-37 23c33 68 102 107 193 107c104 0 186 -50 186 -174v-231c0 -28 3 -70 8 -87zM222 29c121 0 178 87 178 200v17h-171c-88 0 -138 -41 -138 -110c0 -72 55 -107 131 -107z" />
    <glyph glyph-name="ae" unicode="&#xe6;" horiz-adv-x="897" 
d="M857 252c1 -10 0 -19 0 -30h-414c7 -127 85 -192 185 -192c81 0 140 43 169 107l40 -18c-43 -89 -124 -131 -212 -131c-97 0 -171 50 -205 133c-23 -87 -98 -133 -190 -133c-91 0 -174 46 -174 140c0 84 61 132 140 132h163c30 0 33 19 33 41c0 102 -64 149 -141 149
c-70 0 -123 -36 -153 -90l-35 22c34 65 108 109 187 109c82 0 152 -43 173 -120c37 75 109 121 204 121c139 0 230 -97 230 -240zM444 261h366c0 118 -78 189 -184 189c-104 0 -175 -69 -182 -189zM395 199v19h-199c-56 0 -93 -34 -93 -89c0 -77 72 -97 131 -97
c123 0 159 85 161 167z" />
    <glyph glyph-name="aeacute" unicode="&#x1fd;" horiz-adv-x="897" 
d="M530 641l-67 -106h-48l52 106h63zM857 252c1 -10 0 -19 0 -30h-414c7 -127 85 -192 185 -192c81 0 140 43 169 107l40 -18c-43 -89 -124 -131 -212 -131c-97 0 -171 50 -205 133c-23 -87 -98 -133 -190 -133c-91 0 -174 46 -174 140c0 84 61 132 140 132h163
c30 0 33 19 33 41c0 102 -64 149 -141 149c-70 0 -123 -36 -153 -90l-35 22c34 65 108 109 187 109c82 0 152 -43 173 -120c37 75 109 121 204 121c139 0 230 -97 230 -240zM444 261h366c0 118 -78 189 -184 189c-104 0 -175 -69 -182 -189zM395 199v19h-199
c-56 0 -93 -34 -93 -89c0 -77 72 -97 131 -97c123 0 159 85 161 167z" />
    <glyph glyph-name="b" unicode="b" horiz-adv-x="583" 
d="M317 492c141 0 221 -110 221 -252s-80 -252 -221 -252c-83 0 -155 39 -190 114l-3 -102h-39v722h43v-341c36 73 106 111 189 111zM314 30c114 0 177 88 177 210c0 121 -63 210 -177 210c-115 0 -178 -89 -178 -210c0 -122 63 -210 178 -210z" />
    <glyph glyph-name="c" unicode="c" horiz-adv-x="538" 
d="M45 240c0 151 92 252 236 252c104 0 177 -53 212 -134l-43 -18c-27 71 -94 111 -171 111c-111 0 -187 -84 -187 -211c0 -126 75 -210 187 -210c77 0 142 40 171 110l43 -18c-42 -91 -122 -134 -214 -134c-142 0 -234 101 -234 252z" />
    <glyph glyph-name="cacute" unicode="&#x107;" horiz-adv-x="538" 
d="M296 535h-48l52 106h63zM45 240c0 151 92 252 236 252c104 0 177 -53 212 -134l-43 -18c-27 71 -94 111 -171 111c-111 0 -187 -84 -187 -211c0 -126 75 -210 187 -210c77 0 142 40 171 110l43 -18c-42 -91 -122 -134 -214 -134c-142 0 -234 101 -234 252z" />
    <glyph glyph-name="ccaron" unicode="&#x10d;" horiz-adv-x="538" 
d="M236 535l-70 107h58l48 -70l47 70h58l-70 -107h-71zM279 30c77 0 142 40 171 110l43 -18c-42 -91 -122 -134 -214 -134c-142 0 -234 101 -234 252s92 252 236 252c104 0 177 -53 212 -134l-43 -18c-27 71 -94 111 -171 111c-111 0 -187 -84 -187 -211
c0 -126 75 -210 187 -210z" />
    <glyph glyph-name="ccedilla" unicode="&#xe7;" horiz-adv-x="538" 
d="M279 30c77 0 142 40 171 110l43 -18c-39 -85 -112 -129 -197 -134l-16 -19h38c44 0 60 -36 60 -63c0 -28 -22 -60 -58 -60h-88v39h77c17 0 26 13 26 26c-1 12 -9 23 -26 23h-77v34l18 21c-125 13 -205 111 -205 251c0 151 92 252 236 252c104 0 177 -53 212 -134l-43 -18
c-27 71 -94 111 -171 111c-111 0 -187 -84 -187 -211c0 -126 75 -210 187 -210z" />
    <glyph glyph-name="ccircumflex" unicode="&#x109;" horiz-adv-x="538" 
d="M272 605l-48 -70h-58l70 107h61h10l70 -107h-58zM279 30c77 0 142 40 171 110l43 -18c-42 -91 -122 -134 -214 -134c-142 0 -234 101 -234 252s92 252 236 252c104 0 177 -53 212 -134l-43 -18c-27 71 -94 111 -171 111c-111 0 -187 -84 -187 -211
c0 -126 75 -210 187 -210z" />
    <glyph glyph-name="cdotaccent" unicode="&#x10b;" horiz-adv-x="538" 
d="M272 536c-29 0 -53 24 -53 52c0 29 24 54 53 54c28 0 53 -25 53 -54c0 -28 -25 -52 -53 -52zM45 240c0 151 92 252 236 252c104 0 177 -53 212 -134l-43 -18c-27 71 -94 111 -171 111c-111 0 -187 -84 -187 -211c0 -126 75 -210 187 -210c77 0 142 40 171 110l43 -18
c-42 -91 -122 -134 -214 -134c-142 0 -234 101 -234 252z" />
    <glyph glyph-name="d" unicode="d" horiz-adv-x="580" 
d="M508 0h-46c-5 36 -7 66 -8 98c-36 -73 -106 -110 -188 -110c-141 0 -221 110 -221 252s80 252 221 252c83 0 153 -38 189 -111v341h45v-619c1 -38 4 -79 8 -103zM269 30c115 0 178 88 178 210c0 121 -63 210 -178 210c-114 0 -177 -89 -177 -210c0 -122 63 -210 177 -210
z" />
    <glyph glyph-name="eth" unicode="&#xf0;" horiz-adv-x="578" 
d="M355 652c118 -101 183 -255 183 -387c0 -164 -99 -277 -253 -277c-162 0 -245 124 -245 252c0 147 110 250 249 250c69 0 128 -25 170 -69c-38 105 -90 162 -135 200l-72 -71l-33 31l68 68c-21 18 -61 43 -100 63l26 36c35 -19 79 -45 106 -67l62 60l33 -33zM287 34
c132 0 204 103 204 210c0 116 -84 199 -198 199c-118 0 -206 -89 -206 -207c0 -110 76 -202 200 -202z" />
    <glyph glyph-name="dcaron" unicode="&#x10f;" horiz-adv-x="676" 
d="M495 722v-619c1 -38 4 -79 8 -103h-46c-5 36 -7 66 -8 98c-36 -73 -106 -110 -188 -110c-141 0 -221 110 -221 252s80 252 221 252c83 0 153 -38 189 -111v341h45zM591 722c13 0 26 -9 25 -29l-11 -154h-28l-12 154c-1 20 13 29 26 29zM264 30c115 0 178 88 178 210
c0 121 -63 210 -178 210c-114 0 -177 -89 -177 -210c0 -122 63 -210 177 -210z" />
    <glyph glyph-name="dcroat" unicode="&#x111;" horiz-adv-x="580" 
d="M570 573h-70v-470c1 -38 4 -79 8 -103h-46c-5 36 -7 66 -8 98c-36 -73 -106 -110 -188 -110c-141 0 -221 110 -221 252s80 252 221 252c83 0 153 -38 189 -111v192h-182v44h182v105h45v-105h70v-44zM269 30c115 0 178 88 178 210c0 121 -63 210 -178 210
c-114 0 -177 -89 -177 -210c0 -122 63 -210 177 -210z" />
    <glyph glyph-name="e" unicode="e" horiz-adv-x="545" 
d="M500 241v-30h-407c9 -122 84 -181 180 -181c81 0 139 43 167 107l40 -18c-41 -85 -117 -131 -210 -131c-135 0 -225 98 -225 249c0 147 86 255 229 255c135 0 226 -97 226 -251zM273 450c-105 0 -176 -75 -181 -200h360c-4 132 -76 200 -179 200z" />
    <glyph glyph-name="eacute" unicode="&#xe9;" horiz-adv-x="545" 
d="M363 641l-67 -106h-48l52 106h63zM500 241v-30h-407c9 -122 84 -181 180 -181c81 0 139 43 167 107l40 -18c-41 -85 -117 -131 -210 -131c-135 0 -225 98 -225 249c0 147 86 255 229 255c135 0 226 -97 226 -251zM273 450c-105 0 -176 -75 -181 -200h360
c-4 132 -76 200 -179 200z" />
    <glyph glyph-name="ebreve" unicode="&#x115;" horiz-adv-x="545" 
d="M272 535c-63 0 -115 45 -115 107h51c0 -32 25 -56 64 -56s64 24 64 56h51c0 -62 -52 -107 -115 -107zM500 241v-30h-407c9 -122 84 -181 180 -181c81 0 139 43 167 107l40 -18c-41 -85 -117 -131 -210 -131c-135 0 -225 98 -225 249c0 147 86 255 229 255
c135 0 226 -97 226 -251zM273 450c-105 0 -176 -75 -181 -200h360c-4 132 -76 200 -179 200z" />
    <glyph glyph-name="ecaron" unicode="&#x11b;" horiz-adv-x="545" 
d="M236 535l-70 107h58l48 -70l47 70h58l-70 -107h-71zM500 241v-30h-407c9 -122 84 -181 180 -181c81 0 139 43 167 107l40 -18c-41 -85 -117 -131 -210 -131c-135 0 -225 98 -225 249c0 147 86 255 229 255c135 0 226 -97 226 -251zM273 450c-105 0 -176 -75 -181 -200
h360c-4 132 -76 200 -179 200z" />
    <glyph glyph-name="ecircumflex" unicode="&#xea;" horiz-adv-x="545" 
d="M272 605l-48 -70h-58l70 107h61h10l70 -107h-58zM500 241v-30h-407c9 -122 84 -181 180 -181c81 0 139 43 167 107l40 -18c-41 -85 -117 -131 -210 -131c-135 0 -225 98 -225 249c0 147 86 255 229 255c135 0 226 -97 226 -251zM273 450c-105 0 -176 -75 -181 -200h360
c-4 132 -76 200 -179 200z" />
    <glyph glyph-name="edieresis" unicode="&#xeb;" horiz-adv-x="545" 
d="M199 531c-29 0 -53 24 -53 52c0 29 24 54 53 54c28 0 53 -25 53 -54c0 -28 -25 -52 -53 -52zM355 531c-29 0 -53 24 -53 52c0 29 24 54 53 54c28 0 53 -25 53 -54c0 -28 -25 -52 -53 -52zM500 241v-30h-407c9 -122 84 -181 180 -181c81 0 139 43 167 107l40 -18
c-41 -85 -117 -131 -210 -131c-135 0 -225 98 -225 249c0 147 86 255 229 255c135 0 226 -97 226 -251zM273 450c-105 0 -176 -75 -181 -200h360c-4 132 -76 200 -179 200z" />
    <glyph glyph-name="edotaccent" unicode="&#x117;" horiz-adv-x="545" 
d="M272 536c-29 0 -53 24 -53 52c0 29 24 54 53 54c28 0 53 -25 53 -54c0 -28 -25 -52 -53 -52zM500 241v-30h-407c9 -122 84 -181 180 -181c81 0 139 43 167 107l40 -18c-41 -85 -117 -131 -210 -131c-135 0 -225 98 -225 249c0 147 86 255 229 255c135 0 226 -97 226 -251
zM273 450c-105 0 -176 -75 -181 -200h360c-4 132 -76 200 -179 200z" />
    <glyph glyph-name="egrave" unicode="&#xe8;" horiz-adv-x="545" 
d="M296 535h-48l-69 106h65zM500 241v-30h-407c9 -122 84 -181 180 -181c81 0 139 43 167 107l40 -18c-41 -85 -117 -131 -210 -131c-135 0 -225 98 -225 249c0 147 86 255 229 255c135 0 226 -97 226 -251zM273 450c-105 0 -176 -75 -181 -200h360c-4 132 -76 200 -179 200
z" />
    <glyph glyph-name="emacron" unicode="&#x113;" horiz-adv-x="545" 
d="M400 584v-46h-256v46h256zM500 241v-30h-407c9 -122 84 -181 180 -181c81 0 139 43 167 107l40 -18c-41 -85 -117 -131 -210 -131c-135 0 -225 98 -225 249c0 147 86 255 229 255c135 0 226 -97 226 -251zM273 450c-105 0 -176 -75 -181 -200h360
c-4 132 -76 200 -179 200z" />
    <glyph glyph-name="eogonek" unicode="&#x119;" horiz-adv-x="545" 
d="M500 241v-30h-407c9 -122 84 -181 180 -181c81 0 139 43 167 107l40 -18c-37 -76 -102 -121 -183 -130c-64 -41 -33 -89 10 -78v-45c-100 -26 -122 81 -51 122c-127 7 -211 103 -211 249c0 147 86 255 229 255c135 0 226 -97 226 -251zM273 450
c-105 0 -176 -75 -181 -200h360c-4 132 -76 200 -179 200z" />
    <glyph glyph-name="f" unicode="f" horiz-adv-x="289" 
d="M264 676c-87 14 -118 -21 -118 -88v-108h113v-38h-113v-442h-46v442h-75v38h75v108c0 98 62 134 124 134c7 0 17 0 40 -5v-41z" />
    <glyph glyph-name="g" unicode="g" 
d="M346 52c97 0 153 -51 153 -128c0 -103 -98 -137 -225 -139c-82 -1 -234 10 -234 127c0 47 28 89 71 109c-28 12 -47 35 -47 67c0 37 20 69 65 78c-42 33 -66 82 -66 140c0 105 80 186 197 186c44 0 82 -11 113 -31c22 36 61 53 113 50v-46c-38 4 -64 -7 -83 -27
c35 -33 55 -80 55 -132c0 -104 -80 -183 -197 -183c-35 0 -67 7 -95 20c-44 -1 -60 -19 -60 -46c0 -23 12 -45 54 -45h186zM107 305c0 -81 58 -143 154 -142c100 1 153 65 153 142c0 81 -57 147 -153 147s-154 -66 -154 -147zM263 -174c104 0 190 16 190 98
c0 53 -37 86 -107 86h-164c-69 -1 -100 -45 -100 -90c0 -88 117 -94 181 -94z" />
    <glyph glyph-name="gbreve" unicode="&#x11f;" 
d="M278 535c-63 0 -115 45 -115 107h51c0 -32 25 -56 64 -56s64 24 64 56h51c0 -62 -52 -107 -115 -107zM346 52c97 0 153 -51 153 -128c0 -103 -98 -137 -225 -139c-82 -1 -234 10 -234 127c0 47 28 89 71 109c-28 12 -47 35 -47 67c0 37 20 69 65 78
c-42 33 -66 82 -66 140c0 105 80 186 197 186c44 0 82 -11 113 -31c22 36 61 53 113 50v-46c-38 4 -64 -7 -83 -27c35 -33 55 -80 55 -132c0 -104 -80 -183 -197 -183c-35 0 -67 7 -95 20c-44 -1 -60 -19 -60 -46c0 -23 12 -45 54 -45h186zM107 305c0 -81 58 -143 154 -142
c100 1 153 65 153 142c0 81 -57 147 -153 147s-154 -66 -154 -147zM263 -174c104 0 190 16 190 98c0 53 -37 86 -107 86h-164c-69 -1 -100 -45 -100 -90c0 -88 117 -94 181 -94z" />
    <glyph glyph-name="gcircumflex" unicode="&#x11d;" 
d="M253 605l-48 -70h-58l70 107h61h10l70 -107h-58zM346 52c97 0 153 -51 153 -128c0 -103 -98 -137 -225 -139c-82 -1 -234 10 -234 127c0 47 28 89 71 109c-28 12 -47 35 -47 67c0 37 20 69 65 78c-42 33 -66 82 -66 140c0 105 80 186 197 186c44 0 82 -11 113 -31
c22 36 61 53 113 50v-46c-38 4 -64 -7 -83 -27c35 -33 55 -80 55 -132c0 -104 -80 -183 -197 -183c-35 0 -67 7 -95 20c-44 -1 -60 -19 -60 -46c0 -23 12 -45 54 -45h186zM107 305c0 -81 58 -143 154 -142c100 1 153 65 153 142c0 81 -57 147 -153 147s-154 -66 -154 -147z
M263 -174c104 0 190 16 190 98c0 53 -37 86 -107 86h-164c-69 -1 -100 -45 -100 -90c0 -88 117 -94 181 -94z" />
    <glyph glyph-name="gcommaaccent" unicode="&#x123;" 
d="M369 641l-67 -106h-48l52 106h63zM346 52c97 0 153 -51 153 -128c0 -103 -98 -137 -225 -139c-82 -1 -234 10 -234 127c0 47 28 89 71 109c-28 12 -47 35 -47 67c0 37 20 69 65 78c-42 33 -66 82 -66 140c0 105 80 186 197 186c44 0 82 -11 113 -31c22 36 61 53 113 50
v-46c-38 4 -64 -7 -83 -27c35 -33 55 -80 55 -132c0 -104 -80 -183 -197 -183c-35 0 -67 7 -95 20c-44 -1 -60 -19 -60 -46c0 -23 12 -45 54 -45h186zM107 305c0 -81 58 -143 154 -142c100 1 153 65 153 142c0 81 -57 147 -153 147s-154 -66 -154 -147zM263 -174
c104 0 190 16 190 98c0 53 -37 86 -107 86h-164c-69 -1 -100 -45 -100 -90c0 -88 117 -94 181 -94z" />
    <glyph glyph-name="gdotaccent" unicode="&#x121;" 
d="M278 536c-29 0 -53 24 -53 52c0 29 24 54 53 54c28 0 53 -25 53 -54c0 -28 -25 -52 -53 -52zM346 52c97 0 153 -51 153 -128c0 -103 -98 -137 -225 -139c-82 -1 -234 10 -234 127c0 47 28 89 71 109c-28 12 -47 35 -47 67c0 37 20 69 65 78c-42 33 -66 82 -66 140
c0 105 80 186 197 186c44 0 82 -11 113 -31c22 36 61 53 113 50v-46c-38 4 -64 -7 -83 -27c35 -33 55 -80 55 -132c0 -104 -80 -183 -197 -183c-35 0 -67 7 -95 20c-44 -1 -60 -19 -60 -46c0 -23 12 -45 54 -45h186zM107 305c0 -81 58 -143 154 -142c100 1 153 65 153 142
c0 81 -57 147 -153 147s-154 -66 -154 -147zM263 -174c104 0 190 16 190 98c0 53 -37 86 -107 86h-164c-69 -1 -100 -45 -100 -90c0 -88 117 -94 181 -94z" />
    <glyph glyph-name="h" unicode="h" horiz-adv-x="574" 
d="M303 492c98 0 196 -46 196 -209v-283h-46v277c0 131 -62 173 -155 173c-98 0 -167 -80 -167 -183v-266h-46v721h46v-325c30 57 94 95 172 95z" />
    <glyph glyph-name="hbar" unicode="&#x127;" horiz-adv-x="574" 
d="M303 492c98 0 196 -46 196 -209v-283h-46v277c0 131 -62 173 -155 173c-98 0 -167 -80 -167 -183v-266h-46v581h-65v30h65v110h46v-110h156v-30h-156v-185c30 57 94 95 172 95z" />
    <glyph glyph-name="i" unicode="i" horiz-adv-x="217" 
d="M108 612c-28 0 -48 20 -48 48s20 50 48 50s49 -22 49 -50s-21 -48 -49 -48zM86 480h46v-480h-46v480z" />
    <glyph glyph-name="dotlessi" unicode="&#x131;" horiz-adv-x="164" 
d="M59 480h46v-480h-46v480z" />
    <glyph glyph-name="iacute" unicode="&#xed;" horiz-adv-x="164" 
d="M106 535h-48l52 106h63zM59 480h46v-480h-46v480z" />
    <glyph glyph-name="icircumflex" unicode="&#xee;" horiz-adv-x="164" 
d="M117 642l70 -107h-58l-47 70l-48 -70h-58l70 107h61h10zM59 0v480h46v-480h-46z" />
    <glyph glyph-name="idieresis" unicode="&#xef;" horiz-adv-x="164" 
d="M4 535c-29 0 -53 24 -53 52c0 29 24 54 53 54c28 0 53 -25 53 -54c0 -28 -25 -52 -53 -52zM160 535c-29 0 -53 24 -53 52c0 29 24 54 53 54c28 0 53 -25 53 -54c0 -28 -25 -52 -53 -52zM59 480h46v-480h-46v480z" />
    <glyph glyph-name="i.loclTRK" horiz-adv-x="164" 
d="M82 536c-29 0 -53 24 -53 52c0 29 24 54 53 54c28 0 53 -25 53 -54c0 -28 -25 -52 -53 -52zM59 480h46v-480h-46v480z" />
    <glyph glyph-name="igrave" unicode="&#xec;" horiz-adv-x="164" 
d="M58 535l-69 106h65l52 -106h-48zM59 480h46v-480h-46v480z" />
    <glyph glyph-name="imacron" unicode="&#x12b;" horiz-adv-x="164" 
d="M-46 584h256v-46h-256v46zM59 480h46v-480h-46v480z" />
    <glyph glyph-name="iogonek" unicode="&#x12f;" horiz-adv-x="164" 
d="M82 642c28 0 53 -25 53 -54c0 -28 -25 -52 -53 -52c-29 0 -53 24 -53 52c0 29 24 54 53 54zM59 0v480h46v-480c-77 -42 -45 -96 0 -84v-45c-106 -28 -124 94 -38 129h-8z" />
    <glyph glyph-name="itilde" unicode="&#x129;" horiz-adv-x="164" 
d="M-51 559c-2 58 26 88 68 88c50 0 81 -42 121 -42c20 0 33 10 33 42h43c0 -54 -27 -88 -75 -88c-53 0 -83 42 -116 42c-15 0 -31 -8 -31 -42h-43zM59 480h46v-480h-46v480z" />
    <glyph glyph-name="j" unicode="j" horiz-adv-x="241" 
d="M122 612c-28 0 -48 20 -48 48s20 50 48 50s49 -22 49 -50s-21 -48 -49 -48zM-45 -199l10 42c93 -28 134 8 134 83v554h46v-554c0 -102 -60 -166 -190 -125z" />
    <glyph glyph-name="uni0237" unicode="&#x237;" horiz-adv-x="219" 
d="M-35 -199l10 42c93 -28 134 8 134 83v554h46v-554c0 -102 -60 -166 -190 -125z" />
    <glyph glyph-name="jcircumflex" unicode="&#x135;" horiz-adv-x="219" 
d="M167 642l70 -107h-58l-47 70l-48 -70h-58l70 107h61h10zM109 -74v554h46v-554c0 -102 -60 -166 -190 -125l10 42c93 -28 134 8 134 83z" />
    <glyph glyph-name="k" unicode="k" horiz-adv-x="468" 
d="M131 0h-46v722h46v-511l261 269h59l-198 -205l200 -275h-53l-178 244l-91 -94v-150z" />
    <glyph glyph-name="kcommaaccent" unicode="&#x137;" horiz-adv-x="468" 
d="M253 275l200 -275h-53l-178 244l-91 -94v-150h-46v722h46v-511l261 269h59zM245 -27c27 0 49 -19 49 -58c0 -57 -50 -88 -80 -87v23c16 1 39 19 40 43c-5 -2 -10 -3 -15 -3c-19 0 -37 13 -37 39s18 43 43 43z" />
    <glyph glyph-name="l" unicode="l" horiz-adv-x="216" 
d="M85 0v722h46v-722h-46z" />
    <glyph glyph-name="lacute" unicode="&#x13a;" horiz-adv-x="216" 
d="M132 766h-48l52 106h63zM85 0v722h46v-722h-46z" />
    <glyph glyph-name="lcaron" unicode="&#x13e;" horiz-adv-x="216" 
d="M85 0v722h46v-722h-46z" />
    <glyph glyph-name="lcommaaccent" unicode="&#x13c;" horiz-adv-x="216" 
d="M131 722v-722h-46v722h46zM107 -27c27 0 49 -19 49 -58c0 -57 -50 -88 -80 -87v23c16 1 39 19 40 43c-5 -2 -10 -3 -15 -3c-19 0 -37 13 -37 39s18 43 43 43z" />
    <glyph glyph-name="ldot" unicode="&#x140;" horiz-adv-x="324" 
d="M85 0v722h46v-722h-46zM229 307c-29 0 -54 24 -54 54s24 54 54 54s55 -24 55 -54s-25 -54 -55 -54z" />
    <glyph glyph-name="lslash" unicode="&#x142;" horiz-adv-x="217" 
d="M197 450v-42l-60 -29v-379h-46v357l-71 -34v42l71 34v323h46v-301z" />
    <glyph glyph-name="m" unicode="m" horiz-adv-x="837" 
d="M592 492c99 0 170 -65 170 -177v-315h-44v309c0 88 -50 142 -130 142c-91 0 -141 -71 -141 -143v-308h-45v310c0 88 -50 142 -130 142c-91 0 -141 -71 -141 -143v-309h-46v480h42l3 -61c28 47 84 73 146 73c73 0 130 -37 153 -97c25 60 88 97 163 97z" />
    <glyph glyph-name="n" unicode="n" horiz-adv-x="559" 
d="M300 492c91 0 184 -49 184 -199v-293h-46v293c0 120 -72 157 -145 157c-108 0 -162 -80 -162 -174v-275h-46v479h41l3 -75c29 52 92 87 171 87z" />
    <glyph glyph-name="nacute" unicode="&#x144;" horiz-adv-x="559" 
d="M374 641l-67 -106h-48l52 106h63zM300 492c91 0 184 -49 184 -199v-293h-46v293c0 120 -72 157 -145 157c-108 0 -162 -80 -162 -174v-275h-46v479h41l3 -75c29 52 92 87 171 87z" />
    <glyph glyph-name="ncaron" unicode="&#x148;" horiz-adv-x="559" 
d="M247 535l-70 107h58l48 -70l47 70h58l-70 -107h-71zM300 492c91 0 184 -49 184 -199v-293h-46v293c0 120 -72 157 -145 157c-108 0 -162 -80 -162 -174v-275h-46v479h41l3 -75c29 52 92 87 171 87z" />
    <glyph glyph-name="ncommaaccent" unicode="&#x146;" horiz-adv-x="559" 
d="M300 492c91 0 184 -49 184 -199v-293h-46v293c0 120 -72 157 -145 157c-108 0 -162 -80 -162 -174v-275h-46v479h41l3 -75c29 52 92 87 171 87zM282 -27c27 0 49 -19 49 -58c0 -57 -50 -88 -80 -87v23c16 1 39 19 40 43c-5 -2 -10 -3 -15 -3c-19 0 -37 13 -37 39
s18 43 43 43z" />
    <glyph glyph-name="eng" unicode="&#x14b;" horiz-adv-x="550" 
d="M295 492c91 0 185 -49 185 -199v-338c0 -76 -55 -126 -141 -102v32c52 -12 94 7 94 76v332c0 120 -72 157 -145 157c-108 0 -162 -80 -162 -174v-275h-46v479h41l3 -76c29 52 94 88 171 88z" />
    <glyph glyph-name="ntilde" unicode="&#xf1;" horiz-adv-x="559" 
d="M193 559h-43c-2 58 26 88 68 88c50 0 81 -42 121 -42c20 0 33 10 33 42h43c0 -54 -27 -88 -75 -88c-53 0 -83 42 -116 42c-15 0 -31 -8 -31 -42zM300 492c91 0 184 -49 184 -199v-293h-46v293c0 120 -72 157 -145 157c-108 0 -162 -80 -162 -174v-275h-46v479h41l3 -75
c29 52 92 87 171 87z" />
    <glyph glyph-name="o" unicode="o" horiz-adv-x="566" 
d="M45 240c0 138 95 252 238 252s238 -114 238 -252s-95 -252 -238 -252s-238 114 -238 252zM93 240c0 -119 74 -210 190 -210s190 91 190 210s-74 210 -190 210s-190 -91 -190 -210z" />
    <glyph glyph-name="oacute" unicode="&#xf3;" horiz-adv-x="566" 
d="M307 535h-48l52 106h63zM45 240c0 138 95 252 238 252s238 -114 238 -252s-95 -252 -238 -252s-238 114 -238 252zM93 240c0 -119 74 -210 190 -210s190 91 190 210s-74 210 -190 210s-190 -91 -190 -210z" />
    <glyph glyph-name="ocircumflex" unicode="&#xf4;" horiz-adv-x="566" 
d="M283 605l-48 -70h-58l70 107h61h10l70 -107h-58zM283 492c143 0 238 -114 238 -252s-95 -252 -238 -252s-238 114 -238 252s95 252 238 252zM283 30c116 0 190 91 190 210s-74 210 -190 210s-190 -91 -190 -210s74 -210 190 -210z" />
    <glyph glyph-name="odieresis" unicode="&#xf6;" horiz-adv-x="566" 
d="M205 535c-29 0 -53 24 -53 52c0 29 24 54 53 54c28 0 53 -25 53 -54c0 -28 -25 -52 -53 -52zM361 535c-29 0 -53 24 -53 52c0 29 24 54 53 54c28 0 53 -25 53 -54c0 -28 -25 -52 -53 -52zM45 240c0 138 95 252 238 252s238 -114 238 -252s-95 -252 -238 -252
s-238 114 -238 252zM93 240c0 -119 74 -210 190 -210s190 91 190 210s-74 210 -190 210s-190 -91 -190 -210z" />
    <glyph glyph-name="ograve" unicode="&#xf2;" horiz-adv-x="566" 
d="M259 535l-69 106h65l52 -106h-48zM45 240c0 138 95 252 238 252s238 -114 238 -252s-95 -252 -238 -252s-238 114 -238 252zM93 240c0 -119 74 -210 190 -210s190 91 190 210s-74 210 -190 210s-190 -91 -190 -210z" />
    <glyph glyph-name="ohungarumlaut" unicode="&#x151;" horiz-adv-x="566" 
d="M254 550h-48l52 106h63zM359 550h-48l57 106h63zM45 240c0 138 95 252 238 252s238 -114 238 -252s-95 -252 -238 -252s-238 114 -238 252zM93 240c0 -119 74 -210 190 -210s190 91 190 210s-74 210 -190 210s-190 -91 -190 -210z" />
    <glyph glyph-name="omacron" unicode="&#x14d;" horiz-adv-x="566" 
d="M155 584h256v-46h-256v46zM45 240c0 138 95 252 238 252s238 -114 238 -252s-95 -252 -238 -252s-238 114 -238 252zM93 240c0 -119 74 -210 190 -210s190 91 190 210s-74 210 -190 210s-190 -91 -190 -210z" />
    <glyph glyph-name="oslash" unicode="&#xf8;" horiz-adv-x="566" 
d="M431 441c57 -46 90 -119 90 -201c0 -138 -95 -252 -238 -252c-43 0 -81 10 -114 28l-42 -67h-44l54 88c-58 46 -92 120 -92 203c0 138 95 252 238 252c44 0 83 -11 117 -30l34 56h45zM93 240c0 -68 24 -128 67 -166l217 352c-27 15 -58 24 -94 24
c-116 0 -190 -91 -190 -210zM283 30c116 0 190 91 190 210c0 67 -24 125 -65 163l-217 -350c26 -15 57 -23 92 -23z" />
    <glyph glyph-name="oslashacute" unicode="&#x1ff;" horiz-adv-x="566" 
d="M374 641l-67 -106h-48l52 106h63zM431 441c57 -46 90 -119 90 -201c0 -138 -95 -252 -238 -252c-43 0 -81 10 -114 28l-42 -67h-44l54 88c-58 46 -92 120 -92 203c0 138 95 252 238 252c44 0 83 -11 117 -30l34 56h45zM93 240c0 -68 24 -128 67 -166l217 352
c-27 15 -58 24 -94 24c-116 0 -190 -91 -190 -210zM283 30c116 0 190 91 190 210c0 67 -24 125 -65 163l-217 -350c26 -15 57 -23 92 -23z" />
    <glyph glyph-name="otilde" unicode="&#xf5;" horiz-adv-x="566" 
d="M150 559c-2 58 26 88 68 88c50 0 81 -42 121 -42c20 0 33 10 33 42h43c0 -54 -27 -88 -75 -88c-53 0 -83 42 -116 42c-15 0 -31 -8 -31 -42h-43zM45 240c0 138 95 252 238 252s238 -114 238 -252s-95 -252 -238 -252s-238 114 -238 252zM93 240c0 -119 74 -210 190 -210
s190 91 190 210s-74 210 -190 210s-190 -91 -190 -210z" />
    <glyph glyph-name="oe" unicode="&#x153;" horiz-adv-x="971" 
d="M927 241v-30h-407c9 -122 84 -181 180 -181c81 0 139 43 167 107l40 -18c-41 -85 -117 -131 -210 -131c-99 0 -174 53 -206 140c-32 -83 -108 -140 -209 -140c-143 0 -238 114 -238 252s95 252 238 252c100 0 177 -56 212 -138c33 84 105 138 207 138
c135 0 226 -97 226 -251zM282 30c116 0 190 91 190 210s-74 210 -190 210s-190 -91 -190 -210s74 -210 190 -210zM520 250h360c0 129 -77 200 -180 200c-106 0 -180 -79 -180 -200z" />
    <glyph glyph-name="p" unicode="p" horiz-adv-x="582" 
d="M316 492c141 0 221 -110 221 -252s-80 -252 -221 -252c-83 0 -153 38 -189 111v-302h-42v683h38l3 -102c35 75 107 114 190 114zM313 30c114 0 177 89 177 210c0 122 -63 210 -177 210c-115 0 -178 -88 -178 -210c0 -121 63 -210 178 -210z" />
    <glyph glyph-name="thorn" unicode="&#xfe;" horiz-adv-x="575" 
d="M314 492c141 0 221 -110 221 -252s-80 -252 -221 -252c-83 0 -153 38 -189 111v-302h-45v913h45v-329c36 73 106 111 189 111zM311 30c114 0 177 89 177 210c0 122 -63 210 -177 210c-115 0 -178 -88 -178 -210c0 -121 63 -210 178 -210z" />
    <glyph glyph-name="q" unicode="q" horiz-adv-x="583" 
d="M459 480h39v-683h-43v302c-36 -73 -106 -111 -189 -111c-141 0 -221 110 -221 252s80 252 221 252c83 0 155 -39 190 -114zM269 30c115 0 178 89 178 210c0 122 -63 210 -178 210c-114 0 -177 -88 -177 -210c0 -121 63 -210 177 -210z" />
    <glyph glyph-name="r" unicode="r" horiz-adv-x="336" 
d="M125 414c27 58 102 84 184 66v-43c-119 26 -183 -41 -183 -140v-297h-46v480h43z" />
    <glyph glyph-name="racute" unicode="&#x155;" horiz-adv-x="336" 
d="M193 648l-67 -106h-48l52 106h63zM125 414c27 58 102 84 184 66v-43c-119 26 -183 -41 -183 -140v-297h-46v480h43z" />
    <glyph glyph-name="rcaron" unicode="&#x159;" horiz-adv-x="336" 
d="M137 542h-61h-10l-70 107h58l48 -70l47 70h58zM125 414c27 58 102 84 184 66v-43c-119 26 -183 -41 -183 -140v-297h-46v480h43z" />
    <glyph glyph-name="rcommaaccent" unicode="&#x157;" horiz-adv-x="336" 
d="M125 414c27 58 102 84 184 66v-43c-119 26 -183 -41 -183 -140v-297h-46v480h43zM102 -27c27 0 49 -19 49 -58c0 -57 -50 -88 -80 -87v23c16 1 39 19 40 43c-5 -2 -10 -3 -15 -3c-19 0 -37 13 -37 39s18 43 43 43z" />
    <glyph glyph-name="s" unicode="s" horiz-adv-x="428" 
d="M85 115c9 -51 55 -85 128 -85c59 0 125 21 125 95c0 52 -40 76 -83 87l-79 21c-79 21 -120 65 -120 128c0 72 59 131 156 131c84 0 154 -42 162 -114l-40 -10c-8 52 -58 82 -121 82c-71 0 -113 -39 -113 -90c0 -50 37 -74 85 -87l79 -21c76 -20 119 -65 119 -127
c0 -84 -65 -137 -170 -137c-92 0 -159 47 -168 118z" />
    <glyph glyph-name="sacute" unicode="&#x15b;" horiz-adv-x="428" 
d="M238 565h-48l52 106h63zM85 115c9 -51 55 -85 128 -85c59 0 125 21 125 95c0 52 -40 76 -83 87l-79 21c-79 21 -120 65 -120 128c0 72 59 131 156 131c84 0 154 -42 162 -114l-40 -10c-8 52 -58 82 -121 82c-71 0 -113 -39 -113 -90c0 -50 37 -74 85 -87l79 -21
c76 -20 119 -65 119 -127c0 -84 -65 -137 -170 -137c-92 0 -159 47 -168 118z" />
    <glyph glyph-name="scaron" unicode="&#x161;" horiz-adv-x="428" 
d="M178 565l-70 107h58l48 -70l47 70h58l-70 -107h-71zM264 252c76 -20 119 -65 119 -127c0 -84 -65 -137 -170 -137c-92 0 -159 47 -168 118l40 9c9 -51 55 -85 128 -85c59 0 125 21 125 95c0 52 -40 76 -83 87l-79 21c-79 21 -120 65 -120 128c0 72 59 131 156 131
c84 0 154 -42 162 -114l-40 -10c-8 52 -58 82 -121 82c-71 0 -113 -39 -113 -90c0 -50 37 -74 85 -87z" />
    <glyph glyph-name="scedilla" unicode="&#x15f;" horiz-adv-x="428" 
d="M383 125c0 -80 -59 -132 -156 -137l-16 -19h38c44 0 60 -36 60 -63c0 -28 -22 -60 -58 -60h-88v39h77c17 0 26 13 26 26c-1 12 -9 23 -26 23h-77v34l18 22c-75 10 -128 53 -136 116l40 9c9 -51 55 -85 128 -85c59 0 125 21 125 95c0 52 -40 76 -83 87l-79 21
c-79 21 -120 65 -120 128c0 72 59 131 156 131c84 0 154 -42 162 -114l-40 -10c-8 52 -58 82 -121 82c-71 0 -113 -39 -113 -90c0 -50 37 -74 85 -87l79 -21c76 -20 119 -65 119 -127z" />
    <glyph glyph-name="scircumflex" unicode="&#x15d;" horiz-adv-x="428" 
d="M214 635l-48 -70h-58l70 107h61h10l70 -107h-58zM264 252c76 -20 119 -65 119 -127c0 -84 -65 -137 -170 -137c-92 0 -159 47 -168 118l40 9c9 -51 55 -85 128 -85c59 0 125 21 125 95c0 52 -40 76 -83 87l-79 21c-79 21 -120 65 -120 128c0 72 59 131 156 131
c84 0 154 -42 162 -114l-40 -10c-8 52 -58 82 -121 82c-71 0 -113 -39 -113 -90c0 -50 37 -74 85 -87z" />
    <glyph glyph-name="scommaaccent" unicode="&#x219;" horiz-adv-x="428" 
d="M264 252c76 -20 119 -65 119 -127c0 -84 -65 -137 -170 -137c-92 0 -159 47 -168 118l40 9c9 -51 55 -85 128 -85c59 0 125 21 125 95c0 52 -40 76 -83 87l-79 21c-79 21 -120 65 -120 128c0 72 59 131 156 131c84 0 154 -42 162 -114l-40 -10c-8 52 -58 82 -121 82
c-71 0 -113 -39 -113 -90c0 -50 37 -74 85 -87zM202 -37c27 0 49 -19 49 -58c0 -57 -50 -88 -80 -87v23c16 1 39 19 40 43c-5 -2 -10 -3 -15 -3c-19 0 -37 13 -37 39s18 43 43 43z" />
    <glyph glyph-name="germandbls" unicode="&#xdf;" horiz-adv-x="553" 
d="M368 414c83 -31 140 -102 140 -199c0 -118 -85 -215 -240 -215c-22 0 -49 4 -83 14v45c25 -10 58 -16 82 -16c128 0 193 79 193 172c0 111 -92 174 -193 174v43c74 0 137 47 137 125c0 70 -51 118 -135 118c-82 0 -133 -45 -133 -148v-527h-46v527c0 129 70 195 178 195
c107 0 184 -64 184 -165c0 -67 -34 -116 -84 -143z" />
    <glyph glyph-name="t" unicode="t" horiz-adv-x="290" 
d="M265 480v-38h-97v-442h-46v442h-97v38h97v152h46v-152h97z" />
    <glyph glyph-name="tbar" unicode="&#x167;" horiz-adv-x="290" 
d="M265 442h-97v-125h82v-40h-82v-277h-46v277h-91v40h91v125h-97v38h97v152h46v-152h97v-38z" />
    <glyph glyph-name="tcaron" unicode="&#x165;" horiz-adv-x="280" 
d="M210 539l-12 154c-1 20 13 29 26 29s26 -9 25 -29l-11 -154h-28zM260 480v-41h-97v-439h-46v439h-97v41h97v152h46v-152h97z" />
    <glyph glyph-name="uni0163" unicode="&#x163;" horiz-adv-x="290" 
d="M168 -5l-17 -21h38c44 0 60 -36 60 -63c0 -28 -22 -60 -58 -60h-88v39h77c17 0 26 13 26 26c-1 12 -9 23 -26 23h-77v34l23 27h-4v442h-97v38h97v152h46v-152h97v-38h-97v-447z" />
    <glyph glyph-name="uni021B" unicode="&#x21b;" horiz-adv-x="290" 
d="M168 480h97v-38h-97v-442h-46v442h-97v38h97v152h46v-152zM142 -32c27 0 49 -19 49 -58c0 -57 -50 -88 -80 -87v23c16 1 39 19 40 43c-5 -2 -10 -3 -15 -3c-19 0 -37 13 -37 39s18 43 43 43z" />
    <glyph glyph-name="u" unicode="u" horiz-adv-x="568" 
d="M488 0h-46c-4 26 -7 55 -8 82c-26 -56 -89 -94 -168 -94c-92 0 -186 54 -186 205v288h47v-288c0 -122 71 -163 146 -163c106 0 161 80 161 174v276h46v-393c0 -31 4 -66 8 -87z" />
    <glyph glyph-name="uacute" unicode="&#xfa;" horiz-adv-x="568" 
d="M371 641l-67 -106h-48l52 106h63zM488 0h-46c-4 26 -7 55 -8 82c-26 -56 -89 -94 -168 -94c-92 0 -186 54 -186 205v288h47v-288c0 -122 71 -163 146 -163c106 0 161 80 161 174v276h46v-393c0 -31 4 -66 8 -87z" />
    <glyph glyph-name="ucircumflex" unicode="&#xfb;" horiz-adv-x="568" 
d="M280 605l-48 -70h-58l70 107h61h10l70 -107h-58zM488 0h-46c-4 26 -7 55 -8 82c-26 -56 -89 -94 -168 -94c-92 0 -186 54 -186 205v288h47v-288c0 -122 71 -163 146 -163c106 0 161 80 161 174v276h46v-393c0 -31 4 -66 8 -87z" />
    <glyph glyph-name="udieresis" unicode="&#xfc;" horiz-adv-x="568" 
d="M202 535c-29 0 -53 24 -53 52c0 29 24 54 53 54c28 0 53 -25 53 -54c0 -28 -25 -52 -53 -52zM358 535c-29 0 -53 24 -53 52c0 29 24 54 53 54c28 0 53 -25 53 -54c0 -28 -25 -52 -53 -52zM488 0h-46c-4 26 -7 55 -8 82c-26 -56 -89 -94 -168 -94c-92 0 -186 54 -186 205
v288h47v-288c0 -122 71 -163 146 -163c106 0 161 80 161 174v276h46v-393c0 -31 4 -66 8 -87z" />
    <glyph glyph-name="ugrave" unicode="&#xf9;" horiz-adv-x="568" 
d="M304 535h-48l-69 106h65zM488 0h-46c-4 26 -7 55 -8 82c-26 -56 -89 -94 -168 -94c-92 0 -186 54 -186 205v288h47v-288c0 -122 71 -163 146 -163c106 0 161 80 161 174v276h46v-393c0 -31 4 -66 8 -87z" />
    <glyph glyph-name="uhungarumlaut" unicode="&#x171;" horiz-adv-x="568" 
d="M318 641l-67 -106h-48l52 106h63zM356 535h-48l57 106h63zM488 0h-46c-4 26 -7 55 -8 82c-26 -56 -89 -94 -168 -94c-92 0 -186 54 -186 205v288h47v-288c0 -122 71 -163 146 -163c106 0 161 80 161 174v276h46v-393c0 -31 4 -66 8 -87z" />
    <glyph glyph-name="umacron" unicode="&#x16b;" horiz-adv-x="568" 
d="M408 584v-46h-256v46h256zM488 0h-46c-4 26 -7 55 -8 82c-26 -56 -89 -94 -168 -94c-92 0 -186 54 -186 205v288h47v-288c0 -122 71 -163 146 -163c106 0 161 80 161 174v276h46v-393c0 -31 4 -66 8 -87z" />
    <glyph glyph-name="uogonek" unicode="&#x173;" horiz-adv-x="568" 
d="M488 0c-77 -42 -45 -96 0 -84v-45c-106 -28 -124 94 -38 129h-8c-4 26 -7 55 -8 82c-26 -56 -89 -94 -168 -94c-92 0 -186 54 -186 205v288h47v-288c0 -122 71 -163 146 -163c106 0 161 80 161 174v276h46v-393c0 -31 4 -66 8 -87z" />
    <glyph glyph-name="uring" unicode="&#x16f;" horiz-adv-x="568" 
d="M279 536c-55 0 -98 43 -98 99c0 55 45 100 98 100c55 0 100 -46 100 -100s-45 -99 -100 -99zM280 693c-32 0 -56 -25 -56 -56c0 -34 24 -58 56 -58s57 24 57 58c0 30 -25 56 -57 56zM488 0h-46c-4 26 -7 55 -8 82c-26 -56 -89 -94 -168 -94c-92 0 -186 54 -186 205v288
h47v-288c0 -122 71 -163 146 -163c106 0 161 80 161 174v276h46v-393c0 -31 4 -66 8 -87z" />
    <glyph glyph-name="utilde" unicode="&#x169;" horiz-adv-x="568" 
d="M190 559h-43c-2 58 26 88 68 88c50 0 81 -42 121 -42c20 0 33 10 33 42h43c0 -54 -27 -88 -75 -88c-53 0 -83 42 -116 42c-15 0 -31 -8 -31 -42zM488 0h-46c-4 26 -7 55 -8 82c-26 -56 -89 -94 -168 -94c-92 0 -186 54 -186 205v288h47v-288c0 -122 71 -163 146 -163
c106 0 161 80 161 174v276h46v-393c0 -31 4 -66 8 -87z" />
    <glyph glyph-name="v" unicode="v" horiz-adv-x="475" 
d="M412 480h48l-199 -480h-47l-199 480h49l174 -424z" />
    <glyph glyph-name="w" unicode="w" horiz-adv-x="728" 
d="M661 480h47l-161 -480h-47l-136 410l-137 -410h-47l-160 480h47l137 -412l136 412h47l137 -412z" />
    <glyph glyph-name="wacute" unicode="&#x1e83;" horiz-adv-x="728" 
d="M455 641l-67 -106h-48l52 106h63zM661 480h47l-161 -480h-47l-136 410l-137 -410h-47l-160 480h47l137 -412l136 412h47l137 -412z" />
    <glyph glyph-name="wcircumflex" unicode="&#x175;" horiz-adv-x="728" 
d="M364 605l-48 -70h-58l70 107h61h10l70 -107h-58zM661 480h47l-161 -480h-47l-136 410l-137 -410h-47l-160 480h47l137 -412l136 412h47l137 -412z" />
    <glyph glyph-name="wdieresis" unicode="&#x1e85;" horiz-adv-x="728" 
d="M286 535c-29 0 -53 24 -53 52c0 29 24 54 53 54c28 0 53 -25 53 -54c0 -28 -25 -52 -53 -52zM442 535c-29 0 -53 24 -53 52c0 29 24 54 53 54c28 0 53 -25 53 -54c0 -28 -25 -52 -53 -52zM661 480h47l-161 -480h-47l-136 410l-137 -410h-47l-160 480h47l137 -412l136 412
h47l137 -412z" />
    <glyph glyph-name="wgrave" unicode="&#x1e81;" horiz-adv-x="728" 
d="M388 535h-48l-69 106h65zM661 480h47l-161 -480h-47l-136 410l-137 -410h-47l-160 480h47l137 -412l136 412h47l137 -412z" />
    <glyph glyph-name="x" unicode="x" horiz-adv-x="441" 
d="M15 0h57l147 205c26 -37 86 -119 150 -205h57l-176 240l175 240h-56l-147 -206c-44 61 -103 144 -150 206h-56l173 -238z" />
    <glyph glyph-name="y" unicode="y" horiz-adv-x="466" 
d="M404 480h47l-212 -586c-44 -123 -154 -122 -214 -80l14 42c33 -28 118 -56 155 46l25 68l-204 510h48l177 -451z" />
    <glyph glyph-name="yacute" unicode="&#xfd;" horiz-adv-x="466" 
d="M326 641l-67 -106h-48l52 106h63zM404 480h47l-212 -586c-44 -123 -154 -122 -214 -80l14 42c33 -28 118 -56 155 46l25 68l-204 510h48l177 -451z" />
    <glyph glyph-name="ycircumflex" unicode="&#x177;" horiz-adv-x="466" 
d="M235 605l-48 -70h-58l70 107h61h10l70 -107h-58zM404 480h47l-212 -586c-44 -123 -154 -122 -214 -80l14 42c33 -28 118 -56 155 46l25 68l-204 510h48l177 -451z" />
    <glyph glyph-name="ydieresis" unicode="&#xff;" horiz-adv-x="466" 
d="M157 535c-29 0 -53 24 -53 52c0 29 24 54 53 54c28 0 53 -25 53 -54c0 -28 -25 -52 -53 -52zM313 535c-29 0 -53 24 -53 52c0 29 24 54 53 54c28 0 53 -25 53 -54c0 -28 -25 -52 -53 -52zM404 480h47l-212 -586c-44 -123 -154 -122 -214 -80l14 42c33 -28 118 -56 155 46
l25 68l-204 510h48l177 -451z" />
    <glyph glyph-name="ygrave" unicode="&#x1ef3;" horiz-adv-x="466" 
d="M259 535h-48l-69 106h65zM404 480h47l-212 -586c-44 -123 -154 -122 -214 -80l14 42c33 -28 118 -56 155 46l25 68l-204 510h48l177 -451z" />
    <glyph glyph-name="z" unicode="z" horiz-adv-x="430" 
d="M40 0v45l299 394h-299v41h350v-45l-299 -395h299v-40h-350z" />
    <glyph glyph-name="zacute" unicode="&#x17a;" horiz-adv-x="430" 
d="M239 535h-48l52 106h63zM40 0v45l299 394h-299v41h350v-45l-299 -395h299v-40h-350z" />
    <glyph glyph-name="zcaron" unicode="&#x17e;" horiz-adv-x="430" 
d="M179 535l-70 107h58l48 -70l47 70h58l-70 -107h-71zM390 480v-45l-299 -395h299v-40h-350v45l299 394h-299v41h350z" />
    <glyph glyph-name="zdotaccent" unicode="&#x17c;" horiz-adv-x="430" 
d="M215 536c-29 0 -53 24 -53 52c0 29 24 54 53 54c28 0 53 -25 53 -54c0 -28 -25 -52 -53 -52zM40 0v45l299 394h-299v41h350v-45l-299 -395h299v-40h-350z" />
    <glyph glyph-name="a.ss01" horiz-adv-x="568" 
d="M501 0h-46c-3 32 -5 67 -6 98c-36 -73 -106 -110 -188 -110c-141 0 -221 110 -221 252s80 252 221 252c83 0 155 -39 190 -114l3 102h41v-377c0 -19 2 -60 6 -103zM264 30c115 0 178 88 178 210c0 121 -63 210 -178 210c-114 0 -177 -89 -177 -210
c0 -122 63 -210 177 -210z" />
    <glyph glyph-name="g.ss02" horiz-adv-x="570" 
d="M459 480h41v-470c0 -141 -89 -224 -223 -224c-113 0 -190 59 -220 146l43 19c22 -77 93 -123 180 -123c103 0 175 65 175 182v120c-35 -70 -106 -112 -190 -112c-140 0 -220 110 -220 237s80 237 227 237c78 0 149 -38 184 -113zM269 60c110 0 178 93 178 195
s-63 195 -178 195c-114 0 -177 -89 -177 -195s63 -195 177 -195z" />
    <glyph glyph-name="t.ss03" horiz-adv-x="305" 
d="M260 442h-118v-337c0 -69 51 -87 110 -64l7 -41c-115 -33 -163 24 -163 107v335h-76v38h76v152h46v-152h118v-38z" />
    <glyph glyph-name="i.ss04" horiz-adv-x="215" 
d="M108 709l48 -48l-48 -48l-48 48zM84 480h47v-480h-47v480z" />
    <glyph glyph-name="uni03A9" unicode="&#x3a9;" horiz-adv-x="633" 
d="M563 261c0 -83 -39 -161 -111 -213h106v-48h-192v48c103 40 152 128 152 212c0 113 -88 188 -196 188s-197 -75 -197 -188c0 -88 55 -175 152 -212v-48h-192v48h106c-74 53 -111 131 -111 212c0 138 107 232 242 232s241 -93 241 -231z" />
    <glyph glyph-name="pi" unicode="&#x3c0;" horiz-adv-x="584" 
d="M539 434h-108v-324c0 -48 13 -65 41 -65l67 -1v-44h-63c-61 0 -91 27 -91 103v331h-219v-434h-46v434h-100v46h146h265h108v-46z" />
    <glyph glyph-name="zero" unicode="0" horiz-adv-x="734" 
d="M60 358c0 217 119 364 306 364c193 0 308 -158 308 -370c0 -217 -119 -364 -307 -364c-195 0 -307 159 -307 370zM105 354c0 -179 100 -320 261 -320c164 0 262 145 262 322s-100 319 -262 319c-163 0 -261 -144 -261 -321z" />
    <glyph glyph-name="one" unicode="1" horiz-adv-x="328" 
d="M62 590v47l124 73h47v-710h-47v662z" />
    <glyph glyph-name="two" unicode="2" horiz-adv-x="556" 
d="M387 291l-273 -244h382v-47h-436v62l293 261c68 61 104 113 104 185c0 93 -60 168 -174 168c-109 0 -181 -70 -181 -179h-47c0 137 97 225 230 225c142 0 221 -100 221 -212c0 -94 -55 -162 -119 -219z" />
    <glyph glyph-name="three" unicode="3" horiz-adv-x="567" 
d="M283 436c129 -1 234 -89 234 -224c0 -134 -104 -224 -242 -224c-145 0 -228 100 -228 224h48c0 -109 67 -179 180 -179s194 70 194 181c0 94 -57 154 -153 173c-21 4 -31 5 -72 5h-37v37l241 234h-366v47h422v-60l-227 -214h6z" />
    <glyph glyph-name="four" unicode="4" horiz-adv-x="587" 
d="M55 154v47l336 509h57l-334 -509h307v279h46v-279h85v-47h-85v-154h-46v154h-366z" />
    <glyph glyph-name="five" unicode="5" horiz-adv-x="595" 
d="M300 465c147 0 240 -108 240 -238c0 -136 -102 -239 -242 -239c-141 0 -243 103 -243 235h47c0 -108 82 -190 196 -190c115 0 194 84 194 195c0 106 -71 192 -195 192c-70 0 -124 -28 -169 -73l-46 12l88 351h331v-47h-294l-63 -250c44 34 96 52 156 52z" />
    <glyph glyph-name="six" unicode="6" horiz-adv-x="663" 
d="M343 483c138 -2 246 -99 246 -246s-108 -249 -246 -249c-183 0 -272 147 -272 353c0 223 105 381 301 381c83 0 155 -30 205 -75l-29 -36c-56 48 -117 66 -177 66c-190 0 -259 -164 -251 -349c35 105 133 156 223 155zM343 33c113 0 199 82 199 201s-86 201 -199 204
s-199 -85 -199 -204s86 -201 199 -201z" />
    <glyph glyph-name="seven" unicode="7" horiz-adv-x="500" 
d="M25 710h450v-50c-312 -269 -298 -647 -298 -660h-47c0 21 -9 379 279 660h-384v50z" />
    <glyph glyph-name="eight" unicode="8" horiz-adv-x="619" 
d="M412 377c92 -26 142 -104 142 -188c0 -122 -105 -201 -244 -201c-140 0 -245 79 -245 202c0 88 55 158 142 187c-75 30 -117 90 -117 165c0 114 98 180 220 180c121 0 218 -65 218 -180c0 -76 -41 -136 -116 -165zM136 544c0 -81 62 -140 174 -140c107 0 172 54 172 138
c0 91 -78 135 -172 135s-174 -44 -174 -133zM311 33c108 0 196 58 196 161c0 102 -88 154 -198 154c-106 0 -196 -49 -196 -153c0 -105 90 -162 198 -162z" />
    <glyph glyph-name="nine" unicode="9" horiz-adv-x="648" 
d="M306 722c183 0 272 -147 272 -353c0 -223 -105 -381 -301 -381c-83 0 -155 30 -205 75l29 36c56 -48 117 -66 177 -66c190 0 259 164 251 349c-35 -105 -133 -156 -223 -155c-138 2 -246 99 -246 246s108 249 246 249zM306 272c113 -3 199 85 199 204s-86 201 -199 201
s-199 -82 -199 -201s86 -201 199 -204z" />
    <glyph glyph-name="uni2780" unicode="&#x2780;" horiz-adv-x="882" 
d="M441 -58c-216 0 -391 175 -391 391c0 215 176 391 391 391s391 -176 391 -391s-176 -391 -391 -391zM441 -4c186 0 337 151 337 337c0 185 -152 337 -337 337c-186 0 -337 -151 -337 -337s151 -337 337 -337zM354 418v53l76 39v-53zM431 142l-1 368h53v-368h-52z" />
    <glyph glyph-name="uni2781" unicode="&#x2781;" horiz-adv-x="882" 
d="M441 724c215 0 391 -176 391 -391s-176 -391 -391 -391c-216 0 -391 175 -391 391c0 215 176 391 391 391zM441 -4c186 0 337 151 337 337c0 185 -152 337 -337 337c-186 0 -337 -151 -337 -337s151 -337 337 -337zM570 400c-1 -44 -18 -74 -61 -111l-104 -88h155v-52
l-235 -1v47l162 143c24 21 31 38 32 59c0 50 -29 75 -73 76c-48 -1 -75 -32 -72 -82h-51c-4 77 50 130 123 131c69 1 123 -48 124 -122z" />
    <glyph glyph-name="uni2782" unicode="&#x2782;" horiz-adv-x="882" 
d="M441 724c215 0 391 -176 391 -391s-176 -391 -392 -391c-215 0 -390 175 -390 390c0 216 176 392 391 392zM441 -4c186 0 337 151 337 336c0 186 -152 338 -338 338c-185 0 -336 -151 -336 -337s151 -337 337 -337zM465 377c57 -9 100 -53 100 -118
c0 -71 -53 -123 -127 -123c-78 0 -132 58 -128 128h53c-5 -42 30 -77 75 -77c42 0 74 30 74 72c0 45 -37 71 -73 69h-55l-2 36l94 103h-148v53h218v-54z" />
    <glyph glyph-name="uni2783" unicode="&#x2783;" horiz-adv-x="882" 
d="M441 724c215 0 391 -176 391 -391s-176 -391 -391 -391c-216 0 -391 175 -391 391c0 215 176 391 391 391zM441 -4c186 0 337 151 337 337c0 185 -152 337 -337 337c-186 0 -337 -151 -337 -337s151 -337 337 -337zM521 510v-243h49v-51h-49v-74h-54v74h-177v51l177 243
h54zM357 267h110v153z" />
    <glyph glyph-name="uni2784" unicode="&#x2784;" horiz-adv-x="882" 
d="M441 -58c-216 0 -391 175 -391 391c0 215 176 391 391 391s391 -176 391 -391s-176 -391 -391 -391zM441 -4c186 0 337 151 337 337c0 185 -152 337 -337 337c-186 0 -337 -151 -337 -337s151 -337 337 -337zM314 270h52c-1 -45 28 -80 76 -80c43 0 79 34 79 74
c0 43 -36 78 -79 78c-32 0 -56 -17 -68 -37l-51 13l48 192h188v-52h-146l-19 -72c14 5 30 8 48 8c72 0 130 -58 130 -130c0 -69 -58 -126 -130 -126c-77 0 -130 58 -128 132z" />
    <glyph glyph-name="uni2785" unicode="&#x2785;" horiz-adv-x="882" 
d="M441 -58c-216 0 -391 175 -391 391c0 215 176 391 391 391s391 -176 391 -391s-176 -391 -391 -391zM441 -4c186 0 337 151 337 337c0 185 -152 337 -337 337c-186 0 -337 -151 -337 -337s151 -337 337 -337zM325 439c22 50 78 77 128 76c52 -2 94 -28 118 -76l-41 -30
c-20 35 -44 52 -82 53c-46 1 -87 -36 -93 -98c22 33 66 49 106 43c75 -11 120 -77 109 -157c-14 -80 -74 -114 -141 -112c-140 5 -152 196 -104 301zM358 274c-1 -53 38 -80 79 -79c40 0 83 26 82 78c1 53 -37 81 -75 83c-41 2 -85 -24 -86 -82z" />
    <glyph glyph-name="uni2786" unicode="&#x2786;" horiz-adv-x="882" 
d="M441 724c215 0 391 -176 391 -391s-176 -391 -391 -391c-216 0 -391 175 -391 391c0 215 176 391 391 391zM441 -4c186 0 337 151 337 337c0 185 -152 337 -337 337c-186 0 -337 -151 -337 -337s151 -337 337 -337zM325 455v55h258v-55c-164 -127 -149 -310 -149 -310
h-56s-8 169 134 310h-187z" />
    <glyph glyph-name="uni2787" unicode="&#x2787;" horiz-adv-x="882" 
d="M441 -58c-216 0 -391 175 -391 391c0 215 176 391 391 391s391 -176 391 -391s-176 -391 -391 -391zM441 -4c186 0 337 151 337 337c0 185 -152 337 -337 337c-186 0 -337 -151 -337 -337s151 -337 337 -337zM436 145c-98 -1 -132 58 -132 110c0 39 21 73 51 92
c-27 20 -39 48 -38 76c1 52 46 102 121 103c72 -1 115 -50 118 -100c1 -29 -11 -58 -39 -79c31 -19 51 -53 51 -92c0 -52 -35 -109 -132 -110zM436 374c45 1 68 27 66 52c-1 23 -23 47 -66 47c-44 -1 -66 -25 -66 -50c1 -24 23 -49 66 -49zM436 196c56 0 83 34 79 66
c-3 27 -29 52 -79 52c-49 0 -75 -26 -78 -53c-3 -32 23 -65 78 -65z" />
    <glyph glyph-name="uni2788" unicode="&#x2788;" horiz-adv-x="882" 
d="M441 -58c-216 0 -391 175 -391 391c0 215 176 391 391 391s391 -176 391 -391s-176 -391 -391 -391zM441 -4c186 0 337 151 337 337c0 185 -152 337 -337 337c-186 0 -337 -151 -337 -337s151 -337 337 -337zM309 382c-4 -72 39 -130 110 -138c38 -4 88 12 106 47
c-3 -62 -46 -100 -90 -102c-28 -1 -63 12 -81 48l-45 -27c28 -50 64 -72 118 -72c144 0 188 172 132 305c-17 38 -53 65 -99 71c-75 10 -148 -52 -151 -132zM361 378c-2 49 44 88 93 83c40 -5 66 -37 68 -73c-1 -58 -46 -97 -95 -91c-39 5 -67 38 -66 81z" />
    <glyph glyph-name="uni2776" unicode="&#x2776;" horiz-adv-x="786" 
d="M394 3c-190 0 -344 155 -344 345c0 189 153 344 344 344c188 0 342 -155 342 -344c0 -190 -152 -345 -342 -345zM428 168v373h-55l-68 -35v-49l71 34v-323h52z" />
    <glyph glyph-name="uni2777" unicode="&#x2777;" horiz-adv-x="786" 
d="M393 692c190 0 343 -155 343 -345c0 -189 -152 -344 -342 -344s-344 155 -344 345c0 189 153 344 343 344zM511 225h-155l104 88c43 37 60 67 61 111c-1 74 -55 123 -124 122c-73 -1 -127 -54 -123 -131h51c-3 50 24 81 72 82c44 -1 73 -26 73 -76c-1 -21 -8 -38 -32 -59
l-162 -143v-47l235 1v52z" />
    <glyph glyph-name="uni2778" unicode="&#x2778;" horiz-adv-x="786" 
d="M394 3c-190 0 -344 155 -344 345c0 189 153 344 344 344c188 0 342 -155 342 -344c0 -190 -152 -345 -342 -345zM272 286c-4 -70 50 -128 128 -128c74 0 127 52 127 123c0 65 -44 109 -100 118l81 89v54h-218v-53h147l-93 -103l2 -36h55c36 2 73 -24 73 -69
c0 -42 -32 -72 -74 -72c-45 0 -80 35 -75 77h-53z" />
    <glyph glyph-name="uni2779" unicode="&#x2779;" horiz-adv-x="786" 
d="M394 3c-190 0 -344 155 -344 345c0 189 153 344 344 344c188 0 342 -155 342 -344c0 -190 -152 -345 -342 -345zM406 168h53v71h60v52h-60v250h-55l-174 -242v-60h176v-71zM279 291l127 168v-168h-127z" />
    <glyph glyph-name="uni277A" unicode="&#x277a;" horiz-adv-x="786" 
d="M394 3c-190 0 -344 155 -344 345c0 189 153 344 344 344c188 0 342 -155 342 -344c0 -190 -152 -345 -342 -345zM328 399l15 83h151v54h-193l-36 -201l47 -9c18 26 46 38 74 38c46 0 79 -32 79 -79s-32 -79 -77 -79c-41 0 -69 21 -78 61l-53 -14c13 -61 62 -101 129 -101
c78 0 134 56 134 133c0 76 -52 133 -123 133c-32 0 -54 -7 -69 -19z" />
    <glyph glyph-name="uni277B" unicode="&#x277b;" horiz-adv-x="786" 
d="M394 3c-190 0 -344 155 -344 345c0 189 153 344 343 344c189 0 343 -154 343 -345c0 -189 -152 -344 -342 -344zM294 381c0 56 32 112 96 112c35 0 63 -14 81 -38l51 17c-24 45 -69 74 -129 74c-99 0 -158 -79 -152 -211c5 -112 53 -175 132 -180s146 53 147 134
c1 74 -55 134 -128 134c-25 0 -71 -5 -98 -42zM384 208c-48 0 -82 35 -82 80c0 47 35 80 82 80c45 0 79 -32 79 -80c0 -47 -33 -80 -79 -80z" />
    <glyph glyph-name="uni277C" unicode="&#x277c;" horiz-adv-x="786" 
d="M394 3c-190 0 -344 155 -344 345c0 189 153 344 344 344c188 0 342 -155 342 -344c0 -190 -152 -345 -342 -345zM458 472c-75 -94 -117 -191 -131 -304h56c13 119 59 223 134 305v47h-230v-48h171z" />
    <glyph glyph-name="uni277D" unicode="&#x277d;" horiz-adv-x="786" 
d="M394 3c-190 0 -344 155 -344 345c0 189 153 344 344 344c188 0 342 -155 342 -344c0 -190 -152 -345 -342 -345zM392 157c83 0 135 47 135 120c0 42 -21 85 -55 97c19 9 35 40 35 72c0 60 -44 100 -115 100c-73 0 -119 -42 -119 -101c0 -23 13 -56 35 -74
c-31 -9 -55 -51 -55 -96c0 -72 53 -118 139 -118zM392 392c-37 0 -64 20 -64 50s27 51 64 51c35 0 61 -21 61 -51s-26 -50 -61 -50zM392 210c-48 0 -84 28 -84 69c0 42 34 70 84 70c47 0 82 -28 82 -70c0 -41 -35 -69 -82 -69z" />
    <glyph glyph-name="uni277E" unicode="&#x277e;" horiz-adv-x="786" 
d="M394 3c-190 0 -344 155 -344 345c0 189 153 344 344 344c188 0 342 -155 342 -344c0 -190 -152 -345 -342 -345zM483 328c2 -67 -27 -121 -94 -121c-46 2 -72 21 -85 51l-50 -18c23 -50 71 -85 140 -83c87 3 139 65 139 187c0 128 -54 202 -145 202
c-74 0 -132 -56 -132 -136c0 -75 58 -131 134 -128c29 1 69 12 93 46zM388 493c46 2 80 -30 81 -78c1 -46 -29 -79 -77 -81c-47 -2 -83 34 -83 78c-1 46 31 79 79 81z" />
    <glyph glyph-name="four.ss03" horiz-adv-x="607" 
d="M582 201v-47h-85v-154h-46v154h-406v47l376 509h57h19v-509h85zM104 201h347v472z" />
    <glyph glyph-name="zero.tf" horiz-adv-x="712" 
d="M54 357c0 212 120 365 305 365c190 0 309 -153 309 -370s-118 -364 -307 -364s-307 147 -307 369zM99 355c0 -203 115 -321 261 -321c147 0 262 118 262 321c0 199 -115 320 -261 320c-147 0 -262 -121 -262 -320z" />
    <glyph glyph-name="one.tf" horiz-adv-x="496" 
d="M304 47h142v-47h-189h-142v47h142v615l-114 -62v47l114 63h47v-663z" />
    <glyph glyph-name="two.tf" horiz-adv-x="587" 
d="M416 300l-294 -253l382 2v-47l-436 -2v64l318 273c71 62 89 109 89 161c0 102 -70 179 -184 179c-109 0 -181 -70 -181 -180h-47c0 138 97 226 231 226c141 0 230 -97 230 -221c0 -87 -43 -146 -108 -202z" />
    <glyph glyph-name="three.tf" horiz-adv-x="574" 
d="M276 436c129 -1 234 -89 234 -223c0 -135 -106 -225 -232 -225c-133 0 -238 100 -238 224h48c0 -96 82 -177 190 -177c100 0 184 70 184 177c0 96 -67 164 -153 176c-21 3 -50 4 -72 4h-37v37l241 234h-366v47h422v-60l-227 -214h6z" />
    <glyph glyph-name="four.tf" horiz-adv-x="574" 
d="M544 201v-47h-85v-154h-46v154h-366v47l336 509h57l-334 -509h307v279h46v-279h85z" />
    <glyph glyph-name="five.tf" horiz-adv-x="587" 
d="M293 465c150 0 242 -108 242 -238c0 -136 -102 -239 -242 -239c-141 0 -243 103 -243 235h47c0 -106 82 -188 196 -188c115 0 194 84 194 193c0 103 -70 189 -196 189c-68 0 -123 -25 -168 -70l-46 12l88 351h331v-47h-294l-62 -246c44 33 96 48 153 48z" />
    <glyph glyph-name="six.tf" horiz-adv-x="604" 
d="M320 483c138 -2 246 -99 246 -246s-108 -249 -246 -249c-183 0 -272 147 -272 353c0 223 105 381 301 381c83 0 155 -30 205 -75l-29 -36c-56 48 -117 66 -177 66c-190 0 -259 -164 -251 -349c35 105 133 156 223 155zM320 33c113 0 199 82 199 201s-86 201 -199 204
s-199 -85 -199 -204s86 -201 199 -201z" />
    <glyph glyph-name="seven.tf" horiz-adv-x="537" 
d="M43 710h450v-50c-312 -269 -296 -660 -296 -660h-49s-9 378 279 660h-384v50z" />
    <glyph glyph-name="eight.tf" horiz-adv-x="599" 
d="M405 377c90 -27 139 -105 139 -188c0 -122 -105 -201 -244 -201c-140 0 -245 81 -245 202c0 87 53 157 140 187c-75 31 -115 93 -115 161c0 119 100 183 220 183c121 0 218 -64 218 -183c0 -71 -40 -131 -113 -161zM128 538c2 -74 62 -135 172 -135c106 0 171 56 171 135
c0 98 -78 140 -171 140c-92 0 -175 -42 -172 -140zM301 34c108 0 196 58 196 160c0 101 -88 153 -198 153c-106 0 -196 -49 -196 -152c0 -104 90 -161 198 -161z" />
    <glyph glyph-name="nine.tf" horiz-adv-x="607" 
d="M283 722c183 0 272 -147 272 -353c0 -223 -105 -381 -301 -381c-83 0 -155 30 -205 75l29 36c56 -48 117 -66 177 -66c190 0 259 164 251 349c-35 -105 -133 -156 -223 -155c-138 2 -246 99 -246 246s108 249 246 249zM283 272c113 -3 199 85 199 204s-86 201 -199 201
s-199 -82 -199 -201s86 -201 199 -204z" />
    <glyph glyph-name="fraction" unicode="&#x2044;" horiz-adv-x="97" 
d="M-195 0h-55l541 710h56z" />
    <glyph glyph-name="onehalf" unicode="&#xbd;" horiz-adv-x="697" 
d="M57 0h-55l541 710h56zM50 629v51l59 30v-55zM109 710h53v-368h-52zM403 0v53l151 131c30 25 39 42 41 62c3 51 -29 75 -75 75c-49 -1 -76 -34 -69 -85h-52c-8 81 53 137 128 136c67 -1 118 -47 119 -122c0 -37 -21 -76 -62 -111l-102 -87h154v-52h-233z" />
    <glyph glyph-name="onequarter" unicode="&#xbc;" horiz-adv-x="659" 
d="M543 710h56l-542 -710h-55zM109 710v-55l-59 -26v51zM162 342h-52l-1 368h53v-368zM609 125v-51h-49v-74h-54v74h-177v51l177 243h54v-243h49zM396 125h110v153z" />
    <glyph glyph-name="threequarters" unicode="&#xbe;" horiz-adv-x="762" 
d="M305 456c0 -67 -57 -120 -127 -120c-75 0 -136 63 -127 136h54c-12 -45 27 -85 73 -85c41 0 74 31 74 69c0 24 -11 43 -28 56c-19 14 -47 20 -69 11l-33 41l96 93h-150v53h229v-51l-88 -85c22 -5 43 -16 58 -31c23 -22 38 -53 38 -87zM646 710h56l-542 -710h-55zM712 125
v-51h-49v-74h-54v74h-177v51l177 243h54v-243h49zM499 125h110v153z" />
    <glyph glyph-name="oneeighth" unicode="&#x215b;" horiz-adv-x="713" 
d="M57 0h-55l541 710h56zM50 629v51l59 30v-55zM109 710h53v-368h-52zM531 -13c-98 -1 -132 58 -132 110c0 39 21 73 51 92c-27 20 -39 48 -38 75c1 52 46 103 121 104c74 -1 117 -52 118 -104c0 -27 -12 -55 -39 -75c31 -19 51 -53 51 -92c0 -52 -35 -109 -132 -110z
M531 216c44 1 67 25 66 50c0 24 -22 49 -66 49c-46 -1 -68 -27 -65 -53c1 -23 23 -46 65 -46zM531 38c52 0 79 29 79 59c1 29 -25 59 -79 59c-53 0 -79 -30 -78 -60c0 -29 26 -58 78 -58z" />
    <glyph glyph-name="threeeighths" unicode="&#x215c;" horiz-adv-x="816" 
d="M305 456c0 -67 -57 -120 -127 -120c-75 0 -136 63 -127 136h54c-12 -45 27 -85 73 -85c41 0 74 31 74 69c0 24 -11 43 -28 56c-19 14 -47 20 -69 11l-33 41l96 93h-150v53h229v-51l-88 -85c22 -5 43 -16 58 -31c23 -22 38 -53 38 -87zM646 710h56l-542 -710h-55zM715 189
c31 -19 51 -53 51 -92c0 -52 -35 -109 -132 -110c-98 -1 -132 58 -132 110c0 39 21 73 51 92c-27 20 -39 48 -38 75c1 52 46 103 121 104c74 -1 117 -52 118 -104c0 -27 -12 -55 -39 -75zM634 315c-46 -1 -68 -27 -65 -53c1 -23 23 -46 65 -46c44 1 67 25 66 50
c0 24 -22 49 -66 49zM713 97c1 29 -25 59 -79 59c-53 0 -79 -30 -78 -60c0 -29 26 -58 78 -58s79 29 79 59z" />
    <glyph glyph-name="fiveeighths" unicode="&#x215d;" horiz-adv-x="819" 
d="M50 470h52c-1 -45 28 -80 76 -80c43 0 79 34 79 74c0 43 -36 78 -79 78c-32 0 -56 -17 -68 -37l-51 13l48 192h188v-52h-146l-19 -72c14 5 30 8 48 8c72 0 130 -58 130 -130c0 -69 -58 -126 -130 -126c-77 0 -130 58 -128 132zM163 0h-55l541 710h56zM637 -13
c-98 -1 -132 58 -132 110c0 39 21 73 51 92c-27 20 -39 48 -38 75c1 52 46 103 121 104c74 -1 117 -52 118 -104c0 -27 -12 -55 -39 -75c31 -19 51 -53 51 -92c0 -52 -35 -109 -132 -110zM637 216c44 1 67 25 66 50c0 24 -22 49 -66 49c-46 -1 -68 -27 -65 -53
c1 -23 23 -46 65 -46zM637 38c52 0 79 29 79 59c1 29 -25 59 -79 59c-53 0 -79 -30 -78 -60c0 -29 26 -58 78 -58z" />
    <glyph glyph-name="seveneighths" unicode="&#x215e;" horiz-adv-x="759" 
d="M589 710h56l-542 -710h-55zM103 345c0 0 -8 169 134 310h-187v55h258v-55c-164 -127 -149 -310 -149 -310h-56zM658 189c31 -19 51 -53 51 -92c0 -52 -35 -109 -132 -110c-98 -1 -132 58 -132 110c0 39 21 73 51 92c-27 20 -39 48 -38 75c1 52 46 103 121 104
c74 -1 117 -52 118 -104c0 -27 -12 -55 -39 -75zM577 315c-46 -1 -68 -27 -65 -53c1 -23 23 -46 65 -46c44 1 67 25 66 50c0 24 -22 49 -66 49zM656 97c1 29 -25 59 -79 59c-53 0 -79 -30 -78 -60c0 -29 26 -58 78 -58s79 29 79 59z" />
    <glyph glyph-name="zero.dnom" horiz-adv-x="420" 
d="M370 175c0 -110 -58 -184 -149 -189c-104 -8 -171 70 -171 189c0 110 57 184 149 189c103 8 171 -71 171 -189zM210 36c64 1 109 57 109 139c0 81 -45 137 -109 138c-64 -1 -109 -57 -109 -138c0 -82 45 -138 109 -139z" />
    <glyph glyph-name="one.dnom" horiz-adv-x="211" 
d="M50 287v51l59 30v-55zM109 368h52v-368h-51z" />
    <glyph glyph-name="two.dnom" horiz-adv-x="348" 
d="M54 0v53l151 131c30 25 39 42 41 62c3 51 -29 75 -75 75c-49 -1 -76 -34 -69 -85h-52c-8 81 53 137 128 136c67 -1 118 -47 119 -122c0 -37 -21 -76 -62 -111l-102 -87h154v-52h-233z" />
    <glyph glyph-name="three.dnom" horiz-adv-x="360" 
d="M212 234c56 -12 98 -58 98 -120c0 -71 -54 -120 -129 -120c-84 0 -140 63 -130 136h55c-12 -44 21 -85 76 -85c44 0 75 27 75 69c0 57 -58 83 -100 68l-34 40l99 94h-155v52h235v-50z" />
    <glyph glyph-name="four.dnom" horiz-adv-x="380" 
d="M330 125v-51h-49v-74h-54v74h-177v51l177 243h54v-243h49zM117 125h110v153z" />
    <glyph glyph-name="five.dnom" horiz-adv-x="366" 
d="M50 120h53c-1 -46 29 -82 78 -82c45 0 82 35 82 77c0 44 -36 80 -82 80c-32 0 -57 -17 -70 -38l-52 13l49 198h194v-53h-151l-19 -75c15 5 31 8 49 8c75 0 135 -59 135 -133c0 -72 -60 -130 -135 -130c-79 0 -133 59 -131 135z" />
    <glyph glyph-name="six.dnom" horiz-adv-x="379" 
d="M198 260c78 0 131 -61 131 -136c0 -81 -61 -135 -140 -135c-96 0 -139 80 -139 180c0 108 51 203 158 201c52 -1 97 -26 121 -69l-44 -29c-20 29 -49 43 -82 43c-50 0 -88 -33 -95 -99c16 26 48 44 90 44zM191 42c41 0 84 26 84 82c0 52 -38 83 -83 83s-81 -31 -81 -84
c0 -55 39 -81 80 -81z" />
    <glyph glyph-name="seven.dnom" horiz-adv-x="360" 
d="M50 368h260v-56c-165 -128 -150 -312 -150 -312h-56s-8 171 133 312h-187v56z" />
    <glyph glyph-name="eight.dnom" horiz-adv-x="364" 
d="M182 -13c-98 -1 -132 58 -132 110c0 39 21 73 51 92c-27 20 -39 48 -38 75c1 52 46 103 121 104c74 -1 117 -52 118 -104c0 -27 -12 -55 -39 -75c31 -19 51 -53 51 -92c0 -52 -35 -109 -132 -110zM182 216c44 1 67 25 66 50c0 24 -22 49 -66 49c-46 -1 -68 -27 -65 -53
c1 -23 23 -46 65 -46zM182 38c52 0 79 29 79 59c1 29 -25 59 -79 59c-53 0 -79 -30 -78 -60c0 -29 26 -58 78 -58z" />
    <glyph glyph-name="nine.dnom" horiz-adv-x="379" 
d="M50 235c-2 -74 44 -132 116 -142c38 -4 90 14 106 49c0 -64 -43 -104 -88 -106c-29 -1 -64 12 -83 50l-45 -27c30 -50 66 -74 122 -74c145 0 184 176 124 312c-20 39 -58 68 -103 74c-78 9 -149 -54 -149 -136zM102 231c-3 51 42 91 92 85c41 -6 68 -37 71 -75
c3 -60 -43 -99 -92 -93c-41 5 -70 40 -71 83z" />
    <glyph glyph-name="zero.numr" horiz-adv-x="419" 
d="M369 527c0 -107 -55 -181 -143 -190c-107 -9 -176 69 -176 190c0 108 56 183 146 189c105 9 173 -71 173 -189zM210 387c64 2 107 58 107 140s-43 137 -107 138c-65 -1 -108 -56 -108 -138s43 -138 108 -140z" />
    <glyph glyph-name="one.numr" horiz-adv-x="212" 
d="M50 629v51l59 30v-55zM109 710h53v-368h-52z" />
    <glyph glyph-name="two.numr" horiz-adv-x="348" 
d="M54 338v53l152 131c29 25 38 42 40 63c3 50 -29 75 -75 74c-49 -1 -76 -33 -69 -85h-52c-8 81 53 137 129 136c67 -1 118 -47 118 -122c0 -37 -21 -76 -62 -111l-102 -87h154v-52h-233z" />
    <glyph glyph-name="three.numr" horiz-adv-x="355" 
d="M267 543c23 -22 38 -53 38 -87c0 -67 -57 -120 -127 -120c-75 0 -136 63 -127 136h54c-12 -45 27 -85 73 -85c41 0 74 31 74 69c0 24 -11 43 -28 56c-19 14 -47 20 -69 11l-33 41l96 93h-150v53h229v-51l-88 -85c22 -5 43 -16 58 -31z" />
    <glyph glyph-name="four.numr" horiz-adv-x="380" 
d="M330 467v-51h-49v-74h-54v74h-177v51l177 243h54v-243h49zM117 467h110v153z" />
    <glyph glyph-name="five.numr" horiz-adv-x="358" 
d="M50 470h52c-1 -45 28 -80 76 -80c43 0 79 34 79 74c0 43 -36 78 -79 78c-32 0 -56 -17 -68 -37l-51 13l48 192h188v-52h-146l-19 -72c14 5 30 8 48 8c72 0 130 -58 130 -130c0 -69 -58 -126 -130 -126c-77 0 -130 58 -128 132z" />
    <glyph glyph-name="six.numr" horiz-adv-x="379" 
d="M198 608c78 0 131 -60 131 -134c0 -80 -61 -133 -140 -133c-96 0 -139 79 -139 177c0 109 54 201 158 198c49 -1 95 -23 121 -68l-44 -28c-20 28 -49 42 -82 42c-50 0 -88 -33 -95 -97c16 25 48 43 90 43zM191 393c41 0 84 26 84 81c0 51 -38 82 -83 82s-81 -31 -81 -83
c0 -54 39 -80 80 -80z" />
    <glyph glyph-name="seven.numr" horiz-adv-x="358" 
d="M50 710h258v-55c-164 -127 -149 -310 -149 -310h-56s-8 169 134 310h-187v55z" />
    <glyph glyph-name="eight.numr" horiz-adv-x="364" 
d="M182 335c-98 -1 -132 58 -132 110c0 39 21 73 51 92c-27 20 -39 48 -38 76c1 52 46 102 121 103c72 -1 115 -50 118 -100c1 -29 -11 -58 -39 -79c31 -19 51 -53 51 -92c0 -52 -35 -109 -132 -110zM182 564c45 1 68 27 66 52c-1 23 -23 47 -66 47c-44 -1 -66 -25 -66 -50
c1 -24 23 -49 66 -49zM182 386c56 0 83 34 79 66c-3 27 -29 52 -79 52c-49 0 -75 -26 -78 -53c-3 -32 23 -65 78 -65z" />
    <glyph glyph-name="nine.numr" horiz-adv-x="375" 
d="M50 582c-2 -72 43 -130 115 -138c38 -4 88 12 104 47c0 -62 -42 -100 -87 -102c-28 -1 -62 12 -81 48l-45 -27c29 -50 66 -72 120 -72c144 0 182 172 122 305c-19 38 -56 65 -101 71c-76 10 -147 -52 -147 -132zM102 578c-3 49 41 88 90 83c41 -5 67 -37 70 -73
c2 -58 -42 -97 -91 -91c-40 5 -68 38 -69 81z" />
    <glyph glyph-name="uni2080" unicode="&#x2080;" horiz-adv-x="491" 
d="M451 135c0 -140 -74 -241 -204 -243h-2h-1c-131 2 -204 104 -204 243c0 140 75 241 204 243h2h1c130 -2 204 -104 204 -243zM245 -52c95 1 147 84 147 187c0 105 -54 185 -147 186c-94 -1 -147 -83 -147 -186c0 -104 53 -186 147 -187z" />
    <glyph glyph-name="uni2081" unicode="&#x2081;" horiz-adv-x="278" 
d="M133 368h55v-468h-55v411l-93 -38v56z" />
    <glyph glyph-name="uni2082" unicode="&#x2082;" horiz-adv-x="396" 
d="M45 -100v62l206 173c39 33 49 60 49 88c0 58 -39 100 -103 100c-58 0 -100 -36 -102 -99h-55c2 95 68 153 158 153c97 0 158 -67 158 -152c0 -58 -29 -98 -71 -133l-164 -137l223 1v-55z" />
    <glyph glyph-name="uni2083" unicode="&#x2083;" horiz-adv-x="399" 
d="M228 198c75 -12 131 -70 131 -152c0 -91 -72 -154 -158 -154c-92 0 -161 68 -161 153h56c0 -54 43 -99 105 -99c56 0 102 40 102 100c0 57 -39 95 -91 101c-17 2 -40 1 -55 -4l-17 46l132 124h-211v55h291v-55z" />
    <glyph glyph-name="uni2084" unicode="&#x2084;" horiz-adv-x="430" 
d="M390 50v-55h-58v-95h-54v95h-238v55l238 318h54v-318h58zM108 50h170v229z" />
    <glyph glyph-name="uni2085" unicode="&#x2085;" horiz-adv-x="408" 
d="M206 214c95 0 162 -71 162 -163c0 -89 -75 -160 -166 -160s-162 71 -162 160h55c0 -59 46 -104 107 -104s110 47 110 104c1 67 -46 113 -112 113c-39 0 -74 -18 -92 -43l-52 13l59 234h235v-55h-192l-31 -121c21 13 48 22 79 22z" />
    <glyph glyph-name="uni2086" unicode="&#x2086;" horiz-adv-x="434" 
d="M229 227c79 0 165 -59 165 -166c0 -99 -75 -169 -174 -169c-126 0 -182 112 -180 242s61 246 192 246c60 0 115 -25 150 -77l-47 -30c-25 34 -59 50 -100 51c-90 2 -139 -81 -139 -177c24 54 79 80 133 80zM224 -54c63 0 115 47 115 114c0 65 -49 112 -112 114
c-65 2 -116 -47 -116 -114s51 -114 113 -114z" />
    <glyph glyph-name="uni2087" unicode="&#x2087;" horiz-adv-x="391" 
d="M40 368h311v-57c-192 -157 -183 -395 -183 -411h-57c0 13 -6 242 169 411h-240v57z" />
    <glyph glyph-name="uni2088" unicode="&#x2088;" horiz-adv-x="410" 
d="M280 149c59 -19 93 -73 90 -130c-4 -80 -78 -128 -165 -129c-90 -1 -163 54 -165 134c-1 56 34 106 90 125c-45 19 -71 60 -71 108c0 74 65 121 146 121s142 -45 146 -117c3 -50 -26 -93 -71 -112zM109 252c0 -47 43 -78 96 -78c56 0 99 34 96 81c-3 46 -46 71 -96 71
c-53 0 -96 -28 -96 -74zM315 32c1 55 -50 87 -110 87c-63 0 -112 -35 -110 -89c1 -53 51 -86 110 -86c62 0 109 37 110 88z" />
    <glyph glyph-name="uni2089" unicode="&#x2089;" horiz-adv-x="434" 
d="M214 380c127 0 180 -112 180 -243c0 -144 -63 -245 -190 -245c-62 0 -116 24 -151 77l46 29c27 -35 57 -49 99 -51c94 -4 137 64 141 178c-25 -54 -80 -81 -134 -80c-80 1 -165 58 -165 165c0 100 74 170 174 170zM208 98c64 -1 115 46 115 114c0 67 -51 114 -113 114
c-63 0 -115 -47 -115 -114c0 -64 49 -113 113 -114z" />
    <glyph glyph-name="uni2070" unicode="&#x2070;" horiz-adv-x="491" 
d="M451 535c0 -140 -74 -241 -204 -243h-2h-1c-131 2 -204 104 -204 243c0 140 75 241 204 243h2h1c130 -2 204 -104 204 -243zM245 348c95 1 147 84 147 187c0 105 -54 185 -147 186c-94 -1 -147 -83 -147 -186c0 -104 53 -186 147 -187z" />
    <glyph glyph-name="uni00B9" unicode="&#xb9;" horiz-adv-x="278" 
d="M133 768h55v-468h-55v411l-93 -38v56z" />
    <glyph glyph-name="uni00B2" unicode="&#xb2;" horiz-adv-x="396" 
d="M45 300v62l206 173c39 33 49 60 49 88c0 58 -39 100 -103 100c-58 0 -100 -36 -102 -99h-55c2 95 68 153 158 153c97 0 158 -67 158 -152c0 -58 -29 -98 -71 -133l-164 -137l223 1v-55z" />
    <glyph glyph-name="uni00B3" unicode="&#xb3;" horiz-adv-x="399" 
d="M228 598c75 -12 131 -70 131 -152c0 -91 -72 -154 -158 -154c-92 0 -161 68 -161 153h56c0 -54 43 -99 105 -99c56 0 102 40 102 100c0 57 -39 95 -91 101c-17 2 -40 1 -55 -4l-17 46l132 124h-211v55h291v-55z" />
    <glyph glyph-name="uni2074" unicode="&#x2074;" horiz-adv-x="430" 
d="M390 450v-55h-58v-95h-54v95h-238v55l238 318h54v-318h58zM108 450h170v229z" />
    <glyph glyph-name="uni2075" unicode="&#x2075;" horiz-adv-x="408" 
d="M206 614c95 0 162 -71 162 -163c0 -89 -75 -160 -166 -160s-162 71 -162 160h55c0 -59 46 -104 107 -104s110 47 110 104c1 67 -46 113 -112 113c-39 0 -74 -18 -92 -43l-52 13l59 234h235v-55h-192l-31 -121c21 13 48 22 79 22z" />
    <glyph glyph-name="uni2076" unicode="&#x2076;" horiz-adv-x="434" 
d="M229 627c79 0 165 -59 165 -166c0 -99 -75 -169 -174 -169c-126 0 -182 112 -180 242s61 246 192 246c60 0 115 -25 150 -77l-47 -30c-25 34 -59 50 -100 51c-90 2 -139 -81 -139 -177c24 54 79 80 133 80zM224 346c63 0 115 47 115 114c0 65 -49 112 -112 114
c-65 2 -116 -47 -116 -114s51 -114 113 -114z" />
    <glyph glyph-name="uni2077" unicode="&#x2077;" horiz-adv-x="391" 
d="M40 768h311v-57c-192 -157 -183 -395 -183 -411h-57c0 13 -6 242 169 411h-240v57z" />
    <glyph glyph-name="uni2078" unicode="&#x2078;" horiz-adv-x="410" 
d="M280 549c59 -19 93 -73 90 -130c-4 -80 -78 -128 -165 -129c-90 -1 -163 54 -165 134c-1 56 34 106 90 125c-45 19 -71 60 -71 108c0 74 65 121 146 121s142 -45 146 -117c3 -50 -26 -93 -71 -112zM109 652c0 -47 43 -78 96 -78c56 0 99 34 96 81c-3 46 -46 71 -96 71
c-53 0 -96 -28 -96 -74zM315 432c1 55 -50 87 -110 87c-63 0 -112 -35 -110 -89c1 -53 51 -86 110 -86c62 0 109 37 110 88z" />
    <glyph glyph-name="uni2079" unicode="&#x2079;" horiz-adv-x="434" 
d="M214 780c127 0 180 -112 180 -243c0 -144 -63 -245 -190 -245c-62 0 -116 24 -151 77l46 29c27 -35 57 -49 99 -51c94 -4 137 64 141 178c-25 -54 -80 -81 -134 -80c-80 1 -165 58 -165 165c0 100 74 170 174 170zM208 498c64 -1 115 46 115 114c0 67 -51 114 -113 114
c-63 0 -115 -47 -115 -114c0 -64 49 -113 113 -114z" />
    <glyph glyph-name="asterisk" unicode="*" horiz-adv-x="391" 
d="M209 554c17 -18 34 -38 58 -71l33 -50l-26 -19l-35 51c-23 31 -35 56 -44 79c-8 -23 -21 -48 -43 -79l-36 -51l-27 19l35 50c22 33 41 53 58 71c-25 4 -52 9 -88 22l-59 21l12 31l57 -21c38 -12 62 -24 84 -38c-6 26 -9 52 -9 91v62h32v-62c0 -39 -2 -65 -8 -91
c22 14 45 26 82 38l58 21l13 -31l-60 -21c-35 -13 -62 -18 -87 -22z" />
    <glyph glyph-name="uni2042" unicode="&#x2042;" horiz-adv-x="831" 
d="M520 433l-26 -19l-35 51c-23 31 -35 56 -44 79c-8 -23 -21 -48 -43 -79l-36 -51l-27 19l35 50c22 33 41 53 58 71c-25 4 -52 9 -88 22l-59 21l12 31l57 -21c38 -12 62 -24 84 -38c-6 26 -9 52 -9 91v62h32v-62c0 -39 -2 -65 -8 -91c22 14 45 26 82 38l58 21l13 -31
l-60 -21c-35 -13 -62 -18 -87 -22c17 -18 34 -38 58 -71zM356 227l-60 -21c-35 -13 -62 -18 -87 -22c17 -18 34 -38 58 -71l33 -50l-26 -19l-35 51c-23 31 -35 56 -44 79c-8 -23 -21 -48 -43 -79l-36 -51l-27 19l35 50c22 33 41 53 58 71c-25 4 -52 9 -88 22l-59 21l12 31
l57 -21c38 -12 62 -24 84 -38c-6 26 -9 52 -9 91v62h32v-62c0 -39 -2 -65 -8 -91c22 14 45 26 82 38l58 21zM649 184c17 -18 34 -38 58 -71l33 -50l-26 -19l-35 51c-23 31 -35 56 -44 79c-8 -23 -21 -48 -43 -79l-36 -51l-27 19l35 50c22 33 41 53 58 71c-25 4 -52 9 -88 22
l-59 21l12 31l57 -21c38 -12 62 -24 84 -38c-6 26 -9 52 -9 91v62h32v-62c0 -39 -2 -65 -8 -91c22 14 45 26 82 38l58 21l13 -31l-60 -21c-35 -13 -62 -18 -87 -22z" />
    <glyph glyph-name="backslash" unicode="\" horiz-adv-x="324" 
d="M324 0h-46l-278 710h47z" />
    <glyph glyph-name="periodcentered" unicode="&#xb7;" horiz-adv-x="250" 
d="M125 170c-42 0 -78 35 -78 77c0 43 35 78 78 78s78 -35 78 -78c0 -42 -36 -77 -78 -77z" />
    <glyph glyph-name="bullet" unicode="&#x2022;" horiz-adv-x="351" 
d="M176 133c-70 0 -129 58 -129 127s58 128 129 128c69 0 128 -58 128 -128c0 -68 -58 -127 -128 -127z" />
    <glyph glyph-name="colon" unicode=":" horiz-adv-x="310" 
d="M155 371c-30 0 -55 25 -55 54c0 30 25 55 55 55s55 -25 55 -55c0 -29 -25 -54 -55 -54zM155 -11c-30 0 -55 25 -55 54c0 30 25 55 55 55s55 -25 55 -55c0 -29 -25 -54 -55 -54z" />
    <glyph glyph-name="comma" unicode="," horiz-adv-x="230" 
d="M110 88c31 0 56 -22 56 -67c0 -65 -58 -101 -92 -100v27c18 1 45 22 46 50c-6 -3 -11 -4 -17 -4c-22 0 -43 14 -43 45c0 29 21 49 50 49z" />
    <glyph glyph-name="ellipsis" unicode="&#x2026;" horiz-adv-x="660" 
d="M130 -11c-30 0 -55 25 -55 54c0 30 25 55 55 55s55 -25 55 -55c0 -29 -25 -54 -55 -54zM330 -11c-30 0 -55 25 -55 54c0 30 25 55 55 55s55 -25 55 -55c0 -29 -25 -54 -55 -54zM530 -11c-30 0 -55 25 -55 54c0 30 25 55 55 55s55 -25 55 -55c0 -29 -25 -54 -55 -54z" />
    <glyph glyph-name="exclam" unicode="!" horiz-adv-x="290" 
d="M162 154h-34c-5 79 -6 151 -6 237v319h46v-319c0 -86 -1 -158 -6 -237zM145 -11c-30 0 -55 25 -55 54c0 30 25 55 55 55s55 -25 55 -55c0 -29 -25 -54 -55 -54z" />
    <glyph glyph-name="exclamdown" unicode="&#xa1;" horiz-adv-x="290" 
d="M145 722c30 0 55 -25 55 -54c0 -30 -25 -55 -55 -55s-55 25 -55 55c0 29 25 54 55 54zM162 557c5 -79 6 -151 6 -237v-319h-46v319c0 86 1 158 6 237h34z" />
    <glyph glyph-name="numbersign" unicode="#" horiz-adv-x="656" 
d="M598 443h-108l-34 -176h109l-8 -47h-111l-43 -220h-47l44 220h-195l-43 -220h-47l43 220h-108l8 47h109l35 176h-127l8 47h128l43 220h47l-43 -220h195l44 220h46l-43 -220h106zM409 267l35 176h-195l-35 -176h195z" />
    <glyph glyph-name="period" unicode="." horiz-adv-x="250" 
d="M125 -11c-30 0 -55 25 -55 54c0 30 25 55 55 55s55 -25 55 -55c0 -29 -25 -54 -55 -54z" />
    <glyph glyph-name="question" unicode="?" horiz-adv-x="499" 
d="M250 722c131 0 214 -95 214 -212c0 -187 -217 -200 -217 -328v-28h-45v28c0 159 217 168 217 328c0 92 -67 167 -169 167c-93 0 -169 -75 -169 -167h-46c0 118 97 212 215 212zM229 96c29 0 54 -25 54 -55s-25 -55 -54 -55c-31 0 -56 25 -56 55s25 55 56 55z" />
    <glyph glyph-name="questiondown" unicode="&#xbf;" horiz-adv-x="499" 
d="M270 612c-29 0 -54 25 -54 55s25 55 54 55c31 0 56 -25 56 -55s-25 -55 -56 -55zM418 198h46c0 -118 -97 -212 -215 -212c-131 0 -214 95 -214 212c0 187 217 200 217 328v28h45v-28c0 -159 -217 -168 -217 -328c0 -92 67 -167 169 -167c93 0 169 75 169 167z" />
    <glyph glyph-name="quotedbl" unicode="&#x22;" horiz-adv-x="267" 
d="M107 648l-15 -177h-36l-16 177c-2 27 17 39 34 39s35 -12 33 -39zM227 648l-15 -177h-36l-16 177c-2 27 17 39 34 39s35 -12 33 -39z" />
    <glyph glyph-name="quotesingle" unicode="'" horiz-adv-x="147" 
d="M107 648l-15 -177h-36l-16 177c-2 27 17 39 34 39s35 -12 33 -39z" />
    <glyph glyph-name="semicolon" unicode=";" horiz-adv-x="230" 
d="M115 371c-30 0 -55 25 -55 54c0 30 25 55 55 55s55 -25 55 -55c0 -29 -25 -54 -55 -54zM110 88c31 0 56 -22 56 -67c0 -65 -58 -101 -92 -100v27c18 1 45 22 46 50c-6 -3 -11 -4 -17 -4c-22 0 -43 14 -43 45c0 29 21 49 50 49z" />
    <glyph glyph-name="slash" unicode="/" horiz-adv-x="324" 
d="M0 0l277 710h47l-278 -710h-46z" />
    <glyph glyph-name="underscore" unicode="_" horiz-adv-x="506" 
d="M60 -20h386v-46h-386v46z" />
    <glyph glyph-name="braceleft" unicode="{" horiz-adv-x="227" 
d="M160 438c0 -33 -16 -64 -40 -83c24 -20 40 -50 40 -83v-210c0 -34 28 -62 62 -62v-44c-13 0 -26 3 -37 7c-41 14 -70 52 -70 99v210c0 33 -27 60 -60 60v45c33 0 60 28 60 61v212c0 44 28 81 68 98c12 5 25 7 39 7v-45c-33 0 -62 -27 -62 -60v-212z" />
    <glyph glyph-name="braceright" unicode="}" horiz-adv-x="227" 
d="M112 438c0 -33 27 -61 60 -61v-45c-33 0 -60 -27 -60 -60v-210c0 -47 -30 -82 -70 -99c-11 -5 -24 -7 -37 -7v44c34 0 62 28 62 62v210c0 33 16 63 40 83c-24 19 -40 50 -40 83v212c0 33 -29 60 -62 60v45c14 0 27 -2 39 -7c40 -16 68 -54 68 -98v-212z" />
    <glyph glyph-name="bracketleft" unicode="[" horiz-adv-x="233" 
d="M228 0v-45h-183v800h183v-45h-140v-710h140z" />
    <glyph glyph-name="bracketright" unicode="]" horiz-adv-x="233" 
d="M5 0h140v710h-140v45h183v-800h-183v45z" />
    <glyph glyph-name="parenleft" unicode="(" horiz-adv-x="231" 
d="M231 -49h-48c-77 108 -128 264 -128 415c0 150 51 306 128 414h48c-74 -98 -125 -250 -128 -414c3 -164 54 -317 128 -415z" />
    <glyph glyph-name="parenright" unicode=")" horiz-adv-x="231" 
d="M0 -49c74 98 125 251 128 415c-3 164 -54 316 -128 414h48c77 -108 128 -264 128 -414c0 -151 -51 -307 -128 -415h-48z" />
    <glyph glyph-name="emdash" unicode="&#x2014;" horiz-adv-x="1127" 
d="M75 303h977v-46h-977v46z" />
    <glyph glyph-name="endash" unicode="&#x2013;" horiz-adv-x="906" 
d="M65 303h776v-46h-776v46z" />
    <glyph glyph-name="hyphen" unicode="-" horiz-adv-x="486" 
d="M65 302h356v-44h-356v44z" />
    <glyph glyph-name="guillemotleft" unicode="&#xab;" horiz-adv-x="504" 
d="M314 480l-210 -240l210 -240h-49l-210 240l210 240h49zM504 480l-210 -240l210 -240h-49l-210 240l210 240h49z" />
    <glyph glyph-name="guillemotright" unicode="&#xbb;" horiz-adv-x="504" 
d="M49 480l210 -240l-210 -240h-49l210 240l-210 240h49zM239 480l210 -240l-210 -240h-49l210 240l-210 240h49z" />
    <glyph glyph-name="guilsinglleft" unicode="&#x2039;" horiz-adv-x="314" 
d="M314 480l-210 -240l210 -240h-49l-210 240l210 240h49z" />
    <glyph glyph-name="guilsinglright" unicode="&#x203a;" horiz-adv-x="314" 
d="M49 480l210 -240l-210 -240h-49l210 240l-210 240h49z" />
    <glyph glyph-name="quotedblbase" unicode="&#x201e;" horiz-adv-x="356" 
d="M110 88c31 0 56 -22 56 -67c0 -65 -58 -101 -92 -100v27c18 1 45 22 46 50c-6 -3 -11 -4 -17 -4c-22 0 -43 14 -43 45c0 29 21 49 50 49zM240 88c31 0 56 -22 56 -67c0 -65 -58 -101 -92 -100v27c18 1 45 22 46 50c-6 -3 -11 -4 -17 -4c-22 0 -43 14 -43 45
c0 29 21 49 50 49z" />
    <glyph glyph-name="quotedblleft" unicode="&#x201c;" horiz-adv-x="356" 
d="M123 583c22 0 43 -14 43 -45c0 -29 -21 -49 -50 -49c-31 0 -56 22 -56 67c0 62 58 101 92 100v-27c-18 -1 -45 -22 -46 -50c6 3 11 4 17 4zM253 583c22 0 43 -14 43 -45c0 -29 -21 -49 -50 -49c-31 0 -56 22 -56 67c0 62 58 101 92 100v-27c-18 -1 -45 -22 -46 -50
c6 3 11 4 17 4z" />
    <glyph glyph-name="quotedblright" unicode="&#x201d;" horiz-adv-x="356" 
d="M110 643c31 0 56 -22 56 -67c0 -65 -58 -101 -92 -100v27c18 1 45 22 46 50c-6 -3 -11 -4 -17 -4c-22 0 -43 14 -43 45c0 29 21 49 50 49zM240 643c31 0 56 -22 56 -67c0 -65 -58 -101 -92 -100v27c18 1 45 22 46 50c-6 -3 -11 -4 -17 -4c-22 0 -43 14 -43 45
c0 29 21 49 50 49z" />
    <glyph glyph-name="quoteleft" unicode="&#x2018;" horiz-adv-x="226" 
d="M123 583c22 0 43 -14 43 -45c0 -29 -21 -49 -50 -49c-31 0 -56 22 -56 67c0 65 58 101 92 100v-27c-17 -1 -44 -21 -46 -47c6 1 11 1 17 1z" />
    <glyph glyph-name="quoteright" unicode="&#x2019;" horiz-adv-x="226" 
d="M110 643c31 0 56 -22 56 -67c0 -65 -58 -101 -92 -100v27c18 1 45 22 46 50c-6 -3 -11 -4 -17 -4c-22 0 -43 14 -43 45c0 29 21 49 50 49z" />
    <glyph glyph-name="quotesinglbase" unicode="&#x201a;" horiz-adv-x="190" 
d="M75 88c31 0 56 -22 56 -67c0 -65 -58 -101 -92 -100v27c18 1 45 22 46 50c-6 -3 -11 -4 -17 -4c-22 0 -43 14 -43 45c0 29 21 49 50 49z" />
    <glyph glyph-name="space" unicode=" " horiz-adv-x="280" 
 />
    <glyph glyph-name="cent" unicode="&#xa2;" horiz-adv-x="556" 
d="M50 359c0 129 94 237 214 250l-1 101h46l1 -101c93 -7 166 -62 196 -143l-42 -13c-25 69 -90 111 -176 111c-106 0 -192 -90 -192 -205s86 -206 192 -206c80 0 144 39 170 99l41 -14c-31 -72 -101 -123 -189 -130l-1 -109h-46l1 109c-120 13 -214 123 -214 251z" />
    <glyph glyph-name="currency" unicode="&#xa4;" horiz-adv-x="592" 
d="M510 349c0 -50 -17 -96 -47 -133l79 -77l-33 -33l-78 78c-37 -30 -85 -48 -136 -48s-97 18 -134 47l-78 -77l-33 33l79 77c-30 36 -47 83 -47 133c0 51 18 98 47 135l-79 77l33 33l78 -77c37 29 83 47 134 47c52 0 99 -18 136 -48l78 78l33 -33l-79 -77
c30 -37 47 -84 47 -135zM127 349c0 -92 77 -168 168 -168c93 0 170 76 170 168c0 93 -76 170 -170 170c-92 0 -168 -77 -168 -170z" />
    <glyph glyph-name="dollar" unicode="$" horiz-adv-x="637" 
d="M375 367c92 -26 180 -76 180 -191c0 -106 -81 -180 -214 -187v-78h-44v78c-124 7 -209 73 -222 179l47 8c10 -90 82 -138 175 -145v310l-28 8c-100 28 -165 80 -165 187c0 94 75 175 193 187v68h44v-67c108 -6 198 -67 221 -164l-45 -14c-17 79 -88 131 -176 136v-305z
M279 394l18 -5v291c-90 -12 -147 -75 -147 -144c0 -71 37 -116 129 -142zM341 30c112 7 167 72 167 142c0 91 -71 130 -143 150l-24 7v-299z" />
    <glyph glyph-name="Euro" unicode="&#x20ac;" horiz-adv-x="762" 
d="M672 99l30 -38c-59 -45 -140 -73 -215 -73c-159 0 -293 106 -338 254h-89v48h78c-3 20 -5 41 -5 62c0 25 2 49 7 73h-80v48h92c47 145 178 248 335 248c64 0 126 -17 188 -51l-22 -42c-57 31 -109 45 -166 45c-130 0 -239 -82 -284 -200h338l-10 -48h-342
c-5 -23 -8 -48 -8 -73c0 -21 2 -42 6 -62h314l-10 -48h-291c43 -121 155 -206 287 -206c66 0 134 23 185 63z" />
    <glyph glyph-name="florin" unicode="&#x192;" horiz-adv-x="458" 
d="M398 434h-136l-9 -60h1l-58 -386c-8 -57 -50 -90 -96 -90h-40v46h40c28 0 46 18 50 44l52 348l14 98h-103v46h110l20 140c7 50 34 90 103 90h51v-46h-58c-33 0 -47 -20 -50 -44l-20 -140h129v-46z" />
    <glyph glyph-name="sterling" unicode="&#xa3;" horiz-adv-x="637" 
d="M529 182h48c0 -112 -56 -182 -177 -182h-326v48c85 19 140 98 140 192c0 35 -8 65 -18 93h-106v48h86c-18 41 -36 82 -36 136c0 116 83 205 207 205c106 0 186 -66 208 -154l-46 -16c-15 69 -77 121 -163 121c-97 0 -157 -67 -157 -160c0 -50 18 -90 35 -132h259v-48
h-241c9 -28 16 -59 15 -96c-1 -72 -28 -149 -88 -189h240c85 0 124 48 120 134z" />
    <glyph glyph-name="yen" unicode="&#xa5;" horiz-adv-x="640" 
d="M580 710l-220 -378h166v-46h-184v-102h184v-46h-184v-138h-46v138h-185v46h185v102h-185v46h167l-218 378h51l208 -367v3l210 364h51z" />
    <glyph glyph-name="approxequal" unicode="&#x2248;" horiz-adv-x="430" 
d="M349 375h41c0 -57 -42 -94 -92 -94c-68 0 -107 67 -166 67c-31 0 -51 -19 -51 -52h-41c0 55 41 92 91 92c68 0 113 -67 167 -67c28 0 51 18 51 54zM349 243h41c0 -57 -42 -94 -92 -94c-68 0 -107 67 -166 67c-31 0 -51 -19 -51 -52h-41c0 55 41 92 91 92
c68 0 113 -67 167 -67c28 0 51 18 51 54z" />
    <glyph glyph-name="asciitilde" unicode="~" horiz-adv-x="430" 
d="M349 315h41c0 -57 -42 -94 -92 -94c-68 0 -107 67 -166 67c-31 0 -51 -19 -51 -52h-41c0 55 41 92 91 92c68 0 113 -67 167 -67c28 0 51 18 51 54z" />
    <glyph glyph-name="divide" unicode="&#xf7;" horiz-adv-x="536" 
d="M268 443c-30 0 -55 25 -55 54c0 30 25 55 55 55s55 -25 55 -55c0 -29 -25 -54 -55 -54zM80 326h376v-46h-376v46zM268 47c-30 0 -55 25 -55 54c0 30 25 55 55 55s55 -25 55 -55c0 -29 -25 -54 -55 -54z" />
    <glyph glyph-name="emptyset" unicode="&#x2205;" horiz-adv-x="776" 
d="M736 635l-63 -57c40 -61 63 -137 63 -223c0 -217 -141 -369 -344 -369c-101 0 -189 42 -251 111l-69 -63l-32 35l72 66c-41 60 -64 136 -64 220c0 214 143 370 344 370c103 0 190 -41 251 -109l61 55zM95 355c0 -71 19 -136 53 -188l461 418c-52 59 -128 94 -217 94
c-173 0 -297 -135 -297 -324zM690 355c0 74 -19 139 -52 192l-461 -418c53 -60 129 -96 215 -96c175 0 298 133 298 322z" />
    <glyph glyph-name="equal" unicode="=" horiz-adv-x="477" 
d="M50 418h377v-46h-377v46zM50 170v46h377v-46h-377z" />
    <glyph glyph-name="greater" unicode="&#x3e;" horiz-adv-x="410" 
d="M50 20v46l288 177l-288 177v46l325 -200v-46z" />
    <glyph glyph-name="greaterequal" unicode="&#x2265;" horiz-adv-x="540" 
d="M50 507l455 -160v-46l-455 -160v46l390 137l-390 137v46zM50 0v46h455v-46h-455z" />
    <glyph glyph-name="uni2206" unicode="&#x2206;" horiz-adv-x="658" 
d="M352 710l246 -670v-40h-538v40l246 670h46zM329 657l-226 -617h452z" />
    <glyph glyph-name="infinity" unicode="&#x221e;" horiz-adv-x="842" 
d="M60 279c0 95 72 166 169 166c69 0 143 -53 192 -130c49 77 123 130 192 130c97 0 169 -71 169 -166s-72 -166 -169 -166c-69 0 -143 53 -192 130c-49 -77 -123 -130 -192 -130c-97 0 -169 71 -169 166zM108 279c0 -69 48 -118 126 -118c48 0 106 33 156 118
c-50 85 -108 118 -156 118c-78 0 -126 -49 -126 -118zM452 279c50 -85 108 -118 156 -118c78 0 126 49 126 118s-48 118 -126 118c-48 0 -106 -33 -156 -118z" />
    <glyph glyph-name="integral" unicode="&#x222b;" horiz-adv-x="260" 
d="M197 724h33v-46h-33c-24 0 -44 -20 -44 -44v-298v-260c0 -50 -40 -90 -90 -90h-33v46h33c24 0 44 20 44 44v298v260c0 50 40 90 90 90z" />
    <glyph glyph-name="less" unicode="&#x3c;" horiz-adv-x="410" 
d="M35 220v46l325 200v-46l-288 -177l288 -177v-46z" />
    <glyph glyph-name="lessequal" unicode="&#x2264;" horiz-adv-x="540" 
d="M35 301v46l455 160v-46l-390 -137l390 -137v-46zM35 0v46h455v-46h-455z" />
    <glyph glyph-name="logicalnot" unicode="&#xac;" horiz-adv-x="528" 
d="M488 76h-48v196h-400v48h448v-244z" />
    <glyph glyph-name="uni00B5" unicode="&#xb5;" horiz-adv-x="632" 
d="M520 45l67 -1v-44h-63c-50 0 -79 18 -88 66c-33 -51 -86 -82 -166 -82c-78 0 -131 30 -164 79v-303h-46v720h46v-241c0 -125 36 -210 164 -210c116 0 156 70 163 176v275h46v-370c0 -48 13 -65 41 -65z" />
    <glyph glyph-name="minus" unicode="&#x2212;" horiz-adv-x="436" 
d="M50 353h336v-46h-336v46z" />
    <glyph glyph-name="multiply" unicode="&#xd7;" horiz-adv-x="463" 
d="M423 469l-158 -161l158 -162l-34 -34l-157 161l-158 -161l-34 34l158 162l-158 161l34 34l158 -161l157 161z" />
    <glyph glyph-name="notequal" unicode="&#x2260;" horiz-adv-x="488" 
d="M448 412h-153l-85 -156h238v-46h-263l-82 -150h-46l82 150h-99v46h124l85 156h-209v46h234l83 152h46l-83 -152h128v-46z" />
    <glyph glyph-name="partialdiff" unicode="&#x2202;" horiz-adv-x="588" 
d="M289 710c155 -101 255 -286 255 -440c0 -194 -123 -278 -244 -280c-133 -2 -258 90 -258 249c0 149 110 253 246 253c71 0 140 -28 184 -78c-38 115 -131 220 -246 296h63zM293 32c114 0 203 94 203 212c0 117 -89 207 -205 207c-119 0 -208 -95 -208 -208
c0 -116 95 -211 210 -211z" />
    <glyph glyph-name="percent" unicode="%" horiz-adv-x="877" 
d="M226 348c-104 -8 -171 70 -171 189c0 110 57 184 149 189c103 8 171 -71 171 -189c0 -110 -58 -184 -149 -189zM686 710h56l-542 -710h-55zM106 537c0 -82 45 -138 109 -139c64 1 109 57 109 139c0 81 -45 137 -109 138c-64 -1 -109 -57 -109 -138zM832 175
c0 -110 -58 -184 -149 -189c-104 -8 -171 70 -171 189c0 110 57 184 149 189c103 8 171 -71 171 -189zM672 36c64 1 109 57 109 139c0 81 -45 137 -109 138c-64 -1 -109 -57 -109 -138c0 -82 45 -138 109 -139z" />
    <glyph glyph-name="perthousand" unicode="&#x2030;" horiz-adv-x="1244" 
d="M226 348c-104 -8 -171 70 -171 189c0 110 57 184 149 189c103 8 171 -71 171 -189c0 -110 -58 -184 -149 -189zM686 710h56l-542 -710h-55zM106 537c0 -82 45 -138 109 -139c64 1 109 57 109 139c0 81 -45 137 -109 138c-64 -1 -109 -57 -109 -138zM661 364
c103 8 171 -71 171 -189c0 -110 -58 -184 -149 -189c-104 -8 -171 70 -171 189c0 110 57 184 149 189zM1199 175c0 -110 -58 -184 -149 -189c-104 -8 -171 70 -171 189c0 110 57 184 149 189c103 8 171 -71 171 -189zM672 36c64 1 109 57 109 139c0 81 -45 137 -109 138
c-64 -1 -109 -57 -109 -138c0 -82 45 -138 109 -139zM1039 36c64 1 109 57 109 139c0 81 -45 137 -109 138c-64 -1 -109 -57 -109 -138c0 -82 45 -138 109 -139z" />
    <glyph glyph-name="plus" unicode="+" horiz-adv-x="661" 
d="M581 361v-48h-226v-227h-48v227h-227v48h227v226h48v-226h226z" />
    <glyph glyph-name="plusminus" unicode="&#xb1;" horiz-adv-x="501" 
d="M275 354h186v-48h-186v-127h-48v127h-187v48h187v126h48v-126zM40 0v48h421v-48h-421z" />
    <glyph glyph-name="product" unicode="&#x220f;" horiz-adv-x="531" 
d="M491 480h-108v-340c0 -77 40 -104 108 -96v-44c-94 -11 -154 34 -154 140v340h-194v-480h-47v480h-91v46h138h240h108v-46z" />
    <glyph glyph-name="radical" unicode="&#x221a;" horiz-adv-x="678" 
d="M465 700h173v-48h-143l-257 -652h-54l-184 479h50l161 -411z" />
    <glyph glyph-name="summation" unicode="&#x2211;" horiz-adv-x="426" 
d="M20 0v52l275 302l-275 304v52h366v-42h-315l285 -314l-285 -308h315v-46h-366z" />
    <glyph glyph-name="arrowup" unicode="&#x2191;" horiz-adv-x="712" 
d="M60 422l296 288l296 -288l-32 -32l-242 234v-624h-44v624l-242 -234z" />
    <glyph glyph-name="uni2197" unicode="&#x2197;" horiz-adv-x="830" 
d="M358 710h412v-412h-45v336l-634 -634l-31 31l634 634h-336v45z" />
    <glyph glyph-name="arrowright" unicode="&#x2192;" horiz-adv-x="886" 
d="M534 582l292 -291l-292 -291l-31 31l237 238h-680v44h680l-237 238z" />
    <glyph glyph-name="uni2198" unicode="&#x2198;" horiz-adv-x="828" 
d="M768 414v-412h-412v44l336 1l-632 632l31 31l632 -632l1 336h44z" />
    <glyph glyph-name="arrowdown" unicode="&#x2193;" horiz-adv-x="702" 
d="M642 193l-291 -292l-291 292l31 31l238 -237v723h44v-723l238 237z" />
    <glyph glyph-name="uni2199" unicode="&#x2199;" horiz-adv-x="831" 
d="M472 -1h-412v412h45v-336l635 635l31 -31l-635 -635l336 -1v-44z" />
    <glyph glyph-name="arrowleft" unicode="&#x2190;" horiz-adv-x="886" 
d="M352 -49l-292 291l292 291l31 -31l-237 -238h680v-44h-680l237 -238z" />
    <glyph glyph-name="uni2196" unicode="&#x2196;" horiz-adv-x="830" 
d="M60 298v412h412v-44l-336 -1l634 -634l-31 -31l-634 634l-1 -336h-44z" />
    <glyph glyph-name="arrowboth" unicode="&#x2194;" horiz-adv-x="1022" 
d="M771 53v69l98 105l-490 -1v1l-227 -1l102 -107v-67l-194 197l192 196v-68l-100 -105l224 1v1h267l228 -1l-101 105v67l192 -195z" />
    <glyph glyph-name="arrowupdn" unicode="&#x2195;" horiz-adv-x="512" 
d="M278 -62l105 100h69l-197 -193l-195 193h66l106 -100l-1 225v132v133l1 227l-106 -99h-66l195 191l197 -191h-69l-105 99v-492v-225z" />
    <glyph glyph-name="uni25CF" unicode="&#x25cf;" horiz-adv-x="902" 
d="M451 -58c-216 0 -391 175 -391 391c0 215 176 391 391 391s391 -176 391 -391s-176 -391 -391 -391z" />
    <glyph glyph-name="circle" unicode="&#x25cb;" horiz-adv-x="902" 
d="M451 -58c-216 0 -391 175 -391 391c0 215 176 391 391 391s391 -176 391 -391s-176 -391 -391 -391zM451 -4c186 0 337 151 337 337c0 185 -152 337 -337 337c-186 0 -337 -151 -337 -337s151 -337 337 -337z" />
    <glyph glyph-name="lozenge" unicode="&#x25ca;" horiz-adv-x="588" 
d="M319 710l209 -355l-209 -355h-51l-208 355l208 355h51zM294 43l183 312l-183 312l-183 -312z" />
    <glyph glyph-name="filledbox" unicode="&#x25a0;" horiz-adv-x="830" 
d="M60 710h710v-710h-710v710z" />
    <glyph glyph-name="uni25A1" unicode="&#x25a1;" horiz-adv-x="830" 
d="M60 710h710v-710h-710v710zM106 664v-618h618v618h-618z" />
    <glyph glyph-name="triagup" unicode="&#x25b2;" horiz-adv-x="966" 
d="M906 0l-423 710l-423 -710h846z" />
    <glyph glyph-name="uni25B3" unicode="&#x25b3;" horiz-adv-x="968" 
d="M908 0h-848l424 712zM818 49l-334 561l-334 -561h668z" />
    <glyph glyph-name="uni262E" unicode="&#x262e;" horiz-adv-x="902" 
d="M451 724c215 0 391 -176 391 -391s-176 -391 -391 -391c-216 0 -391 175 -391 391c0 215 176 391 391 391zM427 669c-175 -12 -313 -158 -313 -336c0 -51 11 -99 31 -142l282 179v299zM788 333c0 176 -138 323 -311 336v-299l280 -178c20 43 31 91 31 141zM170 148
c56 -85 149 -144 257 -151v313zM477 -3c107 8 200 66 256 151l-256 162v-313z" />
    <glyph glyph-name="smileface" unicode="&#x263a;" horiz-adv-x="900" 
d="M451 -55c-216 0 -391 173 -391 390c0 211 175 384 391 384c213 0 389 -173 389 -384c0 -217 -176 -390 -389 -390zM450 -3c187 0 336 142 336 333c0 188 -149 337 -336 337c-193 0 -335 -149 -335 -337c0 -191 142 -333 335 -333zM318 360c-33 0 -57 28 -57 59
s24 57 57 57c31 0 55 -26 55 -57s-24 -59 -55 -59zM580 357c-33 0 -57 26 -57 57s24 56 57 56c31 0 56 -25 56 -56s-25 -57 -56 -57zM277 289h49c-3 -71 52 -129 125 -129c72 0 127 57 124 129h50c5 -99 -74 -179 -174 -179c-101 0 -178 79 -174 179z" />
    <glyph glyph-name="uni2713" unicode="&#x2713;" horiz-adv-x="756" 
d="M29 239l35 35l177 -192l345 415l40 -31l-382 -459z" />
    <glyph glyph-name="bar" unicode="|" horiz-adv-x="120" 
d="M40 788h40v-878h-40v878z" />
    <glyph glyph-name="brokenbar" unicode="&#xa6;" horiz-adv-x="600" 
d="M277 791h46v-351h-46v351zM277 291h46v-361h-46v361z" />
    <glyph glyph-name="at" unicode="@" horiz-adv-x="913" 
d="M492 722c228 0 379 -159 371 -373c-6 -154 -89 -269 -197 -269c-74 0 -100 55 -91 109c-33 -60 -109 -98 -183 -98c-112 0 -193 90 -171 236c20 132 114 228 237 228c78 0 141 -39 161 -114l19 103h41l-61 -352c-9 -51 12 -68 39 -72c78 -12 150 89 158 223
c12 192 -116 341 -320 341c-215 0 -389 -167 -397 -388c-8 -213 142 -352 330 -352c84 0 176 28 248 73l18 -37c-76 -45 -183 -74 -274 -74c-202 0 -377 145 -370 387c7 237 190 429 442 429zM591 323c17 112 -28 193 -133 193c-107 0 -177 -84 -194 -193
c-19 -124 44 -193 139 -193c103 0 171 81 188 193z" />
    <glyph glyph-name="ampersand" unicode="&#x26;" horiz-adv-x="658" 
d="M638 0h-59l-63 77c-48 -57 -121 -87 -216 -87c-161 -1 -246 81 -246 201c0 109 71 174 178 231c-60 67 -87 106 -89 159c-3 82 58 141 146 141c84 0 143 -55 143 -132c0 -68 -47 -128 -132 -178l212 -258c21 50 27 113 21 186h46c8 -92 -5 -167 -36 -224zM289 679
c-58 0 -100 -35 -99 -98c0 -41 30 -76 84 -137c75 42 111 92 111 145s-36 90 -96 90zM302 33c87 1 148 29 185 79l-227 278c-76 -38 -160 -97 -160 -201c0 -99 75 -157 202 -156z" />
    <glyph glyph-name="paragraph" unicode="&#xb6;" horiz-adv-x="469" 
d="M227 712h106v-770h-46v365h-60c-102 0 -187 74 -187 203c0 127 85 202 187 202zM383 710h46v-770h-46v770z" />
    <glyph glyph-name="copyright" unicode="&#xa9;" horiz-adv-x="815" 
d="M407 -14c-203 0 -367 165 -367 369c0 202 165 367 367 367c203 0 368 -164 368 -367c0 -204 -164 -369 -368 -369zM407 32c178 0 322 145 322 323c0 177 -145 321 -322 321c-176 0 -321 -145 -321 -321c0 -178 144 -323 321 -323zM594 433l-46 -14c-18 55 -67 89 -133 89
c-80 0 -143 -68 -143 -154c0 -84 64 -153 143 -153c61 0 110 31 128 80l46 -17c-26 -69 -95 -114 -174 -114c-105 0 -193 93 -193 204c0 113 87 204 193 204c85 0 155 -48 179 -125z" />
    <glyph glyph-name="registered" unicode="&#xae;" horiz-adv-x="417" 
d="M209 719c99 0 178 -79 178 -177c0 -100 -79 -178 -178 -178c-98 0 -179 78 -179 178c0 98 81 177 179 177zM209 395c83 0 147 63 147 147c0 83 -64 147 -147 147c-84 0 -147 -64 -147 -147c0 -84 63 -147 147 -147zM268 573c0 -22 -11 -36 -29 -43l29 -66h-31l-26 61h-25
v-61h-28v155h28h26c34 0 56 -13 56 -46zM186 591v-42h26c21 0 25 10 25 24c0 11 -8 18 -25 18h-26z" />
    <glyph glyph-name="uni2117" unicode="&#x2117;" horiz-adv-x="531" 
d="M266 720c124 0 225 -100 225 -223c0 -125 -101 -225 -225 -225c-125 0 -226 100 -226 225c0 123 101 223 226 223zM265 302c109 0 195 82 195 193c0 109 -86 195 -195 195c-111 0 -193 -86 -193 -195c0 -111 82 -193 193 -193zM278 593c42 0 70 -17 70 -59
c0 -41 -29 -60 -69 -60h-35v-78h-35v197h35h34zM278 504c25 0 32 14 31 30c0 16 -10 24 -30 24h-35v-54h34z" />
    <glyph glyph-name="section" unicode="&#xa7;" horiz-adv-x="463" 
d="M398 355c0 -55 -31 -96 -82 -119c48 -20 77 -58 77 -109c0 -78 -67 -139 -163 -139c-94 0 -155 46 -170 115l41 10c10 -54 53 -87 129 -87c74 0 118 43 118 102c0 49 -31 72 -74 79l-66 10c-92 14 -145 60 -145 135c0 60 33 101 82 122c-48 19 -77 60 -77 110
c0 78 67 138 163 138c94 0 157 -45 172 -115l-41 -10c-10 54 -55 88 -131 88c-74 0 -118 -44 -118 -102c0 -51 34 -72 74 -79l66 -11c92 -15 145 -58 145 -138zM232 261c83 0 125 44 125 96c0 67 -65 93 -125 93c-86 0 -128 -45 -128 -97c0 -66 60 -92 128 -92z" />
    <glyph glyph-name="trademark" unicode="&#x2122;" horiz-adv-x="611" 
d="M251 710v-36h-94v-240h-37v240h-84v36h215zM517 710h34v-276h-34v189l-80 -189h-34l-81 187v-187h-34v276h34l98 -235z" />
    <glyph glyph-name="degree" unicode="&#xb0;" horiz-adv-x="243" 
d="M121 523c-56 0 -101 46 -101 101c0 56 46 102 101 102c56 0 102 -47 102 -102s-46 -101 -102 -101zM121 569c31 0 56 25 56 55s-26 56 -56 56s-55 -25 -55 -56c0 -30 25 -55 55 -55z" />
    <glyph glyph-name="estimated" unicode="&#x212e;" horiz-adv-x="779" 
d="M60 353c2 211 138 357 330 357c193 0 328 -123 328 -329c1 -16 1 -38 0 -53h-558v-180c52 -74 136 -117 242 -117c103 0 196 54 238 133l38 -14c-49 -98 -153 -159 -278 -159c-204 0 -343 147 -340 362zM160 546v-182h459v200c-50 68 -133 107 -229 106
c-100 -2 -181 -50 -230 -124z" />
    <glyph glyph-name="uni2116" unicode="&#x2116;" horiz-adv-x="1302" 
d="M945 716c129 0 237 -98 237 -233c0 -136 -108 -239 -237 -239c-125 0 -237 106 -237 239c0 134 110 233 237 233zM572 89v621h46v-710h-46l-406 621v-621h-46v710h46zM945 290c105 0 192 79 192 193c0 113 -89 188 -192 188s-192 -77 -192 -188c0 -110 90 -193 192 -193z
M808 120v46h274v-46h-274z" />
    <glyph glyph-name="asciicircum" unicode="^" horiz-adv-x="600" 
d="M449 480h-46l-80 179l-80 -179h-46l103 230h46z" />
    <glyph glyph-name="dagger" unicode="&#x2020;" horiz-adv-x="276" 
d="M256 610v-46h-95v-300h-46v300h-95v46h95v100h46v-100h95z" />
    <glyph glyph-name="daggerdbl" unicode="&#x2021;" horiz-adv-x="277" 
d="M257 440v-46h-96v-130h-46v130h-94v46h94v94h-95v46h95v130h46v-130h95v-46h-95v-94h96z" />
    <glyph glyph-name="minute" unicode="&#x2032;" horiz-adv-x="167" 
d="M117 688l-15 -177h-36l-16 177c-2 27 17 39 34 39s35 -12 33 -39z" />
    <glyph glyph-name="registered.ss01" horiz-adv-x="531" 
d="M266 720c124 0 225 -100 225 -223c0 -125 -101 -225 -225 -225c-125 0 -226 100 -226 225c0 123 101 223 226 223zM265 302c109 0 195 82 195 193c0 109 -86 195 -195 195c-111 0 -193 -86 -193 -195c0 -111 82 -193 193 -193zM341 536c0 -29 -14 -46 -36 -55l36 -83h-40
l-34 78h-30v-78h-35v197h35h34c42 0 70 -17 70 -59zM237 560v-54h34c25 0 30 13 30 30c0 14 -10 24 -30 24h-34z" />
    <glyph glyph-name="ampersand.ss02" horiz-adv-x="689" 
d="M567 94c49 -62 59 -52 102 -53v-41c-83 0 -92 3 -140 65l-12 16c-50 -59 -125 -90 -217 -92c-132 -3 -246 68 -246 202c0 103 68 166 187 246l-24 30c-30 39 -53 79 -53 124c0 70 55 131 138 131c79 0 139 -56 139 -134c0 -74 -71 -123 -133 -163l206 -263
c21 44 32 97 32 158h43c1 -80 -15 -146 -44 -198zM212 588c0 -40 18 -65 43 -96l24 -30c53 33 114 70 114 127c0 55 -39 89 -91 89c-49 0 -90 -31 -90 -90zM296 33c86 1 150 32 191 86l-218 281c-110 -70 -169 -121 -169 -208c0 -115 113 -160 196 -159z" />
    <glyph glyph-name="at.ss04" horiz-adv-x="903" 
d="M484 715c225 0 384 -177 368 -387c-9 -122 -77 -223 -184 -223c-68 0 -108 41 -114 90c-20 -47 -76 -84 -141 -84c-62 0 -132 32 -136 113c-4 86 61 134 140 134h138c11 77 -9 132 -93 131c-61 -1 -97 -29 -119 -81l-37 14c26 67 86 106 156 106c102 0 150 -61 140 -168
l-13 -130c-6 -65 30 -91 78 -91c91 0 138 98 142 203c7 193 -140 335 -330 335c-204 0 -375 -163 -385 -368c-10 -204 142 -372 345 -372c94 0 188 36 262 109l31 -27c-83 -79 -191 -120 -296 -120c-225 0 -397 185 -385 410c13 225 205 406 433 406zM417 148
c86 0 132 67 137 176h-109c-85 0 -124 -32 -124 -91c0 -63 46 -85 96 -85z" />
    <glyph glyph-name="uni0308" unicode="&#x308;" horiz-adv-x="0" 
d="M-230 766c-29 0 -53 24 -53 52c0 29 24 54 53 54c28 0 53 -25 53 -54c0 -28 -25 -52 -53 -52zM-73 766c-29 0 -53 24 -53 52c0 29 24 54 53 54c28 0 53 -25 53 -54c0 -28 -25 -52 -53 -52z" />
    <glyph glyph-name="uni0307" unicode="&#x307;" horiz-adv-x="0" 
d="M-73 766c-29 0 -53 24 -53 52c0 29 24 54 53 54c28 0 53 -25 53 -54c0 -28 -25 -52 -53 -52z" />
    <glyph glyph-name="gravecomb" unicode="&#x300;" horiz-adv-x="0" 
d="M-124 765l-65 107h61l52 -107h-48z" />
    <glyph glyph-name="acutecomb" unicode="&#x301;" horiz-adv-x="0" 
d="M-105 765h-48l52 106h63z" />
    <glyph glyph-name="uni030B" unicode="&#x30b;" horiz-adv-x="0" 
d="M-177 765h-48l52 106h63zM-95 765h-48l67 106h63z" />
    <glyph glyph-name="uni0302" unicode="&#x302;" horiz-adv-x="0" 
d="M-40 765h-58l-47 70l-48 -70h-58l70 107h61h10z" />
    <glyph glyph-name="uni030C" unicode="&#x30c;" horiz-adv-x="0" 
d="M-94 872h58l-70 -107h-61h-10l-70 107h58l48 -70z" />
    <glyph glyph-name="uni0306" unicode="&#x306;" horiz-adv-x="0" 
d="M-81 872h51c0 -62 -52 -107 -115 -107s-115 45 -115 107h51c0 -32 25 -56 64 -56s64 24 64 56z" />
    <glyph glyph-name="uni030A" unicode="&#x30a;" horiz-adv-x="0" 
d="M-120 766c-55 0 -98 43 -98 99c0 55 45 100 98 100c55 0 100 -46 100 -100s-45 -99 -100 -99zM-119 809c32 0 57 24 57 58c0 30 -25 56 -57 56s-56 -25 -56 -56c0 -34 24 -58 56 -58z" />
    <glyph glyph-name="tildecomb" unicode="&#x303;" horiz-adv-x="0" 
d="M-280 789c-2 58 26 88 68 88c50 0 81 -42 121 -42c20 0 33 10 33 42h43c0 -54 -27 -88 -75 -88c-53 0 -83 42 -116 42c-15 0 -31 -8 -31 -42h-43z" />
    <glyph glyph-name="uni0304" unicode="&#x304;" horiz-adv-x="0" 
d="M-286 873h256v-46h-256v46z" />
    <glyph glyph-name="uni0312" unicode="&#x312;" horiz-adv-x="0" 
d="M-86 833c19 0 37 -13 37 -39s-18 -43 -43 -43c-27 0 -49 19 -49 58c0 57 50 88 80 87v-23c-16 -1 -39 -19 -40 -43c5 2 10 3 15 3z" />
    <glyph glyph-name="uni0326" unicode="&#x326;" horiz-adv-x="0" 
d="M-84 -17c27 0 49 -19 49 -58c0 -57 -50 -88 -80 -87v23c16 1 39 19 40 43c-5 -2 -10 -3 -15 -3c-19 0 -37 13 -37 39s18 43 43 43z" />
    <glyph glyph-name="uni0327" unicode="&#x327;" horiz-adv-x="0" 
d="M-357 -144v39h77c17 0 26 13 26 26c-1 12 -9 23 -26 23h-77v34l40 48h25v-26l-17 -21h38c44 0 60 -36 60 -63c0 -28 -22 -60 -58 -60h-88z" />
    <glyph glyph-name="uni0338" unicode="&#x338;" horiz-adv-x="0" 
d="M-478 -40h-44l351 569h45z" />
    <glyph glyph-name="acute" unicode="&#xb4;" horiz-adv-x="167" 
d="M88 765h-48l52 106h63z" />
    <glyph glyph-name="breve" unicode="&#x2d8;" horiz-adv-x="293" 
d="M263 872c0 -62 -52 -107 -115 -107s-115 45 -115 107h51c0 -32 25 -56 64 -56s64 24 64 56h51z" />
    <glyph glyph-name="caron" unicode="&#x2c7;" horiz-adv-x="271" 
d="M167 872h58l-70 -107h-61h-10l-70 107h58l48 -70z" />
    <glyph glyph-name="cedilla" unicode="&#xb8;" horiz-adv-x="600" 
d="M243 -144v39h77c17 0 26 13 26 26c-1 12 -9 23 -26 23h-77v34l40 48h25v-26l-17 -21h38c44 0 60 -36 60 -63c0 -28 -22 -60 -58 -60h-88z" />
    <glyph glyph-name="circumflex" unicode="&#x2c6;" horiz-adv-x="271" 
d="M251 765h-58l-47 70l-48 -70h-58l70 107h61h10z" />
    <glyph glyph-name="dieresis" unicode="&#xa8;" horiz-adv-x="302" 
d="M73 765c-29 0 -53 24 -53 52c0 29 24 54 53 54c28 0 53 -25 53 -54c0 -28 -25 -52 -53 -52zM229 765c-29 0 -53 24 -53 52c0 29 24 54 53 54c28 0 53 -25 53 -54c0 -28 -25 -52 -53 -52z" />
    <glyph glyph-name="dotaccent" unicode="&#x2d9;" horiz-adv-x="146" 
d="M73 765c-29 0 -53 24 -53 52c0 29 24 54 53 54c28 0 53 -25 53 -54c0 -28 -25 -52 -53 -52z" />
    <glyph glyph-name="grave" unicode="`" horiz-adv-x="181" 
d="M99 765l-69 106h65l52 -106h-48z" />
    <glyph glyph-name="hungarumlaut" unicode="&#x2dd;" horiz-adv-x="296" 
d="M68 765h-48l52 106h63zM173 765h-48l57 106h63z" />
    <glyph glyph-name="macron" unicode="&#xaf;" horiz-adv-x="316" 
d="M30 813h256v-46h-256v46z" />
    <glyph glyph-name="ogonek" unicode="&#x2db;" horiz-adv-x="173" 
d="M95 0h38c-77 -42 -45 -96 0 -84v-45c-106 -28 -124 94 -38 129z" />
    <glyph glyph-name="ring" unicode="&#x2da;" horiz-adv-x="238" 
d="M118 766c-55 0 -98 43 -98 99c0 55 45 100 98 100c55 0 100 -46 100 -100s-45 -99 -100 -99zM119 809c32 0 57 24 57 58c0 30 -25 56 -57 56s-56 -25 -56 -56c0 -34 24 -58 56 -58z" />
    <glyph glyph-name="tilde" unicode="&#x2dc;" horiz-adv-x="297" 
d="M17 789c-2 58 26 88 68 88c50 0 81 -42 121 -42c20 0 33 10 33 42h43c0 -54 -27 -88 -75 -88c-53 0 -83 42 -116 42c-15 0 -31 -8 -31 -42h-43z" />
    </font>
</defs>
</svg>
