<?xml version="1.0" standalone="no"?>
<!DOCTYPE svg PUBLIC "-//W3C//DTD SVG 1.1//EN" "http://www.w3.org/Graphics/SVG/1.1/DTD/svg11.dtd" >
<svg xmlns="http://www.w3.org/2000/svg" xmlns:xlink="http://www.w3.org/1999/xlink" version="1.1">
<metadata>
Created by FontForge 20170812 at Tue Apr 18 18:31:30 2017
 By www-data
Copyright \(c\) 2016 by Deni Anggara. All rights reserved.
</metadata>
<defs>
<font id="Biotif-ExtraBold" horiz-adv-x="0" >
  <font-face 
    font-family="Biotif ExtraBold"
    font-weight="800"
    font-stretch="normal"
    units-per-em="1000"
    panose-1="0 0 9 0 0 0 0 0 0 0"
    ascent="800"
    descent="-200"
    x-height="498"
    cap-height="737"
    bbox="-542 -260 1488 1128"
    underline-thickness="80"
    underline-position="-195"
    stemh="141"
    stemv="149"
    unicode-range="U+0020-FB02"
  />
<missing-glyph horiz-adv-x="553" 
d="M453 869v-1105h-350v1105h350zM368 795h-182v-36h71v-41h-72v-37h183v37h-73v41h73v36zM295 652h-110v-114h183v37h-73v77zM257 615v-40h-36v40h36zM368 508h-183v-37h72v-41h-72v-36h110v77h73v37zM368 441h-36v-73h-147v-37h183v110zM368 307h-111v-62h38v25h37v-52
h-111v89h-36v-125h183v125zM368 115h-183v-124h183v124zM332 79v-52h-111v52h111zM368 -35h-183v-36h77l-77 -52v-37h183v37h-113l78 52h35v36z" />
    <glyph glyph-name="f_f" unicode="ff" horiz-adv-x="752" 
d="M719 618c-100 20 -119 -20 -119 -73v-47h100v-118h-100v-380h-143l-1 380h-232v-380h-143v380h-69v118h69l-1 47c0 144 78 205 197 205c20 0 42 -1 66 -5v-127c-99 20 -119 -20 -119 -73v-47h232v47c0 144 77 205 197 205c19 0 42 -1 66 -5v-127z" />
    <glyph glyph-name="f_f_i" unicode="ffi" horiz-adv-x="1035" 
d="M599 545v-48h370v-497h-143v379h-227v-379h-143v380h-232v-380h-143l-1 380h-68v118h68v47c0 144 77 205 197 205c19 0 42 -1 66 -5v-127c-100 20 -119 -20 -119 -73v-47h231v47c0 144 77 205 197 205c20 0 42 -1 66 -5v-127c-99 20 -119 -20 -119 -73zM898 582
c-46 0 -83 37 -83 83c0 47 37 83 83 83s83 -36 83 -83c0 -46 -37 -83 -83 -83z" />
    <glyph glyph-name="f_f_l" unicode="ffl" horiz-adv-x="1032" 
d="M820 750h143v-750h-143v380h-221v-380h-143v380h-232v-380h-143l-1 380h-68v118h68v47c0 144 77 205 197 205c19 0 42 -1 66 -5v-127c-100 20 -119 -20 -119 -73v-47h231v47c0 144 77 205 197 205c20 0 42 -1 66 -5v-127c-99 20 -119 -20 -119 -73v-47h221v252z" />
    <glyph glyph-name="f_t" unicode="ft" horiz-adv-x="734" 
d="M723 498v-118h-114v-380h-140v380h-245v-380h-143l-1 380h-68v118h68v47c0 144 77 205 197 205c19 0 42 -1 66 -5v-127c-100 20 -119 -20 -119 -73v-47h245v154h140v-154h114z" />
    <glyph glyph-name="f_y" unicode="fy" horiz-adv-x="855" 
d="M693 498h153l-221 -592c-68 -181 -233 -162 -316 -123l37 120c38 -29 118 -43 148 36l4 9l-1 -1l-168 433h-105v-380h-143l-1 380h-68v118h68v47c0 144 77 205 197 205c19 0 42 -1 66 -5v-127c-100 20 -119 -20 -119 -73v-47h215l131 -359z" />
    <glyph glyph-name="fi" unicode="fi" horiz-adv-x="659" 
d="M224 497h367v-497h-142v379h-225v-379h-143l-1 380h-68v118h68v47c0 144 77 205 197 205c19 0 42 -1 66 -5v-127c-100 20 -119 -20 -119 -73v-48zM522 582c-47 0 -83 37 -83 83c0 47 36 83 83 83c46 0 83 -36 83 -83c0 -46 -37 -83 -83 -83z" />
    <glyph glyph-name="fl" unicode="fl" horiz-adv-x="655" 
d="M445 750h143v-750h-143v380h-221v-380h-143l-1 380h-68v118h68v47c0 144 77 205 197 205c19 0 42 -1 66 -5v-127c-100 20 -119 -20 -119 -73v-47h221v252z" />
    <glyph glyph-name="t_i" unicode="ti" horiz-adv-x="625" 
d="M491 582c-46 0 -83 37 -83 83c0 47 37 83 83 83s83 -36 83 -83c0 -46 -37 -83 -83 -83zM561 498v-498h-143v380h-171v-380h-140v380h-95v118h95v154h140v-154h314z" />
    <glyph glyph-name="t_t" unicode="tt" horiz-adv-x="708" 
d="M696 498v-118h-95v-380h-140v380h-95h-119v-380h-140v380h-95v118h95v154h140v-154h164h50v154h140v-154h95z" />
    <glyph glyph-name="t_y" unicode="ty" horiz-adv-x="869" 
d="M707 498h153l-222 -592c-68 -181 -233 -162 -316 -123l37 120c39 -29 119 -43 149 36l3 8l-169 433h-95v-380h-140v380h-95v118h95v154h140v-154h163h43l130 -360z" />
    <glyph glyph-name=".notdef" horiz-adv-x="553" 
d="M453 869v-1105h-350v1105h350zM368 795h-182v-36h71v-41h-72v-37h183v37h-73v41h73v36zM295 652h-110v-114h183v37h-73v77zM257 615v-40h-36v40h36zM368 508h-183v-37h72v-41h-72v-36h110v77h73v37zM368 441h-36v-73h-147v-37h183v110zM368 307h-111v-62h38v25h37v-52
h-111v89h-36v-125h183v125zM368 115h-183v-124h183v124zM332 79v-52h-111v52h111zM368 -35h-183v-36h77l-77 -52v-37h183v37h-113l78 52h35v36z" />
    <glyph glyph-name="DegarismLogo" horiz-adv-x="1528" 
d="M731 180v95h229v-267h-82l-10 80h-9s-20 -88 -146 -88c-120 0 -215 80 -215 253c0 180 116 258 235 258c94 0 200 -51 222 -176h-113c-13 45 -48 79 -107 79c-88 0 -126 -72 -126 -157c0 -82 35 -160 124 -160c59 0 101 35 111 83h-113zM1052 402c-30 0 -55 25 -55 55
s25 54 55 54s54 -24 54 -54s-24 -55 -54 -55zM1190 402c-30 0 -55 25 -55 55s25 54 55 54s54 -24 54 -54s-24 -55 -54 -55zM1276 511v-21h29v-85h25v85h30v21h-84zM1488 511h-44l-14 -88l-12 88h-44v-106h25v91l14 -91h35l15 91v-91h25v106zM234 506c138 0 230 -80 230 -249
s-92 -249 -230 -249h-194v498h194zM234 99c20 0 120 6 120 158c0 150 -100 158 -120 158h-66c-36 2 -62 24 -62 24l-8 -8s16 -15 30 -30c24 -21 22 -56 22 -56v-177c0 -36 -22 -56 -22 -56l-30 -30l8 -7s30 25 70 24h58zM1120 302c22 41 74 47 124 40v-89
c-70 6 -122 -21 -122 -105v-140h-108v257c0 47 -4 64 -7 77h109c1 -7 3 -22 4 -40z" />
    <glyph glyph-name="bracketleftsuperior" horiz-adv-x="208" 
d="M203 285v-70h-162v668h162v-71h-76v-527h76z" />
    <glyph glyph-name="bracketrightsuperior" horiz-adv-x="203" 
d="M0 285h76v527h-76v71h162v-668h-162v70z" />
    <glyph glyph-name="A" unicode="A" horiz-adv-x="695" 
d="M527 0l-55 161h-251l-56 -161h-155l264 737h146h2l263 -737h-158zM264 286h165l-82 242z" />
    <glyph glyph-name="Aacute" unicode="&#xc1;" horiz-adv-x="695" 
d="M516 965l-115 -177h-104l89 177h130zM527 0l-55 161h-251l-56 -161h-155l264 737h146h2l263 -737h-158zM264 286h165l-82 242z" />
    <glyph glyph-name="Abreve" unicode="&#x102;" horiz-adv-x="695" 
d="M350 788c-107 0 -185 79 -186 175h104c2 -49 37 -73 82 -73c43 0 79 25 81 73h103c-2 -96 -80 -175 -184 -175zM527 0l-55 161h-251l-56 -161h-155l264 737h146h2l263 -737h-158zM264 286h165l-82 242z" />
    <glyph glyph-name="Acircumflex" unicode="&#xc2;" horiz-adv-x="695" 
d="M350 894l-61 -106h-105l96 178h111h28l96 -178h-105zM527 0l-55 161h-251l-56 -161h-155l264 737h146h2l263 -737h-158zM264 286h165l-82 242z" />
    <glyph glyph-name="Adieresis" unicode="&#xc4;" horiz-adv-x="695" 
d="M241 795c-44 0 -80 35 -80 78c0 44 36 79 80 79c42 0 78 -36 78 -79c0 -42 -35 -78 -78 -78zM460 795c-44 0 -80 35 -80 78c0 44 36 79 80 79c42 0 79 -36 79 -79c0 -42 -36 -78 -79 -78zM527 0l-55 161h-251l-56 -161h-155l264 737h146h2l263 -737h-158zM264 286h165
l-82 242z" />
    <glyph glyph-name="Agrave" unicode="&#xc0;" horiz-adv-x="695" 
d="M401 788h-104l-116 177h130zM527 0l-55 161h-251l-56 -161h-155l264 737h146h2l263 -737h-158zM264 286h165l-82 242z" />
    <glyph glyph-name="Amacron" unicode="&#x100;" horiz-adv-x="695" 
d="M510 895v-89h-322v89h322zM527 0l-55 161h-251l-56 -161h-155l264 737h146h2l263 -737h-158zM264 286h165l-82 242z" />
    <glyph glyph-name="Aogonek" unicode="&#x104;" horiz-adv-x="695" 
d="M691 0c-114 -39 -86 -144 -6 -111v-92c-171 -59 -229 148 -79 203h-79l-55 161h-251l-56 -161h-155l264 737h146h2l263 -737h6zM264 286h165l-82 242z" />
    <glyph glyph-name="Aring" unicode="&#xc5;" horiz-adv-x="695" 
d="M350 772c-75 0 -134 59 -134 135c0 74 61 136 134 136s133 -63 133 -136c0 -74 -60 -135 -133 -135zM350 964c-32 0 -56 -24 -56 -55c0 -34 24 -58 56 -58s56 24 56 58c0 30 -24 55 -56 55zM527 0l-55 161h-251l-56 -161h-155l264 737h146h2l263 -737h-158zM264 286h165
l-82 242z" />
    <glyph glyph-name="Aringacute" unicode="&#x1fa;" horiz-adv-x="695" 
d="M529 1128l-115 -177h-104l90 177h129zM527 0l-55 161h-251l-56 -161h-155l250 699c-24 24 -39 58 -39 96c0 73 61 135 133 135c74 0 134 -63 134 -135c0 -42 -19 -80 -50 -105l247 -690h-158zM354 852c-32 0 -56 -24 -56 -55c0 -34 24 -58 56 -58s56 24 56 58
c0 30 -24 55 -56 55zM264 286h165l-82 242z" />
    <glyph glyph-name="Atilde" unicode="&#xc3;" horiz-adv-x="695" 
d="M253 810l-87 -1c-18 102 41 154 101 154c62 0 104 -52 147 -52c25 0 36 19 31 45h88c17 -103 -44 -147 -104 -147c-64 0 -108 50 -146 50c-25 0 -33 -21 -30 -49zM527 0l-55 161h-251l-56 -161h-155l264 737h146h2l263 -737h-158zM264 286h165l-82 242z" />
    <glyph glyph-name="AE" unicode="&#xc6;" horiz-adv-x="963" 
d="M906 141l-1 -141l-324 1v-1h-141v170h-196l-64 -170h-170l295 735h154h122h325l-1 -141h-324v-153l291 -1l-1 -136h-290v-162zM293 298h147v296l-35 1z" />
    <glyph glyph-name="AEacute" unicode="&#x1fc;" horiz-adv-x="963" 
d="M738 965l-115 -177h-104l90 177h129zM906 141l-1 -141l-324 1v-1h-141v170h-196l-64 -170h-170l295 735h154h122h325l-1 -141h-324v-153l291 -1l-1 -136h-290v-162zM293 298h147v296l-35 1z" />
    <glyph glyph-name="B" unicode="B" horiz-adv-x="662" 
d="M517 367c57 -28 108 -83 108 -174c0 -125 -97 -193 -241 -193h-199h-107v735h148h159c144 0 231 -82 231 -201c0 -86 -45 -142 -99 -167zM369 608h-143v-186h144c69 0 98 46 98 92c0 45 -29 94 -99 94zM378 127c60 0 100 35 100 91s-41 93 -100 93h-152v-184h152z" />
    <glyph glyph-name="C" unicode="C" horiz-adv-x="756" 
d="M711 535l-143 -48c-25 79 -90 118 -170 118c-127 0 -204 -94 -204 -237c0 -148 83 -233 203 -233c88 0 160 46 186 114l141 -60c-52 -131 -182 -201 -328 -201c-216 0 -359 149 -359 378c0 230 145 384 361 384c159 0 277 -87 313 -215z" />
    <glyph glyph-name="Cacute" unicode="&#x106;" horiz-adv-x="756" 
d="M450 788h-104l90 177h129zM711 535l-143 -48c-25 79 -90 118 -170 118c-127 0 -204 -94 -204 -237c0 -148 83 -233 203 -233c88 0 160 46 186 114l141 -60c-52 -131 -182 -201 -328 -201c-216 0 -359 149 -359 378c0 230 145 384 361 384c159 0 277 -87 313 -215z" />
    <glyph glyph-name="Ccaron" unicode="&#x10c;" horiz-adv-x="756" 
d="M329 788l-95 178h105l60 -105l61 105h105l-96 -178h-140zM583 249l141 -60c-52 -131 -182 -201 -328 -201c-216 0 -359 149 -359 378c0 230 145 384 361 384c159 0 277 -87 313 -215l-143 -48c-25 79 -90 118 -170 118c-127 0 -204 -94 -204 -237
c0 -148 83 -233 203 -233c88 0 160 46 186 114z" />
    <glyph glyph-name="Ccedilla" unicode="&#xc7;" horiz-adv-x="756" 
d="M724 189c-49 -123 -165 -192 -300 -200l-22 -27h34c48 0 79 -36 79 -84c0 -53 -31 -84 -79 -84h-114v62h92c13 0 26 6 26 23c0 16 -13 22 -26 22h-92v62l21 28c-186 23 -306 165 -306 375c0 230 145 384 361 384c159 0 277 -87 313 -215l-143 -48
c-25 79 -90 118 -170 118c-127 0 -204 -94 -204 -237c0 -148 83 -233 203 -233c88 0 160 46 186 114z" />
    <glyph glyph-name="Ccircumflex" unicode="&#x108;" horiz-adv-x="756" 
d="M400 894l-61 -106h-105l96 178h111h28l96 -178h-105zM583 249l141 -60c-52 -131 -182 -201 -328 -201c-216 0 -359 149 -359 378c0 230 145 384 361 384c159 0 277 -87 313 -215l-143 -48c-25 79 -90 118 -170 118c-127 0 -204 -94 -204 -237c0 -148 83 -233 203 -233
c88 0 160 46 186 114z" />
    <glyph glyph-name="Cdotaccent" unicode="&#x10a;" horiz-adv-x="756" 
d="M398 795c-43 0 -78 34 -78 78s36 79 78 79c43 0 79 -36 79 -79s-36 -78 -79 -78zM711 535l-143 -48c-25 79 -90 118 -170 118c-127 0 -204 -94 -204 -237c0 -148 83 -233 203 -233c88 0 160 46 186 114l141 -60c-52 -131 -182 -201 -328 -201c-216 0 -359 149 -359 378
c0 230 145 384 361 384c159 0 277 -87 313 -215z" />
    <glyph glyph-name="D" unicode="D" horiz-adv-x="753" 
d="M346 737c208 0 370 -153 370 -370s-159 -367 -370 -367h-268v737h268zM344 138c132 0 214 93 214 229s-84 230 -214 230h-117v-459h117z" />
    <glyph glyph-name="Eth" unicode="&#xd0;" horiz-adv-x="771" 
d="M346 737c208 0 370 -153 370 -370s-159 -367 -370 -367h-268v308h-67v122h67v307h268zM344 138c132 0 214 93 214 229s-84 230 -214 230h-117v-167h89v-122h-89v-170h117z" />
    <glyph glyph-name="Dcaron" unicode="&#x10e;" horiz-adv-x="753" 
d="M223 788l-95 178h105l60 -105l61 105h105l-96 -178h-140zM346 737c208 0 370 -153 370 -370s-159 -367 -370 -367h-268v737h268zM344 138c132 0 214 93 214 229s-84 230 -214 230h-117v-459h117z" />
    <glyph glyph-name="Dcroat" unicode="&#x110;" horiz-adv-x="771" 
d="M346 737c208 0 370 -153 370 -370s-159 -367 -370 -367h-268v308h-67v122h67v307h268zM344 138c132 0 214 93 214 229s-84 230 -214 230h-117v-167h89v-122h-89v-170h117z" />
    <glyph glyph-name="E" unicode="E" horiz-adv-x="598" 
d="M227 140h315v-140h-464v737h464v-142h-315v-157h280v-132h-280v-166z" />
    <glyph glyph-name="Eacute" unicode="&#xc9;" horiz-adv-x="598" 
d="M476 965l-115 -177h-104l89 177h130zM227 140h315v-140h-464v737h464v-142h-315v-157h280v-132h-280v-166z" />
    <glyph glyph-name="Ebreve" unicode="&#x114;" horiz-adv-x="598" 
d="M311 788c-109 0 -186 81 -186 179h104c0 -52 37 -77 82 -77c44 0 81 26 81 77h103c0 -97 -79 -179 -184 -179zM227 140h315v-140h-464v737h464v-142h-315v-157h280v-132h-280v-166z" />
    <glyph glyph-name="Ecaron" unicode="&#x11a;" horiz-adv-x="598" 
d="M239 788l-95 178h105l60 -105l61 105h105l-96 -178h-140zM227 140h315v-140h-464v737h464v-142h-315v-157h280v-132h-280v-166z" />
    <glyph glyph-name="Ecircumflex" unicode="&#xca;" horiz-adv-x="598" 
d="M310 894l-61 -106h-105l96 178h111h28l96 -178h-105zM227 140h315v-140h-464v737h464v-142h-315v-157h280v-132h-280v-166z" />
    <glyph glyph-name="Edieresis" unicode="&#xcb;" horiz-adv-x="598" 
d="M201 795c-44 0 -80 35 -80 78c0 44 36 79 80 79c42 0 78 -36 78 -79c0 -42 -35 -78 -78 -78zM420 795c-44 0 -80 35 -80 78c0 44 36 79 80 79c42 0 79 -36 79 -79c0 -42 -36 -78 -79 -78zM227 140h315v-140h-464v737h464v-142h-315v-157h280v-132h-280v-166z" />
    <glyph glyph-name="Edotaccent" unicode="&#x116;" horiz-adv-x="598" 
d="M309 795c-43 0 -78 34 -78 78s36 79 78 79c43 0 79 -36 79 -79s-36 -78 -79 -78zM227 140h315v-140h-464v737h464v-142h-315v-157h280v-132h-280v-166z" />
    <glyph glyph-name="Egrave" unicode="&#xc8;" horiz-adv-x="598" 
d="M361 788h-104l-116 177h130zM227 140h315v-140h-464v737h464v-142h-315v-157h280v-132h-280v-166z" />
    <glyph glyph-name="Emacron" unicode="&#x112;" horiz-adv-x="598" 
d="M470 895v-89h-322v89h322zM227 140h315v-140h-464v737h464v-142h-315v-157h280v-132h-280v-166z" />
    <glyph glyph-name="Eogonek" unicode="&#x118;" horiz-adv-x="598" 
d="M227 140h315v-140h-1c-114 -39 -86 -144 -6 -111v-92c-171 -59 -229 148 -79 203h-378v737h464v-142h-315v-157h280v-132h-280v-166z" />
    <glyph glyph-name="F" unicode="F" horiz-adv-x="576" 
d="M542 596h-315v-169h266l-1 -134h-265v-293h-149v737h149h316z" />
    <glyph glyph-name="G" unicode="G" horiz-adv-x="787" 
d="M385 431h345v-431h-128l-8 72c-46 -58 -133 -83 -213 -83c-209 0 -344 160 -344 377c0 223 142 384 365 384c162 0 283 -84 325 -204l-134 -55c-32 85 -108 119 -189 119c-135 0 -216 -99 -216 -247c0 -155 88 -235 209 -235c79 0 176 32 194 150v22h-206v131z" />
    <glyph glyph-name="Gbreve" unicode="&#x11e;" horiz-adv-x="787" 
d="M385 788c-109 0 -186 81 -186 179h104c0 -52 37 -77 82 -77c44 0 81 26 81 77h103c0 -97 -79 -179 -184 -179zM385 431h345v-431h-128l-8 72c-46 -58 -133 -83 -213 -83c-209 0 -344 160 -344 377c0 223 142 384 365 384c162 0 283 -84 325 -204l-134 -55
c-32 85 -108 119 -189 119c-135 0 -216 -99 -216 -247c0 -155 88 -235 209 -235c79 0 176 32 194 150v22h-206v131z" />
    <glyph glyph-name="Gcircumflex" unicode="&#x11c;" horiz-adv-x="787" 
d="M385 894l-61 -106h-105l96 178h111h28l96 -178h-105zM385 431h345v-431h-128l-8 72c-46 -58 -133 -83 -213 -83c-209 0 -344 160 -344 377c0 223 142 384 365 384c162 0 283 -84 325 -204l-134 -55c-32 85 -108 119 -189 119c-135 0 -216 -99 -216 -247
c0 -155 88 -235 209 -235c79 0 176 32 194 150v22h-206v131z" />
    <glyph glyph-name="Gcommaaccent" unicode="&#x122;" horiz-adv-x="787" 
d="M385 431h345v-431h-128l-8 72c-46 -58 -133 -83 -213 -83c-209 0 -344 160 -344 377c0 223 142 384 365 384c162 0 283 -84 325 -204l-134 -55c-32 85 -108 119 -189 119c-135 0 -216 -99 -216 -247c0 -155 88 -235 209 -235c79 0 176 32 194 150v22h-206v131zM410 -47
c35 0 69 -23 69 -85c0 -69 -48 -123 -111 -123v35c36 0 58 27 56 52c-6 -3 -13 -4 -22 -4c-32 0 -56 22 -56 60s26 65 64 65z" />
    <glyph glyph-name="Gdotaccent" unicode="&#x120;" horiz-adv-x="787" 
d="M384 795c-43 0 -78 34 -78 78s36 79 78 79c43 0 79 -36 79 -79s-36 -78 -79 -78zM385 431h345v-431h-128l-8 72c-46 -58 -133 -83 -213 -83c-209 0 -344 160 -344 377c0 223 142 384 365 384c162 0 283 -84 325 -204l-134 -55c-32 85 -108 119 -189 119
c-135 0 -216 -99 -216 -247c0 -155 88 -235 209 -235c79 0 176 32 194 150v22h-206v131z" />
    <glyph glyph-name="H" unicode="H" horiz-adv-x="746" 
d="M78 0v737h149v-298l292 -1v299h150v-737h-150v305l-292 2v-307h-149z" />
    <glyph glyph-name="Hbar" unicode="&#x126;" horiz-adv-x="746" 
d="M742 657v-126h-73v-531h-150v305l-292 2v-307h-149v531h-75v126h75v80h149v-80h292v80h150v-80h73zM519 438v93h-292v-92z" />
    <glyph glyph-name="I" unicode="I" horiz-adv-x="305" 
d="M227 0h-149v737h149v-737z" />
    <glyph glyph-name="Iacute" unicode="&#xcd;" horiz-adv-x="305" 
d="M204 788h-104l89 177h130zM227 0h-149v737h149v-737z" />
    <glyph glyph-name="Icircumflex" unicode="&#xce;" horiz-adv-x="305" 
d="M153 894l-61 -106h-105l96 178h111h28l96 -178h-105zM78 0v737h149v-737h-149z" />
    <glyph glyph-name="Idieresis" unicode="&#xcf;" horiz-adv-x="305" 
d="M44 795c-44 0 -80 35 -80 78c0 44 36 79 80 79c42 0 78 -36 78 -79c0 -42 -35 -78 -78 -78zM263 795c-44 0 -80 35 -80 78c0 44 36 79 80 79c42 0 79 -36 79 -79c0 -42 -36 -78 -79 -78zM227 0h-149v737h149v-737z" />
    <glyph glyph-name="Idotaccent" unicode="&#x130;" horiz-adv-x="305" 
d="M152 795c-43 0 -78 34 -78 78s36 79 78 79c43 0 79 -36 79 -79s-36 -78 -79 -78zM227 0h-149v737h149v-737z" />
    <glyph glyph-name="Igrave" unicode="&#xcc;" horiz-adv-x="305" 
d="M101 788l-116 177h130l90 -177h-104zM227 0h-149v737h149v-737z" />
    <glyph glyph-name="Imacron" unicode="&#x12a;" horiz-adv-x="305" 
d="M-8 895h322v-89h-322v89zM227 0h-149v737h149v-737z" />
    <glyph glyph-name="Iogonek" unicode="&#x12e;" horiz-adv-x="305" 
d="M78 737h149v-737c-114 -39 -86 -144 -6 -111v-92c-171 -59 -229 148 -79 203h-64v737z" />
    <glyph glyph-name="Itilde" unicode="&#x128;" horiz-adv-x="305" 
d="M-30 809c-18 102 41 154 101 154c62 0 104 -52 147 -52c25 0 36 19 31 45h88c17 -103 -44 -147 -104 -147c-64 0 -108 50 -146 50c-25 0 -33 -21 -30 -49zM227 0h-149v737h149v-737z" />
    <glyph glyph-name="J" unicode="J" horiz-adv-x="565" 
d="M344 737h150v-532c0 -126 -92 -220 -239 -219c-158 1 -235 96 -235 223v26h144v-26c0 -46 30 -84 90 -84s90 36 90 89v523z" />
    <glyph glyph-name="Jcircumflex" unicode="&#x134;" horiz-adv-x="565" 
d="M420 894l-61 -106h-105l96 178h111h28l96 -178h-105zM344 737h150v-532c0 -126 -92 -220 -239 -219c-158 1 -235 96 -235 223v26h144v-26c0 -46 30 -84 90 -84s90 36 90 89v523z" />
    <glyph glyph-name="K" unicode="K" horiz-adv-x="702" 
d="M692 737l-288 -369l279 -368h-194l-178 249l-83 -108v-144h-150v740h150v-360l270 360h194z" />
    <glyph glyph-name="Kcommaaccent" unicode="&#x136;" horiz-adv-x="702" 
d="M692 737l-288 -369l279 -368h-194l-178 249l-83 -108v-144h-150v740h150v-360l270 360h194zM358 -35c35 0 69 -23 69 -85c0 -69 -48 -123 -111 -123v35c36 0 58 27 56 52c-6 -3 -13 -4 -22 -4c-32 0 -56 22 -56 60s26 65 64 65z" />
    <glyph glyph-name="L" unicode="L" horiz-adv-x="546" 
d="M229 134h291v-134h-418h-24v737h151v-603z" />
    <glyph glyph-name="Lacute" unicode="&#x139;" horiz-adv-x="546" 
d="M320 947l-115 -177h-104l90 177h129zM229 134h291v-134h-418h-24v737h151v-603z" />
    <glyph glyph-name="Lcaron" unicode="&#x13d;" horiz-adv-x="546" 
d="M380 625c-32 0 -56 23 -56 60c0 39 26 66 64 66c35 0 70 -24 70 -85c0 -70 -49 -124 -112 -124v35c36 0 58 28 56 53c-6 -3 -13 -5 -22 -5zM229 134h291v-134h-418h-24v737h151v-603z" />
    <glyph glyph-name="Lcommaaccent" unicode="&#x13b;" horiz-adv-x="546" 
d="M229 134h291v-134h-418h-24v737h151v-603zM313 -35c35 0 69 -23 69 -85c0 -69 -48 -123 -111 -123v35c36 0 58 27 56 52c-6 -3 -13 -4 -22 -4c-32 0 -56 22 -56 60s26 65 64 65z" />
    <glyph glyph-name="Ldot" unicode="&#x13f;" horiz-adv-x="546" 
d="M229 134h291v-134h-418h-24v737h151v-603zM402 299c-53 0 -97 44 -97 95c0 53 44 97 97 97c52 0 96 -45 96 -97c0 -51 -44 -95 -96 -95z" />
    <glyph glyph-name="Lslash" unicode="&#x141;" horiz-adv-x="547" 
d="M229 134h291v-134h-418h-24v313l-62 -30v113l62 30v311h151v-239l124 59v-113l-124 -59v-251z" />
    <glyph glyph-name="M" unicode="M" horiz-adv-x="900" 
d="M675 737h147v-737h-147v403l-158 -403h-141l-156 400v-400h-142v737h142l227 -563z" />
    <glyph glyph-name="N" unicode="N" horiz-adv-x="774" 
d="M549 737h148v-737h-148l-323 499v-499h-148v737h148l323 -500v500z" />
    <glyph glyph-name="Nacute" unicode="&#x143;" horiz-adv-x="774" 
d="M558 965l-115 -177h-104l90 177h129zM549 737h148v-737h-148l-323 499v-499h-148v737h148l323 -500v500z" />
    <glyph glyph-name="Ncaron" unicode="&#x147;" horiz-adv-x="774" 
d="M322 788l-95 178h105l60 -105l61 105h105l-96 -178h-140zM549 737h148v-737h-148l-323 499v-499h-148v737h148l323 -500v500z" />
    <glyph glyph-name="Ncommaaccent" unicode="&#x145;" horiz-adv-x="774" 
d="M549 737h148v-737h-148l-323 499v-499h-148v737h148l323 -500v500zM393 -35c35 0 69 -23 69 -85c0 -69 -48 -123 -111 -123v35c36 0 58 27 56 52c-6 -3 -13 -4 -22 -4c-32 0 -56 22 -56 60s26 65 64 65z" />
    <glyph glyph-name="Eng" unicode="&#x14a;" horiz-adv-x="773" 
d="M78 0v737h148l322 -498v498h148v-802c0 -164 -155 -188 -236 -166v116c38 -8 102 -4 102 73v42h-14l-322 497v-497h-148z" />
    <glyph glyph-name="Ntilde" unicode="&#xd1;" horiz-adv-x="774" 
d="M296 810l-87 -1c-18 102 41 154 101 154c62 0 104 -52 147 -52c25 0 36 19 31 45h88c17 -103 -44 -147 -104 -147c-64 0 -108 50 -146 50c-25 0 -33 -21 -30 -49zM549 737h148v-737h-148l-323 499v-499h-148v737h148l323 -500v500z" />
    <glyph glyph-name="O" unicode="O" horiz-adv-x="785" 
d="M752 369c0 221 -143 381 -360 381c-216 0 -359 -161 -359 -382s142 -380 358 -380c217 0 361 160 361 381zM595 369c0 -146 -78 -235 -202 -235c-126 0 -202 89 -202 235s77 236 202 236s202 -90 202 -236z" />
    <glyph glyph-name="Oacute" unicode="&#xd3;" horiz-adv-x="785" 
d="M445 788h-104l89 177h130zM752 369c0 221 -143 381 -360 381c-216 0 -359 -161 -359 -382s142 -380 358 -380c217 0 361 160 361 381zM595 369c0 -146 -78 -235 -202 -235c-126 0 -202 89 -202 235s77 236 202 236s202 -90 202 -236z" />
    <glyph glyph-name="Ocircumflex" unicode="&#xd4;" horiz-adv-x="785" 
d="M393 894l-61 -106h-105l96 178h111h28l96 -178h-105zM392 750c217 0 360 -160 360 -381s-144 -381 -361 -381c-216 0 -358 159 -358 380s143 382 359 382zM393 134c124 0 202 89 202 235s-77 236 -202 236s-202 -90 -202 -236s76 -235 202 -235z" />
    <glyph glyph-name="Odieresis" unicode="&#xd6;" horiz-adv-x="785" 
d="M284 795c-44 0 -80 35 -80 78c0 44 36 79 80 79c42 0 78 -36 78 -79c0 -42 -35 -78 -78 -78zM503 795c-44 0 -80 35 -80 78c0 44 36 79 80 79c42 0 79 -36 79 -79c0 -42 -36 -78 -79 -78zM752 369c0 221 -143 381 -360 381c-216 0 -359 -161 -359 -382s142 -380 358 -380
c217 0 361 160 361 381zM595 369c0 -146 -78 -235 -202 -235c-126 0 -202 89 -202 235s77 236 202 236s202 -90 202 -236z" />
    <glyph glyph-name="Ograve" unicode="&#xd2;" horiz-adv-x="785" 
d="M341 788l-116 177h130l90 -177h-104zM752 369c0 221 -143 381 -360 381c-216 0 -359 -161 -359 -382s142 -380 358 -380c217 0 361 160 361 381zM595 369c0 -146 -78 -235 -202 -235c-126 0 -202 89 -202 235s77 236 202 236s202 -90 202 -236z" />
    <glyph glyph-name="Ohungarumlaut" unicode="&#x150;" horiz-adv-x="785" 
d="M373 784h-104l89 178h130zM527 784h-104l116 178h130zM752 369c0 221 -143 381 -360 381c-216 0 -359 -161 -359 -382s142 -380 358 -380c217 0 361 160 361 381zM595 369c0 -146 -78 -235 -202 -235c-126 0 -202 89 -202 235s77 236 202 236s202 -90 202 -236z" />
    <glyph glyph-name="Omacron" unicode="&#x14c;" horiz-adv-x="785" 
d="M232 895h322v-89h-322v89zM752 369c0 221 -143 381 -360 381c-216 0 -359 -161 -359 -382s142 -380 358 -380c217 0 361 160 361 381zM595 369c0 -146 -78 -235 -202 -235c-126 0 -202 89 -202 235s77 236 202 236s202 -90 202 -236z" />
    <glyph glyph-name="Oslash" unicode="&#xd8;" horiz-adv-x="799" 
d="M643 646c65 -68 102 -164 102 -276c0 -221 -144 -381 -361 -381c-47 0 -91 8 -131 22l-19 -31h-146l59 94c-77 68 -121 172 -121 295c0 221 143 381 359 381c60 0 114 -12 161 -34l27 43h140zM184 370c0 -67 16 -122 46 -162l238 383c-24 10 -52 15 -82 15
c-125 0 -202 -90 -202 -236zM386 135c124 0 202 89 202 235c0 54 -10 100 -30 137l-225 -366c17 -4 34 -6 53 -6z" />
    <glyph glyph-name="Oslashacute" unicode="&#x1fe;" horiz-adv-x="799" 
d="M552 951l-115 -177h-104l90 177h129zM643 646c65 -68 102 -164 102 -276c0 -221 -144 -381 -361 -381c-47 0 -91 8 -131 22l-19 -31h-146l59 94c-77 68 -121 172 -121 295c0 221 143 381 359 381c60 0 114 -12 161 -34l27 43h140zM184 370c0 -67 16 -122 46 -162l238 383
c-24 10 -52 15 -82 15c-125 0 -202 -90 -202 -236zM386 135c124 0 202 89 202 235c0 54 -10 100 -30 137l-225 -366c17 -4 34 -6 53 -6z" />
    <glyph glyph-name="Otilde" unicode="&#xd5;" horiz-adv-x="785" 
d="M210 809c-18 102 41 154 101 154c62 0 104 -52 147 -52c25 0 36 19 31 45h88c17 -103 -44 -147 -104 -147c-64 0 -108 50 -146 50c-25 0 -33 -21 -30 -49zM752 369c0 221 -143 381 -360 381c-216 0 -359 -161 -359 -382s142 -380 358 -380c217 0 361 160 361 381z
M595 369c0 -146 -78 -235 -202 -235c-126 0 -202 89 -202 235s77 236 202 236s202 -90 202 -236z" />
    <glyph glyph-name="OE" unicode="&#x152;" horiz-adv-x="1120" 
d="M1064 595h-315v-155l280 -1v-134h-280v-164h315v-141h-464v67c-38 -44 -123 -79 -213 -79c-216 0 -354 160 -354 381c0 220 143 381 361 381c78 0 157 -27 206 -72v59h464v-142zM395 133c115 0 202 85 202 236s-87 236 -203 236c-115 0 -203 -85 -203 -235
c0 -151 88 -237 204 -237z" />
    <glyph glyph-name="P" unicode="P" horiz-adv-x="649" 
d="M375 737c155 0 247 -95 247 -244c0 -145 -92 -246 -249 -246h-146v-247h-149v737h149h148zM346 377c86 0 119 57 119 119c0 52 -32 108 -119 108h-119v-227h119z" />
    <glyph glyph-name="Thorn" unicode="&#xde;" horiz-adv-x="664" 
d="M84 0v737h142v-143l142 -1c315 -1 320 -451 0 -451h-142v-142h-142zM226 277h133c123 0 120 182 0 182h-133v-182z" />
    <glyph glyph-name="Q" unicode="Q" horiz-adv-x="787" 
d="M756 369c0 -113 -38 -210 -104 -278l82 -94h-152l-24 27c-47 -23 -102 -36 -163 -36c-216 0 -358 159 -358 380s143 382 359 382s360 -160 360 -381zM397 134c20 0 40 2 57 7l-90 102h154l33 -37c30 40 47 95 47 163c0 146 -77 236 -201 236c-126 0 -203 -90 -203 -236
s76 -235 203 -235z" />
    <glyph glyph-name="R" unicode="R" horiz-adv-x="681" 
d="M513 291l130 -291h-167l-113 266h-136v-266h-149v737h284c184 -1 276 -85 276 -236c0 -101 -45 -175 -125 -210zM362 396c85 0 118 47 118 105c0 57 -32 103 -118 103h-135v-208h135z" />
    <glyph glyph-name="Racute" unicode="&#x154;" horiz-adv-x="681" 
d="M478 965l-115 -177h-104l90 177h129zM513 291l130 -291h-167l-113 266h-136v-266h-149v737h284c184 -1 276 -85 276 -236c0 -101 -45 -175 -125 -210zM362 396c85 0 118 47 118 105c0 57 -32 103 -118 103h-135v-208h135z" />
    <glyph glyph-name="Rcaron" unicode="&#x158;" horiz-adv-x="681" 
d="M242 788l-95 178h105l60 -105l61 105h105l-96 -178h-140zM513 291l130 -291h-167l-113 266h-136v-266h-149v737h284c184 -1 276 -85 276 -236c0 -101 -45 -175 -125 -210zM362 396c85 0 118 47 118 105c0 57 -32 103 -118 103h-135v-208h135z" />
    <glyph glyph-name="Rcommaaccent" unicode="&#x156;" horiz-adv-x="681" 
d="M513 291l130 -291h-167l-113 266h-136v-266h-149v737h284c184 -1 276 -85 276 -236c0 -101 -45 -175 -125 -210zM362 396c85 0 118 47 118 105c0 57 -32 103 -118 103h-135v-208h135zM354 -35c35 0 69 -23 69 -85c0 -69 -48 -123 -111 -123v35c36 0 58 27 56 52
c-6 -3 -13 -4 -22 -4c-32 0 -56 22 -56 60s26 65 64 65z" />
    <glyph glyph-name="S" unicode="S" horiz-adv-x="609" 
d="M45 525c0 134 101 225 257 225c141 0 235 -74 256 -185l-141 -37c-12 58 -59 85 -118 85c-68 0 -105 -34 -105 -82c0 -41 27 -66 76 -78l116 -29c138 -35 191 -115 191 -212c0 -134 -104 -225 -269 -225c-151 0 -259 77 -278 195l141 36c9 -62 67 -93 142 -93
s115 31 115 79c0 38 -23 65 -74 78l-118 28c-138 33 -191 118 -191 215z" />
    <glyph glyph-name="Sacute" unicode="&#x15a;" horiz-adv-x="609" 
d="M354 788h-104l90 177h129zM45 525c0 134 101 225 257 225c141 0 235 -74 256 -185l-141 -37c-12 58 -59 85 -118 85c-68 0 -105 -34 -105 -82c0 -41 27 -66 76 -78l116 -29c138 -35 191 -115 191 -212c0 -134 -104 -225 -269 -225c-151 0 -259 77 -278 195l141 36
c9 -62 67 -93 142 -93s115 31 115 79c0 38 -23 65 -74 78l-118 28c-138 33 -191 118 -191 215z" />
    <glyph glyph-name="Scaron" unicode="&#x160;" horiz-adv-x="609" 
d="M233 788l-95 178h105l60 -105l61 105h105l-96 -178h-140zM386 424c138 -35 191 -115 191 -212c0 -134 -104 -225 -269 -225c-151 0 -259 77 -278 195l141 36c9 -62 67 -93 142 -93s115 31 115 79c0 38 -23 65 -74 78l-118 28c-138 33 -191 118 -191 215
c0 134 101 225 257 225c141 0 235 -74 256 -185l-141 -37c-12 58 -59 85 -118 85c-68 0 -105 -34 -105 -82c0 -41 27 -66 76 -78z" />
    <glyph glyph-name="Scedilla" unicode="&#x15e;" horiz-adv-x="609" 
d="M577 212c0 -126 -92 -214 -239 -224l-26 -24h33c49 0 79 -36 79 -83c0 -53 -31 -84 -79 -84h-113v61h91c13 0 26 7 26 23c0 17 -13 23 -26 23h-91v62l23 24c-123 16 -208 89 -225 192l141 36c9 -62 67 -93 142 -93s115 31 115 79c0 38 -23 65 -74 78l-118 28
c-138 33 -191 118 -191 215c0 134 101 225 257 225c141 0 235 -74 256 -185l-141 -37c-12 58 -59 85 -118 85c-68 0 -105 -34 -105 -82c0 -41 27 -66 76 -78l116 -29c138 -35 191 -115 191 -212z" />
    <glyph glyph-name="Scircumflex" unicode="&#x15c;" horiz-adv-x="609" 
d="M303 894l-61 -106h-105l96 178h111h28l96 -178h-105zM386 424c138 -35 191 -115 191 -212c0 -134 -104 -225 -269 -225c-151 0 -259 77 -278 195l141 36c9 -62 67 -93 142 -93s115 31 115 79c0 38 -23 65 -74 78l-118 28c-138 33 -191 118 -191 215
c0 134 101 225 257 225c141 0 235 -74 256 -185l-141 -37c-12 58 -59 85 -118 85c-68 0 -105 -34 -105 -82c0 -41 27 -66 76 -78z" />
    <glyph glyph-name="Scommaaccent" unicode="&#x218;" horiz-adv-x="609" 
d="M386 424c138 -35 191 -115 191 -212c0 -134 -104 -225 -269 -225c-151 0 -259 77 -278 195l141 36c9 -62 67 -93 142 -93s115 31 115 79c0 38 -23 65 -74 78l-118 28c-138 33 -191 118 -191 215c0 134 101 225 257 225c141 0 235 -74 256 -185l-141 -37
c-12 58 -59 85 -118 85c-68 0 -105 -34 -105 -82c0 -41 27 -66 76 -78zM308 -31c35 0 69 -23 69 -85c0 -69 -48 -123 -111 -123v35c36 0 58 27 56 52c-6 -3 -13 -4 -22 -4c-32 0 -56 22 -56 60s26 65 64 65z" />
    <glyph glyph-name="T" unicode="T" horiz-adv-x="593" 
d="M575 737v-142h-204v-595h-149v595h-204v142h557z" />
    <glyph glyph-name="Tbar" unicode="&#x166;" horiz-adv-x="593" 
d="M575 595h-204v-163h142v-127h-142v-305h-149v305h-141v127h141v163h-204v142h557v-142z" />
    <glyph glyph-name="Tcaron" unicode="&#x164;" horiz-adv-x="593" 
d="M227 788l-95 178h105l60 -105l61 105h105l-96 -178h-140zM575 737v-142h-204v-595h-149v595h-204v142h557z" />
    <glyph glyph-name="uni0162" unicode="&#x162;" horiz-adv-x="593" 
d="M334 0v-9l-33 -31h33c49 0 79 -36 79 -83c0 -53 -31 -84 -79 -84h-113v61h91c13 0 26 7 26 23c0 17 -13 23 -26 23h-91v62l36 38h-35v595h-204v142h557v-142h-204v-595h-37z" />
    <glyph glyph-name="uni021A" unicode="&#x21a;" horiz-adv-x="593" 
d="M575 737v-142h-204v-595h-149v595h-204v142h557zM297 -35c35 0 69 -23 69 -85c0 -69 -48 -123 -111 -123v35c36 0 58 27 56 52c-6 -3 -13 -4 -22 -4c-32 0 -56 22 -56 60s26 65 64 65z" />
    <glyph glyph-name="U" unicode="U" horiz-adv-x="752" 
d="M72 273v464h149v-459c0 -97 67 -148 154 -148s156 59 156 148v459h149v-464c0 -184 -141 -285 -305 -285c-162 0 -303 102 -303 285z" />
    <glyph glyph-name="Uacute" unicode="&#xda;" horiz-adv-x="752" 
d="M428 788h-104l89 177h130zM72 273v464h149v-459c0 -97 67 -148 154 -148s156 59 156 148v459h149v-464c0 -184 -141 -285 -305 -285c-162 0 -303 102 -303 285z" />
    <glyph glyph-name="Ucircumflex" unicode="&#xdb;" horiz-adv-x="752" 
d="M376 894l-61 -106h-105l96 178h111h28l96 -178h-105zM531 737h149v-464c0 -184 -141 -285 -305 -285c-162 0 -303 102 -303 285v464h149v-459c0 -97 67 -148 154 -148s156 59 156 148v459z" />
    <glyph glyph-name="Udieresis" unicode="&#xdc;" horiz-adv-x="752" 
d="M267 795c-44 0 -80 35 -80 78c0 44 36 79 80 79c42 0 78 -36 78 -79c0 -42 -35 -78 -78 -78zM486 795c-44 0 -80 35 -80 78c0 44 36 79 80 79c42 0 79 -36 79 -79c0 -42 -36 -78 -79 -78zM72 273v464h149v-459c0 -97 67 -148 154 -148s156 59 156 148v459h149v-464
c0 -184 -141 -285 -305 -285c-162 0 -303 102 -303 285z" />
    <glyph glyph-name="Ugrave" unicode="&#xd9;" horiz-adv-x="752" 
d="M324 788l-116 177h130l90 -177h-104zM72 273v464h149v-459c0 -97 67 -148 154 -148s156 59 156 148v459h149v-464c0 -184 -141 -285 -305 -285c-162 0 -303 102 -303 285z" />
    <glyph glyph-name="Uhungarumlaut" unicode="&#x170;" horiz-adv-x="752" 
d="M351 788h-104l89 177h130zM505 788h-104l116 177h130zM72 273v464h149v-459c0 -97 67 -148 154 -148s156 59 156 148v459h149v-464c0 -184 -141 -285 -305 -285c-162 0 -303 102 -303 285z" />
    <glyph glyph-name="Umacron" unicode="&#x16a;" horiz-adv-x="752" 
d="M215 895h322v-89h-322v89zM72 273v464h149v-459c0 -97 67 -148 154 -148s156 59 156 148v459h149v-464c0 -184 -141 -285 -305 -285c-162 0 -303 102 -303 285z" />
    <glyph glyph-name="Uogonek" unicode="&#x172;" horiz-adv-x="752" 
d="M531 737h149v-464c0 -160 -106 -257 -242 -280c-107 -40 -79 -141 0 -109v-92c-165 -57 -225 134 -93 197c-150 12 -273 113 -273 284v464h149v-459c0 -97 67 -148 154 -148s156 59 156 148v459z" />
    <glyph glyph-name="Uring" unicode="&#x16e;" horiz-adv-x="752" 
d="M376 772c-75 0 -134 59 -134 135c0 74 61 136 134 136c74 0 134 -63 134 -136c0 -74 -60 -135 -134 -135zM376 851c32 0 56 24 56 58c0 30 -24 55 -56 55s-56 -24 -56 -55c0 -34 24 -58 56 -58zM72 273v464h149v-459c0 -97 67 -148 154 -148s156 59 156 148v459h149v-464
c0 -184 -141 -285 -305 -285c-162 0 -303 102 -303 285z" />
    <glyph glyph-name="Utilde" unicode="&#x168;" horiz-adv-x="752" 
d="M193 809c-18 102 41 154 101 154c62 0 104 -52 147 -52c25 0 36 19 31 45h88c17 -103 -44 -147 -104 -147c-64 0 -108 50 -146 50c-25 0 -33 -21 -30 -49zM72 273v464h149v-459c0 -97 67 -148 154 -148s156 59 156 148v459h149v-464c0 -184 -141 -285 -305 -285
c-162 0 -303 102 -303 285z" />
    <glyph glyph-name="V" unicode="V" horiz-adv-x="731" 
d="M561 737h160l-276 -737h-154l-281 737h163l195 -527z" />
    <glyph glyph-name="W" unicode="W" horiz-adv-x="1048" 
d="M877 737h160l-224 -737h-145l-143 468l-147 -468h-146l-221 737h165l131 -476l136 476h166l132 -478z" />
    <glyph glyph-name="Wacute" unicode="&#x1e82;" horiz-adv-x="1048" 
d="M688 965l-115 -177h-104l89 177h130zM877 737h160l-224 -737h-145l-143 468l-147 -468h-146l-221 737h165l131 -476l136 476h166l132 -478z" />
    <glyph glyph-name="Wcircumflex" unicode="&#x174;" horiz-adv-x="1048" 
d="M522 894l-61 -106h-105l96 178h111h28l96 -178h-105zM877 737h160l-224 -737h-145l-143 468l-147 -468h-146l-221 737h165l131 -476l136 476h166l132 -478z" />
    <glyph glyph-name="Wdieresis" unicode="&#x1e84;" horiz-adv-x="1048" 
d="M413 795c-44 0 -80 35 -80 78c0 44 36 79 80 79c42 0 78 -36 78 -79c0 -42 -35 -78 -78 -78zM632 795c-44 0 -80 35 -80 78c0 44 36 79 80 79c42 0 79 -36 79 -79c0 -42 -36 -78 -79 -78zM877 737h160l-224 -737h-145l-143 468l-147 -468h-146l-221 737h165l131 -476
l136 476h166l132 -478z" />
    <glyph glyph-name="Wgrave" unicode="&#x1e80;" horiz-adv-x="1048" 
d="M574 788h-104l-116 177h130zM877 737h160l-224 -737h-145l-143 468l-147 -468h-146l-221 737h165l131 -476l136 476h166l132 -478z" />
    <glyph glyph-name="X" unicode="X" horiz-adv-x="731" 
d="M18 737h193l156 -247l158 247h188l-251 -369l251 -368h-192l-154 247l-161 -246h-188l255 367z" />
    <glyph glyph-name="Y" unicode="Y" horiz-adv-x="670" 
d="M9 737h168l161 -302l161 302h162l-250 -448v-289h-150v289z" />
    <glyph glyph-name="Yacute" unicode="&#xdd;" horiz-adv-x="670" 
d="M390 788h-104l89 177h130zM9 737h168l161 -302l161 302h162l-250 -448v-289h-150v289z" />
    <glyph glyph-name="Ycircumflex" unicode="&#x176;" horiz-adv-x="670" 
d="M338 894l-61 -106h-105l96 178h111h28l96 -178h-105zM499 737h162l-250 -448v-289h-150v289l-252 448h168l161 -302z" />
    <glyph glyph-name="Ydieresis" unicode="&#x178;" horiz-adv-x="670" 
d="M229 795c-44 0 -80 35 -80 78c0 44 36 79 80 79c42 0 78 -36 78 -79c0 -42 -35 -78 -78 -78zM448 795c-44 0 -80 35 -80 78c0 44 36 79 80 79c42 0 79 -36 79 -79c0 -42 -36 -78 -79 -78zM9 737h168l161 -302l161 302h162l-250 -448v-289h-150v289z" />
    <glyph glyph-name="Ygrave" unicode="&#x1ef2;" horiz-adv-x="670" 
d="M286 788l-116 177h130l90 -177h-104zM9 737h168l161 -302l161 302h162l-250 -448v-289h-150v289z" />
    <glyph glyph-name="Z" unicode="Z" horiz-adv-x="575" 
d="M536 737v-143l-335 -451h330v-143h-494v143l333 450l-333 -1v145h499z" />
    <glyph glyph-name="Zacute" unicode="&#x179;" horiz-adv-x="575" 
d="M453 965l-115 -177h-104l90 177h129zM536 737v-143l-335 -451h330v-143h-494v143l333 450l-333 -1v145h499z" />
    <glyph glyph-name="Zcaron" unicode="&#x17d;" horiz-adv-x="575" 
d="M217 788l-95 178h105l60 -105l61 105h105l-96 -178h-140zM536 737v-143l-335 -451h330v-143h-494v143l333 450l-333 -1v145h499z" />
    <glyph glyph-name="Zdotaccent" unicode="&#x17b;" horiz-adv-x="575" 
d="M286 795c-43 0 -78 34 -78 78s36 79 78 79c43 0 79 -36 79 -79s-36 -78 -79 -78zM536 737v-143l-335 -451h330v-143h-494v143l333 450l-333 -1v145h499z" />
    <glyph glyph-name="G.ss01" horiz-adv-x="794" 
d="M386 404h353v-101c0 -164 -125 -315 -342 -315s-360 150 -360 380s143 381 361 381c155 0 272 -76 326 -202l-147 -56c-32 73 -98 111 -179 111c-120 0 -204 -85 -204 -234s83 -233 204 -233c87 0 165 44 180 137h-192v132z" />
    <glyph glyph-name="a" unicode="a" horiz-adv-x="534" 
d="M497 0h-138c-2 9 -5 26 -7 47c-24 -33 -73 -60 -143 -60c-103 0 -180 59 -180 163c0 101 71 156 181 156h138v17c0 54 -38 76 -91 76c-54 0 -90 -23 -113 -66l-103 58c48 90 132 122 224 122c114 0 222 -48 222 -214v-184c0 -52 4 -99 10 -115zM349 201v9h-105
c-47 0 -70 -23 -70 -58c0 -38 26 -59 76 -59c36 0 99 15 99 108z" />
    <glyph glyph-name="aacute" unicode="&#xe1;" horiz-adv-x="534" 
d="M436 735l-115 -177h-104l89 177h130zM497 0h-138c-2 9 -5 26 -7 47c-24 -33 -73 -60 -143 -60c-103 0 -180 59 -180 163c0 101 71 156 181 156h138v17c0 54 -38 76 -91 76c-54 0 -90 -23 -113 -66l-103 58c48 90 132 122 224 122c114 0 222 -48 222 -214v-184
c0 -52 4 -99 10 -115zM349 201v9h-105c-47 0 -70 -23 -70 -58c0 -38 26 -59 76 -59c36 0 99 15 99 108z" />
    <glyph glyph-name="abreve" unicode="&#x103;" horiz-adv-x="534" 
d="M270 558c-107 0 -185 79 -186 175h104c2 -49 37 -73 82 -73c43 0 79 25 81 73h103c-2 -96 -80 -175 -184 -175zM497 0h-138c-2 9 -5 26 -7 47c-24 -33 -73 -60 -143 -60c-103 0 -180 59 -180 163c0 101 71 156 181 156h138v17c0 54 -38 76 -91 76c-54 0 -90 -23 -113 -66
l-103 58c48 90 132 122 224 122c114 0 222 -48 222 -214v-184c0 -52 4 -99 10 -115zM349 201v9h-105c-47 0 -70 -23 -70 -58c0 -38 26 -59 76 -59c36 0 99 15 99 108z" />
    <glyph glyph-name="acircumflex" unicode="&#xe2;" horiz-adv-x="534" 
d="M270 664l-61 -106h-105l96 178h111h28l96 -178h-105zM497 0h-138c-2 9 -5 26 -7 47c-24 -33 -73 -60 -143 -60c-103 0 -180 59 -180 163c0 101 71 156 181 156h138v17c0 54 -38 76 -91 76c-54 0 -90 -23 -113 -66l-103 58c48 90 132 122 224 122c114 0 222 -48 222 -214
v-184c0 -52 4 -99 10 -115zM349 201v9h-105c-47 0 -70 -23 -70 -58c0 -38 26 -59 76 -59c36 0 99 15 99 108z" />
    <glyph glyph-name="adieresis" unicode="&#xe4;" horiz-adv-x="534" 
d="M160 565c-44 0 -80 35 -80 78c0 44 36 79 80 79c42 0 78 -36 78 -79c0 -42 -35 -78 -78 -78zM379 565c-44 0 -80 35 -80 78c0 44 36 79 80 79c42 0 79 -36 79 -79c0 -42 -36 -78 -79 -78zM497 0h-138c-2 9 -5 26 -7 47c-24 -33 -73 -60 -143 -60c-103 0 -180 59 -180 163
c0 101 71 156 181 156h138v17c0 54 -38 76 -91 76c-54 0 -90 -23 -113 -66l-103 58c48 90 132 122 224 122c114 0 222 -48 222 -214v-184c0 -52 4 -99 10 -115zM349 201v9h-105c-47 0 -70 -23 -70 -58c0 -38 26 -59 76 -59c36 0 99 15 99 108z" />
    <glyph glyph-name="agrave" unicode="&#xe0;" horiz-adv-x="534" 
d="M321 558h-104l-116 177h130zM497 0h-138c-2 9 -5 26 -7 47c-24 -33 -73 -60 -143 -60c-103 0 -180 59 -180 163c0 101 71 156 181 156h138v17c0 54 -38 76 -91 76c-54 0 -90 -23 -113 -66l-103 58c48 90 132 122 224 122c114 0 222 -48 222 -214v-184
c0 -52 4 -99 10 -115zM349 201v9h-105c-47 0 -70 -23 -70 -58c0 -38 26 -59 76 -59c36 0 99 15 99 108z" />
    <glyph glyph-name="amacron" unicode="&#x101;" horiz-adv-x="534" 
d="M430 665v-89h-322v89h322zM497 0h-138c-2 9 -5 26 -7 47c-24 -33 -73 -60 -143 -60c-103 0 -180 59 -180 163c0 101 71 156 181 156h138v17c0 54 -38 76 -91 76c-54 0 -90 -23 -113 -66l-103 58c48 90 132 122 224 122c114 0 222 -48 222 -214v-184c0 -52 4 -99 10 -115z
M349 201v9h-105c-47 0 -70 -23 -70 -58c0 -38 26 -59 76 -59c36 0 99 15 99 108z" />
    <glyph glyph-name="aogonek" unicode="&#x105;" horiz-adv-x="534" 
d="M497 0c-114 -39 -86 -144 -6 -111v-92c-171 -59 -229 148 -79 203h-53c-2 9 -5 26 -7 47c-24 -33 -73 -60 -143 -60c-103 0 -180 59 -180 163c0 101 71 156 181 156h138v17c0 54 -38 76 -91 76c-54 0 -90 -23 -113 -66l-103 58c48 90 132 122 224 122
c114 0 222 -48 222 -214v-184c0 -52 4 -99 10 -115zM349 201v9h-105c-47 0 -70 -23 -70 -58c0 -38 26 -59 76 -59c36 0 99 15 99 108z" />
    <glyph glyph-name="aring" unicode="&#xe5;" horiz-adv-x="534" 
d="M269 542c-75 0 -134 59 -134 135c0 74 61 136 134 136s133 -63 133 -136c0 -74 -60 -135 -133 -135zM269 734c-32 0 -56 -24 -56 -55c0 -34 24 -58 56 -58s56 24 56 58c0 30 -24 55 -56 55zM497 0h-138c-2 9 -5 26 -7 47c-24 -33 -73 -60 -143 -60
c-103 0 -180 59 -180 163c0 101 71 156 181 156h138v17c0 54 -38 76 -91 76c-54 0 -90 -23 -113 -66l-103 58c48 90 132 122 224 122c114 0 222 -48 222 -214v-184c0 -52 4 -99 10 -115zM349 201v9h-105c-47 0 -70 -23 -70 -58c0 -38 26 -59 76 -59c36 0 99 15 99 108z" />
    <glyph glyph-name="aringacute" unicode="&#x1fb;" horiz-adv-x="534" 
d="M440 879l-109 -154h-99l85 154h123zM497 0h-138c-2 9 -5 26 -7 47c-24 -33 -73 -60 -143 -60c-103 0 -180 59 -180 163c0 101 71 156 181 156h138v17c0 54 -38 76 -91 76c-54 0 -90 -23 -113 -66l-103 58c30 57 74 90 125 107c-13 21 -20 46 -20 73c0 73 61 135 133 135
c74 0 134 -63 134 -135c0 -31 -10 -59 -27 -82c59 -28 101 -86 101 -190v-184c0 -52 4 -99 10 -115zM279 628c-32 0 -56 -24 -56 -55c0 -34 24 -58 56 -58s56 24 56 58c0 30 -24 55 -56 55zM349 201v9h-105c-47 0 -70 -23 -70 -58c0 -38 26 -59 76 -59c36 0 99 15 99 108z
" />
    <glyph glyph-name="atilde" unicode="&#xe3;" horiz-adv-x="534" 
d="M173 580l-87 -1c-18 102 41 154 101 154c62 0 104 -52 147 -52c25 0 36 19 31 45h88c17 -103 -44 -147 -104 -147c-64 0 -108 50 -146 50c-25 0 -33 -21 -30 -49zM497 0h-138c-2 9 -5 26 -7 47c-24 -33 -73 -60 -143 -60c-103 0 -180 59 -180 163c0 101 71 156 181 156
h138v17c0 54 -38 76 -91 76c-54 0 -90 -23 -113 -66l-103 58c48 90 132 122 224 122c114 0 222 -48 222 -214v-184c0 -52 4 -99 10 -115zM349 201v9h-105c-47 0 -70 -23 -70 -58c0 -38 26 -59 76 -59c36 0 99 15 99 108z" />
    <glyph glyph-name="ae" unicode="&#xe6;" horiz-adv-x="896" 
d="M856 261v-64h-358c12 -57 58 -88 117 -88c51 0 93 25 117 63l106 -57c-40 -82 -128 -127 -226 -127c-81 0 -146 31 -181 81c-36 -52 -104 -81 -183 -81c-119 0 -204 58 -204 164c0 93 64 153 159 153h109c26 0 41 8 41 32c0 45 -44 58 -74 60c-53 3 -101 -22 -126 -70
l-103 59c47 81 132 128 218 128c77 0 137 -28 169 -74c40 48 104 74 175 74c147 0 244 -101 244 -253zM497 298h215c-3 57 -46 100 -106 100c-59 0 -100 -42 -109 -100zM354 188v20h-101c-46 0 -66 -28 -66 -57c0 -35 28 -57 75 -57c59 0 92 36 92 94z" />
    <glyph glyph-name="aeacute" unicode="&#x1fd;" horiz-adv-x="896" 
d="M617 735l-115 -177h-104l90 177h129zM856 261v-64h-358c12 -57 58 -88 117 -88c51 0 93 25 117 63l106 -57c-40 -82 -128 -127 -226 -127c-81 0 -146 31 -181 81c-36 -52 -104 -81 -183 -81c-119 0 -204 58 -204 164c0 93 64 153 159 153h109c26 0 41 8 41 32
c0 45 -44 58 -74 60c-53 3 -101 -22 -126 -70l-103 59c47 81 132 128 218 128c77 0 137 -28 169 -74c40 48 104 74 175 74c147 0 244 -101 244 -253zM497 298h215c-3 57 -46 100 -106 100c-59 0 -100 -42 -109 -100zM354 188v20h-101c-46 0 -66 -28 -66 -57
c0 -35 28 -57 75 -57c59 0 92 36 92 94z" />
    <glyph glyph-name="b" unicode="b" horiz-adv-x="634" 
d="M361 514c138 0 246 -95 245 -270c0 -164 -106 -257 -246 -257c-87 0 -141 38 -166 72l-7 -59h-130v750h140v-306c36 48 101 70 164 70zM333 117c75 0 130 51 130 135c0 83 -55 134 -130 134s-132 -51 -132 -134c0 -84 57 -135 132 -135z" />
    <glyph glyph-name="c" unicode="c" horiz-adv-x="556" 
d="M32 249c0 159 102 264 258 264c119 0 208 -65 234 -158l-122 -48c-15 47 -58 77 -109 77c-74 0 -118 -53 -118 -135c0 -84 47 -133 118 -133c52 0 96 30 111 75l120 -45c-30 -96 -124 -159 -234 -159c-156 0 -258 105 -258 262z" />
    <glyph glyph-name="cacute" unicode="&#x107;" horiz-adv-x="556" 
d="M331 558h-104l90 177h129zM32 249c0 159 102 264 258 264c119 0 208 -65 234 -158l-122 -48c-15 47 -58 77 -109 77c-74 0 -118 -53 -118 -135c0 -84 47 -133 118 -133c52 0 96 30 111 75l120 -45c-30 -96 -124 -159 -234 -159c-156 0 -258 105 -258 262z" />
    <glyph glyph-name="ccaron" unicode="&#x10d;" horiz-adv-x="556" 
d="M210 558l-95 178h105l60 -105l61 105h105l-96 -178h-140zM293 116c52 0 96 30 111 75l120 -45c-30 -96 -124 -159 -234 -159c-156 0 -258 105 -258 262c0 159 102 264 258 264c119 0 208 -65 234 -158l-122 -48c-15 47 -58 77 -109 77c-74 0 -118 -53 -118 -135
c0 -84 47 -133 118 -133z" />
    <glyph glyph-name="ccedilla" unicode="&#xe7;" horiz-adv-x="556" 
d="M293 116c52 0 96 30 111 75l120 -45c-27 -87 -106 -146 -202 -157l-20 -24h34c48 0 79 -36 79 -84c0 -53 -31 -84 -79 -84h-114v62h92c13 0 26 6 26 23c0 16 -13 22 -26 22h-92v62l18 25c-127 20 -208 118 -208 258c0 159 102 264 258 264c119 0 208 -65 234 -158
l-122 -48c-15 47 -58 77 -109 77c-74 0 -118 -53 -118 -135c0 -84 47 -133 118 -133z" />
    <glyph glyph-name="ccircumflex" unicode="&#x109;" horiz-adv-x="556" 
d="M280 664l-61 -106h-105l96 178h111h28l96 -178h-105zM293 116c52 0 96 30 111 75l120 -45c-30 -96 -124 -159 -234 -159c-156 0 -258 105 -258 262c0 159 102 264 258 264c119 0 208 -65 234 -158l-122 -48c-15 47 -58 77 -109 77c-74 0 -118 -53 -118 -135
c0 -84 47 -133 118 -133z" />
    <glyph glyph-name="cdotaccent" unicode="&#x10b;" horiz-adv-x="556" 
d="M279 565c-43 0 -78 34 -78 78s36 79 78 79c43 0 79 -36 79 -79s-36 -78 -79 -78zM32 249c0 159 102 264 258 264c119 0 208 -65 234 -158l-122 -48c-15 47 -58 77 -109 77c-74 0 -118 -53 -118 -135c0 -84 47 -133 118 -133c52 0 96 30 111 75l120 -45
c-30 -96 -124 -159 -234 -159c-156 0 -258 105 -258 262z" />
    <glyph glyph-name="d" unicode="d" horiz-adv-x="649" 
d="M593 0h-142c-3 13 -5 33 -7 56c-32 -44 -94 -69 -160 -69c-142 0 -252 84 -252 262c0 161 110 264 256 264c55 0 118 -18 154 -60v297h142v-619c0 -30 4 -115 9 -131zM307 116c75 0 131 51 131 135c0 83 -56 134 -131 134s-131 -51 -131 -134c0 -84 56 -135 131 -135z
" />
    <glyph glyph-name="eth" unicode="&#xf0;" horiz-adv-x="679" 
d="M485 711c99 -100 154 -253 154 -396c0 -219 -135 -328 -304 -328c-179 0 -295 121 -295 291s131 279 274 280c57 0 106 -11 143 -37c-19 47 -45 84 -73 111l-69 -54l-60 79l57 43c-24 19 -47 36 -71 50l75 93c34 -18 74 -44 98 -64l68 53l63 -75zM337 118
c100 0 151 72 151 153s-53 154 -151 154c-100 0 -153 -72 -153 -153c0 -80 53 -154 153 -154z" />
    <glyph glyph-name="dcaron" unicode="&#x10f;" horiz-adv-x="765" 
d="M691 761c29 0 58 -22 53 -64l-22 -193h-66l-21 193c-4 42 26 64 56 64zM585 750v-619c0 -30 4 -115 10 -131h-143c-3 12 -6 32 -8 55c-33 -42 -93 -68 -160 -68c-142 0 -252 84 -252 262c0 161 110 264 252 264c58 0 123 -17 158 -56v293h143zM308 116
c75 0 130 53 130 136s-55 133 -130 133s-132 -49 -132 -133c0 -83 57 -136 132 -136z" />
    <glyph glyph-name="dcroat" unicode="&#x111;" horiz-adv-x="649" 
d="M651 562h-67v-431c0 -30 4 -115 9 -131h-142c-3 13 -5 33 -7 56c-32 -44 -94 -69 -160 -69c-142 0 -252 84 -252 262c0 161 110 264 256 264c55 0 118 -18 154 -60v109h-166v108h166v80h142v-80h67v-108zM307 116c75 0 131 51 131 135c0 83 -56 134 -131 134
s-131 -51 -131 -134c0 -84 56 -135 131 -135z" />
    <glyph glyph-name="e" unicode="e" horiz-adv-x="565" 
d="M534 249v-49h-369c9 -66 63 -92 119 -92s92 25 112 65l119 -46c-36 -88 -125 -140 -231 -140c-149 0 -252 104 -252 262s102 264 254 264c150 0 248 -105 248 -264zM283 396c-62 0 -103 -34 -115 -98h221c-5 67 -47 98 -106 98z" />
    <glyph glyph-name="eacute" unicode="&#xe9;" horiz-adv-x="565" 
d="M453 735l-115 -177h-104l89 177h130zM534 249v-49h-369c9 -66 63 -92 119 -92s92 25 112 65l119 -46c-36 -88 -125 -140 -231 -140c-149 0 -252 104 -252 262s102 264 254 264c150 0 248 -105 248 -264zM283 396c-62 0 -103 -34 -115 -98h221c-5 67 -47 98 -106 98z" />
    <glyph glyph-name="ebreve" unicode="&#x115;" horiz-adv-x="565" 
d="M287 558c-109 0 -186 81 -186 179h104c0 -52 37 -77 82 -77c44 0 81 26 81 77h103c0 -97 -79 -179 -184 -179zM534 249v-49h-369c9 -66 63 -92 119 -92s92 25 112 65l119 -46c-36 -88 -125 -140 -231 -140c-149 0 -252 104 -252 262s102 264 254 264
c150 0 248 -105 248 -264zM283 396c-62 0 -103 -34 -115 -98h221c-5 67 -47 98 -106 98z" />
    <glyph glyph-name="ecaron" unicode="&#x11b;" horiz-adv-x="565" 
d="M216 558l-95 178h105l60 -105l61 105h105l-96 -178h-140zM534 249v-49h-369c9 -66 63 -92 119 -92s92 25 112 65l119 -46c-36 -88 -125 -140 -231 -140c-149 0 -252 104 -252 262s102 264 254 264c150 0 248 -105 248 -264zM283 396c-62 0 -103 -34 -115 -98h221
c-5 67 -47 98 -106 98z" />
    <glyph glyph-name="ecircumflex" unicode="&#xea;" horiz-adv-x="565" 
d="M287 664l-61 -106h-105l96 178h111h28l96 -178h-105zM534 249v-49h-369c9 -66 63 -92 119 -92s92 25 112 65l119 -46c-36 -88 -125 -140 -231 -140c-149 0 -252 104 -252 262s102 264 254 264c150 0 248 -105 248 -264zM283 396c-62 0 -103 -34 -115 -98h221
c-5 67 -47 98 -106 98z" />
    <glyph glyph-name="edieresis" unicode="&#xeb;" horiz-adv-x="565" 
d="M167 546c-44 0 -80 36 -80 79c0 44 36 79 80 79c42 0 79 -36 79 -79c0 -42 -36 -79 -79 -79zM386 546c-44 0 -80 36 -80 79c0 44 36 79 80 79c42 0 79 -36 79 -79c0 -42 -36 -79 -79 -79zM534 249v-49h-369c9 -66 63 -92 119 -92s92 25 112 65l119 -46
c-36 -88 -125 -140 -231 -140c-149 0 -252 104 -252 262s102 264 254 264c150 0 248 -105 248 -264zM283 396c-62 0 -103 -34 -115 -98h221c-5 67 -47 98 -106 98z" />
    <glyph glyph-name="edotaccent" unicode="&#x117;" horiz-adv-x="565" 
d="M285 565c-43 0 -78 34 -78 78s36 79 78 79c43 0 79 -36 79 -79s-36 -78 -79 -78zM534 249v-49h-369c9 -66 63 -92 119 -92s92 25 112 65l119 -46c-36 -88 -125 -140 -231 -140c-149 0 -252 104 -252 262s102 264 254 264c150 0 248 -105 248 -264zM283 396
c-62 0 -103 -34 -115 -98h221c-5 67 -47 98 -106 98z" />
    <glyph glyph-name="egrave" unicode="&#xe8;" horiz-adv-x="565" 
d="M338 558h-104l-116 177h130zM534 249v-49h-369c9 -66 63 -92 119 -92s92 25 112 65l119 -46c-36 -88 -125 -140 -231 -140c-149 0 -252 104 -252 262s102 264 254 264c150 0 248 -105 248 -264zM283 396c-62 0 -103 -34 -115 -98h221c-5 67 -47 98 -106 98z" />
    <glyph glyph-name="emacron" unicode="&#x113;" horiz-adv-x="565" 
d="M447 665v-89h-322v89h322zM534 249v-49h-369c9 -66 63 -92 119 -92s92 25 112 65l119 -46c-36 -88 -125 -140 -231 -140c-149 0 -252 104 -252 262s102 264 254 264c150 0 248 -105 248 -264zM283 396c-62 0 -103 -34 -115 -98h221c-5 67 -47 98 -106 98z" />
    <glyph glyph-name="eogonek" unicode="&#x119;" horiz-adv-x="565" 
d="M534 249v-49h-369c9 -66 63 -92 119 -92s92 25 112 65l119 -46c-29 -71 -93 -118 -171 -134c-105 -41 -76 -140 2 -108v-92c-164 -57 -224 132 -95 196c-131 15 -219 115 -219 260c0 158 102 264 254 264c150 0 248 -105 248 -264zM283 396c-62 0 -103 -34 -115 -98h221
c-5 67 -47 98 -106 98z" />
    <glyph glyph-name="f" unicode="f" horiz-adv-x="373" 
d="M343 618c-99 20 -119 -20 -119 -73v-47h119v-118h-119v-380h-143v380h-69v118h69l-1 47c0 144 78 205 197 205c20 0 42 -1 66 -5v-127z" />
    <glyph glyph-name="g" unicode="g" horiz-adv-x="562" 
d="M546 453c-30 4 -60 -1 -79 -18c25 -32 39 -73 39 -121c0 -122 -90 -200 -228 -200c-33 0 -63 5 -91 14c-25 0 -44 -13 -44 -37c0 -14 12 -34 52 -34h170c114 0 179 -56 179 -153c0 -127 -143 -164 -280 -164c-173 0 -256 44 -256 128c0 47 25 85 68 102
c-30 21 -48 54 -48 98c0 29 13 86 71 112c-34 33 -54 79 -54 133c0 121 94 200 233 200c44 0 83 -8 116 -22c24 50 79 84 152 76v-114zM276 226c56 0 91 38 91 86c0 46 -34 89 -92 89c-54 0 -92 -37 -92 -87c0 -51 38 -88 93 -88zM339 -58h-167c-6 0 -12 1 -17 1
c-19 -9 -25 -21 -25 -36c0 -42 50 -48 142 -48c79 0 134 5 134 45c0 32 -34 38 -67 38z" />
    <glyph glyph-name="gbreve" unicode="&#x11f;" horiz-adv-x="562" 
d="M279 558c-109 0 -186 81 -186 179h104c0 -52 37 -77 82 -77c44 0 81 26 81 77h103c0 -97 -79 -179 -184 -179zM546 453c-30 4 -60 -1 -79 -18c25 -32 39 -73 39 -121c0 -122 -90 -200 -228 -200c-33 0 -63 5 -91 14c-25 0 -44 -13 -44 -37c0 -14 12 -34 52 -34h170
c114 0 179 -56 179 -153c0 -127 -143 -164 -280 -164c-173 0 -256 44 -256 128c0 47 25 85 68 102c-30 21 -48 54 -48 98c0 29 13 86 71 112c-34 33 -54 79 -54 133c0 121 94 200 233 200c44 0 83 -8 116 -22c24 50 79 84 152 76v-114zM276 226c56 0 91 38 91 86
c0 46 -34 89 -92 89c-54 0 -92 -37 -92 -87c0 -51 38 -88 93 -88zM339 -58h-167c-6 0 -12 1 -17 1c-19 -9 -25 -21 -25 -36c0 -42 50 -48 142 -48c79 0 134 5 134 45c0 32 -34 38 -67 38z" />
    <glyph glyph-name="gcircumflex" unicode="&#x11d;" horiz-adv-x="562" 
d="M279 676l-61 -89h-105l96 150h112h27l96 -150h-105zM546 453c-30 4 -60 -1 -79 -18c25 -32 39 -73 39 -121c0 -122 -90 -200 -228 -200c-33 0 -63 5 -91 14c-25 0 -44 -13 -44 -37c0 -14 12 -34 52 -34h170c114 0 179 -56 179 -153c0 -127 -143 -164 -280 -164
c-173 0 -256 44 -256 128c0 47 25 85 68 102c-30 21 -48 54 -48 98c0 29 13 86 71 112c-34 33 -54 79 -54 133c0 121 94 200 233 200c44 0 83 -8 116 -22c24 50 79 84 152 76v-114zM276 226c56 0 91 38 91 86c0 46 -34 89 -92 89c-54 0 -92 -37 -92 -87c0 -51 38 -88 93 -88
zM339 -58h-167c-6 0 -12 1 -17 1c-19 -9 -25 -21 -25 -36c0 -42 50 -48 142 -48c79 0 134 5 134 45c0 32 -34 38 -67 38z" />
    <glyph glyph-name="gcommaaccent" unicode="&#x123;" horiz-adv-x="562" 
d="M445 735l-115 -177h-104l89 177h130zM546 453c-30 4 -60 -1 -79 -18c25 -32 39 -73 39 -121c0 -122 -90 -200 -228 -200c-33 0 -63 5 -91 14c-25 0 -44 -13 -44 -37c0 -14 12 -34 52 -34h170c114 0 179 -56 179 -153c0 -127 -143 -164 -280 -164c-173 0 -256 44 -256 128
c0 47 25 85 68 102c-30 21 -48 54 -48 98c0 29 13 86 71 112c-34 33 -54 79 -54 133c0 121 94 200 233 200c44 0 83 -8 116 -22c24 50 79 84 152 76v-114zM276 226c56 0 91 38 91 86c0 46 -34 89 -92 89c-54 0 -92 -37 -92 -87c0 -51 38 -88 93 -88zM339 -58h-167
c-6 0 -12 1 -17 1c-19 -9 -25 -21 -25 -36c0 -42 50 -48 142 -48c79 0 134 5 134 45c0 32 -34 38 -67 38z" />
    <glyph glyph-name="gdotaccent" unicode="&#x121;" horiz-adv-x="562" 
d="M277 565c-43 0 -78 34 -78 78s36 79 78 79c43 0 79 -36 79 -79s-36 -78 -79 -78zM546 453c-30 4 -60 -1 -79 -18c25 -32 39 -73 39 -121c0 -122 -90 -200 -228 -200c-33 0 -63 5 -91 14c-25 0 -44 -13 -44 -37c0 -14 12 -34 52 -34h170c114 0 179 -56 179 -153
c0 -127 -143 -164 -280 -164c-173 0 -256 44 -256 128c0 47 25 85 68 102c-30 21 -48 54 -48 98c0 29 13 86 71 112c-34 33 -54 79 -54 133c0 121 94 200 233 200c44 0 83 -8 116 -22c24 50 79 84 152 76v-114zM276 226c56 0 91 38 91 86c0 46 -34 89 -92 89
c-54 0 -92 -37 -92 -87c0 -51 38 -88 93 -88zM339 -58h-167c-6 0 -12 1 -17 1c-19 -9 -25 -21 -25 -36c0 -42 50 -48 142 -48c79 0 134 5 134 45c0 32 -34 38 -67 38z" />
    <glyph glyph-name="h" unicode="h" horiz-adv-x="594" 
d="M334 513c136 0 207 -79 207 -207v-306h-142v273c0 100 -64 111 -96 111c-35 0 -107 -15 -107 -111v-273h-142v750h143v-293c29 34 80 56 137 56z" />
    <glyph glyph-name="hbar" unicode="&#x127;" horiz-adv-x="594" 
d="M334 513c136 0 207 -79 207 -207v-306h-142v273c0 100 -64 111 -96 111c-35 0 -107 -15 -107 -111v-273h-142v577h-50v83h50v90h143v-90h169v-83h-169v-120c29 34 80 56 137 56z" />
    <glyph glyph-name="i" unicode="i" horiz-adv-x="264" 
d="M135 582c-47 0 -84 37 -84 83c0 47 37 83 84 83c45 0 82 -36 82 -83c0 -46 -37 -83 -82 -83zM63 498h143v-498h-143v498z" />
    <glyph glyph-name="dotlessi" unicode="&#x131;" horiz-adv-x="252" 
d="M55 498h142v-498h-142v498z" />
    <glyph glyph-name="iacute" unicode="&#xed;" horiz-adv-x="252" 
d="M178 558h-104l89 177h130zM55 498h142v-498h-142v498z" />
    <glyph glyph-name="icircumflex" unicode="&#xee;" horiz-adv-x="252" 
d="M127 664l-61 -106h-105l96 178h111h28l96 -178h-105zM55 0v498h142v-498h-142z" />
    <glyph glyph-name="idieresis" unicode="&#xef;" horiz-adv-x="252" 
d="M18 565c-44 0 -80 35 -80 78c0 44 36 79 80 79c42 0 78 -36 78 -79c0 -42 -35 -78 -78 -78zM237 565c-44 0 -80 35 -80 78c0 44 36 79 80 79c42 0 79 -36 79 -79c0 -42 -36 -78 -79 -78zM55 498h142v-498h-142v498z" />
    <glyph glyph-name="i.loclTRK" horiz-adv-x="252" 
d="M126 565c-43 0 -78 34 -78 78s36 79 78 79c43 0 79 -36 79 -79s-36 -78 -79 -78zM55 498h142v-498h-142v498z" />
    <glyph glyph-name="igrave" unicode="&#xec;" horiz-adv-x="252" 
d="M74 558l-116 177h130l90 -177h-104zM55 498h142v-498h-142v498z" />
    <glyph glyph-name="imacron" unicode="&#x12b;" horiz-adv-x="252" 
d="M-35 665h322v-89h-322v89zM55 498h142v-498h-142v498z" />
    <glyph glyph-name="iogonek" unicode="&#x12f;" horiz-adv-x="252" 
d="M126 565c-43 0 -78 34 -78 78s36 79 78 79c43 0 79 -36 79 -79s-36 -78 -79 -78zM198 0c-114 -39 -86 -144 -6 -111v-92c-171 -59 -229 148 -79 203h-58v498h142v-498h1z" />
    <glyph glyph-name="itilde" unicode="&#x129;" horiz-adv-x="252" 
d="M-57 579c-18 102 41 154 101 154c62 0 104 -52 147 -52c25 0 36 19 31 45h88c17 -103 -44 -147 -104 -147c-64 0 -108 50 -146 50c-25 0 -33 -21 -30 -49zM55 498h142v-498h-142v498z" />
    <glyph glyph-name="j" unicode="j" horiz-adv-x="281" 
d="M146 582c-47 0 -84 37 -84 83c0 47 37 83 84 83c46 0 83 -36 83 -83c0 -46 -37 -83 -83 -83zM-63 -233l27 120c46 -18 112 -14 112 63l-1 548h143v-544c0 -163 -127 -233 -281 -187z" />
    <glyph glyph-name="uni0237" unicode="&#x237;" horiz-adv-x="283" 
d="M-62 -236l28 123c66 -20 110 3 110 63l-1 547h147v-569c0 -137 -109 -213 -284 -164z" />
    <glyph glyph-name="jcircumflex" unicode="&#x135;" horiz-adv-x="283" 
d="M149 664l-61 -106h-105l96 178h111h28l96 -178h-105zM76 -50l-1 547h147v-569c0 -137 -109 -213 -284 -164l28 123c66 -20 110 3 110 63z" />
    <glyph glyph-name="k" unicode="k" horiz-adv-x="552" 
d="M197 0h-143v750h143v-434l172 182h178l-218 -230l203 -268h-174l-123 169l-38 -41v-128z" />
    <glyph glyph-name="kcommaaccent" unicode="&#x137;" horiz-adv-x="552" 
d="M547 498l-218 -230l203 -268h-174l-123 169l-38 -41v-128h-143v750h143v-434l172 182h178zM275 -35c35 0 69 -23 69 -85c0 -69 -48 -123 -111 -123v35c36 0 58 27 56 52c-6 -3 -13 -4 -22 -4c-32 0 -56 22 -56 60s26 65 64 65z" />
    <glyph glyph-name="l" unicode="l" horiz-adv-x="246" 
d="M54 0v750h143v-750h-143z" />
    <glyph glyph-name="lacute" unicode="&#x13a;" horiz-adv-x="246" 
d="M176 783h-104l89 177h130zM54 0v750h143v-750h-143z" />
    <glyph glyph-name="lcaron" unicode="&#x13e;" horiz-adv-x="246" 
d="M54 0v750h143v-750h-143z" />
    <glyph glyph-name="lcommaaccent" unicode="&#x13c;" horiz-adv-x="246" 
d="M54 750h143v-750h-143v750zM125 -48c35 0 69 -23 69 -85c0 -69 -48 -123 -111 -123v35c36 0 58 27 56 52c-6 -3 -13 -4 -22 -4c-32 0 -56 22 -56 60s26 65 64 65z" />
    <glyph glyph-name="ldot" unicode="&#x140;" horiz-adv-x="489" 
d="M54 0v750h143v-750h-143zM370 288c-55 0 -101 45 -101 99c0 55 46 100 101 100c53 0 99 -47 99 -100s-45 -99 -99 -99z" />
    <glyph glyph-name="lslash" unicode="&#x142;" horiz-adv-x="285" 
d="M265 513v-100l-51 -24v-389h-143v321l-51 -25v100l51 24v330h143v-261z" />
    <glyph glyph-name="m" unicode="m" horiz-adv-x="890" 
d="M651 514c110 0 187 -71 187 -201v-313h-139v291c0 66 -35 99 -87 99c-49 0 -94 -30 -94 -113v-277h-140v291c0 65 -34 98 -86 98c-50 0 -95 -29 -95 -112v-277h-143v498h133l5 -43c28 40 76 59 137 59c74 0 132 -30 163 -90c25 55 80 90 159 90z" />
    <glyph glyph-name="n" unicode="n" horiz-adv-x="592" 
d="M334 513c135 0 205 -79 205 -206v-307h-142v274c0 100 -65 110 -94 110c-37 0 -107 -15 -107 -110v-274h-142v498h135l4 -45c28 37 82 60 141 60z" />
    <glyph glyph-name="nacute" unicode="&#x144;" horiz-adv-x="592" 
d="M471 735l-115 -177h-104l90 177h129zM334 513c135 0 205 -79 205 -206v-307h-142v274c0 100 -65 110 -94 110c-37 0 -107 -15 -107 -110v-274h-142v498h135l4 -45c28 37 82 60 141 60z" />
    <glyph glyph-name="ncaron" unicode="&#x148;" horiz-adv-x="592" 
d="M235 558l-95 178h105l60 -105l61 105h105l-96 -178h-140zM334 513c135 0 205 -79 205 -206v-307h-142v274c0 100 -65 110 -94 110c-37 0 -107 -15 -107 -110v-274h-142v498h135l4 -45c28 37 82 60 141 60z" />
    <glyph glyph-name="ncommaaccent" unicode="&#x146;" horiz-adv-x="592" 
d="M334 513c135 0 205 -79 205 -206v-307h-142v274c0 100 -65 110 -94 110c-37 0 -107 -15 -107 -110v-274h-142v498h135l4 -45c28 37 82 60 141 60zM297 -35c35 0 69 -23 69 -85c0 -69 -48 -123 -111 -123v35c36 0 58 27 56 52c-6 -3 -13 -4 -22 -4c-32 0 -56 22 -56 60
s26 65 64 65z" />
    <glyph glyph-name="eng" unicode="&#x14b;" horiz-adv-x="614" 
d="M346 511c91 0 206 -40 206 -206v-341c0 -169 -152 -178 -213 -152v109c34 -11 74 3 74 41v312c0 100 -65 110 -98 110c-37 0 -108 -15 -108 -110v-274h-139v498h132l4 -47c31 43 83 60 142 60z" />
    <glyph glyph-name="ntilde" unicode="&#xf1;" horiz-adv-x="592" 
d="M209 580l-87 -1c-18 102 41 154 101 154c62 0 104 -52 147 -52c25 0 36 19 31 45h88c17 -103 -44 -147 -104 -147c-64 0 -108 50 -146 50c-25 0 -33 -21 -30 -49zM334 513c135 0 205 -79 205 -206v-307h-142v274c0 100 -65 110 -94 110c-37 0 -107 -15 -107 -110v-274
h-142v498h135l4 -45c28 37 82 60 141 60z" />
    <glyph glyph-name="o" unicode="o" horiz-adv-x="588" 
d="M32 250c0 156 104 262 263 262c157 0 262 -106 262 -262s-105 -262 -262 -262c-159 0 -263 106 -263 262zM175 251c0 -81 47 -136 120 -136c71 0 118 55 118 136c0 80 -47 134 -118 134c-73 0 -120 -54 -120 -134z" />
    <glyph glyph-name="oacute" unicode="&#xf3;" horiz-adv-x="588" 
d="M346 558h-104l89 177h130zM32 250c0 156 104 262 263 262c157 0 262 -106 262 -262s-105 -262 -262 -262c-159 0 -263 106 -263 262zM175 251c0 -81 47 -136 120 -136c71 0 118 55 118 136c0 80 -47 134 -118 134c-73 0 -120 -54 -120 -134z" />
    <glyph glyph-name="ocircumflex" unicode="&#xf4;" horiz-adv-x="588" 
d="M295 664l-61 -106h-105l96 178h111h28l96 -178h-105zM295 512c157 0 262 -106 262 -262s-105 -262 -262 -262c-159 0 -263 106 -263 262s104 262 263 262zM295 115c71 0 118 55 118 136c0 80 -47 134 -118 134c-73 0 -120 -54 -120 -134c0 -81 47 -136 120 -136z" />
    <glyph glyph-name="odieresis" unicode="&#xf6;" horiz-adv-x="588" 
d="M186 565c-44 0 -80 35 -80 78c0 44 36 79 80 79c42 0 78 -36 78 -79c0 -42 -35 -78 -78 -78zM405 565c-44 0 -80 35 -80 78c0 44 36 79 80 79c42 0 79 -36 79 -79c0 -42 -36 -78 -79 -78zM32 250c0 156 104 262 263 262c157 0 262 -106 262 -262s-105 -262 -262 -262
c-159 0 -263 106 -263 262zM175 251c0 -81 47 -136 120 -136c71 0 118 55 118 136c0 80 -47 134 -118 134c-73 0 -120 -54 -120 -134z" />
    <glyph glyph-name="ograve" unicode="&#xf2;" horiz-adv-x="588" 
d="M243 558l-116 177h130l90 -177h-104zM32 250c0 156 104 262 263 262c157 0 262 -106 262 -262s-105 -262 -262 -262c-159 0 -263 106 -263 262zM175 251c0 -81 47 -136 120 -136c71 0 118 55 118 136c0 80 -47 134 -118 134c-73 0 -120 -54 -120 -134z" />
    <glyph glyph-name="ohungarumlaut" unicode="&#x151;" horiz-adv-x="588" 
d="M270 555h-104l89 177h130zM424 555h-104l116 177h130zM32 250c0 156 104 262 263 262c157 0 262 -106 262 -262s-105 -262 -262 -262c-159 0 -263 106 -263 262zM175 251c0 -81 47 -136 120 -136c71 0 118 55 118 136c0 80 -47 134 -118 134c-73 0 -120 -54 -120 -134z
" />
    <glyph glyph-name="omacron" unicode="&#x14d;" horiz-adv-x="588" 
d="M134 665h322v-89h-322v89zM32 250c0 156 104 262 263 262c157 0 262 -106 262 -262s-105 -262 -262 -262c-159 0 -263 106 -263 262zM175 251c0 -81 47 -136 120 -136c71 0 118 55 118 136c0 80 -47 134 -118 134c-73 0 -120 -54 -120 -134z" />
    <glyph glyph-name="oslash" unicode="&#xf8;" horiz-adv-x="588" 
d="M479 444c49 -46 78 -114 78 -194c0 -156 -105 -262 -262 -262c-32 0 -61 4 -88 12l-31 -50h-128l64 103c-51 46 -80 114 -80 197c0 156 104 262 263 262c34 0 66 -5 95 -15l29 46h121zM175 251c0 -28 5 -53 16 -73l128 205c-8 1 -16 2 -24 2c-73 0 -120 -54 -120 -134z
M295 115c71 0 118 55 118 136c0 24 -4 46 -12 65l-123 -200c5 0 11 -1 17 -1z" />
    <glyph glyph-name="oslashacute" unicode="&#x1ff;" horiz-adv-x="588" 
d="M461 735l-115 -177h-104l90 177h129zM479 444c49 -46 78 -114 78 -194c0 -156 -105 -262 -262 -262c-32 0 -61 4 -88 12l-31 -50h-128l64 103c-51 46 -80 114 -80 197c0 156 104 262 263 262c34 0 66 -5 95 -15l29 46h121zM175 251c0 -28 5 -53 16 -73l128 205
c-8 1 -16 2 -24 2c-73 0 -120 -54 -120 -134zM295 115c71 0 118 55 118 136c0 24 -4 46 -12 65l-123 -200c5 0 11 -1 17 -1z" />
    <glyph glyph-name="otilde" unicode="&#xf5;" horiz-adv-x="588" 
d="M111 579c-18 102 41 154 101 154c62 0 104 -52 147 -52c25 0 36 19 31 45h88c17 -103 -44 -147 -104 -147c-64 0 -108 50 -146 50c-25 0 -33 -21 -30 -49zM32 250c0 156 104 262 263 262c157 0 262 -106 262 -262s-105 -262 -262 -262c-159 0 -263 106 -263 262zM175 251
c0 -81 47 -136 120 -136c71 0 118 55 118 136c0 80 -47 134 -118 134c-73 0 -120 -54 -120 -134z" />
    <glyph glyph-name="oe" unicode="&#x153;" horiz-adv-x="945" 
d="M911 250v-54h-354c13 -66 66 -87 115 -87c53 0 91 25 116 63l105 -57c-36 -75 -119 -127 -225 -127c-82 0 -154 34 -191 86c-39 -54 -109 -86 -189 -86c-149 0 -254 106 -254 262s105 262 254 262c87 0 151 -33 189 -85c39 56 108 87 189 87c147 0 245 -101 245 -264z
M556 297h211c-3 58 -45 101 -103 101c-59 0 -100 -42 -108 -101zM297 115c71 0 118 55 118 136c0 80 -47 134 -118 134s-119 -54 -119 -134c0 -81 48 -136 119 -136z" />
    <glyph glyph-name="p" unicode="p" horiz-adv-x="634" 
d="M603 258c4 -179 -110 -271 -246 -271c-68 0 -131 26 -162 65v-288h-138v734h128l6 -51c26 34 81 66 161 66c143 0 247 -87 251 -255zM331 116c75 0 131 51 131 135c0 83 -56 134 -131 134s-132 -51 -132 -134c0 -84 57 -135 132 -135z" />
    <glyph glyph-name="thorn" unicode="&#xfe;" horiz-adv-x="660" 
d="M620 258c5 -179 -109 -270 -247 -270c-69 0 -132 22 -163 60v-281h-142v970h142v-280c28 32 80 57 157 57c146 0 250 -88 253 -256zM346 116c75 0 130 49 130 133c0 83 -55 136 -130 136c-76 0 -131 -52 -131 -136s55 -133 131 -133z" />
    <glyph glyph-name="q" unicode="q" horiz-adv-x="637" 
d="M455 498h127v-734h-137v289c-30 -39 -95 -66 -162 -66c-140 0 -254 92 -250 271c3 168 108 255 255 255c75 0 132 -26 161 -66zM310 116c75 0 131 51 131 135c0 83 -56 134 -131 134s-132 -51 -132 -134c0 -84 57 -135 132 -135z" />
    <glyph glyph-name="r" unicode="r" horiz-adv-x="406" 
d="M194 441c29 61 120 74 192 57v-131c-117 28 -188 -27 -188 -141v-226h-145v497h133z" />
    <glyph glyph-name="racute" unicode="&#x155;" horiz-adv-x="406" 
d="M287 736l-115 -177h-104l90 177h129zM194 441c29 61 120 74 192 57v-131c-117 28 -188 -27 -188 -141v-226h-145v497h133z" />
    <glyph glyph-name="rcaron" unicode="&#x159;" horiz-adv-x="406" 
d="M50 559l-95 178h105l60 -105l61 105h105l-96 -178h-140zM194 441c29 61 120 74 192 57v-131c-117 28 -188 -27 -188 -141v-226h-145v497h133z" />
    <glyph glyph-name="rcommaaccent" unicode="&#x157;" horiz-adv-x="406" 
d="M194 441c29 61 120 74 192 57v-131c-117 28 -188 -27 -188 -141v-226h-145v497h133zM127 -35c35 0 69 -23 69 -85c0 -69 -48 -123 -111 -123v35c36 0 58 27 56 52c-6 -3 -13 -4 -22 -4c-32 0 -56 22 -56 60s26 65 64 65z" />
    <glyph glyph-name="s" unicode="s" horiz-adv-x="475" 
d="M162 153c2 -33 30 -54 75 -54c38 0 64 15 64 45c0 21 -15 34 -43 41l-65 18c-111 30 -147 83 -147 149c0 91 69 161 192 161c101 0 178 -47 195 -132l-128 -30c-4 31 -29 49 -63 49c-32 0 -57 -17 -57 -45c0 -21 13 -35 52 -46l63 -16c93 -25 143 -75 143 -150
c0 -92 -73 -156 -204 -156c-129 0 -195 61 -207 144z" />
    <glyph glyph-name="sacute" unicode="&#x15b;" horiz-adv-x="475" 
d="M292 561h-104l90 177h129zM162 153c2 -33 30 -54 75 -54c38 0 64 15 64 45c0 21 -15 34 -43 41l-65 18c-111 30 -147 83 -147 149c0 91 69 161 192 161c101 0 178 -47 195 -132l-128 -30c-4 31 -29 49 -63 49c-32 0 -57 -17 -57 -45c0 -21 13 -35 52 -46l63 -16
c93 -25 143 -75 143 -150c0 -92 -73 -156 -204 -156c-129 0 -195 61 -207 144z" />
    <glyph glyph-name="scaron" unicode="&#x161;" horiz-adv-x="475" 
d="M170 561l-95 178h105l60 -105l61 105h105l-96 -178h-140zM300 293c93 -25 143 -75 143 -150c0 -92 -73 -156 -204 -156c-129 0 -195 61 -207 144l130 22c2 -33 30 -54 75 -54c38 0 64 15 64 45c0 21 -15 34 -43 41l-65 18c-111 30 -147 83 -147 149c0 91 69 161 192 161
c101 0 178 -47 195 -132l-128 -30c-4 31 -29 49 -63 49c-32 0 -57 -17 -57 -45c0 -21 13 -35 52 -46z" />
    <glyph glyph-name="scedilla" unicode="&#x15f;" horiz-adv-x="475" 
d="M443 143c0 -82 -57 -141 -163 -154l-32 -30h33c49 0 79 -36 79 -83c0 -53 -31 -84 -79 -84h-113v61h91c13 0 26 7 26 23c0 17 -13 23 -26 23h-91v62l27 29c-100 12 -152 68 -163 141l130 22c2 -33 30 -54 75 -54c38 0 64 15 64 45c0 21 -15 34 -43 41l-65 18
c-111 30 -147 83 -147 149c0 91 69 161 192 161c101 0 178 -47 195 -132l-128 -30c-4 31 -29 49 -63 49c-32 0 -57 -17 -57 -45c0 -21 13 -35 52 -46l63 -16c93 -25 143 -75 143 -150z" />
    <glyph glyph-name="scircumflex" unicode="&#x15d;" horiz-adv-x="475" 
d="M241 667l-61 -106h-105l96 178h111h28l96 -178h-105zM300 293c93 -25 143 -75 143 -150c0 -92 -73 -156 -204 -156c-129 0 -195 61 -207 144l130 22c2 -33 30 -54 75 -54c38 0 64 15 64 45c0 21 -15 34 -43 41l-65 18c-111 30 -147 83 -147 149c0 91 69 161 192 161
c101 0 178 -47 195 -132l-128 -30c-4 31 -29 49 -63 49c-32 0 -57 -17 -57 -45c0 -21 13 -35 52 -46z" />
    <glyph glyph-name="scommaaccent" unicode="&#x219;" horiz-adv-x="475" 
d="M300 293c93 -25 143 -75 143 -150c0 -92 -73 -156 -204 -156c-129 0 -195 61 -207 144l130 22c2 -33 30 -54 75 -54c38 0 64 15 64 45c0 21 -15 34 -43 41l-65 18c-111 30 -147 83 -147 149c0 91 69 161 192 161c101 0 178 -47 195 -132l-128 -30c-4 31 -29 49 -63 49
c-32 0 -57 -17 -57 -45c0 -21 13 -35 52 -46zM244 -36c35 0 69 -23 69 -85c0 -69 -48 -123 -111 -123v35c36 0 58 27 56 52c-6 -3 -13 -4 -22 -4c-32 0 -56 22 -56 60s26 65 64 65z" />
    <glyph glyph-name="germandbls" unicode="&#xdf;" horiz-adv-x="598" 
d="M461 423c64 -38 105 -102 105 -196c0 -147 -118 -227 -253 -227c-25 0 -46 3 -64 8v135c18 -9 40 -14 62 -14c72 0 117 46 117 108c0 74 -48 115 -128 113h-4h-6v113c73 0 90 50 90 79c0 60 -45 82 -87 82c-47 0 -90 -28 -90 -93l-1 -531h-143v515c0 145 85 235 221 235
c126 0 226 -70 226 -202c0 -50 -17 -93 -45 -125z" />
    <glyph glyph-name="t" unicode="t" horiz-adv-x="362" 
d="M346 498v-118h-94v-380h-141v380h-95v118h95v154h141v-154h94z" />
    <glyph glyph-name="tbar" unicode="&#x167;" horiz-adv-x="362" 
d="M346 380h-94v-54h87v-109h-87v-217h-141v217h-96v109h96v54h-95v118h95v154h141v-154h94v-118z" />
    <glyph glyph-name="tcaron" unicode="&#x165;" horiz-adv-x="378" 
d="M338 769c30 0 59 -22 53 -64l-21 -160h-67l-21 160c-5 42 26 64 56 64zM247 652v-154h95v-122h-95v-376h-141v376h-94v122h94v154h141z" />
    <glyph glyph-name="uni0163" unicode="&#x163;" horiz-adv-x="362" 
d="M218 0v-1l-33 -31h33c49 0 79 -36 79 -83c0 -53 -31 -84 -79 -84h-113v61h91c13 0 26 7 26 23c0 17 -13 23 -26 23h-91v62l29 30h-23v380h-95v118h95v154h141v-154h94v-118h-94v-380h-34z" />
    <glyph glyph-name="uni021B" unicode="&#x21b;" horiz-adv-x="362" 
d="M346 498v-118h-94v-380h-141v380h-95v118h95v154h141v-154h94zM181 -27c35 0 69 -23 69 -85c0 -69 -48 -123 -111 -123v35c36 0 58 27 56 52c-6 -3 -13 -4 -22 -4c-32 0 -56 22 -56 60s26 65 64 65z" />
    <glyph glyph-name="u" unicode="u" horiz-adv-x="604" 
d="M551 0h-141c-4 12 -7 28 -9 46c-31 -42 -82 -59 -139 -59c-93 0 -209 40 -209 207v304h143v-274c0 -100 66 -110 97 -110c34 0 105 15 105 110v274h142v-406c0 -23 4 -68 11 -92z" />
    <glyph glyph-name="uacute" unicode="&#xfa;" horiz-adv-x="604" 
d="M463 735l-115 -177h-104l89 177h130zM551 0h-141c-4 12 -7 28 -9 46c-31 -42 -82 -59 -139 -59c-93 0 -209 40 -209 207v304h143v-274c0 -100 66 -110 97 -110c34 0 105 15 105 110v274h142v-406c0 -23 4 -68 11 -92z" />
    <glyph glyph-name="ucircumflex" unicode="&#xfb;" horiz-adv-x="604" 
d="M297 664l-61 -106h-105l96 178h111h28l96 -178h-105zM551 0h-141c-4 12 -7 28 -9 46c-31 -42 -82 -59 -139 -59c-93 0 -209 40 -209 207v304h143v-274c0 -100 66 -110 97 -110c34 0 105 15 105 110v274h142v-406c0 -23 4 -68 11 -92z" />
    <glyph glyph-name="udieresis" unicode="&#xfc;" horiz-adv-x="604" 
d="M188 565c-44 0 -80 35 -80 78c0 44 36 79 80 79c42 0 78 -36 78 -79c0 -42 -35 -78 -78 -78zM407 565c-44 0 -80 35 -80 78c0 44 36 79 80 79c42 0 79 -36 79 -79c0 -42 -36 -78 -79 -78zM551 0h-141c-4 12 -7 28 -9 46c-31 -42 -82 -59 -139 -59c-93 0 -209 40 -209 207
v304h143v-274c0 -100 66 -110 97 -110c34 0 105 15 105 110v274h142v-406c0 -23 4 -68 11 -92z" />
    <glyph glyph-name="ugrave" unicode="&#xf9;" horiz-adv-x="604" 
d="M349 558h-104l-116 177h130zM551 0h-141c-4 12 -7 28 -9 46c-31 -42 -82 -59 -139 -59c-93 0 -209 40 -209 207v304h143v-274c0 -100 66 -110 97 -110c34 0 105 15 105 110v274h142v-406c0 -23 4 -68 11 -92z" />
    <glyph glyph-name="uhungarumlaut" unicode="&#x171;" horiz-adv-x="604" 
d="M387 735l-115 -177h-104l89 177h130zM426 558h-104l116 177h130zM540 498v-406c0 -23 4 -68 11 -92h-141c-4 12 -7 28 -9 46c-31 -42 -82 -59 -139 -59c-93 0 -209 40 -209 207v304h143v-274c0 -100 66 -110 97 -110c34 0 105 15 105 110v274h142z" />
    <glyph glyph-name="umacron" unicode="&#x16b;" horiz-adv-x="604" 
d="M458 665v-89h-322v89h322zM551 0h-141c-4 12 -7 28 -9 46c-31 -42 -82 -59 -139 -59c-93 0 -209 40 -209 207v304h143v-274c0 -100 66 -110 97 -110c34 0 105 15 105 110v274h142v-406c0 -23 4 -68 11 -92z" />
    <glyph glyph-name="uogonek" unicode="&#x173;" horiz-adv-x="604" 
d="M549 0c-114 -39 -86 -144 -6 -111v-92c-171 -59 -229 148 -79 203h-54c-4 12 -7 28 -9 46c-31 -42 -82 -59 -139 -59c-93 0 -209 40 -209 207v304h143v-274c0 -100 66 -110 97 -110c34 0 105 15 105 110v274h142v-406c0 -23 4 -68 11 -92h-2z" />
    <glyph glyph-name="uring" unicode="&#x16f;" horiz-adv-x="604" 
d="M297 542c-75 0 -134 59 -134 135c0 74 61 136 134 136c74 0 134 -63 134 -136c0 -74 -60 -135 -134 -135zM297 734c-32 0 -56 -24 -56 -55c0 -34 24 -58 56 -58s56 24 56 58c0 30 -24 55 -56 55zM551 0h-141c-4 12 -7 28 -9 46c-31 -42 -82 -59 -139 -59
c-93 0 -209 40 -209 207v304h143v-274c0 -100 66 -110 97 -110c34 0 105 15 105 110v274h142v-406c0 -23 4 -68 11 -92z" />
    <glyph glyph-name="utilde" unicode="&#x169;" horiz-adv-x="604" 
d="M201 580l-87 -1c-18 102 41 154 101 154c62 0 104 -52 147 -52c25 0 36 19 31 45h88c17 -103 -44 -147 -104 -147c-64 0 -108 50 -146 50c-25 0 -33 -21 -30 -49zM551 0h-141c-4 12 -7 28 -9 46c-31 -42 -82 -59 -139 -59c-93 0 -209 40 -209 207v304h143v-274
c0 -100 66 -110 97 -110c34 0 105 15 105 110v274h142v-406c0 -23 4 -68 11 -92z" />
    <glyph glyph-name="v" unicode="v" horiz-adv-x="564" 
d="M407 498h147l-208 -498h-140l-196 498h154l116 -328z" />
    <glyph glyph-name="w" unicode="w" horiz-adv-x="828" 
d="M665 498h151l-175 -498h-132l-95 287l-97 -287h-139l-166 498h155l83 -291l93 291h145l88 -296z" />
    <glyph glyph-name="wacute" unicode="&#x1e83;" horiz-adv-x="828" 
d="M584 734l-115 -177h-104l89 177h130zM665 498h151l-175 -498h-132l-95 287l-97 -287h-139l-166 498h155l83 -291l93 291h145l88 -296z" />
    <glyph glyph-name="wcircumflex" unicode="&#x175;" horiz-adv-x="828" 
d="M418 663l-61 -106h-105l96 178h111h28l96 -178h-105zM665 498h151l-175 -498h-132l-95 287l-97 -287h-139l-166 498h155l83 -291l93 291h145l88 -296z" />
    <glyph glyph-name="wdieresis" unicode="&#x1e85;" horiz-adv-x="828" 
d="M309 564c-44 0 -80 35 -80 78c0 44 36 79 80 79c42 0 78 -36 78 -79c0 -42 -35 -78 -78 -78zM528 564c-44 0 -80 35 -80 78c0 44 36 79 80 79c42 0 79 -36 79 -79c0 -42 -36 -78 -79 -78zM665 498h151l-175 -498h-132l-95 287l-97 -287h-139l-166 498h155l83 -291l93 291
h145l88 -296z" />
    <glyph glyph-name="wgrave" unicode="&#x1e81;" horiz-adv-x="828" 
d="M469 557h-104l-116 177h130zM665 498h151l-175 -498h-132l-95 287l-97 -287h-139l-166 498h155l83 -291l93 291h145l88 -296z" />
    <glyph glyph-name="x" unicode="x" horiz-adv-x="541" 
d="M17 0h159l90 151c33 -57 70 -117 93 -151h167l-169 244l175 254h-163l-93 -158c-34 57 -65 110 -98 158h-168l177 -256z" />
    <glyph glyph-name="y" unicode="y" horiz-adv-x="577" 
d="M417 498h150l-242 -616c-63 -163 -194 -142 -295 -108l39 129c57 -34 117 -33 140 30l14 39l-212 526h150l130 -344z" />
    <glyph glyph-name="yacute" unicode="&#xfd;" horiz-adv-x="577" 
d="M456 735l-115 -177h-104l89 177h130zM417 498h150l-242 -616c-63 -163 -194 -142 -295 -108l39 129c57 -34 117 -33 140 30l14 39l-212 526h150l130 -344z" />
    <glyph glyph-name="ycircumflex" unicode="&#x177;" horiz-adv-x="577" 
d="M290 664l-61 -106h-105l96 178h111h28l96 -178h-105zM417 498h150l-242 -616c-63 -163 -194 -142 -295 -108l39 129c57 -34 117 -33 140 30l14 39l-212 526h150l130 -344z" />
    <glyph glyph-name="ydieresis" unicode="&#xff;" horiz-adv-x="577" 
d="M180 565c-44 0 -80 35 -80 78c0 44 36 79 80 79c42 0 78 -36 78 -79c0 -42 -35 -78 -78 -78zM399 565c-44 0 -80 35 -80 78c0 44 36 79 80 79c42 0 79 -36 79 -79c0 -42 -36 -78 -79 -78zM417 498h150l-242 -616c-63 -163 -194 -142 -295 -108l39 129
c57 -34 117 -33 140 30l14 39l-212 526h150l130 -344z" />
    <glyph glyph-name="ygrave" unicode="&#x1ef3;" horiz-adv-x="577" 
d="M341 558h-104l-116 177h130zM417 498h150l-242 -616c-63 -163 -194 -142 -295 -108l39 129c57 -34 117 -33 140 30l14 39l-212 526h150l130 -344z" />
    <glyph glyph-name="z" unicode="z" horiz-adv-x="482" 
d="M36 0v127l232 245h-232v126h411v-127l-238 -244h238v-127h-411z" />
    <glyph glyph-name="zacute" unicode="&#x17a;" horiz-adv-x="482" 
d="M293 558h-104l90 177h129zM36 0v127l232 245h-232v126h411v-127l-238 -244h238v-127h-411z" />
    <glyph glyph-name="zcaron" unicode="&#x17e;" horiz-adv-x="482" 
d="M171 558l-95 178h105l60 -105l61 105h105l-96 -178h-140zM447 498v-127l-238 -244h238v-127h-411v127l232 245h-232v126h411z" />
    <glyph glyph-name="zdotaccent" unicode="&#x17c;" horiz-adv-x="482" 
d="M241 565c-43 0 -78 34 -78 78s36 79 78 79c43 0 79 -36 79 -79s-36 -78 -79 -78zM36 0v127l232 245h-232v126h411v-127l-238 -244h238v-127h-411z" />
    <glyph glyph-name="a.ss01" horiz-adv-x="651" 
d="M585 0h-142c-3 12 -6 31 -8 53c-30 -42 -90 -66 -157 -66c-147 0 -243 101 -246 251c-3 164 95 275 250 275c69 0 126 -23 156 -62l5 47h132v-378c0 -29 5 -102 10 -120zM302 116c65 0 128 50 128 135c0 88 -63 134 -128 134c-64 0 -126 -46 -126 -134
c0 -87 62 -135 126 -135z" />
    <glyph glyph-name="g.ss02" horiz-adv-x="637" 
d="M447 497h128v-476c0 -174 -107 -271 -267 -271c-137 0 -225 69 -263 175l126 46c16 -60 70 -92 139 -92c87 0 125 52 125 131v55c-30 -35 -88 -58 -158 -58c-147 0 -244 100 -244 252c0 153 99 255 245 255c70 0 132 -22 163 -63zM303 131c75 0 129 54 129 131
c0 76 -53 128 -129 128s-126 -52 -126 -128c0 -77 52 -131 126 -131z" />
    <glyph glyph-name="t.ss03" horiz-adv-x="396" 
d="M342 124l17 -124c-142 -33 -271 -4 -271 167v209h-76v122h76v154h141v-154h113v-122h-113v-180c-1 -89 54 -91 113 -72z" />
    <glyph glyph-name="i.ss04" horiz-adv-x="288" 
d="M144 749l96 -95l-96 -96l-96 96zM72 498h143v-498h-143v498z" />
    <glyph glyph-name="uni03A9" unicode="&#x3a9;" horiz-adv-x="664" 
d="M526 105h85v-105h-240v105c68 28 104 89 104 157c0 80 -59 133 -137 133s-137 -53 -137 -134c0 -74 40 -132 104 -156v-105h-241v105h86c-44 44 -72 101 -72 171c0 128 103 237 261 237c162 0 259 -112 259 -236c0 -70 -29 -128 -72 -172z" />
    <glyph glyph-name="pi" unicode="&#x3c0;" horiz-adv-x="670" 
d="M631 497v-115h-96c1 -77 1 -171 1 -218c0 -36 21 -35 48 -35l47 -1v-128l-127 1c-77 0 -111 61 -111 141v240h-151v-382h-140v382h-88v115h228h293h96z" />
    <glyph glyph-name="zero" unicode="0" horiz-adv-x="772" 
d="M64 367c0 228 129 383 322 383c201 1 321 -157 321 -384s-127 -379 -321 -379c-202 0 -322 153 -322 380zM212 366c0 -161 64 -247 174 -248c109 0 173 88 173 249c0 164 -64 252 -173 251c-110 -1 -174 -87 -174 -252z" />
    <glyph glyph-name="one" unicode="1" horiz-adv-x="444" 
d="M55 510v143l143 84h145v-737h-145v586z" />
    <glyph glyph-name="two" unicode="2" horiz-adv-x="614" 
d="M441 272l-157 -139h275v-131l-483 -2v138l268 236c67 59 79 98 79 133c0 74 -52 111 -108 111c-63 0 -112 -45 -112 -118h-147c0 156 106 250 259 250c169 0 256 -113 256 -244c0 -110 -60 -171 -130 -234z" />
    <glyph glyph-name="three" unicode="3" horiz-adv-x="601" 
d="M380 468c98 -30 173 -110 173 -233c0 -153 -118 -248 -266 -248c-145 0 -261 89 -261 252h147c0 -77 47 -120 117 -120c69 0 116 46 116 117c0 63 -37 114 -125 116c-15 1 -30 1 -50 1h-58v96l164 156h-277v132h475v-122z" />
    <glyph glyph-name="four" unicode="4" horiz-adv-x="676" 
d="M64 141v131l285 465h168l-287 -465l175 -1v162h142v-162h94v-131h-94v-140h-142v140z" />
    <glyph glyph-name="five" unicode="5" horiz-adv-x="658" 
d="M359 510c155 0 248 -114 248 -257c0 -158 -114 -265 -280 -265c-158 0 -276 106 -276 262h149c0 -83 55 -130 131 -130c63 0 127 49 127 133c0 87 -60 136 -127 136c-55 0 -99 -25 -122 -62l-138 18l95 392h387v-143h-272l-31 -108c30 16 66 24 109 24z" />
    <glyph glyph-name="six" unicode="6" horiz-adv-x="690" 
d="M381 512c150 0 263 -98 263 -252s-112 -273 -276 -273c-222 0 -309 184 -309 375c0 198 94 388 337 388c93 0 175 -30 227 -83l-88 -103c-40 31 -99 50 -147 50c-107 0 -180 -74 -186 -181c34 50 99 79 179 79zM363 119c70 0 134 47 134 137c0 86 -61 135 -134 135
s-135 -48 -135 -135c0 -90 64 -137 135 -137z" />
    <glyph glyph-name="seven" unicode="7" horiz-adv-x="570" 
d="M25 737h520v-132c-267 -202 -258 -542 -258 -605h-145c0 53 -12 376 237 605h-354v132z" />
    <glyph glyph-name="eight" unicode="8" horiz-adv-x="649" 
d="M459 392c89 -26 136 -105 136 -190c0 -131 -113 -214 -271 -214s-270 83 -270 214c0 85 48 163 133 191c-62 27 -97 86 -97 159c0 126 103 198 235 198s235 -72 234 -198c-1 -74 -37 -134 -100 -160zM323 624c-64 0 -107 -36 -107 -89c0 -52 41 -87 107 -87
s107 35 107 87c0 53 -42 89 -107 89zM324 119c69 0 123 36 123 103c0 65 -54 102 -123 102s-123 -37 -123 -101c0 -68 54 -104 123 -104z" />
    <glyph glyph-name="nine" unicode="9" horiz-adv-x="696" 
d="M334 750c222 0 309 -184 309 -375c0 -198 -94 -388 -338 -388c-98 0 -177 34 -227 84l89 103c50 -39 96 -50 147 -50c106 0 180 74 186 181c-35 -50 -99 -80 -180 -80c-149 0 -263 98 -263 252c0 155 113 273 277 273zM338 347c73 -1 135 47 135 134
c0 92 -64 138 -134 138s-134 -46 -134 -138c0 -86 60 -134 133 -134z" />
    <glyph glyph-name="uni2780" unicode="&#x2780;" horiz-adv-x="875" 
d="M437 -54c-214 0 -387 174 -387 387c0 214 174 387 387 387s388 -174 388 -387c0 -214 -174 -387 -388 -387zM437 40c162 0 293 132 293 293c0 160 -132 293 -293 293s-292 -132 -292 -293s131 -293 292 -293zM337 390v81l76 39v-81zM413 143v367h82v-367h-82z" />
    <glyph glyph-name="uni2781" unicode="&#x2781;" horiz-adv-x="875" 
d="M437 720c213 0 388 -174 388 -387c0 -214 -174 -387 -388 -387s-387 174 -387 387c0 214 174 387 387 387zM437 40c162 0 293 132 293 293c0 160 -132 293 -293 293s-292 -132 -292 -293s131 -293 292 -293zM577 400c0 -46 -23 -73 -64 -112l-58 -55l114 1v-80l-238 -1
v65l140 132c17 17 26 28 27 42c2 32 -18 52 -49 53c-34 -1 -50 -21 -51 -56h-78c-4 78 52 135 129 135c74 0 128 -46 128 -124z" />
    <glyph glyph-name="uni2782" unicode="&#x2782;" horiz-adv-x="875" 
d="M437 720c213 0 388 -174 388 -387c0 -214 -174 -387 -388 -387s-387 174 -387 387c0 214 174 387 387 387zM437 40c162 0 293 132 293 293c0 160 -132 293 -293 293s-292 -132 -292 -293s131 -293 292 -293zM481 376c49 -14 88 -54 88 -118c0 -77 -57 -126 -130 -126
c-76 0 -135 59 -129 136h74c0 -40 20 -62 55 -62c29 0 53 21 53 52c0 42 -29 57 -63 57h-53v53l54 58h-106v81h228v-59z" />
    <glyph glyph-name="uni2783" unicode="&#x2783;" horiz-adv-x="875" 
d="M437 720c213 0 388 -174 388 -387c0 -214 -174 -387 -388 -387s-387 174 -387 387c0 214 174 387 387 387zM437 40c162 0 293 132 293 293c0 160 -132 293 -293 293s-292 -132 -292 -293s131 -293 292 -293zM522 522v-224h44v-79h-44v-65h-81v65l-168 1v79l168 223h81z
M371 299l70 -1v95z" />
    <glyph glyph-name="uni2784" unicode="&#x2784;" horiz-adv-x="875" 
d="M437 -54c-214 0 -387 174 -387 387c0 214 174 387 387 387s388 -174 388 -387c0 -214 -174 -387 -388 -387zM437 40c162 0 293 132 293 293c0 160 -132 293 -293 293s-292 -132 -292 -293s131 -293 292 -293zM299 280h80c-5 -34 19 -61 52 -61c30 0 54 23 55 51
c2 38 -21 62 -58 62c-20 0 -40 -11 -45 -23l-73 19l45 182h199v-80h-137l-8 -30c9 3 19 4 29 4c75 0 128 -56 128 -134c0 -71 -60 -130 -135 -130c-78 0 -137 62 -132 140z" />
    <glyph glyph-name="uni2785" unicode="&#x2785;" horiz-adv-x="875" 
d="M437 -54c-214 0 -387 174 -387 387c0 214 174 387 387 387s388 -174 388 -387c0 -214 -174 -387 -388 -387zM437 40c162 0 293 132 293 293c0 160 -132 293 -293 293s-292 -132 -292 -293s131 -293 292 -293zM304 424c21 49 68 91 129 92c60 0 101 -24 129 -68l-59 -38
c-15 22 -40 33 -67 32c-28 -2 -63 -23 -72 -65c17 23 43 33 69 34c83 5 129 -63 128 -133s-50 -136 -136 -136c-132 1 -168 163 -121 282zM370 282c-2 -41 20 -67 53 -67c35 0 62 28 59 71c-5 29 -28 50 -56 50c-27 1 -53 -22 -56 -54z" />
    <glyph glyph-name="uni2786" unicode="&#x2786;" horiz-adv-x="875" 
d="M437 720c213 0 388 -174 388 -387c0 -214 -174 -387 -388 -387s-387 174 -387 387c0 214 174 387 387 387zM437 40c162 0 293 132 293 293c0 160 -132 293 -293 293s-292 -132 -292 -293s131 -293 292 -293zM303 426v84h269v-84c-140 -100 -129 -258 -129 -284h-85
c0 20 -9 169 105 284h-160z" />
    <glyph glyph-name="uni2787" unicode="&#x2787;" horiz-adv-x="875" 
d="M437 -54c-214 0 -387 174 -387 387c0 214 174 387 387 387s388 -174 388 -387c0 -214 -174 -387 -388 -387zM437 40c162 0 293 132 293 293c0 160 -132 293 -293 293s-292 -132 -292 -293s131 -293 292 -293zM433 143c-80 0 -130 55 -131 112c0 35 20 69 49 88
c-24 19 -37 44 -38 68c-3 55 44 110 121 111c75 -1 121 -54 120 -107c-1 -26 -13 -52 -39 -72c29 -19 49 -53 49 -86c0 -58 -49 -114 -131 -114zM433 378c32 0 48 19 47 36c0 17 -17 34 -47 34c-31 0 -46 -18 -47 -35c0 -18 16 -35 47 -35zM433 217c36 0 54 22 54 44
s-18 43 -54 43c-37 0 -54 -22 -54 -44c1 -21 19 -43 54 -43z" />
    <glyph glyph-name="uni2788" unicode="&#x2788;" horiz-adv-x="875" 
d="M437 -54c-214 0 -387 174 -387 387c0 214 174 387 387 387s388 -174 388 -387c0 -214 -174 -387 -388 -387zM437 40c162 0 293 132 293 293c0 160 -132 293 -293 293s-292 -132 -292 -293s131 -293 292 -293zM303 383c-5 -94 68 -138 128 -135c25 1 56 12 71 34
c-9 -45 -40 -64 -70 -67c-23 -2 -49 7 -64 30l-63 -37c28 -46 76 -70 125 -70c123 0 165 127 140 260c-13 71 -66 116 -135 115c-72 -1 -127 -55 -132 -130zM379 379c0 40 30 62 60 62c34 -3 53 -29 55 -63c-1 -40 -29 -63 -62 -61c-27 1 -53 22 -53 62z" />
    <glyph glyph-name="uni2776" unicode="&#x2776;" horiz-adv-x="812" 
d="M406 -9c-198 0 -356 161 -356 357s159 356 356 356c196 0 356 -160 356 -356c0 -197 -160 -357 -356 -357zM454 156v397h-72l-77 -40v-76l71 34v-315h78z" />
    <glyph glyph-name="uni2777" unicode="&#x2777;" horiz-adv-x="812" 
d="M405 704c197 0 357 -160 357 -356c0 -197 -160 -357 -356 -357c-198 0 -356 161 -356 357s159 356 355 356zM525 256l-114 -1l59 55c40 39 63 66 63 112c0 78 -54 124 -128 124c-77 0 -132 -57 -128 -135h77c1 35 17 55 51 56c32 0 52 -21 49 -53c-1 -14 -10 -25 -27 -41
l-139 -133v-64l237 1v79z" />
    <glyph glyph-name="uni2778" unicode="&#x2778;" horiz-adv-x="812" 
d="M406 -9c-198 0 -356 161 -356 357s159 356 356 356c196 0 356 -160 356 -356c0 -197 -160 -357 -356 -357zM282 293c-6 -77 52 -136 129 -136c73 0 129 49 129 126c0 64 -38 104 -87 118l71 72v58h-229v-80h106l-53 -58v-54h53c34 1 62 -15 62 -56c0 -32 -23 -53 -52 -53
c-36 0 -55 23 -55 63h-74z" />
    <glyph glyph-name="uni2779" unicode="&#x2779;" horiz-adv-x="812" 
d="M406 -9c-198 0 -356 161 -356 357s159 356 356 356c196 0 356 -160 356 -356c0 -197 -160 -357 -356 -357zM406 156h79v71h60v76h-60v250h-75l-180 -250v-76h176v-71zM316 303l90 119v-119h-90z" />
    <glyph glyph-name="uni277A" unicode="&#x277a;" horiz-adv-x="812" 
d="M406 -9c-198 0 -356 161 -356 357s159 356 356 356c196 0 356 -160 356 -356c0 -197 -160 -357 -356 -357zM355 416l9 54h156v78h-218l-38 -224l68 -10c12 23 38 38 66 38c40 0 67 -27 67 -67s-26 -67 -65 -67s-63 21 -69 63l-75 -19c9 -74 64 -122 142 -122
c86 0 148 62 148 145c0 80 -58 145 -137 145c-17 0 -38 -4 -54 -14z" />
    <glyph glyph-name="uni277B" unicode="&#x277b;" horiz-adv-x="812" 
d="M406 -9c-198 0 -356 161 -356 357s159 356 355 356c197 0 357 -160 357 -356c0 -197 -160 -357 -356 -357zM321 403c3 52 40 78 81 78c35 0 62 -14 75 -41l73 25c-24 58 -77 93 -143 93c-109 0 -171 -82 -166 -223c4 -115 59 -187 144 -192c87 -4 156 56 159 146
c3 82 -60 144 -143 144c-27 0 -59 -7 -80 -30zM396 220c-40 0 -68 27 -68 69c0 39 29 67 68 67s67 -28 67 -67c0 -42 -27 -69 -67 -69z" />
    <glyph glyph-name="uni277C" unicode="&#x277c;" horiz-adv-x="812" 
d="M406 -9c-198 0 -356 161 -356 357s159 356 356 356c196 0 356 -160 356 -356c0 -197 -160 -357 -356 -357zM446 460c-70 -94 -109 -191 -120 -304h80c11 124 57 229 137 312v64h-256v-72h159z" />
    <glyph glyph-name="uni277D" unicode="&#x277d;" horiz-adv-x="812" 
d="M406 -9c-198 0 -356 161 -356 357s159 356 356 356c196 0 356 -160 356 -356c0 -197 -160 -357 -356 -357zM404 145c91 0 149 52 149 132c0 41 -19 80 -49 98c18 17 29 45 29 71c0 67 -52 112 -129 112c-78 0 -131 -45 -131 -113c0 -24 12 -52 28 -70
c-29 -18 -48 -59 -48 -100c0 -79 59 -130 151 -130zM404 404c-29 0 -50 15 -50 38s21 39 50 39s49 -16 49 -39s-19 -38 -49 -38zM404 222c-42 0 -70 23 -70 57c0 35 28 58 70 58c41 0 70 -23 70 -58c0 -34 -29 -57 -70 -57z" />
    <glyph glyph-name="uni277E" unicode="&#x277e;" horiz-adv-x="812" 
d="M406 -9c-198 0 -356 161 -356 357s159 356 356 356c196 0 356 -160 356 -356c0 -197 -160 -357 -356 -357zM480 301c-2 -46 -30 -78 -77 -80c-35 0 -63 13 -76 41l-75 -26c24 -57 83 -92 150 -91c102 3 165 77 155 228c-6 110 -57 182 -150 185c-88 2 -151 -62 -151 -148
c0 -82 63 -143 146 -140c29 1 56 11 78 31zM400 481c38 2 68 -26 69 -66s-26 -67 -65 -69s-69 26 -69 66s25 67 65 69z" />
    <glyph glyph-name="four.ss03" horiz-adv-x="696" 
d="M671 274v-141h-95v-133h-140v133l-382 1v141l382 -1v306l-216 -305h-166l325 462h168h29v-463h95z" />
    <glyph glyph-name="zero.tf" horiz-adv-x="723" 
d="M41 367c0 227 129 383 321 383c201 1 321 -156 321 -384c0 -227 -127 -379 -321 -379c-202 0 -321 152 -321 380zM188 367c0 -164 66 -248 174 -249c108 0 173 85 173 249c0 167 -65 252 -173 251s-174 -84 -174 -251z" />
    <glyph glyph-name="one.tf" horiz-adv-x="591" 
d="M391 123h147v-123h-293h-158v123h158v463l-141 -75v143l141 83h146v-614z" />
    <glyph glyph-name="two.tf" horiz-adv-x="614" 
d="M436 273l-159 -140h275v-131l-483 -2v138l271 237c67 60 77 99 77 131c0 75 -53 112 -109 112c-63 0 -112 -45 -112 -118h-147c0 156 106 251 259 251c169 0 257 -113 257 -246c0 -109 -58 -169 -129 -232z" />
    <glyph glyph-name="three.tf" horiz-adv-x="615" 
d="M390 468c98 -30 173 -110 173 -233c0 -153 -118 -248 -265 -248c-143 0 -262 89 -262 252h147c0 -76 48 -120 118 -120c67 0 115 46 115 117c0 63 -38 115 -125 116c-15 1 -32 1 -50 1h-58v96l164 156h-277v132h475v-122z" />
    <glyph glyph-name="four.tf" horiz-adv-x="665" 
d="M617 264v-131h-93v-133h-142v133l-342 1v131l285 472h168l-288 -472l177 -1v169h142v-169h93z" />
    <glyph glyph-name="five.tf" horiz-adv-x="660" 
d="M368 510c155 0 248 -114 248 -257c0 -158 -114 -265 -279 -265c-159 0 -276 106 -276 262h148c0 -82 55 -130 131 -130c64 0 127 49 127 133c0 87 -60 136 -127 136c-55 0 -99 -25 -122 -62l-137 18l95 392h387v-143h-273l-30 -108c29 16 65 24 108 24z" />
    <glyph glyph-name="six.tf" horiz-adv-x="680" 
d="M370 512c149 0 263 -98 263 -252s-113 -273 -277 -273c-222 0 -309 184 -309 375c0 198 94 388 338 388c92 0 174 -30 227 -83l-89 -103c-40 31 -98 50 -147 50c-106 0 -180 -74 -186 -181c35 50 99 79 180 79zM351 119c70 0 134 47 134 137c0 86 -60 135 -133 135
s-135 -48 -135 -135c0 -90 64 -137 134 -137z" />
    <glyph glyph-name="seven.tf" horiz-adv-x="600" 
d="M35 735h520v-145c-267 -201 -258 -529 -258 -590h-145c0 50 -11 363 223 590h-340v145z" />
    <glyph glyph-name="eight.tf" horiz-adv-x="648" 
d="M458 392c89 -26 136 -105 136 -190c0 -131 -113 -214 -271 -214s-270 83 -270 214c0 85 48 163 132 191c-62 27 -96 86 -96 158c0 127 103 199 235 199s235 -72 234 -199c-1 -73 -37 -133 -100 -159zM322 624c-64 0 -107 -36 -107 -90c0 -50 41 -87 107 -87
s107 36 107 87c0 54 -42 90 -107 90zM323 119c69 0 123 36 123 103c0 65 -54 102 -123 102s-123 -37 -123 -101c0 -68 54 -104 123 -104z" />
    <glyph glyph-name="nine.tf" horiz-adv-x="691" 
d="M331 750c222 0 309 -184 309 -375c0 -198 -94 -388 -337 -388c-98 0 -177 34 -227 84l88 103c50 -39 97 -50 147 -50c107 0 180 74 186 181c-34 -50 -99 -80 -179 -80c-150 0 -263 98 -263 252c0 155 112 273 276 273zM335 347c73 -1 135 47 135 134
c0 92 -63 138 -134 138c-70 0 -134 -46 -134 -138c0 -86 60 -134 133 -134z" />
    <glyph glyph-name="fraction" unicode="&#x2044;" horiz-adv-x="181" 
d="M-119 0h-122l541 710h122z" />
    <glyph glyph-name="onehalf" unicode="&#xbd;" horiz-adv-x="772" 
d="M146 0h-122l541 710h122zM32 596v80l80 34v-84zM112 710h81v-367h-81v367zM487 -1v81l127 107c28 24 41 35 42 58c0 27 -17 48 -49 48c-32 -1 -53 -22 -48 -58h-81c-4 75 49 136 134 136c80 0 127 -53 127 -122c0 -56 -34 -89 -66 -115l-67 -55l130 1v-80z" />
    <glyph glyph-name="onequarter" unicode="&#xbc;" horiz-adv-x="750" 
d="M565 710h122l-541 -710h-122zM112 710v-84l-80 -30v80zM193 343h-81v367h81v-367zM718 139v-82h-47v-66h-81v66l-173 1v82l173 228h81v-229h47zM517 140l73 -1v98z" />
    <glyph glyph-name="threequarters" unicode="&#xbe;" horiz-adv-x="807" 
d="M291 467c0 -74 -57 -130 -130 -130c-76 0 -135 59 -129 137h79c-5 -35 17 -58 50 -58c28 0 50 22 50 51c0 17 -6 32 -17 41c-17 14 -42 16 -67 3l-29 62l3 3l51 53h-106v81h230v-68l-57 -58c19 -9 36 -22 47 -38c15 -21 25 -48 25 -79zM623 710h122l-541 -710h-122z
M775 139v-82h-47v-66h-81v66l-173 1v82l173 228h81v-229h47zM574 140l73 -1v98z" />
    <glyph glyph-name="oneeighth" unicode="&#x215b;" horiz-adv-x="774" 
d="M146 0h-122l541 710h122zM32 596v80l80 34v-84zM112 710h81v-367h-81v367zM610 -10c-80 0 -131 55 -132 111c0 36 19 71 49 90c-27 21 -39 49 -38 77c1 52 48 103 121 103s117 -49 120 -100c3 -30 -9 -59 -37 -80c27 -18 49 -53 49 -88c0 -56 -50 -113 -132 -113z
M610 225c31 0 48 17 48 36c0 17 -15 34 -48 34c-32 0 -47 -16 -47 -33c-1 -19 15 -37 47 -37zM610 65c35 0 54 20 55 43c1 21 -17 44 -55 44s-56 -22 -55 -44c0 -23 18 -43 55 -43z" />
    <glyph glyph-name="threeeighths" unicode="&#x215c;" horiz-adv-x="832" 
d="M291 467c0 -74 -57 -130 -130 -130c-76 0 -135 59 -129 137h79c-5 -35 17 -58 50 -58c28 0 50 22 50 51c0 17 -6 32 -17 41c-17 14 -42 16 -67 3l-29 62l3 3l51 53h-106v81h230v-68l-57 -58c19 -9 36 -22 47 -38c15 -21 25 -48 25 -79zM623 710h122l-541 -710h-122z
M751 191c27 -18 49 -53 49 -88c0 -56 -50 -113 -132 -113c-80 0 -131 55 -132 111c0 36 19 71 49 90c-27 21 -39 49 -38 77c1 52 48 103 121 103s117 -49 120 -100c3 -30 -9 -59 -37 -80zM621 262c-1 -19 15 -37 47 -37c31 0 48 17 48 36c0 17 -15 34 -48 34
c-32 0 -47 -16 -47 -33zM723 108c1 21 -17 44 -55 44s-56 -22 -55 -44c0 -23 18 -43 55 -43c35 0 54 20 55 43z" />
    <glyph glyph-name="fiveeighths" unicode="&#x215d;" horiz-adv-x="840" 
d="M32 480h81c-6 -34 18 -61 52 -61c29 0 54 23 55 51c1 38 -22 62 -59 62c-19 0 -40 -11 -45 -23l-73 19l45 182h199v-80h-136l-9 -30c9 3 19 4 29 4c75 0 128 -56 128 -134c0 -71 -60 -130 -134 -130c-78 0 -137 62 -133 140zM212 0h-122l541 710h122zM676 -10
c-80 0 -131 55 -132 111c0 36 19 71 49 90c-27 21 -39 49 -38 77c1 52 48 103 121 103s117 -49 120 -100c3 -30 -9 -59 -37 -80c27 -18 49 -53 49 -88c0 -56 -50 -113 -132 -113zM676 225c31 0 48 17 48 36c0 17 -15 34 -48 34c-32 0 -47 -16 -47 -33c-1 -19 15 -37 47 -37z
M676 65c35 0 54 20 55 43c1 21 -17 44 -55 44s-56 -22 -55 -44c0 -23 18 -43 55 -43z" />
    <glyph glyph-name="seveneighths" unicode="&#x215e;" horiz-adv-x="792" 
d="M88 342c0 20 -10 169 104 284h-160v84h270v-84c-140 -100 -130 -258 -130 -284h-84zM583 710h122l-541 -710h-122zM710 191c27 -18 49 -53 49 -88c0 -56 -50 -113 -132 -113c-80 0 -131 55 -132 111c0 36 19 71 49 90c-27 21 -39 49 -38 77c1 52 48 103 121 103
s117 -49 120 -100c3 -30 -9 -59 -37 -80zM580 262c-1 -19 15 -37 47 -37c31 0 48 17 48 36c0 17 -15 34 -48 34c-32 0 -47 -16 -47 -33zM682 108c1 21 -17 44 -55 44s-56 -22 -55 -44c0 -23 18 -43 55 -43c35 0 54 20 55 43z" />
    <glyph glyph-name="zero.dnom" horiz-adv-x="383" 
d="M191 366c97 2 159 -74 159 -189c0 -114 -62 -189 -158 -189c-97 -1 -160 75 -160 189c0 113 62 191 159 189zM192 71c47 1 75 40 75 106c0 60 -24 98 -64 104c-4 0 -8 1 -12 1c-3 0 -7 -1 -11 -1c-40 -6 -65 -44 -65 -104c0 -66 30 -105 77 -106z" />
    <glyph glyph-name="one.dnom" horiz-adv-x="225" 
d="M32 253v81l80 33v-84zM112 367h81v-367h-81v367z" />
    <glyph glyph-name="two.dnom" horiz-adv-x="326" 
d="M41 -1v81l127 107c28 24 41 35 42 58c0 27 -17 48 -49 48c-32 -1 -53 -22 -48 -58h-81c-4 75 49 136 134 136c80 0 127 -53 127 -122c0 -56 -34 -89 -66 -115l-67 -55l130 1v-80z" />
    <glyph glyph-name="three.dnom" horiz-adv-x="330" 
d="M221 241c42 -19 77 -61 77 -116c0 -74 -59 -132 -136 -132s-136 60 -130 139h80c-5 -33 15 -59 50 -59c29 0 54 20 54 53c0 43 -46 65 -88 42l-28 62v1v0l54 57h-108v80h233v-69z" />
    <glyph glyph-name="four.dnom" horiz-adv-x="365" 
d="M333 139v-82h-47v-66h-81v66l-173 1v82l173 228h81v-229h47zM133 140h72v97z" />
    <glyph glyph-name="five.dnom" horiz-adv-x="337" 
d="M32 132h82c-6 -34 18 -61 53 -61c31 0 55 22 56 52c2 39 -22 63 -60 63c-19 0 -41 -12 -46 -24l-75 20l46 186h204v-82h-139l-9 -30c10 2 19 4 29 4c78 0 131 -57 131 -137c0 -74 -60 -134 -137 -134c-80 0 -140 64 -135 143z" />
    <glyph glyph-name="six.dnom" horiz-adv-x="353" 
d="M191 264c79 0 125 -65 125 -133c0 -71 -50 -141 -139 -141c-97 0 -141 82 -145 176c-4 110 49 205 161 205c63 0 103 -26 128 -59l-62 -44c-15 20 -40 27 -64 27c-45 0 -69 -27 -79 -57c19 18 48 26 75 26zM173 62c31 0 57 22 57 60s-24 62 -57 62s-55 -24 -55 -62
s23 -60 55 -60z" />
    <glyph glyph-name="seven.dnom" horiz-adv-x="334" 
d="M32 368h270v-84c-140 -100 -130 -258 -130 -284h-84c0 20 -10 168 104 284h-160v84z" />
    <glyph glyph-name="eight.dnom" horiz-adv-x="328" 
d="M164 -10c-80 0 -131 55 -132 111c0 36 19 71 49 90c-27 21 -39 49 -38 77c1 52 48 103 121 103s117 -49 120 -100c3 -30 -9 -59 -37 -80c27 -18 49 -53 49 -88c0 -56 -50 -113 -132 -113zM164 225c31 0 48 17 48 36c0 17 -15 34 -48 34c-32 0 -47 -16 -47 -33
c-1 -19 15 -37 47 -37zM164 65c35 0 54 20 55 43c1 21 -17 44 -55 44s-56 -22 -55 -44c0 -23 18 -43 55 -43z" />
    <glyph glyph-name="nine.dnom" horiz-adv-x="344" 
d="M32 239c-5 -97 70 -141 131 -139c26 1 57 12 72 35c-7 -48 -41 -69 -71 -71c-23 -1 -50 11 -66 34l-63 -39c31 -48 79 -71 130 -71c125 2 166 131 139 265c-13 72 -68 119 -138 118c-74 -1 -129 -57 -134 -132zM109 235c1 41 31 63 61 62c35 -2 55 -30 56 -63
c0 -42 -28 -65 -62 -64c-28 2 -55 22 -55 65z" />
    <glyph glyph-name="zero.numr" horiz-adv-x="386" 
d="M193 725c98 2 161 -75 161 -191c0 -115 -63 -192 -160 -191c-98 -1 -162 75 -162 191c0 114 63 193 161 191zM193 427c48 1 76 40 76 107c0 61 -24 99 -64 105c-4 1 -8 1 -12 1s-7 0 -11 -1c-41 -6 -66 -44 -66 -105c0 -66 30 -106 77 -107z" />
    <glyph glyph-name="one.numr" horiz-adv-x="225" 
d="M32 596v80l80 34v-84zM112 710h81v-367h-81v367z" />
    <glyph glyph-name="two.numr" horiz-adv-x="326" 
d="M41 342v80l127 107c28 24 41 35 42 59c0 27 -17 47 -49 47s-53 -21 -48 -57h-81c-4 74 49 136 135 136c79 -1 126 -54 126 -122c0 -57 -34 -90 -66 -116l-67 -55l130 1v-80h-249z" />
    <glyph glyph-name="three.numr" horiz-adv-x="323" 
d="M266 546c15 -21 25 -48 25 -79c0 -74 -57 -130 -130 -130c-76 0 -135 59 -129 137h79c-5 -35 17 -58 50 -58c28 0 50 22 50 51c0 17 -6 32 -17 41c-17 14 -42 16 -67 3l-29 62l3 3l51 53h-106v81h230v-68l-57 -58c19 -9 36 -22 47 -38z" />
    <glyph glyph-name="four.numr" horiz-adv-x="358" 
d="M326 487v-80h-45v-65h-81v65l-168 1v79l168 223h81v-223h45zM130 487h70v94z" />
    <glyph glyph-name="five.numr" horiz-adv-x="331" 
d="M32 480h81c-6 -34 18 -61 52 -61c29 0 54 23 55 51c1 38 -22 62 -59 62c-19 0 -40 -11 -45 -23l-73 19l45 182h199v-80h-136l-9 -30c9 3 19 4 29 4c75 0 128 -56 128 -134c0 -71 -60 -130 -134 -130c-78 0 -137 62 -133 140z" />
    <glyph glyph-name="six.numr" horiz-adv-x="352" 
d="M191 607c79 0 125 -64 125 -132c0 -71 -50 -141 -139 -141c-97 0 -141 82 -145 176c-4 110 50 205 161 204c62 0 103 -25 127 -59l-61 -43c-15 19 -40 27 -64 27c-45 0 -69 -28 -79 -58c19 19 48 26 75 26zM173 406c31 0 57 22 57 60s-24 62 -57 62s-55 -24 -55 -62
s23 -60 55 -60z" />
    <glyph glyph-name="seven.numr" horiz-adv-x="334" 
d="M32 710h270v-84c-140 -100 -130 -258 -130 -284h-84c0 20 -10 169 104 284h-160v84z" />
    <glyph glyph-name="eight.numr" horiz-adv-x="326" 
d="M163 337c-80 0 -130 54 -131 112c0 34 20 68 49 87c-24 19 -37 45 -38 69c-3 55 44 110 121 110c75 0 121 -53 120 -106c-1 -26 -13 -53 -39 -73c29 -18 49 -52 49 -86c0 -57 -49 -113 -131 -113zM163 571c32 0 48 19 47 37c0 17 -17 34 -47 34c-31 0 -46 -18 -47 -35
c0 -18 16 -36 47 -36zM163 411c36 0 54 21 54 44c0 21 -18 43 -54 43c-37 0 -54 -23 -54 -44c1 -22 19 -43 54 -43z" />
    <glyph glyph-name="nine.numr" horiz-adv-x="339" 
d="M32 583c-4 -94 69 -138 129 -135c25 1 56 12 71 34c-9 -45 -40 -64 -70 -67c-23 -2 -49 7 -64 30l-62 -37c28 -46 75 -70 124 -70c124 0 164 127 139 260c-13 71 -66 116 -135 115c-72 -1 -127 -55 -132 -130zM108 579c1 40 31 62 60 62c34 -3 54 -29 55 -63
c0 -40 -28 -63 -61 -61c-27 1 -54 22 -54 62z" />
    <glyph glyph-name="uni2080" unicode="&#x2080;" horiz-adv-x="513" 
d="M473 143c0 -146 -78 -250 -215 -251h-1h-1c-139 1 -216 107 -216 251c0 146 80 250 216 251h1h1c137 -1 215 -106 215 -251zM257 -11c78 0 114 66 114 154c0 90 -38 153 -114 153c-79 0 -115 -67 -115 -153c0 -87 36 -154 115 -154z" />
    <glyph glyph-name="uni2081" unicode="&#x2081;" horiz-adv-x="314" 
d="M139 385h93v-485h-93v391l-99 -42v92z" />
    <glyph glyph-name="uni2082" unicode="&#x2082;" horiz-adv-x="425" 
d="M49 -100v94l207 169c29 23 36 43 36 64c0 47 -31 76 -79 76c-41 0 -77 -22 -81 -74h-92c6 105 75 165 171 165c107 0 174 -74 174 -166c0 -60 -30 -105 -72 -138l-126 -98l187 1v-92z" />
    <glyph glyph-name="uni2083" unicode="&#x2083;" horiz-adv-x="424" 
d="M277 215c64 -23 107 -80 107 -154c0 -98 -77 -169 -172 -169c-101 0 -172 74 -172 165h92c2 -39 29 -74 80 -74c43 0 79 31 79 78c0 49 -33 83 -82 83c-12 1 -25 -2 -40 -9l-34 73l1 1l88 82l-165 1v92h313v-79z" />
    <glyph glyph-name="uni2084" unicode="&#x2084;" horiz-adv-x="466" 
d="M426 80v-92h-62v-88h-92v88h-232v92l232 304h92v-304h62zM152 80h120v159z" />
    <glyph glyph-name="uni2085" unicode="&#x2085;" horiz-adv-x="432" 
d="M225 238c104 0 167 -75 167 -175c0 -94 -80 -171 -178 -171s-174 76 -174 171h92c0 -43 35 -78 82 -78c46 0 84 35 85 78c2 61 -33 96 -90 96c-33 0 -64 -20 -70 -41l-84 22l61 244h260v-93h-188l-19 -67c16 9 35 14 56 14z" />
    <glyph glyph-name="uni2086" unicode="&#x2086;" horiz-adv-x="465" 
d="M246 246c86 0 179 -59 179 -174c0 -106 -78 -182 -190 -182c-143 0 -195 120 -195 246c0 138 63 260 209 260c69 0 131 -28 167 -84l-78 -47c-22 23 -50 38 -89 38c-65 -1 -108 -41 -115 -104c28 32 68 47 112 47zM240 -19c49 0 93 31 93 89c0 59 -44 88 -91 89
c-52 1 -95 -31 -95 -89s44 -89 93 -89z" />
    <glyph glyph-name="uni2087" unicode="&#x2087;" horiz-adv-x="422" 
d="M40 384h342v-94c-177 -133 -170 -350 -170 -390h-96c0 32 -7 240 149 390h-225v94z" />
    <glyph glyph-name="uni2088" unicode="&#x2088;" horiz-adv-x="432" 
d="M302 158c59 -18 91 -75 90 -128c1 -80 -69 -138 -174 -138s-178 53 -178 140c0 55 31 107 88 126c-41 19 -66 59 -66 107c0 80 66 129 155 129c88 0 155 -49 154 -129c-1 -49 -25 -89 -69 -107zM216 311c-44 0 -75 -22 -75 -57c0 -36 31 -60 76 -60c42 0 73 25 72 60
c0 35 -30 57 -73 57zM217 -23c49 0 83 26 83 68c0 44 -35 69 -83 69s-86 -26 -86 -69c1 -43 38 -68 86 -68z" />
    <glyph glyph-name="uni2089" unicode="&#x2089;" horiz-adv-x="465" 
d="M425 150c1 -140 -63 -260 -209 -260c-69 0 -131 28 -167 84l78 46c22 -22 47 -36 88 -37c67 0 108 37 116 105c-28 -32 -68 -48 -112 -47c-87 0 -179 58 -179 173c0 106 77 182 190 182c142 0 194 -119 195 -246zM224 127c51 -1 95 30 95 89s-45 90 -94 90
c-50 0 -93 -31 -93 -90s45 -88 92 -89z" />
    <glyph glyph-name="uni2070" unicode="&#x2070;" horiz-adv-x="513" 
d="M473 543c0 -146 -78 -250 -215 -251h-1h-1c-139 1 -216 107 -216 251c0 146 80 250 216 251h1h1c137 -1 215 -106 215 -251zM257 389c78 0 114 66 114 154c0 90 -38 153 -114 153c-79 0 -115 -67 -115 -153c0 -87 36 -154 115 -154z" />
    <glyph glyph-name="uni00B9" unicode="&#xb9;" horiz-adv-x="314" 
d="M139 785h93v-485h-93v391l-99 -42v92z" />
    <glyph glyph-name="uni00B2" unicode="&#xb2;" horiz-adv-x="425" 
d="M49 300v94l207 169c29 23 36 43 36 64c0 47 -31 76 -79 76c-41 0 -77 -22 -81 -74h-92c6 105 75 165 171 165c107 0 174 -74 174 -166c0 -60 -30 -105 -72 -138l-126 -98l187 1v-92z" />
    <glyph glyph-name="uni00B3" unicode="&#xb3;" horiz-adv-x="424" 
d="M277 612c64 -24 107 -80 107 -154c0 -99 -77 -170 -172 -170c-101 0 -172 75 -172 166h92c2 -40 29 -74 80 -74c43 0 79 31 79 78c0 49 -33 82 -82 83c-12 0 -25 -3 -40 -10l-34 73c0 1 1 1 1 2l88 81l-165 1v92h313v-79z" />
    <glyph glyph-name="uni2074" unicode="&#x2074;" horiz-adv-x="466" 
d="M426 480v-92h-62v-88h-92v88h-232v92l232 304h92v-304h62zM152 480h120v159z" />
    <glyph glyph-name="uni2075" unicode="&#x2075;" horiz-adv-x="432" 
d="M225 638c104 0 167 -75 167 -175c0 -94 -80 -171 -178 -171s-174 76 -174 171h92c0 -43 35 -78 82 -78c46 0 84 35 85 78c2 61 -33 96 -90 96c-33 0 -64 -20 -70 -41l-84 22l61 244h260v-93h-188l-19 -67c16 9 35 14 56 14z" />
    <glyph glyph-name="uni2076" unicode="&#x2076;" horiz-adv-x="465" 
d="M246 646c86 0 179 -59 179 -174c0 -106 -78 -182 -190 -182c-143 0 -195 120 -195 246c0 138 63 260 209 260c69 0 131 -28 167 -84l-78 -47c-22 23 -50 38 -89 38c-65 -1 -108 -41 -115 -104c28 32 68 47 112 47zM240 381c49 0 93 31 93 89c0 59 -44 88 -91 89
c-52 1 -95 -31 -95 -89s44 -89 93 -89z" />
    <glyph glyph-name="uni2077" unicode="&#x2077;" horiz-adv-x="422" 
d="M40 784h342v-94c-177 -133 -170 -350 -170 -390h-96c0 32 -7 240 149 390h-225v94z" />
    <glyph glyph-name="uni2078" unicode="&#x2078;" horiz-adv-x="432" 
d="M392 431c1 -85 -75 -140 -175 -139c-104 1 -177 57 -177 141c0 55 33 107 88 125c-41 19 -66 59 -66 107c0 80 68 129 155 129c88 0 154 -52 154 -129c-1 -49 -27 -90 -69 -107c57 -17 90 -71 90 -127zM141 656c-4 -34 31 -62 76 -62c44 0 75 26 72 64
c-3 34 -36 53 -74 53s-70 -19 -74 -55zM216 377c49 0 84 33 84 72c0 42 -41 65 -85 65c-47 0 -84 -27 -84 -68c1 -41 39 -69 85 -69z" />
    <glyph glyph-name="uni2079" unicode="&#x2079;" horiz-adv-x="465" 
d="M425 550c1 -140 -63 -260 -209 -260c-69 0 -131 28 -167 84l78 46c22 -22 47 -36 88 -37c67 0 108 37 116 105c-28 -32 -68 -48 -112 -47c-87 0 -179 58 -179 173c0 106 77 182 190 182c142 0 194 -119 195 -246zM224 527c51 -1 95 30 95 89s-45 90 -94 90
c-50 0 -93 -31 -93 -90s45 -88 92 -89z" />
    <glyph glyph-name="asterisk" unicode="*" horiz-adv-x="426" 
d="M255 558c21 -18 34 -33 55 -59l40 -62l-59 -40l-41 58c-22 28 -31 51 -39 71c-6 -21 -17 -43 -36 -71l-44 -58l-59 40l42 62c20 26 35 41 56 59c-23 2 -49 5 -80 16l-68 25l26 67l66 -22c32 -13 51 -24 71 -37c-4 24 -9 48 -9 81v72h72v-72c0 -33 -3 -58 -9 -81
c19 13 39 24 73 37l67 22l25 -67l-70 -25c-30 -11 -56 -14 -79 -16z" />
    <glyph glyph-name="uni2042" unicode="&#x2042;" horiz-adv-x="955" 
d="M614 437l-59 -40l-41 58c-21 28 -30 51 -39 71c-6 -21 -17 -43 -35 -71l-44 -58l-59 40l42 62c20 26 34 41 55 59c-22 2 -48 5 -79 16l-69 25l26 67l66 -22c33 -13 52 -24 72 -37c-4 24 -9 48 -9 81v72h72v-72c0 -33 -4 -58 -9 -81c18 13 39 24 72 37l67 22l25 -67
l-69 -25c-31 -11 -57 -14 -79 -16c20 -18 34 -33 54 -59zM404 202l-70 -24c-30 -12 -56 -15 -79 -17c21 -17 34 -33 55 -59l40 -61l-59 -41l-41 59c-22 27 -31 50 -39 71c-6 -22 -17 -44 -36 -71l-44 -59l-59 41l42 61c20 26 35 42 56 59c-23 2 -49 5 -80 17l-68 24l26 68
l66 -22c32 -13 51 -24 71 -37c-4 24 -9 47 -9 80v73h72v-73c0 -33 -3 -58 -9 -80c19 13 39 24 73 37l67 22zM784 161c21 -17 34 -33 55 -59l40 -61l-59 -41l-41 59c-22 27 -31 50 -39 71c-6 -22 -18 -44 -36 -71l-44 -59l-59 41l42 61c20 26 35 42 55 59c-22 2 -48 5 -79 17
l-68 24l26 68l66 -22c32 -13 51 -24 71 -37c-4 24 -9 47 -9 80v73h72v-73c0 -33 -4 -58 -9 -80c19 13 39 24 73 37l66 22l26 -68l-70 -24c-30 -12 -57 -15 -79 -17z" />
    <glyph glyph-name="backslash" unicode="\" horiz-adv-x="429" 
d="M429 0h-141l-288 735h142z" />
    <glyph glyph-name="periodcentered" unicode="&#xb7;" horiz-adv-x="355" 
d="M178 173c-63 0 -116 52 -116 113c0 64 53 115 116 115c62 0 115 -53 115 -115c0 -61 -52 -113 -115 -113z" />
    <glyph glyph-name="bullet" unicode="&#x2022;" horiz-adv-x="456" 
d="M229 108c-90 0 -167 74 -167 164s77 166 167 166c91 0 165 -78 165 -166c0 -90 -77 -164 -165 -164z" />
    <glyph glyph-name="colon" unicode=":" horiz-adv-x="340" 
d="M170 345c-49 0 -88 39 -88 86c0 48 39 87 88 87c47 0 88 -39 88 -87c0 -47 -41 -86 -88 -86zM170 -17c-49 0 -88 39 -88 86c0 48 39 87 88 87c47 0 88 -39 88 -87c0 -47 -41 -86 -88 -86z" />
    <glyph glyph-name="comma" unicode="," horiz-adv-x="293" 
d="M144 144c44 0 87 -29 87 -105c0 -87 -60 -154 -138 -154v43c43 1 70 35 69 65c-8 -3 -17 -5 -28 -5c-40 0 -70 28 -70 75c0 48 32 81 80 81z" />
    <glyph glyph-name="ellipsis" unicode="&#x2026;" horiz-adv-x="840" 
d="M149 -17c-49 0 -88 39 -88 86c0 48 39 87 88 87c47 0 88 -39 88 -87c0 -47 -41 -86 -88 -86zM421 -17c-49 0 -88 39 -88 86c0 48 39 87 88 87c46 0 88 -39 88 -87c0 -47 -42 -86 -88 -86zM692 -17c-49 0 -88 39 -88 86c0 48 39 87 88 87c47 0 88 -39 88 -87
c0 -47 -41 -86 -88 -86z" />
    <glyph glyph-name="exclam" unicode="!" horiz-adv-x="343" 
d="M234 180h-125c-19 100 -23 179 -23 281v274h172v-274c0 -102 -4 -181 -24 -281zM173 -15c-46 0 -82 29 -82 78s36 79 82 79c45 0 81 -30 81 -79s-36 -78 -81 -78z" />
    <glyph glyph-name="exclamdown" unicode="&#xa1;" horiz-adv-x="343" 
d="M173 750c45 0 81 -29 81 -78s-36 -79 -81 -79c-46 0 -82 30 -82 79s36 78 82 78zM234 555c20 -100 24 -179 24 -281v-274h-172v274c0 102 4 181 23 281h125z" />
    <glyph glyph-name="numbersign" unicode="#" horiz-adv-x="736" 
d="M670 413h-102l-17 -90h113l-27 -142h-114l-36 -181h-142l36 181h-109l-35 -181h-142l36 181h-93l28 142h93l18 90h-104l28 142h103l36 180h141l-35 -180h108l36 180h141l-35 -180h102zM409 323l18 90h-109l-18 -90h109z" />
    <glyph glyph-name="period" unicode="." horiz-adv-x="302" 
d="M151 -17c-49 0 -88 39 -88 86c0 48 39 87 88 87c47 0 88 -39 88 -87c0 -47 -41 -86 -88 -86z" />
    <glyph glyph-name="question" unicode="?" horiz-adv-x="568" 
d="M289 750c134 0 248 -86 248 -231c0 -192 -196 -221 -205 -316v-22h-143v29c0 149 203 184 203 300c0 50 -36 97 -102 97c-68 0 -114 -51 -114 -109h-145c0 142 108 252 258 252zM266 146c51 0 86 -37 86 -80s-34 -79 -86 -79c-51 0 -85 36 -85 79s35 80 85 80z" />
    <glyph glyph-name="questiondown" unicode="&#xbf;" horiz-adv-x="568" 
d="M302 592c-50 0 -86 36 -86 79s35 79 86 79s85 -36 85 -79s-34 -79 -85 -79zM392 240h145c0 -142 -108 -253 -258 -253c-133 0 -248 86 -248 231c0 192 196 222 205 316v23h144v-30c0 -148 -204 -183 -204 -300c0 -50 37 -96 102 -96c68 0 114 51 114 109z" />
    <glyph glyph-name="quotedbl" unicode="&#x22;" horiz-adv-x="366" 
d="M158 617l-23 -198h-78l-24 198c-7 55 29 79 65 78c31 -1 66 -23 60 -78zM333 617l-23 -198h-78l-24 198c-6 55 29 79 65 78c31 -1 66 -23 60 -78z" />
    <glyph glyph-name="quotesingle" unicode="'" horiz-adv-x="271" 
d="M207 632l-26 -209h-90l-26 209c-8 63 33 91 74 90c35 -1 75 -27 68 -90z" />
    <glyph glyph-name="semicolon" unicode=";" horiz-adv-x="301" 
d="M151 345c-48 0 -87 39 -87 86c0 48 39 87 87 87c47 0 88 -39 88 -87c0 -47 -41 -86 -88 -86zM144 144c44 0 87 -29 87 -105c0 -87 -60 -154 -138 -154v43c43 1 70 34 69 65c-7 -4 -15 -5 -24 -5c-44 0 -74 28 -74 75c0 48 32 81 80 81z" />
    <glyph glyph-name="slash" unicode="/" horiz-adv-x="429" 
d="M0 0l287 735h142l-288 -735h-141z" />
    <glyph glyph-name="underscore" unicode="_" horiz-adv-x="555" 
d="M60 -16h435v-102h-435v102z" />
    <glyph glyph-name="braceleft" unicode="{" horiz-adv-x="311" 
d="M244 65c0 -57 25 -70 62 -70v-101c-1 0 -54 0 -72 1c-69 1 -109 58 -109 134v172c0 129 -75 120 -79 119v102c4 1 79 -11 79 124v178c0 79 37 131 118 132c10 1 62 1 63 1v-101c-37 0 -62 -7 -62 -50v-187c0 -68 -24 -115 -57 -146c33 -31 57 -77 57 -145v-163z" />
    <glyph glyph-name="braceright" unicode="}" horiz-adv-x="311" 
d="M187 546c0 -135 75 -123 78 -124v-102c-3 1 -78 10 -78 -119v-172c0 -76 -41 -133 -109 -134c-18 -1 -72 -1 -73 -1v101c38 0 63 13 63 70v163c0 68 23 114 57 145c-34 31 -57 78 -57 146v187c0 43 -26 50 -63 50v101c1 0 53 0 64 -1c81 0 118 -53 118 -132v-178z" />
    <glyph glyph-name="bracketleft" unicode="[" horiz-adv-x="317" 
d="M312 4v-110h-239v963h239v-110h-119v-743h119z" />
    <glyph glyph-name="bracketright" unicode="]" horiz-adv-x="317" 
d="M5 4h119v743h-119v110h238v-963h-238v110z" />
    <glyph glyph-name="parenleft" unicode="(" horiz-adv-x="329" 
d="M329 -107h-110c-107 114 -177 285 -177 484c0 177 58 356 177 483h110c-86 -115 -143 -286 -143 -483c0 -177 47 -355 143 -484z" />
    <glyph glyph-name="parenright" unicode=")" horiz-adv-x="326" 
d="M0 -107c96 129 143 307 143 484c0 197 -57 368 -143 483h110c119 -127 177 -306 177 -483c0 -199 -70 -370 -177 -484h-110z" />
    <glyph glyph-name="emdash" unicode="&#x2014;" horiz-adv-x="1153" 
d="M71 332h1011v-126h-1011v126z" />
    <glyph glyph-name="endash" unicode="&#x2013;" horiz-adv-x="940" 
d="M68 332h804v-126h-804v126z" />
    <glyph glyph-name="hyphen" unicode="-" horiz-adv-x="554" 
d="M61 341h432v-127h-432v127z" />
    <glyph glyph-name="guillemotleft" unicode="&#xab;" horiz-adv-x="754" 
d="M483 498l-218 -249l218 -249h-184l-218 249l218 249h184zM728 498l-218 -249l218 -249h-184l-218 249l218 249h184z" />
    <glyph glyph-name="guillemotright" unicode="&#xbb;" horiz-adv-x="754" 
d="M210 498l218 -249l-218 -249h-184l218 249l-218 249h184zM455 498l218 -249l-218 -249h-184l218 249l-218 249h184z" />
    <glyph glyph-name="guilsinglleft" unicode="&#x2039;" horiz-adv-x="466" 
d="M462 498l-218 -249l218 -249h-185l-218 249l218 249h185z" />
    <glyph glyph-name="guilsinglright" unicode="&#x203a;" horiz-adv-x="479" 
d="M220 498l218 -249l-218 -249h-184l218 249l-218 249h184z" />
    <glyph glyph-name="quotedblbase" unicode="&#x201e;" horiz-adv-x="492" 
d="M146 144c45 0 88 -29 88 -105c0 -87 -60 -154 -139 -154v43c44 1 71 35 70 65c-7 -3 -16 -5 -26 -5c-42 0 -73 28 -73 75c0 48 33 81 80 81zM339 144c44 0 87 -29 87 -105c0 -87 -60 -154 -138 -154v43c43 1 70 35 69 65c-6 -3 -15 -5 -28 -5c-40 0 -71 28 -71 75
c0 48 33 81 81 81z" />
    <glyph glyph-name="quotedblleft" unicode="&#x201c;" horiz-adv-x="492" 
d="M159 633c44 0 75 -28 75 -75c0 -48 -33 -81 -81 -81c-44 0 -87 29 -87 105c0 86 60 153 138 153v-43c-42 0 -70 -34 -69 -64c7 3 15 5 24 5zM351 633c44 0 75 -28 75 -75c0 -48 -33 -81 -80 -81c-45 0 -88 29 -88 105c0 86 60 152 139 152v-43c-43 0 -70 -32 -70 -62
c5 2 13 4 24 4z" />
    <glyph glyph-name="quotedblright" unicode="&#x201d;" horiz-adv-x="492" 
d="M146 726c45 0 88 -29 88 -106c0 -86 -60 -153 -139 -153v43c43 0 70 33 70 64c-5 -3 -13 -5 -24 -5c-44 0 -75 29 -75 76s33 81 80 81zM339 726c44 0 87 -29 87 -106c0 -86 -60 -153 -138 -153v43c42 0 70 34 69 64c-7 -3 -15 -5 -24 -5c-44 0 -75 29 -75 76s33 81 81 81
z" />
    <glyph glyph-name="quoteleft" unicode="&#x2018;" horiz-adv-x="300" 
d="M159 633c44 0 75 -28 75 -75c0 -48 -33 -81 -81 -81c-44 0 -87 29 -87 105c0 86 60 153 138 153v-43c-42 0 -69 -33 -69 -63c5 2 13 4 24 4z" />
    <glyph glyph-name="quoteright" unicode="&#x2019;" horiz-adv-x="300" 
d="M146 726c45 0 88 -29 88 -106c0 -86 -60 -153 -139 -153v43c43 0 70 34 70 64c-7 -3 -16 -5 -25 -5c-43 0 -74 29 -74 76s33 81 80 81z" />
    <glyph glyph-name="quotesinglbase" unicode="&#x201a;" horiz-adv-x="275" 
d="M143 144c44 0 87 -29 87 -105c0 -87 -60 -154 -139 -154v43c44 1 71 35 70 66c-8 -4 -17 -6 -28 -6c-40 0 -71 28 -71 75c0 48 33 81 81 81z" />
    <glyph glyph-name="space" unicode=" " horiz-adv-x="267" 
 />
    <glyph glyph-name="cent" unicode="&#xa2;" horiz-adv-x="611" 
d="M59 366c0 120 80 222 186 255v114h120v-106c87 -15 160 -71 187 -152l-124 -45c-14 35 -42 77 -108 77c-85 0 -121 -67 -121 -143s36 -142 121 -142c67 0 88 34 102 68l125 -50c-28 -73 -99 -123 -182 -136v-107h-120v115c-106 33 -186 132 -186 252z" />
    <glyph glyph-name="currency" unicode="&#xa4;" horiz-adv-x="745" 
d="M647 368c0 -51 -14 -99 -39 -140l78 -77l-92 -93l-78 78c-42 -26 -91 -41 -143 -41s-102 15 -143 41l-79 -78l-92 93l79 78c-24 41 -38 88 -38 139s14 99 38 140l-79 78l92 93l79 -78c41 26 90 41 143 41c52 0 101 -15 143 -40l78 77l92 -93l-78 -77
c25 -42 39 -90 39 -141zM230 368c0 -78 64 -143 143 -143c78 0 144 65 144 143c0 79 -65 144 -144 144c-80 0 -143 -65 -143 -144z" />
    <glyph glyph-name="dollar" unicode="$" horiz-adv-x="661" 
d="M599 201c0 -115 -83 -191 -210 -208v-84h-104v83c-128 15 -208 89 -223 201l144 20c6 -40 29 -71 79 -83v183l-22 6c-117 30 -180 98 -180 209c0 114 82 202 202 220v71h104v-73c108 -18 179 -86 202 -181l-142 -36c-9 38 -30 63 -60 76v-174l19 -5
c111 -30 191 -94 191 -225zM234 532c0 -38 19 -59 51 -72v145c-34 -15 -51 -43 -51 -73zM389 131c48 13 64 45 64 78c-1 44 -27 63 -64 75v-153z" />
    <glyph glyph-name="Euro" unicode="&#x20ac;" horiz-adv-x="772" 
d="M628 167l84 -102c-61 -49 -145 -77 -227 -77c-149 0 -276 89 -335 217h-90v132h56c0 9 -1 19 -1 28c0 10 1 20 1 30h-56v131h89c58 132 186 223 336 223c66 0 132 -18 196 -52l-64 -116c-48 25 -85 36 -132 36c-74 0 -140 -35 -183 -91h246l-36 -131h-262
c-1 -10 -1 -20 -1 -30c0 -9 0 -19 1 -28h247l-33 -132h-159c43 -53 108 -86 180 -86c54 0 106 18 143 48z" />
    <glyph glyph-name="florin" unicode="&#x192;" horiz-adv-x="644" 
d="M430 547l-7 -50h151v-115h-167l-1 -7h1l-56 -401c-15 -111 -86 -176 -215 -176h-75l-1 129h78c39 0 66 19 72 60l52 376l2 19h-142v115h158l7 50c17 122 106 201 221 201h75l1 -129h-84c-39 0 -62 -19 -70 -72z" />
    <glyph glyph-name="sterling" unicode="&#xa3;" horiz-adv-x="714" 
d="M527 238h126c0 -138 -69 -238 -224 -238h-367v140c53 3 105 57 105 131c0 17 -3 33 -7 48h-97v118h54c-5 20 -8 41 -8 66c0 142 107 247 258 247c131 0 218 -68 253 -170l-133 -43c-21 52 -67 79 -121 79c-73 0 -118 -49 -118 -118c0 -22 4 -42 11 -61h252v-118h-214
c2 -14 4 -29 4 -46c-1 -49 -12 -104 -51 -133h178c67 0 100 32 99 98z" />
    <glyph glyph-name="yen" unicode="&#xa5;" horiz-adv-x="779" 
d="M719 735l-204 -343h87v-112h-144v-41h144v-113h-144v-126h-141v126h-144v113h144v41h-144v112h89l-202 343h169l159 -300l161 300h170z" />
    <glyph glyph-name="approxequal" unicode="&#x2248;" horiz-adv-x="474" 
d="M366 395h68c0 -76 -49 -125 -115 -125c-76 0 -120 74 -168 74c-29 0 -40 -17 -42 -40h-69c0 73 49 121 115 121c75 0 119 -74 169 -74c28 0 39 16 42 44zM366 220h68c0 -76 -49 -124 -115 -124c-76 0 -120 74 -168 74c-29 0 -40 -17 -42 -41h-69c0 73 49 122 115 122
c75 0 119 -74 169 -74c28 0 39 16 42 43z" />
    <glyph glyph-name="asciitilde" unicode="~" horiz-adv-x="474" 
d="M366 308h68c0 -76 -49 -124 -115 -124c-76 0 -120 74 -168 74c-29 0 -40 -17 -42 -41h-69c0 73 49 122 115 122c75 0 119 -74 169 -74c28 0 39 16 42 43z" />
    <glyph glyph-name="divide" unicode="&#xf7;" horiz-adv-x="550" 
d="M276 415c-44 0 -81 36 -81 78c0 44 37 79 81 79c42 0 79 -35 79 -79c0 -42 -37 -78 -79 -78zM80 368h390v-109h-390v109zM276 46c-44 0 -81 37 -81 79c0 43 37 79 81 79c42 0 79 -36 79 -79c0 -42 -37 -79 -79 -79z" />
    <glyph glyph-name="emptyset" unicode="&#x2205;" horiz-adv-x="840" 
d="M800 636l-80 -73c36 -58 55 -129 51 -210c-11 -214 -150 -371 -352 -371c-92 0 -174 35 -236 93l-79 -71l-64 69l83 76c-35 58 -55 128 -55 204c0 212 150 371 350 371c93 0 178 -32 242 -88l77 70zM203 353c0 -41 7 -79 21 -112l336 304c-37 32 -85 50 -142 50
c-129 0 -215 -98 -215 -242zM636 353c0 43 -8 81 -21 115l-336 -306c36 -33 84 -52 140 -52c133 0 217 97 217 243z" />
    <glyph glyph-name="equal" unicode="=" horiz-adv-x="631" 
d="M110 481h391v-120h-391v120zM110 118v120h391v-120h-391z" />
    <glyph glyph-name="greater" unicode="&#x3e;" horiz-adv-x="442" 
d="M41 -1v156l203 96l-203 96v156l359 -177v-150z" />
    <glyph glyph-name="greaterequal" unicode="&#x2265;" horiz-adv-x="593" 
d="M71 607l455 -153v-129l-455 -154v133l259 85l-259 85v133zM71 0v133h455v-133h-455z" />
    <glyph glyph-name="uni2206" unicode="&#x2206;" horiz-adv-x="715" 
d="M423 710l232 -590v-120h-595v120l232 590h131zM357 540l-167 -420h334z" />
    <glyph glyph-name="infinity" unicode="&#x221e;" horiz-adv-x="914" 
d="M42 290c0 120 94 213 213 213c80 0 148 -30 202 -116c54 86 122 116 202 116c119 0 213 -93 213 -213c0 -119 -94 -213 -213 -213c-80 0 -148 30 -202 115c-54 -85 -122 -115 -202 -115c-119 0 -213 94 -213 213zM172 290c0 -49 37 -84 82 -84c38 0 90 17 116 84
c-26 67 -78 83 -116 83c-45 0 -82 -34 -82 -83zM544 290c26 -67 78 -84 116 -84c45 0 82 35 82 84s-37 83 -82 83c-38 0 -90 -16 -116 -83z" />
    <glyph glyph-name="integral" unicode="&#x222b;" horiz-adv-x="445" 
d="M342 750h73v-130h-62c-39 0 -59 -19 -59 -71v-186v-174c0 -122 -78 -201 -191 -201h-73v129h62c39 0 59 19 59 72v186v174c0 122 78 201 191 201z" />
    <glyph glyph-name="less" unicode="&#x3c;" horiz-adv-x="436" 
d="M36 176v150l359 177v-156l-203 -96l203 -96v-156z" />
    <glyph glyph-name="lessequal" unicode="&#x2264;" horiz-adv-x="548" 
d="M36 342v151l471 158v-157l-239 -77l239 -77v-156zM36 0v156h471v-156h-471z" />
    <glyph glyph-name="logicalnot" unicode="&#xac;" horiz-adv-x="621" 
d="M578 82h-152v162h-382v152h534v-314z" />
    <glyph glyph-name="uni00B5" unicode="&#xb5;" horiz-adv-x="725" 
d="M628 129l46 -1v-128l-125 1c-48 0 -78 22 -95 57c-27 -40 -68 -67 -130 -70h-6h-7c-51 3 -87 20 -113 49v-288h-142v746h142v-223c0 -124 68 -159 119 -159c52 0 120 35 120 159v225h142l1 -333c0 -36 21 -35 48 -35z" />
    <glyph glyph-name="minus" unicode="&#x2212;" horiz-adv-x="538" 
d="M77 380h385v-120h-385v120z" />
    <glyph glyph-name="multiply" unicode="&#xd7;" horiz-adv-x="627" 
d="M551 176l-91 -90l-146 144l-145 -148l-90 91l144 147l-147 145l90 90l147 -144l144 148l90 -91l-143 -147z" />
    <glyph glyph-name="notequal" unicode="&#x2260;" horiz-adv-x="615" 
d="M557 401h-153l-67 -123h220v-120h-286l-52 -96h-134l53 96h-80v120h146l67 123h-213v120h278l60 110h133l-60 -110h88v-120z" />
    <glyph glyph-name="partialdiff" unicode="&#x2202;" horiz-adv-x="648" 
d="M421 737c129 -132 181 -295 181 -428c0 -227 -142 -321 -286 -322c-145 0 -273 94 -273 272c0 172 119 271 259 271c39 0 90 -8 126 -36c-30 70 -90 161 -190 243h183zM319 112c89 0 153 69 153 154s-64 154 -153 154c-91 0 -155 -69 -155 -154s65 -154 155 -154z" />
    <glyph glyph-name="percent" unicode="%" horiz-adv-x="939" 
d="M209 356c-101 -2 -167 77 -167 198c0 119 65 200 166 198c102 2 167 -78 167 -198s-65 -199 -166 -198zM680 735h140l-560 -735h-140zM135 554c0 -65 28 -103 74 -105c45 2 71 39 71 105c0 60 -22 96 -61 102v-1c-3 1 -7 1 -11 1c-3 0 -7 0 -11 -1v1
c-39 -6 -62 -42 -62 -102zM732 380c101 2 167 -79 167 -199s-65 -199 -167 -198c-101 -2 -167 78 -167 198c0 119 65 200 167 199zM732 77c46 1 72 38 72 104c0 60 -22 97 -61 102c-4 0 -7 0 -11 1c-4 -1 -7 -1 -11 -1c-39 -5 -62 -42 -62 -102c0 -65 27 -103 73 -104z" />
    <glyph glyph-name="perthousand" unicode="&#x2030;" horiz-adv-x="1314" 
d="M209 356c-101 -2 -167 77 -167 198c0 119 65 200 166 198c102 2 167 -78 167 -198s-65 -199 -166 -198zM680 735h140l-560 -735h-140zM135 554c0 -65 28 -103 74 -105c45 2 71 39 71 105c0 60 -22 96 -61 102v-1c-3 1 -7 1 -11 1c-3 0 -7 0 -11 -1v1
c-39 -6 -62 -42 -62 -102zM732 380c101 2 167 -79 167 -199s-65 -199 -167 -198c-101 -2 -167 78 -167 198c0 119 65 200 167 199zM1106 380c101 2 168 -79 168 -199s-66 -199 -167 -198c-101 -2 -168 78 -168 198c0 119 66 200 167 199zM1106 77c46 1 72 38 72 104
c0 60 -22 97 -61 102c-4 0 -7 0 -11 1c-3 -1 -7 -1 -11 -1c-38 -6 -61 -42 -61 -102c0 -65 27 -103 72 -104zM732 77c46 1 72 38 72 104c0 60 -22 97 -61 102c-4 0 -7 0 -11 1c-4 -1 -7 -1 -11 -1c-39 -5 -62 -42 -62 -102c0 -65 27 -103 73 -104z" />
    <glyph glyph-name="plus" unicode="+" horiz-adv-x="661" 
d="M581 397v-120h-190v-191h-120v191h-191v120h191v190h120v-190h190z" />
    <glyph glyph-name="plusminus" unicode="&#xb1;" horiz-adv-x="501" 
d="M307 386h154v-112h-154v-95h-112v95h-155v112h155v94h112v-94zM40 0v112h421v-112h-421z" />
    <glyph glyph-name="product" unicode="&#x220f;" horiz-adv-x="694" 
d="M652 498h-96v-290c0 -65 44 -82 96 -70v-134c-112 -23 -238 16 -238 174v320h-137v-498h-143v498h-90v143h233h279h96v-143z" />
    <glyph glyph-name="radical" unicode="&#x221a;" horiz-adv-x="746" 
d="M475 736h249v-129h-167l-242 -607h-129l-186 497h130l122 -328z" />
    <glyph glyph-name="summation" unicode="&#x2211;" horiz-adv-x="578" 
d="M47 0v150l217 223l-217 215v149h482v-150h-296l206 -214l-209 -223h299v-150h-482z" />
    <glyph glyph-name="arrowup" unicode="&#x2191;" horiz-adv-x="858" 
d="M60 484l369 368l369 -368l-76 -75l-240 239v-648h-106v648l-240 -239z" />
    <glyph glyph-name="uni2197" unicode="&#x2197;" horiz-adv-x="858" 
d="M276 737h522v-521h-108v339l-555 -555l-75 75l555 555h-339v107z" />
    <glyph glyph-name="arrowright" unicode="&#x2192;" horiz-adv-x="997" 
d="M569 675l368 -368l-368 -367l-76 75l240 240h-673v105l673 1l-240 240z" />
    <glyph glyph-name="uni2198" unicode="&#x2198;" horiz-adv-x="856" 
d="M796 522v-522l-521 1v107h339l-554 554l75 75l554 -554v339h107z" />
    <glyph glyph-name="arrowdown" unicode="&#x2193;" horiz-adv-x="856" 
d="M796 247l-369 -368l-367 368l76 77l239 -240v677h106v-678l241 241z" />
    <glyph glyph-name="uni2199" unicode="&#x2199;" horiz-adv-x="859" 
d="M581 0h-521l1 520h107v-338l556 556l75 -74l-556 -558h339z" />
    <glyph glyph-name="arrowleft" unicode="&#x2190;" horiz-adv-x="998" 
d="M429 -73l-369 367l369 370l76 -75l-240 -241h673v-106h-673l240 -239z" />
    <glyph glyph-name="uni2196" unicode="&#x2196;" horiz-adv-x="834" 
d="M535 690v-56h-256l462 -489l-108 -71l-393 413l-3 -306l-172 72v438z" />
    <glyph glyph-name="arrowboth" unicode="&#x2194;" horiz-adv-x="1157" 
d="M800 -17v151l99 92h-405h-236l99 -93v-150l-297 297l297 295v-152l-97 -91l233 1v1l93 -1l88 1v-1l223 -1l-97 91v152l297 -295z" />
    <glyph glyph-name="arrowupdn" unicode="&#x2195;" horiz-adv-x="712" 
d="M409 9l92 98h151l-297 -297l-295 297h151l92 -97l-1 234h-1l1 90l-1 90h1l1 224l-92 -97h-151l295 296l297 -296h-151l-92 98v-405v-235z" />
    <glyph glyph-name="uni25CF" unicode="&#x25cf;" horiz-adv-x="895" 
d="M447 -54c-214 0 -387 174 -387 387c0 214 174 387 387 387s388 -174 388 -387c0 -214 -174 -387 -388 -387z" />
    <glyph glyph-name="circle" unicode="&#x25cb;" horiz-adv-x="895" 
d="M447 -54c-214 0 -387 174 -387 387c0 214 174 387 387 387s388 -174 388 -387c0 -214 -174 -387 -388 -387zM447 40c162 0 293 132 293 293c0 160 -132 293 -293 293s-292 -132 -292 -293s131 -293 292 -293z" />
    <glyph glyph-name="lozenge" unicode="&#x25ca;" horiz-adv-x="656" 
d="M395 710l201 -355l-201 -355h-135l-200 355l200 355h135zM328 125l124 230l-124 230l-125 -230z" />
    <glyph glyph-name="filledbox" unicode="&#x25a0;" horiz-adv-x="830" 
d="M60 710h710v-710h-710v710z" />
    <glyph glyph-name="uni25A1" unicode="&#x25a1;" horiz-adv-x="830" 
d="M60 710h710v-710h-710v710zM165 605v-500h500v500h-500z" />
    <glyph glyph-name="triagup" unicode="&#x25b2;" horiz-adv-x="966" 
d="M906 0l-423 710l-423 -710h846z" />
    <glyph glyph-name="uni25B3" unicode="&#x25b3;" horiz-adv-x="966" 
d="M906 4h-846l424 710zM743 93l-260 436l-260 -436h520z" />
    <glyph glyph-name="uni262E" unicode="&#x262e;" horiz-adv-x="895" 
d="M447 720c213 0 388 -174 388 -387c0 -214 -174 -387 -388 -387s-387 174 -387 387c0 214 174 387 387 387zM405 622c-141 -20 -250 -142 -250 -289c0 -40 8 -78 23 -113l227 158v244zM740 333c0 146 -109 268 -250 289v-244l227 -158c15 35 23 73 23 113zM222 147
c45 -55 110 -93 183 -103v230zM490 44c73 10 138 48 183 103l-183 127v-230z" />
    <glyph glyph-name="smileface" unicode="&#x263a;" horiz-adv-x="895" 
d="M451 -55c-218 0 -391 171 -391 389c0 212 173 385 391 385c212 0 384 -173 384 -385c0 -218 -172 -389 -384 -389zM451 33c166 0 300 131 300 301s-134 301 -300 301c-172 0 -304 -131 -304 -301c0 -173 129 -301 304 -301zM331 361c-34 0 -61 30 -61 62
c0 31 27 61 61 61c33 0 60 -30 60 -61c0 -32 -27 -62 -60 -62zM575 358c-35 0 -62 29 -62 61s27 62 62 62c33 0 59 -30 59 -62s-26 -61 -59 -61zM281 301h77c-7 -56 36 -104 93 -104s99 47 95 104h75c5 -99 -73 -179 -170 -179s-175 81 -170 179z" />
    <glyph glyph-name="uni2713" unicode="&#x2713;" horiz-adv-x="692" 
d="M39 241l80 85l133 -142l301 364l89 -77l-386 -464z" />
    <glyph glyph-name="bar" unicode="|" horiz-adv-x="225" 
d="M58 788h109v-878h-109v878z" />
    <glyph glyph-name="brokenbar" unicode="&#xa6;" horiz-adv-x="289" 
d="M84 791h121v-333h-121v333zM84 273h121v-343h-121v343z" />
    <glyph glyph-name="at" unicode="@" horiz-adv-x="973" 
d="M527 751c230 0 404 -161 396 -400c-6 -168 -102 -294 -219 -294c-53 0 -102 27 -106 90c-34 -53 -96 -85 -175 -83c-132 4 -217 109 -195 265c21 153 135 256 259 255c73 0 130 -38 158 -92l14 76h77l-62 -361c-4 -23 -13 -70 22 -75c67 -12 132 84 141 215
c15 207 -132 331 -314 331c-215 0 -384 -172 -389 -382c-3 -178 109 -345 320 -345c89 0 187 30 265 82l35 -69c-83 -52 -203 -86 -304 -86c-214 0 -404 154 -398 415c6 275 227 458 475 458zM432 137c85 -2 160 67 177 190c18 130 -46 184 -118 185
c-86 3 -166 -74 -182 -192c-14 -116 43 -181 123 -183z" />
    <glyph glyph-name="ampersand" unicode="&#x26;" horiz-adv-x="758" 
d="M738 0h-168l-38 46c-55 -38 -125 -59 -205 -59c-168 0 -273 89 -273 226c0 95 52 156 159 218c-56 70 -71 108 -71 153c0 115 91 166 191 166c112 0 190 -65 190 -160c0 -65 -38 -118 -131 -180l128 -152c8 31 11 65 9 103h149c0 -87 -20 -163 -57 -223zM333 627
c-42 0 -55 -32 -54 -55c1 -24 17 -47 47 -84c43 29 60 56 60 85c0 27 -15 54 -53 54zM340 112c44 0 81 12 110 33l-166 200c-51 -36 -80 -84 -78 -129c2 -58 48 -104 134 -104z" />
    <glyph glyph-name="paragraph" unicode="&#xb6;" horiz-adv-x="541" 
d="M223 712h168v-806h-121v401h-47c-117 0 -183 85 -183 203c0 115 66 202 183 202zM455 710h46v-806h-46v806z" />
    <glyph glyph-name="copyright" unicode="&#xa9;" horiz-adv-x="822" 
d="M411 -13c-205 0 -371 166 -371 372c0 204 166 370 371 370s371 -166 371 -370c0 -206 -166 -372 -371 -372zM411 87c151 0 271 121 271 272c0 150 -119 270 -271 270c-150 0 -271 -120 -271 -270c0 -151 121 -272 271 -272zM568 430l-75 -26c-10 29 -33 57 -82 57
c-58 0 -90 -49 -90 -104c0 -57 32 -104 90 -104c48 0 67 23 78 49l76 -30c-23 -57 -84 -94 -154 -94c-95 0 -175 79 -175 179c0 99 80 179 175 179c74 0 136 -41 157 -106z" />
    <glyph glyph-name="registered" unicode="&#xae;" horiz-adv-x="463" 
d="M233 749c111 0 200 -89 200 -200c0 -114 -89 -203 -200 -203c-113 0 -203 89 -203 203c0 111 90 200 203 200zM233 391c87 0 157 69 157 158c0 88 -70 157 -157 157c-89 0 -158 -69 -158 -157c0 -90 67 -158 158 -158zM303 579c-2 -22 -13 -38 -30 -46l33 -76h-45l-31 69
h-18v-69h-40v182h40h20c45 0 68 -16 71 -50v-4v-6zM212 601v-38h31c11 0 15 5 16 16h-1c0 1 1 2 1 3s0 3 -1 5c-1 9 -10 14 -26 14h-20z" />
    <glyph glyph-name="uni2117" unicode="&#x2117;" horiz-adv-x="532" 
d="M268 724c124 0 224 -101 224 -225c0 -127 -100 -227 -224 -227c-127 0 -228 100 -228 227c0 124 101 225 228 225zM268 323c97 0 175 77 175 176s-78 175 -175 175c-100 0 -177 -76 -177 -175c0 -101 75 -176 177 -176zM351 545v-6v-8c-3 -41 -32 -61 -80 -59h-21v-77
h-46v204h46h21c50 3 77 -17 80 -54zM285 514c10 2 14 7 15 17v3v4c-1 11 -11 16 -29 16h-21v-39h35v-1z" />
    <glyph glyph-name="section" unicode="&#xa7;" horiz-adv-x="456" 
d="M410 381c0 -54 -22 -89 -58 -114c37 -24 57 -61 57 -108c0 -90 -75 -159 -180 -159c-89 0 -168 48 -187 129l111 25c10 -33 38 -51 79 -51s64 20 64 48c0 21 -13 34 -42 42l-62 16c-49 12 -146 47 -146 159c0 54 22 89 58 114c-37 24 -57 61 -57 108c0 91 75 160 180 160
c88 0 168 -49 187 -130l-112 -25c-9 33 -38 51 -78 51c-41 0 -64 -20 -64 -48c0 -21 13 -34 42 -42l62 -16c49 -12 146 -46 146 -159zM228 321c61 0 83 24 83 54c0 31 -25 54 -83 54c-62 0 -83 -25 -83 -55c0 -31 24 -53 83 -53z" />
    <glyph glyph-name="trademark" unicode="&#x2122;" horiz-adv-x="654" 
d="M40 679v58h223v-58h-85v-227h-54v227h-84zM540 737h54v-285h-54v156l-67 -156h-58l-65 153v-153h-54v285h54l94 -219z" />
    <glyph glyph-name="degree" unicode="&#xb0;" horiz-adv-x="279" 
d="M140 485c-66 0 -120 54 -120 119c0 66 54 120 120 120c65 0 119 -54 119 -120c0 -65 -54 -119 -119 -119zM140 559c24 0 45 21 45 45s-22 46 -45 46c-25 0 -46 -22 -46 -46s21 -45 46 -45z" />
    <glyph glyph-name="estimated" unicode="&#x212e;" horiz-adv-x="752" 
d="M47 353c2 211 138 357 330 357c193 0 328 -123 328 -329c1 -16 1 -38 0 -53h-558v-180c52 -74 136 -117 242 -117c103 0 196 54 238 133l38 -14c-49 -98 -153 -159 -278 -159c-204 0 -343 147 -340 362zM147 546v-182h459v200c-50 68 -133 107 -229 106
c-100 -2 -181 -50 -230 -124z" />
    <glyph glyph-name="uni2116" unicode="&#x2116;" horiz-adv-x="1377" 
d="M1013 724c127 0 244 -97 244 -237c0 -139 -117 -233 -244 -233c-124 0 -245 98 -245 233c0 140 118 237 245 237zM572 206v504h121v-710h-121l-331 504v-504h-121v710h121zM1013 366c77 0 124 62 124 121c0 68 -48 122 -124 122c-77 0 -125 -55 -125 -122
c0 -59 50 -121 125 -121zM869 89v96h289v-96h-289z" />
    <glyph glyph-name="asciicircum" unicode="^" horiz-adv-x="436" 
d="M402 480h-121l-60 115l-61 -115h-120l120 230h121z" />
    <glyph glyph-name="dagger" unicode="&#x2020;" horiz-adv-x="347" 
d="M327 610v-85h-111v-261h-85v261h-111v85h111v100h85v-100h111z" />
    <glyph glyph-name="daggerdbl" unicode="&#x2021;" horiz-adv-x="350" 
d="M330 452v-85h-109v-103h-85v103h-113v85h113v70h-116v85h116v103h85v-103h106v-85h-106v-70h109z" />
    <glyph glyph-name="minute" unicode="&#x2032;" horiz-adv-x="195" 
d="M153 672l-21 -189h-68l-23 189c-5 49 28 71 58 69c28 -1 60 -20 54 -69z" />
    <glyph glyph-name="registered.ss01" horiz-adv-x="532" 
d="M268 724c124 0 224 -101 224 -225c0 -127 -100 -227 -224 -227c-127 0 -228 100 -228 227c0 124 101 225 228 225zM268 323c97 0 175 77 175 176s-78 175 -175 175c-100 0 -177 -76 -177 -175c0 -101 75 -176 177 -176zM345 532c-1 -24 -13 -41 -31 -51l37 -85h-54
l-33 77h-19v-77h-47v204h47h21c49 3 76 -17 79 -54c1 -2 1 -4 1 -6s0 -5 -1 -8zM245 556v-40h35c10 1 14 6 15 16v2v5c-1 11 -11 17 -29 17h-21z" />
    <glyph glyph-name="ampersand.ss02" horiz-adv-x="733" 
d="M616 154c25 -31 49 -28 97 -29v-125c-89 0 -134 5 -178 54c-54 -42 -125 -65 -207 -65c-172 0 -274 86 -274 219c0 117 75 182 156 234c-39 50 -63 91 -63 144c0 90 71 164 180 164c103 0 170 -65 170 -155c0 -58 -32 -115 -106 -170l130 -157c8 26 11 55 8 86h125
c2 -79 -12 -146 -38 -200zM329 635c-31 0 -51 -18 -51 -49c0 -14 9 -33 44 -76c43 30 57 54 57 76c0 30 -20 49 -50 49zM322 112c46 0 91 16 127 45l-166 197c-53 -35 -96 -74 -96 -135c0 -75 69 -107 135 -107z" />
    <glyph glyph-name="at.ss04" horiz-adv-x="969" 
d="M525 759c241 0 403 -167 394 -385c-8 -154 -98 -266 -213 -266c-62 0 -110 34 -122 84c-23 -41 -79 -76 -149 -76c-89 0 -145 57 -146 135c0 83 63 144 173 144h127c11 62 -5 109 -87 109c-68 0 -104 -32 -128 -78l-58 21c42 90 119 117 186 117c106 0 171 -63 154 -178
l-19 -130c-8 -53 15 -96 69 -96c82 0 140 98 147 207c12 187 -129 333 -326 333c-212 0 -388 -168 -407 -369c-20 -207 134 -374 360 -374c105 0 209 36 289 101l35 -48c-93 -74 -219 -111 -336 -111c-269 0 -435 195 -416 432s216 428 473 428zM446 178
c77 0 125 50 136 158h-99c-97 0 -124 -43 -126 -83c-1 -51 37 -75 89 -75z" />
    <glyph glyph-name="uni0308" unicode="&#x308;" 
d="M-291 777c-44 0 -79 35 -79 78c0 44 35 79 79 79c43 0 79 -35 79 -79c0 -42 -36 -78 -79 -78zM-86 777c-43 0 -78 34 -78 78s36 79 78 79c43 0 79 -36 79 -79s-36 -78 -79 -78z" />
    <glyph glyph-name="uni0307" unicode="&#x307;" 
d="M-276 777c-43 0 -78 34 -78 78s36 79 78 79c43 0 79 -36 79 -79s-36 -78 -79 -78z" />
    <glyph glyph-name="gravecomb" unicode="&#x300;" 
d="M-139 770l-115 178h130l89 -178h-104z" />
    <glyph glyph-name="acutecomb" unicode="&#x301;" 
d="M-121 770h-104l90 177h129z" />
    <glyph glyph-name="uni030B" unicode="&#x30b;" 
d="M-332 770h-104l89 177h130zM-181 770h-104l118 177h130z" />
    <glyph glyph-name="uni0302" unicode="&#x302;" 
d="M-40 770h-105l-60 105l-61 -105h-105l96 178h111h28z" />
    <glyph glyph-name="uni030C" unicode="&#x30c;" 
d="M-140 948h105l-96 -178h-112h-28l-95 178h105l60 -105z" />
    <glyph glyph-name="uni0306" unicode="&#x306;" 
d="M-124 949h103c0 -97 -79 -179 -184 -179c-109 0 -186 81 -186 179h104c0 -52 37 -77 82 -77c44 0 81 26 81 77z" />
    <glyph glyph-name="uni030A" unicode="&#x30a;" 
d="M-145 754c-75 0 -134 59 -134 135c0 74 61 136 134 136c74 0 134 -63 134 -136c0 -74 -60 -135 -134 -135zM-145 833c32 0 56 24 56 58c0 30 -24 55 -56 55s-56 -24 -56 -55c0 -34 24 -58 56 -58z" />
    <glyph glyph-name="tildecomb" unicode="&#x303;" 
d="M-399 791c-18 102 41 154 101 154c62 0 104 -52 147 -52c25 0 36 19 31 45h88c17 -103 -44 -147 -104 -147c-64 0 -108 50 -146 50c-25 0 -33 -21 -30 -49z" />
    <glyph glyph-name="uni0304" unicode="&#x304;" 
d="M-343 907h322v-89h-322v89z" />
    <glyph glyph-name="uni0312" unicode="&#x312;" 
d="M-97 912c32 0 57 -23 57 -60c0 -39 -26 -65 -65 -65c-35 0 -69 23 -69 84c0 70 48 124 111 124v-35c-36 0 -57 -28 -56 -53c6 4 13 5 22 5z" />
    <glyph glyph-name="uni0326" unicode="&#x326;" 
d="M-114 -34c35 0 69 -23 69 -85c0 -69 -48 -123 -111 -123v35c36 0 58 27 57 52c-7 -3 -14 -4 -23 -4c-32 0 -56 22 -56 60s26 65 64 65z" />
    <glyph glyph-name="uni0327" unicode="&#x327;" 
d="M-251 -199v61h91c13 0 26 7 26 23c0 17 -13 23 -26 23h-91v62l59 62l54 -1v-32l-33 -31h33c49 0 79 -36 79 -83c0 -53 -31 -84 -79 -84h-113z" />
    <glyph glyph-name="uni0338" unicode="&#x338;" 
d="M-414 -44h-128l371 593h121z" />
    <glyph glyph-name="acute" unicode="&#xb4;" horiz-adv-x="296" 
d="M144 770h-104l89 177h130z" />
    <glyph glyph-name="breve" unicode="&#x2d8;" horiz-adv-x="413" 
d="M390 945c-2 -96 -80 -175 -184 -175c-107 0 -185 79 -186 175h104c2 -49 37 -73 82 -73c43 0 79 25 81 73h103z" />
    <glyph glyph-name="caron" unicode="&#x2c7;" horiz-adv-x="404" 
d="M259 948h105l-96 -178h-112h-28l-95 178h105l60 -105z" />
    <glyph glyph-name="cedilla" unicode="&#xb8;" horiz-adv-x="600" 
d="M239 -203v62h92c13 0 26 6 26 23c0 16 -13 22 -26 22h-92v62l48 66l60 -1v-32l-28 -34h34c48 0 79 -36 79 -84c0 -53 -31 -84 -79 -84h-114z" />
    <glyph glyph-name="circumflex" unicode="&#x2c6;" horiz-adv-x="409" 
d="M371 770h-105l-60 105l-61 -105h-105l96 178h111h28z" />
    <glyph glyph-name="dieresis" unicode="&#xa8;" horiz-adv-x="418" 
d="M100 777c-44 0 -80 35 -80 78c0 44 36 79 80 79c42 0 78 -36 78 -79c0 -42 -35 -78 -78 -78zM319 777c-44 0 -80 35 -80 78c0 44 36 79 80 79c42 0 79 -36 79 -79c0 -42 -36 -78 -79 -78z" />
    <glyph glyph-name="dotaccent" unicode="&#x2d9;" horiz-adv-x="198" 
d="M100 777c-44 0 -80 35 -80 78c0 44 36 79 80 79c42 0 78 -36 78 -79c0 -42 -35 -78 -78 -78z" />
    <glyph glyph-name="grave" unicode="`" horiz-adv-x="253" 
d="M119 770l-116 177h130l90 -177h-104z" />
    <glyph glyph-name="hungarumlaut" unicode="&#x2dd;" horiz-adv-x="460" 
d="M142 770h-104l89 177h130zM296 770h-104l116 177h130z" />
    <glyph glyph-name="macron" unicode="&#xaf;" horiz-adv-x="364" 
d="M21 877h322v-89h-322v89z" />
    <glyph glyph-name="ogonek" unicode="&#x2db;" horiz-adv-x="553" 
d="M262 0h85c-114 -39 -86 -144 -6 -111v-92c-171 -59 -229 148 -79 203z" />
    <glyph glyph-name="ring" unicode="&#x2da;" horiz-adv-x="298" 
d="M145 754c-75 0 -134 59 -134 135c0 74 61 136 134 136s133 -63 133 -136c0 -74 -60 -135 -133 -135zM145 833c32 0 56 24 56 58c0 30 -24 55 -56 55s-56 -24 -56 -55c0 -34 24 -58 56 -58z" />
    <glyph glyph-name="tilde" unicode="&#x2dc;" horiz-adv-x="433" 
d="M29 791c-18 102 41 154 101 154c62 0 104 -52 147 -52c25 0 36 19 31 45h88c17 -103 -44 -147 -104 -147c-64 0 -108 50 -146 50c-25 0 -33 -21 -30 -49z" />
    </font>
</defs>
</svg>
