<?xml version="1.0" standalone="no"?>
<!DOCTYPE svg PUBLIC "-//W3C//DTD SVG 1.1//EN" "http://www.w3.org/Graphics/SVG/1.1/DTD/svg11.dtd" >
<svg xmlns="http://www.w3.org/2000/svg" xmlns:xlink="http://www.w3.org/1999/xlink" version="1.1">
<metadata>
Created by FontForge 20191125 at Tue Apr 18 15:31:28 2017
 By convertio
Copyright \(c\) 2016 by Deni Anggara. All rights reserved.
</metadata>
<defs>
<font id="Biotif-Regular" horiz-adv-x="582" >
  <font-face 
    font-family="Biotif"
    font-weight="400"
    font-stretch="normal"
    units-per-em="1000"
    panose-1="0 0 5 0 0 0 0 0 0 0"
    ascent="800"
    descent="-200"
    x-height="487"
    cap-height="720"
    bbox="-530 -244 1488 1047"
    underline-thickness="80"
    underline-position="-195"
    stemh="80"
    stemv="86"
    unicode-range="U+0020-FB02"
  />
<missing-glyph horiz-adv-x="539" 
d="M442 863v-1078h-342v1078h342zM359 791h-178v-36h70v-40h-71v-35h179v35h-71v40h71v36zM288 652h-108v-112h179v36h-71v76zM251 615v-39h-35v39h35zM359 510h-179v-35h71v-40h-71v-36h108v76h71v35zM359 446h-36v-71h-143v-37h179v108zM359 314h-108v-60h37v25h35v-51
h-107v86h-36v-122h179v122zM359 128h-179v-122h179v122zM323 92v-50h-107v50h107zM359 -19h-179v-35h75l-75 -51v-36h179v36h-110l75 51h35v35z" />
    <glyph glyph-name="f_f" unicode="ff" horiz-adv-x="635" 
d="M606 654c-91 16 -118 -20 -118 -82v-85h101v-68h-101v-419h-82l-1 419h-230v-419h-82v419h-73v68h73v85c0 115 67 161 151 161c12 0 26 -1 50 -6v-73c-92 16 -119 -20 -119 -82v-85h230v85c0 115 68 161 152 161c11 0 26 -1 49 -6v-73z" />
    <glyph glyph-name="f_f_i" unicode="ffi" horiz-adv-x="869" 
d="M485 572v-85l307 -1v-486h-82v418l-225 1v-419h-83v419h-230v-419h-82l-1 419h-72v68h72v85c0 115 68 161 152 161c11 0 26 -1 49 -6v-73c-91 16 -118 -20 -118 -82v-85h230v85c0 115 68 161 151 161c12 0 27 -1 50 -6v-73c-92 16 -118 -20 -118 -82zM751 724
c34 0 61 -27 61 -62s-27 -61 -61 -61c-35 0 -62 26 -62 61s27 62 62 62z" />
    <glyph glyph-name="f_f_l" unicode="ffl" horiz-adv-x="859" 
d="M701 732h83v-732h-83v419h-216v-419h-83v419h-230v-419h-82l-1 419h-72v68h72v85c0 115 68 161 152 161c11 0 26 -1 49 -6v-73c-91 16 -118 -20 -118 -82v-85h230v85c0 115 68 161 151 161c12 0 27 -1 50 -6v-73c-92 16 -118 -20 -118 -82v-85h216v245z" />
    <glyph glyph-name="f_t" unicode="ft" horiz-adv-x="616" 
d="M605 487v-68h-116v-419h-81v419h-236v-419h-82l-1 419h-72v68h72v85c0 115 68 161 152 161c11 0 26 -1 49 -6v-73c-91 16 -118 -20 -118 -82v-85h236v153h81v-153h116z" />
    <glyph glyph-name="f_y" unicode="fy" horiz-adv-x="788" 
d="M690 487h88l-221 -595c-51 -138 -181 -131 -249 -90l22 72c35 -29 121 -45 151 36l19 49h-1l-182 460h-145v-419h-82l-1 419h-72v68h72v85c0 115 68 161 152 161c11 0 26 -1 49 -6v-73c-91 16 -118 -20 -118 -82v-85h208l160 -418z" />
    <glyph glyph-name="fi" unicode="fi" horiz-adv-x="556" 
d="M172 487l307 -1v-486h-83v418l-224 1v-419h-82l-1 419h-72v68h72v85c0 115 68 161 152 161c11 0 26 -1 49 -6v-73c-91 16 -118 -20 -118 -82v-85zM438 724c34 0 61 -27 61 -62s-27 -61 -61 -61c-35 0 -62 26 -62 61s27 62 62 62z" />
    <glyph glyph-name="fl" unicode="fl" horiz-adv-x="546" 
d="M389 732h82v-732h-82v419h-217v-419h-82l-1 419h-72v68h72v85c0 115 68 161 152 161c11 0 26 -1 49 -6v-73c-91 16 -118 -20 -118 -82v-85h217v245z" />
    <glyph glyph-name="t_i" unicode="ti" horiz-adv-x="539" 
d="M424 724c34 0 61 -27 61 -62s-27 -61 -61 -61c-35 0 -62 26 -62 61s27 62 62 62zM465 487v-487h-83v419h-187v-419h-82v419h-96v68h96v153h82v-153h270z" />
    <glyph glyph-name="t_t" unicode="tt" horiz-adv-x="615" 
d="M598 487v-68h-96v-419h-81v419h-96h-130v-419h-82v419h-96v68h96v153h82v-153h166h60v153h81v-153h96z" />
    <glyph glyph-name="t_y" unicode="ty" horiz-adv-x="767" 
d="M669 487h88l-220 -595c-51 -138 -181 -131 -249 -90l22 72c35 -29 121 -45 151 36l18 49l-182 460h-102v-419h-82v419h-96v68h96v153h82v-153h147h18l158 -423z" />
    <glyph glyph-name=".notdef" horiz-adv-x="539" 
d="M442 863v-1078h-342v1078h342zM359 791h-178v-36h70v-40h-71v-35h179v35h-71v40h71v36zM288 652h-108v-112h179v36h-71v76zM251 615v-39h-35v39h35zM359 510h-179v-35h71v-40h-71v-36h108v76h71v35zM359 446h-36v-71h-143v-37h179v108zM359 314h-108v-60h37v25h35v-51
h-107v86h-36v-122h179v122zM359 128h-179v-122h179v122zM323 92v-50h-107v50h107zM359 -19h-179v-35h75l-75 -51v-36h179v36h-110l75 51h35v35z" />
    <glyph glyph-name="DegarismLogo" horiz-adv-x="1528" 
d="M731 180v95h229v-267h-82l-10 80h-9s-20 -88 -146 -88c-120 0 -215 80 -215 253c0 180 116 258 235 258c94 0 200 -51 222 -176h-113c-13 45 -48 79 -107 79c-88 0 -126 -72 -126 -157c0 -82 35 -160 124 -160c59 0 101 35 111 83h-113zM1052 402c-30 0 -55 25 -55 55
s25 54 55 54s54 -24 54 -54s-24 -55 -54 -55zM1190 402c-30 0 -55 25 -55 55s25 54 55 54s54 -24 54 -54s-24 -55 -54 -55zM1276 511v-21h29v-85h25v85h30v21h-84zM1488 511h-44l-14 -88l-12 88h-44v-106h25v91l14 -91h35l15 91v-91h25v106zM234 506c138 0 230 -80 230 -249
s-92 -249 -230 -249h-194v498h194zM234 99c20 0 120 6 120 158c0 150 -100 158 -120 158h-66c-36 2 -62 24 -62 24l-8 -8s16 -15 30 -30c24 -21 22 -56 22 -56v-177c0 -36 -22 -56 -22 -56l-30 -30l8 -7s30 25 70 24h58zM1120 302c22 41 74 47 124 40v-89
c-70 6 -122 -21 -122 -105v-140h-108v257c0 47 -4 64 -7 77h109c1 -7 3 -22 4 -40z" />
    <glyph glyph-name="bracketleftsuperior" horiz-adv-x="208" 
d="M203 282v-55h-156v642h156v-55h-91v-532h91z" />
    <glyph glyph-name="bracketrightsuperior" horiz-adv-x="203" 
d="M0 282h91v532h-91v55h156v-642h-156v55z" />
    <glyph glyph-name="A" unicode="A" horiz-adv-x="653" 
d="M550 0l-66 185h-317l-67 -185h-87l263 720h87h12l265 -720h-90zM194 257h264l-130 366z" />
    <glyph glyph-name="Aacute" unicode="&#xc1;" horiz-adv-x="653" 
d="M445 907l-85 -133h-69l66 133h88zM550 0l-66 185h-317l-67 -185h-87l263 720h87h12l265 -720h-90zM194 257h264l-130 366z" />
    <glyph glyph-name="Abreve" unicode="&#x102;" horiz-adv-x="653" 
d="M327 774c-80 0 -141 58 -142 132h71c1 -38 30 -62 71 -62c40 0 69 24 70 62h71c-1 -74 -63 -132 -141 -132zM550 0l-66 185h-317l-67 -185h-87l263 720h87h12l265 -720h-90zM194 257h264l-130 366z" />
    <glyph glyph-name="Acircumflex" unicode="&#xc2;" horiz-adv-x="653" 
d="M326 856l-52 -82h-76l80 133h80h16l80 -133h-76zM550 0l-66 185h-317l-67 -185h-87l263 720h87h12l265 -720h-90zM194 257h264l-130 366z" />
    <glyph glyph-name="Adieresis" unicode="&#xc4;" horiz-adv-x="653" 
d="M236 776c-35 0 -63 29 -63 62c0 35 28 64 63 64c33 0 63 -29 63 -64c0 -33 -29 -62 -63 -62zM416 776c-35 0 -63 29 -63 62c0 35 28 64 63 64c33 0 62 -29 62 -64c0 -33 -29 -62 -62 -62zM550 0l-66 185h-317l-67 -185h-87l263 720h87h12l265 -720h-90zM194 257h264
l-130 366z" />
    <glyph glyph-name="Agrave" unicode="&#xc0;" horiz-adv-x="653" 
d="M360 774h-69l-86 133h89zM550 0l-66 185h-317l-67 -185h-87l263 720h87h12l265 -720h-90zM194 257h264l-130 366z" />
    <glyph glyph-name="Amacron" unicode="&#x100;" horiz-adv-x="653" 
d="M466 844v-62h-280v62h280zM550 0l-66 185h-317l-67 -185h-87l263 720h87h12l265 -720h-90zM194 257h264l-130 366z" />
    <glyph glyph-name="Aogonek" unicode="&#x104;" horiz-adv-x="653" 
d="M642 0c-91 -41 -60 -114 -2 -94v-63c-130 -39 -163 114 -53 157h-37l-66 185h-317l-67 -185h-87l263 720h87h12l265 -720h2zM194 257h264l-130 366z" />
    <glyph glyph-name="Aring" unicode="&#xc5;" horiz-adv-x="653" 
d="M326 769c-62 0 -111 49 -111 112c0 62 51 113 111 113c62 0 113 -52 113 -113s-51 -112 -113 -112zM327 939c-32 0 -56 -25 -56 -56c0 -34 24 -58 56 -58s56 24 56 58c0 30 -24 56 -56 56zM550 0l-66 185h-317l-67 -185h-87l263 720h87h12l265 -720h-90zM194 257h264
l-130 366z" />
    <glyph glyph-name="Aringacute" unicode="&#x1fa;" horiz-adv-x="653" 
d="M450 1047l-85 -133h-69l66 133h88zM550 0l-66 185h-317l-67 -185h-87l251 688c-30 19 -50 54 -50 94c0 62 51 114 111 114c62 0 113 -53 113 -114c0 -39 -21 -73 -51 -94l253 -688h-90zM326 840c-32 0 -56 -25 -56 -56c0 -34 24 -58 56 -58s57 24 57 58
c0 30 -25 56 -57 56zM194 257h264l-130 366z" />
    <glyph glyph-name="Atilde" unicode="&#xc3;" horiz-adv-x="653" 
d="M234 797h-60c-8 74 32 112 81 112c54 0 90 -45 131 -45c22 0 34 13 32 43h60c6 -73 -34 -110 -86 -110c-57 0 -93 45 -127 45c-19 0 -32 -13 -31 -45zM550 0l-66 185h-317l-67 -185h-87l263 720h87h12l265 -720h-90zM194 257h264l-130 366z" />
    <glyph glyph-name="AE" unicode="&#xc6;" horiz-adv-x="897" 
d="M839 81l-2 -81h-352h-81v201h-226l-76 -201h-92l275 719h87h32h81h353l-1 -82l-352 1v-236l320 -1l-1 -79h-319v-241h354zM205 274h199v364h-63z" />
    <glyph glyph-name="AEacute" unicode="&#x1fc;" horiz-adv-x="897" 
d="M668 907l-85 -133h-69l66 133h88zM839 81l-2 -81h-352h-81v201h-226l-76 -201h-92l275 719h87h32h81h353l-1 -82l-352 1v-236l320 -1l-1 -79h-319v-241h354zM205 274h199v364h-63z" />
    <glyph glyph-name="B" unicode="B" horiz-adv-x="641" 
d="M486 361c63 -29 110 -89 110 -172c0 -119 -91 -189 -225 -189h-242h-40v719h83h193c142 0 223 -79 223 -191c0 -82 -43 -138 -102 -167zM361 645h-189v-251h191c92 0 143 54 142 124c-1 74 -54 127 -144 127zM371 75c89 0 143 51 143 125c-1 78 -59 125 -143 125h-199
v-250h199z" />
    <glyph glyph-name="C" unicode="C" horiz-adv-x="734" 
d="M688 523l-81 -30c-30 97 -112 155 -220 155c-152 0 -252 -115 -252 -288c0 -176 103 -287 251 -287c109 0 195 60 224 143l81 -35c-45 -119 -164 -192 -306 -192c-201 0 -340 147 -340 371c0 223 139 372 342 372c154 0 264 -86 301 -209z" />
    <glyph glyph-name="Cacute" unicode="&#x106;" horiz-adv-x="734" 
d="M425 774h-69l66 133h88zM688 523l-81 -30c-30 97 -112 155 -220 155c-152 0 -252 -115 -252 -288c0 -176 103 -287 251 -287c109 0 195 60 224 143l81 -35c-45 -119 -164 -192 -306 -192c-201 0 -340 147 -340 371c0 223 139 372 342 372c154 0 264 -86 301 -209z" />
    <glyph glyph-name="Ccaron" unicode="&#x10c;" horiz-adv-x="734" 
d="M342 774l-80 133h76l52 -82l52 82h76l-80 -133h-96zM610 216l81 -35c-45 -119 -164 -192 -306 -192c-201 0 -340 147 -340 371c0 223 139 372 342 372c154 0 264 -86 301 -209l-81 -30c-30 97 -112 155 -220 155c-152 0 -252 -115 -252 -288c0 -176 103 -287 251 -287
c109 0 195 60 224 143z" />
    <glyph glyph-name="Ccedilla" unicode="&#xc7;" horiz-adv-x="734" 
d="M691 181c-42 -110 -148 -182 -276 -191l-18 -22h36c46 0 67 -36 67 -71c0 -37 -25 -69 -66 -69h-97v47h82c16 0 26 11 26 25c-1 14 -10 23 -26 23h-82v45l17 22c-184 14 -309 158 -309 370c0 223 139 372 342 372c154 0 264 -86 301 -209l-81 -30
c-30 97 -112 155 -220 155c-152 0 -252 -115 -252 -288c0 -176 103 -287 251 -287c109 0 195 60 224 143z" />
    <glyph glyph-name="Ccircumflex" unicode="&#x108;" horiz-adv-x="734" 
d="M390 856l-52 -82h-76l80 133h80h16l80 -133h-76zM610 216l81 -35c-45 -119 -164 -192 -306 -192c-201 0 -340 147 -340 371c0 223 139 372 342 372c154 0 264 -86 301 -209l-81 -30c-30 97 -112 155 -220 155c-152 0 -252 -115 -252 -288c0 -176 103 -287 251 -287
c109 0 195 60 224 143z" />
    <glyph glyph-name="Cdotaccent" unicode="&#x10a;" horiz-adv-x="734" 
d="M390 777c-34 0 -62 28 -62 62s28 63 62 63s63 -29 63 -63s-29 -62 -63 -62zM688 523l-81 -30c-30 97 -112 155 -220 155c-152 0 -252 -115 -252 -288c0 -176 103 -287 251 -287c109 0 195 60 224 143l81 -35c-45 -119 -164 -192 -306 -192c-201 0 -340 147 -340 371
c0 223 139 372 342 372c154 0 264 -86 301 -209z" />
    <glyph glyph-name="D" unicode="D" horiz-adv-x="721" 
d="M313 720c213 0 363 -146 363 -360c0 -215 -149 -360 -363 -360h-224v720h224zM313 80c164 0 272 113 272 280c0 166 -108 279 -272 279h-138v-559h138z" />
    <glyph glyph-name="Eth" unicode="&#xd0;" horiz-adv-x="724" 
d="M313 720c213 0 363 -146 363 -360c0 -215 -149 -360 -363 -360h-224v323h-72v74h72v323h224zM313 80c164 0 272 113 272 280c0 166 -108 279 -272 279h-138v-242h102v-74h-102v-243h138z" />
    <glyph glyph-name="Dcaron" unicode="&#x10e;" horiz-adv-x="721" 
d="M247 773l-80 133h76l52 -82l52 82h76l-80 -133h-96zM313 720c213 0 363 -146 363 -360c0 -215 -149 -360 -363 -360h-224v720h224zM313 80c164 0 272 113 272 280c0 166 -108 279 -272 279h-138v-559h138z" />
    <glyph glyph-name="Dcroat" unicode="&#x110;" horiz-adv-x="724" 
d="M313 720c213 0 363 -146 363 -360c0 -215 -149 -360 -363 -360h-224v323h-72v74h72v323h224zM313 80c164 0 272 113 272 280c0 166 -108 279 -272 279h-138v-242h102v-74h-102v-243h138z" />
    <glyph glyph-name="E" unicode="E" horiz-adv-x="586" 
d="M174 81h350v-81h-435v720h434v-82h-349v-238h316v-76h-316v-243z" />
    <glyph glyph-name="Eacute" unicode="&#xc9;" horiz-adv-x="586" 
d="M421 907l-85 -133h-69l66 133h88zM174 81h350v-81h-435v720h434v-82h-349v-238h316v-76h-316v-243z" />
    <glyph glyph-name="Ebreve" unicode="&#x114;" horiz-adv-x="586" 
d="M302 774c-80 0 -142 58 -142 134h71c0 -40 29 -64 71 -64c41 0 70 25 70 64h71c0 -75 -62 -134 -141 -134zM174 81h350v-81h-435v720h434v-82h-349v-238h316v-76h-316v-243z" />
    <glyph glyph-name="Ecaron" unicode="&#x11a;" horiz-adv-x="586" 
d="M253 774l-80 133h76l52 -82l52 82h76l-80 -133h-96zM174 81h350v-81h-435v720h434v-82h-349v-238h316v-76h-316v-243z" />
    <glyph glyph-name="Ecircumflex" unicode="&#xca;" horiz-adv-x="586" 
d="M301 856l-52 -82h-76l80 133h80h16l80 -133h-76zM174 81h350v-81h-435v720h434v-82h-349v-238h316v-76h-316v-243z" />
    <glyph glyph-name="Edieresis" unicode="&#xcb;" horiz-adv-x="586" 
d="M212 776c-35 0 -63 29 -63 62c0 35 28 64 63 64c33 0 63 -29 63 -64c0 -33 -29 -62 -63 -62zM392 776c-35 0 -63 29 -63 62c0 35 28 64 63 64c33 0 62 -29 62 -64c0 -33 -29 -62 -62 -62zM174 81h350v-81h-435v720h434v-82h-349v-238h316v-76h-316v-243z" />
    <glyph glyph-name="Edotaccent" unicode="&#x116;" horiz-adv-x="586" 
d="M301 777c-34 0 -62 28 -62 62s28 63 62 63s63 -29 63 -63s-29 -62 -63 -62zM174 81h350v-81h-435v720h434v-82h-349v-238h316v-76h-316v-243z" />
    <glyph glyph-name="Egrave" unicode="&#xc8;" horiz-adv-x="586" 
d="M336 774h-69l-86 133h89zM174 81h350v-81h-435v720h434v-82h-349v-238h316v-76h-316v-243z" />
    <glyph glyph-name="Emacron" unicode="&#x112;" horiz-adv-x="586" 
d="M442 844v-62h-280v62h280zM174 81h350v-81h-435v720h434v-82h-349v-238h316v-76h-316v-243z" />
    <glyph glyph-name="Eogonek" unicode="&#x118;" horiz-adv-x="586" 
d="M174 81h350v-81h-1c-91 -41 -60 -114 -2 -94v-63c-130 -39 -163 114 -53 157h-379v720h434v-82h-349v-238h316v-76h-316v-243z" />
    <glyph glyph-name="F" unicode="F" horiz-adv-x="551" 
d="M516 639h-343v-251h289l-1 -77h-288v-311h-86v720h86h344z" />
    <glyph glyph-name="G" unicode="G" horiz-adv-x="761" 
d="M372 397h331v-398h-76l-3 100c-48 -72 -143 -111 -244 -111c-198 0 -335 150 -335 369c0 220 138 376 349 376c146 0 256 -75 297 -191l-76 -33c-37 101 -124 142 -220 142c-162 0 -263 -118 -263 -295c0 -180 107 -287 253 -287c85 0 225 34 237 191v61h-250v76z" />
    <glyph glyph-name="Gbreve" unicode="&#x11e;" horiz-adv-x="761" 
d="M372 774c-80 0 -142 58 -142 134h71c0 -40 29 -64 71 -64c41 0 70 25 70 64h71c0 -75 -62 -134 -141 -134zM372 397h331v-398h-76l-3 100c-48 -72 -143 -111 -244 -111c-198 0 -335 150 -335 369c0 220 138 376 349 376c146 0 256 -75 297 -191l-76 -33
c-37 101 -124 142 -220 142c-162 0 -263 -118 -263 -295c0 -180 107 -287 253 -287c85 0 225 34 237 191v61h-250v76z" />
    <glyph glyph-name="Gcircumflex" unicode="&#x11c;" horiz-adv-x="761" 
d="M371 856l-52 -82h-76l80 133h80h16l80 -133h-76zM372 397h331v-398h-76l-3 100c-48 -72 -143 -111 -244 -111c-198 0 -335 150 -335 369c0 220 138 376 349 376c146 0 256 -75 297 -191l-76 -33c-37 101 -124 142 -220 142c-162 0 -263 -118 -263 -295
c0 -180 107 -287 253 -287c85 0 225 34 237 191v61h-250v76z" />
    <glyph glyph-name="Gcommaaccent" unicode="&#x122;" horiz-adv-x="761" 
d="M372 397h331v-398h-76l-3 100c-48 -72 -143 -111 -244 -111c-198 0 -335 150 -335 369c0 220 138 376 349 376c146 0 256 -75 297 -191l-76 -33c-37 101 -124 142 -220 142c-162 0 -263 -118 -263 -295c0 -180 107 -287 253 -287c85 0 225 34 237 191v61h-250v76z
M410 -44c30 0 57 -21 57 -68c0 -62 -49 -102 -92 -101v27c23 1 46 22 46 47c-5 -3 -11 -4 -17 -4c-24 0 -45 17 -45 47c0 31 21 52 51 52z" />
    <glyph glyph-name="Gdotaccent" unicode="&#x120;" horiz-adv-x="761" 
d="M370 777c-34 0 -62 28 -62 62s28 63 62 63s63 -29 63 -63s-29 -62 -63 -62zM372 397h331v-398h-76l-3 100c-48 -72 -143 -111 -244 -111c-198 0 -335 150 -335 369c0 220 138 376 349 376c146 0 256 -75 297 -191l-76 -33c-37 101 -124 142 -220 142
c-162 0 -263 -118 -263 -295c0 -180 107 -287 253 -287c85 0 225 34 237 191v61h-250v76z" />
    <glyph glyph-name="H" unicode="H" horiz-adv-x="717" 
d="M89 0v720h86v-317l367 -1v318h86v-720h-86v326l-367 1v-327h-86z" />
    <glyph glyph-name="Hbar" unicode="&#x126;" horiz-adv-x="717" 
d="M707 631v-76h-79v-555h-86v326l-367 1v-327h-86v555h-88v76h88v89h86v-89h367v89h86v-89h79zM542 402v153h-367v-152z" />
    <glyph glyph-name="I" unicode="I" horiz-adv-x="263" 
d="M175 0h-86v720h86v-720z" />
    <glyph glyph-name="Iacute" unicode="&#xcd;" horiz-adv-x="263" 
d="M166 774h-69l66 133h88zM175 0h-86v720h86v-720z" />
    <glyph glyph-name="Icircumflex" unicode="&#xce;" horiz-adv-x="263" 
d="M179 907l80 -133h-76l-52 82l-52 -82h-76l80 133h80h16zM89 0v720h86v-720h-86z" />
    <glyph glyph-name="Idieresis" unicode="&#xcf;" horiz-adv-x="263" 
d="M42 776c-35 0 -63 29 -63 62c0 35 28 64 63 64c33 0 63 -29 63 -64c0 -33 -29 -62 -63 -62zM222 776c-35 0 -63 29 -63 62c0 35 28 64 63 64c33 0 62 -29 62 -64c0 -33 -29 -62 -62 -62zM175 0h-86v720h86v-720z" />
    <glyph glyph-name="Idotaccent" unicode="&#x130;" horiz-adv-x="263" 
d="M131 777c-34 0 -62 28 -62 62s28 63 62 63s63 -29 63 -63s-29 -62 -63 -62zM175 0h-86v720h86v-720z" />
    <glyph glyph-name="Igrave" unicode="&#xcc;" horiz-adv-x="263" 
d="M97 774l-86 133h89l66 -133h-69zM175 0h-86v720h86v-720z" />
    <glyph glyph-name="Imacron" unicode="&#x12a;" horiz-adv-x="263" 
d="M-8 844h280v-62h-280v62zM175 0h-86v720h86v-720z" />
    <glyph glyph-name="Iogonek" unicode="&#x12e;" horiz-adv-x="263" 
d="M89 720h86v-720h-1c-91 -41 -60 -114 -2 -94v-63c-130 -39 -163 114 -53 157h-30v720z" />
    <glyph glyph-name="Itilde" unicode="&#x128;" horiz-adv-x="263" 
d="M-21 797c-8 74 32 112 81 112c54 0 90 -45 131 -45c22 0 34 13 32 43h60c6 -73 -34 -110 -86 -110c-57 0 -93 45 -127 45c-19 0 -32 -13 -31 -45h-60zM175 0h-86v720h86v-720z" />
    <glyph glyph-name="J" unicode="J" horiz-adv-x="523" 
d="M357 720h86v-522c0 -125 -84 -211 -215 -211c-137 1 -205 87 -205 212v23h83v-23c0 -110 72 -131 121 -131c63 0 130 30 130 133v519z" />
    <glyph glyph-name="Jcircumflex" unicode="&#x134;" horiz-adv-x="523" 
d="M447 908l80 -133h-76l-52 82l-52 -82h-76l80 133h80h16zM357 720h86v-522c0 -125 -84 -211 -215 -211c-137 1 -205 87 -205 212v23h83v-23c0 -110 72 -131 121 -131c63 0 130 30 130 133v519z" />
    <glyph glyph-name="K" unicode="K" horiz-adv-x="639" 
d="M623 720l-268 -329l260 -391h-110l-204 325l-126 -155v-171h-86v721h86v-418l338 418h110z" />
    <glyph glyph-name="Kcommaaccent" unicode="&#x136;" horiz-adv-x="639" 
d="M623 720l-268 -329l260 -391h-110l-204 325l-126 -155v-171h-86v721h86v-418l338 418h110zM340 -30c30 0 57 -21 57 -68c0 -62 -49 -102 -92 -101v27c23 1 46 22 46 47c-5 -3 -11 -4 -17 -4c-24 0 -45 17 -45 47c0 31 21 52 51 52z" />
    <glyph glyph-name="L" unicode="L" horiz-adv-x="499" 
d="M175 78h296v-78h-369h-13v720h86v-642z" />
    <glyph glyph-name="Lacute" unicode="&#x139;" horiz-adv-x="499" 
d="M252 900l-85 -133h-69l66 133h88zM175 78h296v-78h-369h-13v720h86v-642z" />
    <glyph glyph-name="Lcaron" unicode="&#x13d;" horiz-adv-x="499" 
d="M322 630c-24 0 -44 17 -44 47c0 31 21 51 51 51s56 -20 56 -68c0 -61 -49 -101 -91 -100v27c23 1 46 23 46 47c-5 -3 -11 -4 -18 -4zM175 78h296v-78h-369h-13v720h86v-642z" />
    <glyph glyph-name="Lcommaaccent" unicode="&#x13b;" horiz-adv-x="499" 
d="M175 78h296v-78h-369h-13v720h86v-642zM286 -30c30 0 57 -21 57 -68c0 -62 -49 -102 -92 -101v27c23 1 46 22 46 47c-5 -3 -11 -4 -17 -4c-24 0 -45 17 -45 47c0 31 21 52 51 52z" />
    <glyph glyph-name="Ldot" unicode="&#x13f;" horiz-adv-x="499" 
d="M175 78h296v-78h-369h-13v720h86v-642zM328 303c-37 0 -68 30 -68 67s31 68 68 68s68 -31 68 -68s-31 -67 -68 -67z" />
    <glyph glyph-name="Lslash" unicode="&#x141;" horiz-adv-x="495" 
d="M175 78h296v-78h-369h-13v333l-73 -34v78l73 34v309h86v-267l178 85v-78l-178 -85v-297z" />
    <glyph glyph-name="M" unicode="M" horiz-adv-x="856" 
d="M682 720l86 -1v-719h-86v526l-213 -526h-83l-214 524v-524h-83v720h83l256 -619z" />
    <glyph glyph-name="N" unicode="N" horiz-adv-x="730" 
d="M556 720h85v-720h-85l-381 580v-580h-86v720h86l381 -580v580z" />
    <glyph glyph-name="Nacute" unicode="&#x143;" horiz-adv-x="730" 
d="M487 907l-85 -133h-69l66 133h88zM556 720h85v-720h-85l-381 580v-580h-86v720h86l381 -580v580z" />
    <glyph glyph-name="Ncaron" unicode="&#x147;" horiz-adv-x="730" 
d="M319 774l-80 133h76l52 -82l52 82h76l-80 -133h-96zM556 720h85v-720h-85l-381 580v-580h-86v720h86l381 -580v580z" />
    <glyph glyph-name="Ncommaaccent" unicode="&#x145;" horiz-adv-x="730" 
d="M556 720h85v-720h-85l-381 580v-580h-86v720h86l381 -580v580zM369 -30c30 0 57 -21 57 -68c0 -62 -49 -102 -92 -101v27c23 1 46 22 46 47c-5 -3 -11 -4 -17 -4c-24 0 -45 17 -45 47c0 31 21 52 51 52z" />
    <glyph glyph-name="Eng" unicode="&#x14a;" horiz-adv-x="714" 
d="M84 0v720h86l374 -575v575h86v-773c0 -108 -93 -151 -177 -130l3 69c46 -10 96 3 96 75v39h-8l-374 574v-574h-86z" />
    <glyph glyph-name="Ntilde" unicode="&#xd1;" horiz-adv-x="730" 
d="M275 797h-60c-8 74 32 112 81 112c54 0 90 -45 131 -45c22 0 34 13 32 43h60c6 -73 -34 -110 -86 -110c-57 0 -93 45 -127 45c-19 0 -32 -13 -31 -45zM556 720h85v-720h-85l-381 580v-580h-86v720h86l381 -580v580z" />
    <glyph glyph-name="O" unicode="O" horiz-adv-x="776" 
d="M733 360c0 216 -140 372 -345 372s-344 -156 -344 -372c0 -217 139 -372 343 -372c205 0 346 156 346 372zM643 360c0 -172 -103 -288 -255 -288c-153 0 -255 116 -255 288c0 173 102 289 255 289c152 0 255 -116 255 -289z" />
    <glyph glyph-name="Oacute" unicode="&#xd3;" horiz-adv-x="776" 
d="M422 774h-69l66 133h88zM733 360c0 216 -140 372 -345 372s-344 -156 -344 -372c0 -217 139 -372 343 -372c205 0 346 156 346 372zM643 360c0 -172 -103 -288 -255 -288c-153 0 -255 116 -255 288c0 173 102 289 255 289c152 0 255 -116 255 -289z" />
    <glyph glyph-name="Ocircumflex" unicode="&#xd4;" horiz-adv-x="776" 
d="M388 856l-52 -82h-76l80 133h80h16l80 -133h-76zM388 732c205 0 345 -156 345 -372s-141 -372 -346 -372c-204 0 -343 155 -343 372c0 216 139 372 344 372zM388 72c152 0 255 116 255 288c0 173 -103 289 -255 289c-153 0 -255 -116 -255 -289c0 -172 102 -288 255 -288
z" />
    <glyph glyph-name="Odieresis" unicode="&#xd6;" horiz-adv-x="776" 
d="M298 776c-35 0 -63 29 -63 62c0 35 28 64 63 64c33 0 63 -29 63 -64c0 -33 -29 -62 -63 -62zM478 776c-35 0 -63 29 -63 62c0 35 28 64 63 64c33 0 62 -29 62 -64c0 -33 -29 -62 -62 -62zM733 360c0 216 -140 372 -345 372s-344 -156 -344 -372c0 -217 139 -372 343 -372
c205 0 346 156 346 372zM643 360c0 -172 -103 -288 -255 -288c-153 0 -255 116 -255 288c0 173 102 289 255 289c152 0 255 -116 255 -289z" />
    <glyph glyph-name="Ograve" unicode="&#xd2;" horiz-adv-x="776" 
d="M353 774l-86 133h89l66 -133h-69zM733 360c0 216 -140 372 -345 372s-344 -156 -344 -372c0 -217 139 -372 343 -372c205 0 346 156 346 372zM643 360c0 -172 -103 -288 -255 -288c-153 0 -255 116 -255 288c0 173 102 289 255 289c152 0 255 -116 255 -289z" />
    <glyph glyph-name="Ohungarumlaut" unicode="&#x150;" horiz-adv-x="776" 
d="M363 782h-69l66 132h88zM486 782h-69l80 132h88zM733 360c0 216 -140 372 -345 372s-344 -156 -344 -372c0 -217 139 -372 343 -372c205 0 346 156 346 372zM643 360c0 -172 -103 -288 -255 -288c-153 0 -255 116 -255 288c0 173 102 289 255 289
c152 0 255 -116 255 -289z" />
    <glyph glyph-name="Omacron" unicode="&#x14c;" horiz-adv-x="776" 
d="M248 844h280v-62h-280v62zM733 360c0 216 -140 372 -345 372s-344 -156 -344 -372c0 -217 139 -372 343 -372c205 0 346 156 346 372zM643 360c0 -172 -103 -288 -255 -288c-153 0 -255 116 -255 288c0 173 102 289 255 289c152 0 255 -116 255 -289z" />
    <glyph glyph-name="Oslash" unicode="&#xd8;" horiz-adv-x="769" 
d="M607 647c72 -67 114 -167 114 -286c0 -217 -140 -373 -345 -373c-57 0 -109 12 -154 34l-18 -30h-87l43 70c-80 66 -128 172 -128 298c0 216 140 373 344 373c65 0 123 -16 173 -44l24 39h84zM122 361c0 -95 31 -174 85 -224l297 480c-37 21 -79 32 -127 32
c-153 0 -255 -116 -255 -288zM377 72c152 0 255 116 255 289c0 87 -26 159 -72 210l-293 -476c33 -15 70 -23 110 -23z" />
    <glyph glyph-name="Oslashacute" unicode="&#x1fe;" horiz-adv-x="769" 
d="M499 902l-85 -133h-69l66 133h88zM607 647c72 -67 114 -167 114 -286c0 -217 -140 -373 -345 -373c-57 0 -109 12 -154 34l-18 -30h-87l43 70c-80 66 -128 172 -128 298c0 216 140 373 344 373c65 0 123 -16 173 -44l24 39h84zM122 361c0 -95 31 -174 85 -224l297 480
c-37 21 -79 32 -127 32c-153 0 -255 -116 -255 -288zM377 72c152 0 255 116 255 289c0 87 -26 159 -72 210l-293 -476c33 -15 70 -23 110 -23z" />
    <glyph glyph-name="Otilde" unicode="&#xd5;" horiz-adv-x="776" 
d="M236 797c-8 74 32 112 81 112c54 0 90 -45 131 -45c22 0 34 13 32 43h60c6 -73 -34 -110 -86 -110c-57 0 -93 45 -127 45c-19 0 -32 -13 -31 -45h-60zM733 360c0 216 -140 372 -345 372s-344 -156 -344 -372c0 -217 139 -372 343 -372c205 0 346 156 346 372zM643 360
c0 -172 -103 -288 -255 -288c-153 0 -255 116 -255 288c0 173 102 289 255 289c152 0 255 -116 255 -289z" />
    <glyph glyph-name="OE" unicode="&#x152;" horiz-adv-x="1147" 
d="M1088 638h-349v-237h316v-78h-316v-242h349v-81h-434v127c-45 -85 -149 -140 -265 -140c-206 0 -348 159 -348 374c0 216 144 373 348 373c113 0 216 -54 265 -133v119l434 -1v-81zM393 71c150 0 260 115 260 290s-110 290 -261 290c-152 0 -263 -117 -263 -289
c0 -173 112 -291 264 -291z" />
    <glyph glyph-name="P" unicode="P" horiz-adv-x="626" 
d="M366 720c142 0 229 -90 229 -229c0 -132 -87 -231 -230 -231h-190v-260h-86v720h86h191zM350 337c101 0 155 67 155 156c0 87 -54 148 -151 148h-179v-304h175z" />
    <glyph glyph-name="Thorn" unicode="&#xde;" horiz-adv-x="622" 
d="M88 0v720h82v-149h150c297 -1 299 -422 0 -422h-150v-149h-82zM170 230h147c187 0 186 262 0 262h-147v-262z" />
    <glyph glyph-name="Q" unicode="Q" horiz-adv-x="777" 
d="M734 360c0 -113 -39 -210 -105 -277l76 -85h-99l-35 39c-51 -31 -113 -49 -182 -49c-205 0 -344 155 -344 372c0 216 139 372 344 372s345 -156 345 -372zM389 72c46 0 88 11 124 31l-112 126h100l70 -80c46 51 73 124 73 211c0 173 -102 289 -255 289
c-152 0 -254 -116 -254 -289c0 -172 101 -288 254 -288z" />
    <glyph glyph-name="R" unicode="R" horiz-adv-x="653" 
d="M606 507c0 -103 -54 -177 -144 -202l144 -305h-97l-134 292h-200v-292h-86v720h275c153 0 242 -80 242 -213zM365 370c99 0 150 53 150 136c0 85 -54 136 -151 136h-189v-272h190z" />
    <glyph glyph-name="Racute" unicode="&#x154;" horiz-adv-x="653" 
d="M410 907l-85 -133h-69l66 133h88zM606 507c0 -103 -54 -177 -144 -202l144 -305h-97l-134 292h-200v-292h-86v720h275c153 0 242 -80 242 -213zM365 370c99 0 150 53 150 136c0 85 -54 136 -151 136h-189v-272h190z" />
    <glyph glyph-name="Rcaron" unicode="&#x158;" horiz-adv-x="653" 
d="M242 774l-80 133h76l52 -82l52 82h76l-80 -133h-96zM606 507c0 -103 -54 -177 -144 -202l144 -305h-97l-134 292h-200v-292h-86v720h275c153 0 242 -80 242 -213zM365 370c99 0 150 53 150 136c0 85 -54 136 -151 136h-189v-272h190z" />
    <glyph glyph-name="Rcommaaccent" unicode="&#x156;" horiz-adv-x="653" 
d="M606 507c0 -103 -54 -177 -144 -202l144 -305h-97l-134 292h-200v-292h-86v720h275c153 0 242 -80 242 -213zM365 370c99 0 150 53 150 136c0 85 -54 136 -151 136h-189v-272h190zM342 -30c30 0 57 -21 57 -68c0 -62 -49 -102 -92 -101v27c23 1 46 22 46 47
c-5 -3 -11 -4 -17 -4c-24 0 -45 17 -45 47c0 31 21 52 51 52z" />
    <glyph glyph-name="S" unicode="S" 
d="M52 529c0 121 94 204 237 204c133 0 219 -72 237 -172l-82 -22c-14 75 -75 115 -157 115c-91 0 -150 -49 -150 -123c0 -62 42 -97 106 -114l122 -31c118 -30 175 -98 175 -192c0 -121 -93 -206 -247 -206c-133 0 -232 64 -251 175l83 23c11 -72 72 -118 169 -118
s160 44 160 122c0 63 -40 100 -106 116l-121 30c-120 30 -175 101 -175 193z" />
    <glyph glyph-name="Sacute" unicode="&#x15a;" 
d="M326 774h-69l66 133h88zM52 529c0 121 94 204 237 204c133 0 219 -72 237 -172l-82 -22c-14 75 -75 115 -157 115c-91 0 -150 -49 -150 -123c0 -62 42 -97 106 -114l122 -31c118 -30 175 -98 175 -192c0 -121 -93 -206 -247 -206c-133 0 -232 64 -251 175l83 23
c11 -72 72 -118 169 -118s160 44 160 122c0 63 -40 100 -106 116l-121 30c-120 30 -175 101 -175 193z" />
    <glyph glyph-name="Scaron" unicode="&#x160;" 
d="M243 774l-80 133h76l52 -82l52 82h76l-80 -133h-96zM365 386c118 -30 175 -98 175 -192c0 -121 -93 -206 -247 -206c-133 0 -232 64 -251 175l83 23c11 -72 72 -118 169 -118s160 44 160 122c0 63 -40 100 -106 116l-121 30c-120 30 -175 101 -175 193
c0 121 94 204 237 204c133 0 219 -72 237 -172l-82 -22c-14 75 -75 115 -157 115c-91 0 -150 -49 -150 -123c0 -62 42 -97 106 -114z" />
    <glyph glyph-name="Scedilla" unicode="&#x15e;" 
d="M540 194c0 -115 -83 -197 -223 -206l-20 -21h37c45 0 67 -36 67 -71c0 -37 -26 -69 -66 -69h-98v48h83c15 0 26 10 26 25c-1 13 -11 22 -26 22h-83v45l20 22c-115 11 -198 73 -215 174l83 23c11 -72 72 -118 169 -118s160 44 160 122c0 63 -40 100 -106 116l-121 30
c-120 30 -175 101 -175 193c0 121 94 204 237 204c133 0 219 -72 237 -172l-82 -22c-14 75 -75 115 -157 115c-91 0 -150 -49 -150 -123c0 -62 42 -97 106 -114l122 -31c118 -30 175 -98 175 -192z" />
    <glyph glyph-name="Scircumflex" unicode="&#x15c;" 
d="M291 856l-52 -82h-76l80 133h80h16l80 -133h-76zM365 386c118 -30 175 -98 175 -192c0 -121 -93 -206 -247 -206c-133 0 -232 64 -251 175l83 23c11 -72 72 -118 169 -118s160 44 160 122c0 63 -40 100 -106 116l-121 30c-120 30 -175 101 -175 193c0 121 94 204 237 204
c133 0 219 -72 237 -172l-82 -22c-14 75 -75 115 -157 115c-91 0 -150 -49 -150 -123c0 -62 42 -97 106 -114z" />
    <glyph glyph-name="Scommaaccent" unicode="&#x218;" 
d="M365 386c118 -30 175 -98 175 -192c0 -121 -93 -206 -247 -206c-133 0 -232 64 -251 175l83 23c11 -72 72 -118 169 -118s160 44 160 122c0 63 -40 100 -106 116l-121 30c-120 30 -175 101 -175 193c0 121 94 204 237 204c133 0 219 -72 237 -172l-82 -22
c-14 75 -75 115 -157 115c-91 0 -150 -49 -150 -123c0 -62 42 -97 106 -114zM290 -35c30 0 57 -21 57 -68c0 -62 -49 -102 -92 -101v27c23 1 46 22 46 47c-5 -3 -11 -4 -17 -4c-24 0 -45 17 -45 47c0 31 21 52 51 52z" />
    <glyph glyph-name="T" unicode="T" horiz-adv-x="550" 
d="M534 720v-81h-215v-639h-86v639h-217v81h518z" />
    <glyph glyph-name="Tbar" unicode="&#x166;" horiz-adv-x="550" 
d="M534 639h-215v-205h149v-75h-149v-359h-86v359h-150v75h150v205h-217v81h518v-81z" />
    <glyph glyph-name="Tcaron" unicode="&#x164;" horiz-adv-x="550" 
d="M227 774l-80 133h76l52 -82l52 82h76l-80 -133h-96zM534 720v-81h-215v-639h-86v639h-217v81h518z" />
    <glyph glyph-name="uni0162" unicode="&#x162;" horiz-adv-x="550" 
d="M303 0v-3l-23 -25h37c45 0 67 -36 67 -71c0 -37 -26 -69 -66 -69h-98v48h83c15 0 26 10 26 25c-1 13 -11 22 -26 22h-83v45l25 28h-12v639h-217v81h518v-81h-215v-639h-16z" />
    <glyph glyph-name="uni021A" unicode="&#x21a;" horiz-adv-x="550" 
d="M16 720h518v-81h-215v-639h-86v639h-217v81zM273 -30c30 0 57 -21 57 -68c0 -62 -49 -102 -92 -101v27c23 1 46 22 46 47c-5 -3 -11 -4 -17 -4c-24 0 -45 17 -45 47c0 31 21 52 51 52z" />
    <glyph glyph-name="U" unicode="U" horiz-adv-x="711" 
d="M80 249v471h87v-469c0 -138 98 -182 189 -182c97 0 189 54 189 182v469h86v-471c0 -180 -132 -262 -275 -262c-136 0 -276 75 -276 262z" />
    <glyph glyph-name="Uacute" unicode="&#xda;" horiz-adv-x="711" 
d="M390 774h-69l66 133h88zM80 249v471h87v-469c0 -138 98 -182 189 -182c97 0 189 54 189 182v469h86v-471c0 -180 -132 -262 -275 -262c-136 0 -276 75 -276 262z" />
    <glyph glyph-name="Ucircumflex" unicode="&#xdb;" horiz-adv-x="711" 
d="M356 856l-52 -82h-76l80 133h80h16l80 -133h-76zM545 720h86v-471c0 -180 -132 -262 -275 -262c-136 0 -276 75 -276 262v471h87v-469c0 -138 98 -182 189 -182c97 0 189 54 189 182v469z" />
    <glyph glyph-name="Udieresis" unicode="&#xdc;" horiz-adv-x="711" 
d="M266 776c-35 0 -63 29 -63 62c0 35 28 64 63 64c33 0 63 -29 63 -64c0 -33 -29 -62 -63 -62zM446 776c-35 0 -63 29 -63 62c0 35 28 64 63 64c33 0 62 -29 62 -64c0 -33 -29 -62 -62 -62zM80 249v471h87v-469c0 -138 98 -182 189 -182c97 0 189 54 189 182v469h86v-471
c0 -180 -132 -262 -275 -262c-136 0 -276 75 -276 262z" />
    <glyph glyph-name="Ugrave" unicode="&#xd9;" horiz-adv-x="711" 
d="M321 774l-86 133h89l66 -133h-69zM80 249v471h87v-469c0 -138 98 -182 189 -182c97 0 189 54 189 182v469h86v-471c0 -180 -132 -262 -275 -262c-136 0 -276 75 -276 262z" />
    <glyph glyph-name="Uhungarumlaut" unicode="&#x170;" horiz-adv-x="711" 
d="M329 774h-69l66 133h88zM452 774h-69l79 133h88zM80 249v471h87v-469c0 -138 98 -182 189 -182c97 0 189 54 189 182v469h86v-471c0 -180 -132 -262 -275 -262c-136 0 -276 75 -276 262z" />
    <glyph glyph-name="Umacron" unicode="&#x16a;" horiz-adv-x="711" 
d="M216 844h280v-62h-280v62zM80 249v471h87v-469c0 -138 98 -182 189 -182c97 0 189 54 189 182v469h86v-471c0 -180 -132 -262 -275 -262c-136 0 -276 75 -276 262z" />
    <glyph glyph-name="Uogonek" unicode="&#x172;" horiz-adv-x="711" 
d="M545 720h86v-471c0 -165 -111 -248 -240 -261c-75 -41 -44 -106 11 -87v-63c-123 -37 -159 99 -69 149c-128 9 -253 86 -253 262v471h87v-469c0 -138 98 -182 189 -182c97 0 189 54 189 182v469z" />
    <glyph glyph-name="Uring" unicode="&#x16e;" horiz-adv-x="711" 
d="M355 769c-62 0 -111 49 -111 112c0 62 51 113 111 113c62 0 113 -52 113 -113s-51 -112 -113 -112zM356 825c32 0 56 24 56 58c0 30 -24 56 -56 56s-56 -25 -56 -56c0 -34 24 -58 56 -58zM80 249v471h87v-469c0 -138 98 -182 189 -182c97 0 189 54 189 182v469h86v-471
c0 -180 -132 -262 -275 -262c-136 0 -276 75 -276 262z" />
    <glyph glyph-name="Utilde" unicode="&#x168;" horiz-adv-x="711" 
d="M204 797c-8 74 32 112 81 112c54 0 90 -45 131 -45c22 0 34 13 32 43h60c6 -73 -34 -110 -86 -110c-57 0 -93 45 -127 45c-19 0 -32 -13 -31 -45h-60zM80 249v471h87v-469c0 -138 98 -182 189 -182c97 0 189 54 189 182v469h86v-471c0 -180 -132 -262 -275 -262
c-136 0 -276 75 -276 262z" />
    <glyph glyph-name="V" unicode="V" horiz-adv-x="665" 
d="M562 720h90l-273 -720h-90l-276 720h93l228 -602z" />
    <glyph glyph-name="W" unicode="W" horiz-adv-x="996" 
d="M889 720h91l-217 -720h-82l-182 574l-185 -574h-83l-214 720h92l165 -579l178 579h93l176 -581z" />
    <glyph glyph-name="Wacute" unicode="&#x1e82;" horiz-adv-x="996" 
d="M619 907l-85 -133h-69l66 133h88zM889 720h91l-217 -720h-82l-182 574l-185 -574h-83l-214 720h92l165 -579l178 579h93l176 -581z" />
    <glyph glyph-name="Wcircumflex" unicode="&#x174;" horiz-adv-x="996" 
d="M500 856l-52 -82h-76l80 133h80h16l80 -133h-76zM889 720h91l-217 -720h-82l-182 574l-185 -574h-83l-214 720h92l165 -579l178 579h93l176 -581z" />
    <glyph glyph-name="Wdieresis" unicode="&#x1e84;" horiz-adv-x="996" 
d="M410 776c-35 0 -63 29 -63 62c0 35 28 64 63 64c33 0 63 -29 63 -64c0 -33 -29 -62 -63 -62zM590 776c-35 0 -63 29 -63 62c0 35 28 64 63 64c33 0 62 -29 62 -64c0 -33 -29 -62 -62 -62zM889 720h91l-217 -720h-82l-182 574l-185 -574h-83l-214 720h92l165 -579l178 579
h93l176 -581z" />
    <glyph glyph-name="Wgrave" unicode="&#x1e80;" horiz-adv-x="996" 
d="M534 774h-69l-86 133h89zM889 720h91l-217 -720h-82l-182 574l-185 -574h-83l-214 720h92l165 -579l178 579h93l176 -581z" />
    <glyph glyph-name="X" unicode="X" horiz-adv-x="645" 
d="M16 720h107l200 -290l199 290h103l-249 -359l253 -361h-109l-197 290l-200 -290h-104l251 359z" />
    <glyph glyph-name="Y" unicode="Y" horiz-adv-x="593" 
d="M10 720h97l191 -340l191 340h94l-242 -422v-298h-86v298z" />
    <glyph glyph-name="Yacute" unicode="&#xdd;" horiz-adv-x="593" 
d="M332 774h-69l66 133h88zM10 720h97l191 -340l191 340h94l-242 -422v-298h-86v298z" />
    <glyph glyph-name="Ycircumflex" unicode="&#x176;" horiz-adv-x="593" 
d="M298 856l-52 -82h-76l80 133h80h16l80 -133h-76zM489 720h94l-242 -422v-298h-86v298l-245 422h97l191 -340z" />
    <glyph glyph-name="Ydieresis" unicode="&#x178;" horiz-adv-x="593" 
d="M208 776c-35 0 -63 29 -63 62c0 35 28 64 63 64c33 0 63 -29 63 -64c0 -33 -29 -62 -63 -62zM388 776c-35 0 -63 29 -63 62c0 35 28 64 63 64c33 0 62 -29 62 -64c0 -33 -29 -62 -62 -62zM10 720h97l191 -340l191 340h94l-242 -422v-298h-86v298z" />
    <glyph glyph-name="Ygrave" unicode="&#x1ef2;" horiz-adv-x="593" 
d="M263 774l-86 133h89l66 -133h-69zM10 720h97l191 -340l191 340h94l-242 -422v-298h-86v298z" />
    <glyph glyph-name="Z" unicode="Z" horiz-adv-x="569" 
d="M527 720v-82l-386 -556h381v-82h-476l-1 82l385 556l-384 -1v83h481z" />
    <glyph glyph-name="Zacute" unicode="&#x179;" horiz-adv-x="569" 
d="M407 907l-85 -133h-69l66 133h88zM527 720v-82l-386 -556h381v-82h-476l-1 82l385 556l-384 -1v83h481z" />
    <glyph glyph-name="Zcaron" unicode="&#x17d;" horiz-adv-x="569" 
d="M239 774l-80 133h76l52 -82l52 82h76l-80 -133h-96zM527 720v-82l-386 -556h381v-82h-476l-1 82l385 556l-384 -1v83h481z" />
    <glyph glyph-name="Zdotaccent" unicode="&#x17b;" horiz-adv-x="569" 
d="M286 777c-34 0 -62 28 -62 62s28 63 62 63s63 -29 63 -63s-29 -62 -63 -62zM527 720v-82l-386 -556h381v-82h-476l-1 82l385 556l-384 -1v83h481z" />
    <glyph glyph-name="G.ss01" horiz-adv-x="769" 
d="M368 381h346v-65c0 -193 -127 -327 -326 -327c-205 0 -346 141 -346 368c0 225 139 375 348 375c147 0 260 -75 310 -192l-85 -33c-41 94 -125 140 -225 140c-154 0 -258 -111 -258 -290c0 -178 102 -284 256 -284c132 0 228 79 236 232h-256v76z" />
    <glyph glyph-name="a" unicode="a" horiz-adv-x="525" 
d="M470 0h-80c-4 15 -6 41 -8 71c-27 -47 -87 -83 -166 -83c-106 0 -177 59 -177 153s70 154 178 154h164v20c0 87 -54 116 -123 116c-72 0 -116 -32 -139 -80l-62 36c39 77 113 113 205 113c108 0 199 -49 199 -189v-213c0 -37 4 -81 9 -98zM381 219v14h-146
c-73 0 -113 -35 -113 -91c0 -59 44 -89 110 -89c90 0 149 60 149 166z" />
    <glyph glyph-name="aacute" unicode="&#xe1;" horiz-adv-x="525" 
d="M379 677l-85 -133h-69l66 133h88zM470 0h-80c-4 15 -6 41 -8 71c-27 -47 -87 -83 -166 -83c-106 0 -177 59 -177 153s70 154 178 154h164v20c0 87 -54 116 -123 116c-72 0 -116 -32 -139 -80l-62 36c39 77 113 113 205 113c108 0 199 -49 199 -189v-213
c0 -37 4 -81 9 -98zM381 219v14h-146c-73 0 -113 -35 -113 -91c0 -59 44 -89 110 -89c90 0 149 60 149 166z" />
    <glyph glyph-name="abreve" unicode="&#x103;" horiz-adv-x="525" 
d="M260 544c-80 0 -141 58 -142 132h71c1 -38 30 -62 71 -62c40 0 69 24 70 62h71c-1 -74 -63 -132 -141 -132zM470 0h-80c-4 15 -6 41 -8 71c-27 -47 -87 -83 -166 -83c-106 0 -177 59 -177 153s70 154 178 154h164v20c0 87 -54 116 -123 116c-72 0 -116 -32 -139 -80
l-62 36c39 77 113 113 205 113c108 0 199 -49 199 -189v-213c0 -37 4 -81 9 -98zM381 219v14h-146c-73 0 -113 -35 -113 -91c0 -59 44 -89 110 -89c90 0 149 60 149 166z" />
    <glyph glyph-name="acircumflex" unicode="&#xe2;" horiz-adv-x="525" 
d="M259 626l-52 -82h-76l80 133h80h16l80 -133h-76zM470 0h-80c-4 15 -6 41 -8 71c-27 -47 -87 -83 -166 -83c-106 0 -177 59 -177 153s70 154 178 154h164v20c0 87 -54 116 -123 116c-72 0 -116 -32 -139 -80l-62 36c39 77 113 113 205 113c108 0 199 -49 199 -189v-213
c0 -37 4 -81 9 -98zM381 219v14h-146c-73 0 -113 -35 -113 -91c0 -59 44 -89 110 -89c90 0 149 60 149 166z" />
    <glyph glyph-name="adieresis" unicode="&#xe4;" horiz-adv-x="525" 
d="M170 546c-35 0 -63 29 -63 62c0 35 28 64 63 64c33 0 63 -29 63 -64c0 -33 -29 -62 -63 -62zM350 546c-35 0 -63 29 -63 62c0 35 28 64 63 64c33 0 62 -29 62 -64c0 -33 -29 -62 -62 -62zM470 0h-80c-4 15 -6 41 -8 71c-27 -47 -87 -83 -166 -83c-106 0 -177 59 -177 153
s70 154 178 154h164v20c0 87 -54 116 -123 116c-72 0 -116 -32 -139 -80l-62 36c39 77 113 113 205 113c108 0 199 -49 199 -189v-213c0 -37 4 -81 9 -98zM381 219v14h-146c-73 0 -113 -35 -113 -91c0 -59 44 -89 110 -89c90 0 149 60 149 166z" />
    <glyph glyph-name="agrave" unicode="&#xe0;" horiz-adv-x="525" 
d="M294 544h-69l-86 133h89zM470 0h-80c-4 15 -6 41 -8 71c-27 -47 -87 -83 -166 -83c-106 0 -177 59 -177 153s70 154 178 154h164v20c0 87 -54 116 -123 116c-72 0 -116 -32 -139 -80l-62 36c39 77 113 113 205 113c108 0 199 -49 199 -189v-213c0 -37 4 -81 9 -98z
M381 219v14h-146c-73 0 -113 -35 -113 -91c0 -59 44 -89 110 -89c90 0 149 60 149 166z" />
    <glyph glyph-name="amacron" unicode="&#x101;" horiz-adv-x="525" 
d="M400 614v-62h-280v62h280zM470 0h-80c-4 15 -6 41 -8 71c-27 -47 -87 -83 -166 -83c-106 0 -177 59 -177 153s70 154 178 154h164v20c0 87 -54 116 -123 116c-72 0 -116 -32 -139 -80l-62 36c39 77 113 113 205 113c108 0 199 -49 199 -189v-213c0 -37 4 -81 9 -98z
M381 219v14h-146c-73 0 -113 -35 -113 -91c0 -59 44 -89 110 -89c90 0 149 60 149 166z" />
    <glyph glyph-name="aogonek" unicode="&#x105;" horiz-adv-x="525" 
d="M470 0c-91 -41 -60 -114 -2 -94v-63c-130 -39 -163 114 -53 157h-25c-4 15 -6 41 -8 71c-27 -47 -87 -83 -166 -83c-106 0 -177 59 -177 153s70 154 178 154h164v20c0 87 -54 116 -123 116c-72 0 -116 -32 -139 -80l-62 36c39 77 113 113 205 113c108 0 199 -49 199 -189
v-213c0 -37 4 -81 9 -98zM381 219v14h-146c-73 0 -113 -35 -113 -91c0 -59 44 -89 110 -89c90 0 149 60 149 166z" />
    <glyph glyph-name="aring" unicode="&#xe5;" horiz-adv-x="525" 
d="M260 539c-62 0 -111 49 -111 112c0 62 51 113 111 113c62 0 113 -52 113 -113s-51 -112 -113 -112zM261 709c-32 0 -56 -25 -56 -56c0 -34 24 -58 56 -58s56 24 56 58c0 30 -24 56 -56 56zM470 0h-80c-4 15 -6 41 -8 71c-27 -47 -87 -83 -166 -83
c-106 0 -177 59 -177 153s70 154 178 154h164v20c0 87 -54 116 -123 116c-72 0 -116 -32 -139 -80l-62 36c39 77 113 113 205 113c108 0 199 -49 199 -189v-213c0 -37 4 -81 9 -98zM381 219v14h-146c-73 0 -113 -35 -113 -91c0 -59 44 -89 110 -89c90 0 149 60 149 166z" />
    <glyph glyph-name="aringacute" unicode="&#x1fb;" horiz-adv-x="525" 
d="M388 816l-83 -126h-68l65 126h86zM470 0h-80c-4 15 -6 41 -8 71c-27 -47 -87 -83 -166 -83c-106 0 -177 59 -177 153s70 154 178 154h164v20c0 87 -54 116 -123 116c-72 0 -116 -32 -139 -80l-62 36c27 53 70 86 124 102c-14 19 -23 43 -23 69c0 62 51 114 112 114
c62 0 112 -53 112 -114c0 -28 -10 -53 -27 -73c62 -24 106 -77 106 -174v-213c0 -37 4 -81 9 -98zM270 616c-32 0 -56 -25 -56 -56c0 -34 24 -58 56 -58s57 24 57 58c0 30 -25 56 -57 56zM381 219v14h-146c-73 0 -113 -35 -113 -91c0 -59 44 -89 110 -89
c90 0 149 60 149 166z" />
    <glyph glyph-name="atilde" unicode="&#xe3;" horiz-adv-x="525" 
d="M167 567h-60c-8 74 32 112 81 112c54 0 90 -45 131 -45c22 0 34 13 32 43h60c6 -73 -34 -110 -86 -110c-57 0 -93 45 -127 45c-19 0 -32 -13 -31 -45zM470 0h-80c-4 15 -6 41 -8 71c-27 -47 -87 -83 -166 -83c-106 0 -177 59 -177 153s70 154 178 154h164v20
c0 87 -54 116 -123 116c-72 0 -116 -32 -139 -80l-62 36c39 77 113 113 205 113c108 0 199 -49 199 -189v-213c0 -37 4 -81 9 -98zM381 219v14h-146c-73 0 -113 -35 -113 -91c0 -59 44 -89 110 -89c90 0 149 60 149 166z" />
    <glyph glyph-name="ae" unicode="&#xe6;" horiz-adv-x="897" 
d="M857 255v-42h-393c8 -101 74 -153 159 -153c70 0 122 36 150 90l64 -33c-41 -86 -125 -129 -217 -129c-90 0 -160 42 -195 111c-30 -72 -102 -111 -188 -111c-102 0 -186 50 -186 149c0 87 63 140 148 140h142c29 0 36 15 36 37c0 81 -56 115 -115 116
c-64 1 -115 -31 -143 -82l-61 35c39 72 117 117 199 117c80 0 145 -37 172 -101c38 64 107 101 192 101c142 0 236 -98 236 -245zM464 275h309c-1 95 -66 155 -154 155s-147 -58 -155 -155zM380 195v19h-163c-52 0 -82 -31 -82 -77c0 -61 55 -82 109 -82
c99 0 134 67 136 140z" />
    <glyph glyph-name="aeacute" unicode="&#x1fd;" horiz-adv-x="897" 
d="M563 677l-85 -133h-69l66 133h88zM857 255v-42h-393c8 -101 74 -153 159 -153c70 0 122 36 150 90l64 -33c-41 -86 -125 -129 -217 -129c-90 0 -160 42 -195 111c-30 -72 -102 -111 -188 -111c-102 0 -186 50 -186 149c0 87 63 140 148 140h142c29 0 36 15 36 37
c0 81 -56 115 -115 116c-64 1 -115 -31 -143 -82l-61 35c39 72 117 117 199 117c80 0 145 -37 172 -101c38 64 107 101 192 101c142 0 236 -98 236 -245zM464 275h309c-1 95 -66 155 -154 155s-147 -58 -155 -155zM380 195v19h-163c-52 0 -82 -31 -82 -77
c0 -61 55 -82 109 -82c99 0 134 67 136 140z" />
    <glyph glyph-name="b" unicode="b" horiz-adv-x="602" 
d="M333 500c140 0 231 -104 231 -258c-1 -151 -90 -254 -231 -254c-85 0 -150 39 -181 97l-4 -85h-73v733h79v-328c36 64 105 95 179 95zM321 63c99 0 160 74 160 181s-61 182 -160 182c-100 0 -161 -75 -161 -182s61 -181 161 -181z" />
    <glyph glyph-name="c" unicode="c" horiz-adv-x="545" 
d="M40 243c0 154 96 257 244 257c110 0 189 -58 221 -143l-73 -29c-22 62 -80 98 -148 98c-97 0 -161 -73 -161 -183s65 -181 161 -181c68 0 125 36 149 97l72 -28c-38 -93 -123 -143 -222 -143c-147 0 -243 102 -243 255z" />
    <glyph glyph-name="cacute" unicode="&#x107;" horiz-adv-x="545" 
d="M310 544h-69l66 133h88zM40 243c0 154 96 257 244 257c110 0 189 -58 221 -143l-73 -29c-22 62 -80 98 -148 98c-97 0 -161 -73 -161 -183s65 -181 161 -181c68 0 125 36 149 97l72 -28c-38 -93 -123 -143 -222 -143c-147 0 -243 102 -243 255z" />
    <glyph glyph-name="ccaron" unicode="&#x10d;" horiz-adv-x="545" 
d="M227 544l-80 133h76l52 -82l52 82h76l-80 -133h-96zM284 62c68 0 125 36 149 97l72 -28c-38 -93 -123 -143 -222 -143c-147 0 -243 102 -243 255c0 154 96 257 244 257c110 0 189 -58 221 -143l-73 -29c-22 62 -80 98 -148 98c-97 0 -161 -73 -161 -183s65 -181 161 -181
z" />
    <glyph glyph-name="ccedilla" unicode="&#xe7;" horiz-adv-x="545" 
d="M284 62c68 0 125 36 149 97l72 -28c-35 -86 -110 -135 -199 -142l-17 -21h36c46 0 67 -36 67 -71c0 -37 -25 -69 -66 -69h-97v47h82c16 0 26 11 26 25c-1 14 -10 23 -26 23h-82v45l17 22c-126 16 -206 113 -206 253c0 154 96 257 244 257c110 0 189 -58 221 -143l-73 -29
c-22 62 -80 98 -148 98c-97 0 -161 -73 -161 -183s65 -181 161 -181z" />
    <glyph glyph-name="ccircumflex" unicode="&#x109;" horiz-adv-x="545" 
d="M275 626l-52 -82h-76l80 133h80h16l80 -133h-76zM284 62c68 0 125 36 149 97l72 -28c-38 -93 -123 -143 -222 -143c-147 0 -243 102 -243 255c0 154 96 257 244 257c110 0 189 -58 221 -143l-73 -29c-22 62 -80 98 -148 98c-97 0 -161 -73 -161 -183s65 -181 161 -181z
" />
    <glyph glyph-name="cdotaccent" unicode="&#x10b;" horiz-adv-x="545" 
d="M274 547c-34 0 -62 28 -62 62s28 63 62 63s63 -29 63 -63s-29 -62 -63 -62zM40 243c0 154 96 257 244 257c110 0 189 -58 221 -143l-73 -29c-22 62 -80 98 -148 98c-97 0 -161 -73 -161 -183s65 -181 161 -181c68 0 125 36 149 97l72 -28c-38 -93 -123 -143 -222 -143
c-147 0 -243 102 -243 255z" />
    <glyph glyph-name="d" unicode="d" horiz-adv-x="606" 
d="M540 0h-82c-4 27 -7 53 -8 82c-34 -62 -101 -94 -177 -94c-142 0 -233 100 -233 255c0 150 91 257 234 257c72 0 140 -30 176 -91v324h81v-619c1 -36 4 -93 9 -114zM283 62c100 0 161 74 161 182c0 107 -61 182 -161 182c-99 0 -160 -75 -160 -182
c0 -108 61 -182 160 -182z" />
    <glyph glyph-name="eth" unicode="&#xf0;" horiz-adv-x="616" 
d="M404 674c111 -101 172 -254 172 -390c0 -185 -113 -296 -272 -296c-169 0 -264 123 -264 266c0 156 118 261 258 261c65 0 120 -19 160 -56c-30 82 -73 132 -111 166l-71 -65l-43 49l63 59c-22 19 -55 40 -89 58l45 58c34 -19 77 -45 103 -66l64 57l44 -49zM306 66
c120 0 184 91 184 188c0 103 -72 182 -181 182c-111 0 -186 -82 -186 -187c0 -98 68 -183 183 -183z" />
    <glyph glyph-name="dcaron" unicode="&#x10f;" horiz-adv-x="709" 
d="M628 737c20 0 39 -14 36 -42l-15 -169h-42l-16 169c-2 28 18 42 37 42zM529 733v-619c0 -36 4 -93 8 -114h-82c-4 27 -7 53 -8 82c-35 -61 -101 -94 -177 -94c-142 0 -233 100 -233 255c0 150 91 257 233 257c73 0 142 -30 177 -90v323h82zM280 62c100 0 161 75 161 183
c0 106 -61 181 -161 181c-99 0 -160 -74 -160 -181c0 -108 61 -183 160 -183z" />
    <glyph glyph-name="dcroat" unicode="&#x111;" horiz-adv-x="606" 
d="M599 568h-68v-454c1 -36 4 -93 9 -114h-82c-4 27 -7 53 -8 82c-34 -62 -101 -94 -177 -94c-142 0 -233 100 -233 255c0 150 91 257 234 257c72 0 140 -30 176 -91v159h-176v71h176v94h81v-94h68v-71zM283 62c100 0 161 74 161 182c0 107 -61 182 -161 182
c-99 0 -160 -75 -160 -182c0 -108 61 -182 160 -182z" />
    <glyph glyph-name="e" unicode="e" horiz-adv-x="553" 
d="M513 244v-37h-393c8 -102 76 -148 157 -148c72 0 121 37 147 92l69 -29c-39 -86 -120 -134 -218 -134c-140 0 -235 100 -235 254c0 151 92 258 238 258c141 0 235 -100 235 -256zM277 430c-89 0 -149 -59 -157 -162h308c-4 108 -64 162 -151 162z" />
    <glyph glyph-name="eacute" unicode="&#xe9;" horiz-adv-x="553" 
d="M397 677l-85 -133h-69l66 133h88zM513 244v-37h-393c8 -102 76 -148 157 -148c72 0 121 37 147 92l69 -29c-39 -86 -120 -134 -218 -134c-140 0 -235 100 -235 254c0 151 92 258 238 258c141 0 235 -100 235 -256zM277 430c-89 0 -149 -59 -157 -162h308
c-4 108 -64 162 -151 162z" />
    <glyph glyph-name="ebreve" unicode="&#x115;" horiz-adv-x="553" 
d="M278 544c-80 0 -142 58 -142 134h71c0 -40 29 -64 71 -64c41 0 70 25 70 64h71c0 -75 -62 -134 -141 -134zM513 244v-37h-393c8 -102 76 -148 157 -148c72 0 121 37 147 92l69 -29c-39 -86 -120 -134 -218 -134c-140 0 -235 100 -235 254c0 151 92 258 238 258
c141 0 235 -100 235 -256zM277 430c-89 0 -149 -59 -157 -162h308c-4 108 -64 162 -151 162z" />
    <glyph glyph-name="ecaron" unicode="&#x11b;" horiz-adv-x="553" 
d="M229 544l-80 133h76l52 -82l52 82h76l-80 -133h-96zM513 244v-37h-393c8 -102 76 -148 157 -148c72 0 121 37 147 92l69 -29c-39 -86 -120 -134 -218 -134c-140 0 -235 100 -235 254c0 151 92 258 238 258c141 0 235 -100 235 -256zM277 430c-89 0 -149 -59 -157 -162
h308c-4 108 -64 162 -151 162z" />
    <glyph glyph-name="ecircumflex" unicode="&#xea;" horiz-adv-x="553" 
d="M277 626l-52 -82h-76l80 133h80h16l80 -133h-76zM513 244v-37h-393c8 -102 76 -148 157 -148c72 0 121 37 147 92l69 -29c-39 -86 -120 -134 -218 -134c-140 0 -235 100 -235 254c0 151 92 258 238 258c141 0 235 -100 235 -256zM277 430c-89 0 -149 -59 -157 -162h308
c-4 108 -64 162 -151 162z" />
    <glyph glyph-name="edieresis" unicode="&#xeb;" horiz-adv-x="553" 
d="M187 537c-35 0 -63 28 -63 62s28 63 63 63c33 0 63 -29 63 -63s-29 -62 -63 -62zM367 537c-35 0 -63 28 -63 62s28 63 63 63c33 0 62 -29 62 -63s-29 -62 -62 -62zM513 244v-37h-393c8 -102 76 -148 157 -148c72 0 121 37 147 92l69 -29c-39 -86 -120 -134 -218 -134
c-140 0 -235 100 -235 254c0 151 92 258 238 258c141 0 235 -100 235 -256zM277 430c-89 0 -149 -59 -157 -162h308c-4 108 -64 162 -151 162z" />
    <glyph glyph-name="edotaccent" unicode="&#x117;" horiz-adv-x="553" 
d="M277 547c-34 0 -62 28 -62 62s28 63 62 63s63 -29 63 -63s-29 -62 -63 -62zM513 244v-37h-393c8 -102 76 -148 157 -148c72 0 121 37 147 92l69 -29c-39 -86 -120 -134 -218 -134c-140 0 -235 100 -235 254c0 151 92 258 238 258c141 0 235 -100 235 -256zM277 430
c-89 0 -149 -59 -157 -162h308c-4 108 -64 162 -151 162z" />
    <glyph glyph-name="egrave" unicode="&#xe8;" horiz-adv-x="553" 
d="M311 544h-69l-86 133h89zM513 244v-37h-393c8 -102 76 -148 157 -148c72 0 121 37 147 92l69 -29c-39 -86 -120 -134 -218 -134c-140 0 -235 100 -235 254c0 151 92 258 238 258c141 0 235 -100 235 -256zM277 430c-89 0 -149 -59 -157 -162h308c-4 108 -64 162 -151 162
z" />
    <glyph glyph-name="emacron" unicode="&#x113;" horiz-adv-x="553" 
d="M417 614v-62h-280v62h280zM513 244v-37h-393c8 -102 76 -148 157 -148c72 0 121 37 147 92l69 -29c-39 -86 -120 -134 -218 -134c-140 0 -235 100 -235 254c0 151 92 258 238 258c141 0 235 -100 235 -256zM277 430c-89 0 -149 -59 -157 -162h308
c-4 108 -64 162 -151 162z" />
    <glyph glyph-name="eogonek" unicode="&#x119;" horiz-adv-x="553" 
d="M513 244v-37h-393c8 -102 76 -148 157 -148c72 0 121 37 147 92l69 -29c-34 -74 -99 -120 -179 -132c-79 -41 -48 -108 8 -89v-63c-124 -37 -160 100 -67 150c-129 10 -215 108 -215 254c0 151 92 258 238 258c141 0 235 -100 235 -256zM277 430
c-89 0 -149 -59 -157 -162h308c-4 108 -64 162 -151 162z" />
    <glyph glyph-name="f" unicode="f" horiz-adv-x="320" 
d="M294 654c-92 16 -119 -20 -119 -82v-85h115v-68h-115v-419h-82v419h-73v68h73v85c0 115 67 161 151 161c12 0 26 -1 50 -6v-73z" />
    <glyph glyph-name="g" unicode="g" horiz-adv-x="535" 
d="M353 54c103 0 163 -53 163 -137c0 -113 -115 -148 -246 -149c-116 -1 -242 23 -242 128c0 47 27 86 70 105c-29 16 -48 43 -48 79c0 34 17 76 67 91c-38 34 -61 81 -61 138c0 111 85 191 211 191c43 0 82 -10 114 -27c23 40 68 64 127 59v-71c-34 4 -62 -5 -81 -24
c31 -33 49 -77 49 -128c0 -111 -84 -189 -209 -189c-34 0 -66 6 -94 17c-36 0 -53 -17 -53 -42c0 -20 12 -41 53 -41h180zM266 433c-80 0 -130 -55 -130 -125c0 -69 50 -122 131 -121c83 0 129 55 129 121c0 68 -48 125 -130 125zM266 -162c95 0 169 12 169 78
c0 46 -36 69 -92 69h-174h-8c-43 -9 -61 -39 -61 -70c0 -71 92 -77 166 -77z" />
    <glyph glyph-name="gbreve" unicode="&#x11f;" horiz-adv-x="535" 
d="M279 544c-80 0 -142 58 -142 134h71c0 -40 29 -64 71 -64c41 0 70 25 70 64h71c0 -75 -62 -134 -141 -134zM353 54c103 0 163 -53 163 -137c0 -113 -115 -148 -246 -149c-116 -1 -242 23 -242 128c0 47 27 86 70 105c-29 16 -48 43 -48 79c0 34 17 76 67 91
c-38 34 -61 81 -61 138c0 111 85 191 211 191c43 0 82 -10 114 -27c23 40 68 64 127 59v-71c-34 4 -62 -5 -81 -24c31 -33 49 -77 49 -128c0 -111 -84 -189 -209 -189c-34 0 -66 6 -94 17c-36 0 -53 -17 -53 -42c0 -20 12 -41 53 -41h180zM266 433c-80 0 -130 -55 -130 -125
c0 -69 50 -122 131 -121c83 0 129 55 129 121c0 68 -48 125 -130 125zM266 -162c95 0 169 12 169 78c0 46 -36 69 -92 69h-174h-8c-43 -9 -61 -39 -61 -70c0 -71 92 -77 166 -77z" />
    <glyph glyph-name="gcircumflex" unicode="&#x11d;" horiz-adv-x="535" 
d="M263 633l-53 -78h-76l80 125h80h17l79 -125h-75zM353 54c103 0 163 -53 163 -137c0 -113 -115 -148 -246 -149c-116 -1 -242 23 -242 128c0 47 27 86 70 105c-29 16 -48 43 -48 79c0 34 17 76 67 91c-38 34 -61 81 -61 138c0 111 85 191 211 191c43 0 82 -10 114 -27
c23 40 68 64 127 59v-71c-34 4 -62 -5 -81 -24c31 -33 49 -77 49 -128c0 -111 -84 -189 -209 -189c-34 0 -66 6 -94 17c-36 0 -53 -17 -53 -42c0 -20 12 -41 53 -41h180zM266 433c-80 0 -130 -55 -130 -125c0 -69 50 -122 131 -121c83 0 129 55 129 121
c0 68 -48 125 -130 125zM266 -162c95 0 169 12 169 78c0 46 -36 69 -92 69h-174h-8c-43 -9 -61 -39 -61 -70c0 -71 92 -77 166 -77z" />
    <glyph glyph-name="gcommaaccent" unicode="&#x123;" horiz-adv-x="535" 
d="M397 677l-85 -133h-69l66 133h88zM353 54c103 0 163 -53 163 -137c0 -113 -115 -148 -246 -149c-116 -1 -242 23 -242 128c0 47 27 86 70 105c-29 16 -48 43 -48 79c0 34 17 76 67 91c-38 34 -61 81 -61 138c0 111 85 191 211 191c43 0 82 -10 114 -27
c23 40 68 64 127 59v-71c-34 4 -62 -5 -81 -24c31 -33 49 -77 49 -128c0 -111 -84 -189 -209 -189c-34 0 -66 6 -94 17c-36 0 -53 -17 -53 -42c0 -20 12 -41 53 -41h180zM266 433c-80 0 -130 -55 -130 -125c0 -69 50 -122 131 -121c83 0 129 55 129 121
c0 68 -48 125 -130 125zM266 -162c95 0 169 12 169 78c0 46 -36 69 -92 69h-174h-8c-43 -9 -61 -39 -61 -70c0 -71 92 -77 166 -77z" />
    <glyph glyph-name="gdotaccent" unicode="&#x121;" horiz-adv-x="535" 
d="M277 547c-34 0 -62 28 -62 62s28 63 62 63s63 -29 63 -63s-29 -62 -63 -62zM353 54c103 0 163 -53 163 -137c0 -113 -115 -148 -246 -149c-116 -1 -242 23 -242 128c0 47 27 86 70 105c-29 16 -48 43 -48 79c0 34 17 76 67 91c-38 34 -61 81 -61 138
c0 111 85 191 211 191c43 0 82 -10 114 -27c23 40 68 64 127 59v-71c-34 4 -62 -5 -81 -24c31 -33 49 -77 49 -128c0 -111 -84 -189 -209 -189c-34 0 -66 6 -94 17c-36 0 -53 -17 -53 -42c0 -20 12 -41 53 -41h180zM266 433c-80 0 -130 -55 -130 -125
c0 -69 50 -122 131 -121c83 0 129 55 129 121c0 68 -48 125 -130 125zM266 -162c95 0 169 12 169 78c0 46 -36 69 -92 69h-174h-8c-43 -9 -61 -39 -61 -70c0 -71 92 -77 166 -77z" />
    <glyph glyph-name="h" unicode="h" horiz-adv-x="581" 
d="M315 500c112 0 200 -58 200 -208v-292h-82v275c0 120 -63 150 -133 150c-75 0 -145 -55 -145 -156v-268h-82v732h83v-313c30 48 89 80 159 80z" />
    <glyph glyph-name="hbar" unicode="&#x127;" horiz-adv-x="581" 
d="M315 500c112 0 200 -58 200 -208v-292h-82v275c0 120 -63 150 -133 150c-75 0 -145 -55 -145 -156v-268h-82v579h-59v50h59v103h83v-103h161v-50h-161v-160c30 48 89 80 159 80z" />
    <glyph glyph-name="i" unicode="i" horiz-adv-x="235" 
d="M118 601c-35 0 -61 26 -61 61s26 62 61 62s62 -27 62 -62s-27 -61 -62 -61zM77 487h83v-487h-83v487z" />
    <glyph glyph-name="dotlessi" unicode="&#x131;" horiz-adv-x="197" 
d="M57 487h83v-487h-83v487z" />
    <glyph glyph-name="iacute" unicode="&#xed;" horiz-adv-x="197" 
d="M133 544h-69l66 133h88zM57 487h83v-487h-83v487z" />
    <glyph glyph-name="icircumflex" unicode="&#xee;" horiz-adv-x="197" 
d="M146 677l80 -133h-76l-52 82l-52 -82h-76l80 133h80h16zM57 0v487h83v-487h-83z" />
    <glyph glyph-name="idieresis" unicode="&#xef;" horiz-adv-x="197" 
d="M9 546c-35 0 -63 29 -63 62c0 35 28 64 63 64c33 0 63 -29 63 -64c0 -33 -29 -62 -63 -62zM189 546c-35 0 -63 29 -63 62c0 35 28 64 63 64c33 0 62 -29 62 -64c0 -33 -29 -62 -62 -62zM57 487h83v-487h-83v487z" />
    <glyph glyph-name="i.loclTRK" horiz-adv-x="197" 
d="M98 547c-34 0 -62 28 -62 62s28 63 62 63s63 -29 63 -63s-29 -62 -63 -62zM57 487h83v-487h-83v487z" />
    <glyph glyph-name="igrave" unicode="&#xec;" horiz-adv-x="197" 
d="M64 544l-86 133h89l66 -133h-69zM57 487h83v-487h-83v487z" />
    <glyph glyph-name="imacron" unicode="&#x12b;" horiz-adv-x="197" 
d="M-41 614h280v-62h-280v62zM57 487h83v-487h-83v487z" />
    <glyph glyph-name="iogonek" unicode="&#x12f;" horiz-adv-x="197" 
d="M98 672c34 0 63 -29 63 -63s-29 -62 -63 -62s-62 28 -62 62s28 63 62 63zM140 0c-91 -41 -60 -114 -2 -94v-63c-130 -39 -163 114 -53 157h-28v487h83v-487z" />
    <glyph glyph-name="itilde" unicode="&#x129;" horiz-adv-x="197" 
d="M-54 567c-8 74 32 112 81 112c54 0 90 -45 131 -45c22 0 34 13 32 43h60c6 -73 -34 -110 -86 -110c-57 0 -93 45 -127 45c-19 0 -32 -13 -31 -45h-60zM57 487h83v-487h-83v487z" />
    <glyph glyph-name="j" unicode="j" horiz-adv-x="256" 
d="M131 601c-35 0 -61 26 -61 61s26 62 61 62s62 -27 62 -62s-27 -61 -62 -61zM-52 -212l17 72c75 -25 125 -1 125 75v552h82v-550c0 -125 -85 -192 -224 -149z" />
    <glyph glyph-name="uni0237" unicode="&#x237;" horiz-adv-x="243" 
d="M-45 -213l17 73c82 -25 125 6 125 75l-1 551h84v-559c0 -115 -78 -184 -225 -140z" />
    <glyph glyph-name="jcircumflex" unicode="&#x135;" horiz-adv-x="243" 
d="M186 677l80 -133h-76l-52 82l-52 -82h-76l80 133h80h16zM97 -65l-1 551h84v-559c0 -115 -78 -184 -225 -140l17 73c82 -25 125 6 125 75z" />
    <glyph glyph-name="k" unicode="k" horiz-adv-x="500" 
d="M156 0h-83v733h83v-483l227 237h104l-205 -215l201 -272h-99l-157 216l-71 -74v-142z" />
    <glyph glyph-name="kcommaaccent" unicode="&#x137;" horiz-adv-x="500" 
d="M487 487l-205 -215l201 -272h-99l-157 216l-71 -74v-142h-83v733h83v-483l227 237h104zM256 -30c30 0 57 -21 57 -68c0 -62 -49 -102 -92 -101v27c23 1 46 22 46 47c-5 -3 -11 -4 -17 -4c-24 0 -45 17 -45 47c0 31 21 52 51 52z" />
    <glyph glyph-name="l" unicode="l" horiz-adv-x="227" 
d="M73 0v733h83v-733h-83z" />
    <glyph glyph-name="lacute" unicode="&#x13a;" horiz-adv-x="227" 
d="M149 773h-69l66 133h88zM73 0v733h83v-733h-83z" />
    <glyph glyph-name="lcaron" unicode="&#x13e;" horiz-adv-x="227" 
d="M73 0v733h83v-733h-83z" />
    <glyph glyph-name="lcommaaccent" unicode="&#x13c;" horiz-adv-x="227" 
d="M156 733v-733h-83v733h83zM113 -35c30 0 57 -21 57 -68c0 -62 -49 -102 -92 -101v27c23 1 46 22 46 47c-5 -3 -11 -4 -17 -4c-24 0 -45 17 -45 47c0 31 21 52 51 52z" />
    <glyph glyph-name="ldot" unicode="&#x140;" horiz-adv-x="386" 
d="M73 0v733h83v-733h-83zM280 300c-38 0 -71 31 -71 69s32 70 71 70c38 0 70 -32 70 -70s-32 -69 -70 -69z" />
    <glyph glyph-name="lslash" unicode="&#x142;" horiz-adv-x="243" 
d="M223 474v-64l-57 -27v-383h-82v344l-64 -31v64l64 30v326h82v-286z" />
    <glyph glyph-name="m" unicode="m" horiz-adv-x="857" 
d="M614 500c103 0 176 -67 176 -186v-314h-79v302c0 80 -44 126 -114 126c-75 0 -123 -55 -123 -132v-296h-81v303c0 79 -44 125 -114 125c-75 0 -123 -55 -123 -131v-297h-83v487h76l4 -54c28 44 82 67 143 67c73 0 131 -34 157 -94c25 58 84 94 161 94z" />
    <glyph glyph-name="n" unicode="n" horiz-adv-x="571" 
d="M313 500c107 0 192 -60 192 -202v-298h-82v286c0 112 -70 139 -126 139c-82 0 -142 -55 -142 -150v-274h-82v486h77l3 -65c29 47 88 78 160 78z" />
    <glyph glyph-name="nacute" unicode="&#x144;" horiz-adv-x="571" 
d="M411 677l-85 -133h-69l66 133h88zM313 500c107 0 192 -60 192 -202v-298h-82v286c0 112 -70 139 -126 139c-82 0 -142 -55 -142 -150v-274h-82v486h77l3 -65c29 47 88 78 160 78z" />
    <glyph glyph-name="ncaron" unicode="&#x148;" horiz-adv-x="571" 
d="M243 544l-80 133h76l52 -82l52 82h76l-80 -133h-96zM313 500c107 0 192 -60 192 -202v-298h-82v286c0 112 -70 139 -126 139c-82 0 -142 -55 -142 -150v-274h-82v486h77l3 -65c29 47 88 78 160 78z" />
    <glyph glyph-name="ncommaaccent" unicode="&#x146;" horiz-adv-x="571" 
d="M313 500c107 0 192 -60 192 -202v-298h-82v286c0 112 -70 139 -126 139c-82 0 -142 -55 -142 -150v-274h-82v486h77l3 -65c29 47 88 78 160 78zM287 -30c30 0 57 -21 57 -68c0 -62 -49 -102 -92 -101v27c23 1 46 22 46 47c-5 -3 -11 -4 -17 -4c-24 0 -45 17 -45 47
c0 31 21 52 51 52z" />
    <glyph glyph-name="eng" unicode="&#x14b;" horiz-adv-x="574" 
d="M314 499c91 0 193 -45 193 -202v-339c0 -110 -91 -145 -168 -120v60c45 -11 87 6 87 63v325c0 112 -70 139 -128 139c-81 0 -142 -55 -142 -150v-274h-80v486h75l3 -66c30 49 90 78 160 78z" />
    <glyph glyph-name="ntilde" unicode="&#xf1;" horiz-adv-x="571" 
d="M199 567h-60c-8 74 32 112 81 112c54 0 90 -45 131 -45c22 0 34 13 32 43h60c6 -73 -34 -110 -86 -110c-57 0 -93 45 -127 45c-19 0 -32 -13 -31 -45zM313 500c107 0 192 -60 192 -202v-298h-82v286c0 112 -70 139 -126 139c-82 0 -142 -55 -142 -150v-274h-82v486h77
l3 -65c29 47 88 78 160 78z" />
    <glyph glyph-name="o" unicode="o" horiz-adv-x="574" 
d="M40 244c0 144 99 256 247 256c149 0 247 -112 247 -256c0 -145 -98 -256 -247 -256c-148 0 -247 111 -247 256zM124 244c0 -105 64 -182 163 -182c100 0 164 77 164 182c0 104 -64 182 -164 182c-99 0 -163 -78 -163 -182z" />
    <glyph glyph-name="oacute" unicode="&#xf3;" horiz-adv-x="574" 
d="M322 544h-69l66 133h88zM40 244c0 144 99 256 247 256c149 0 247 -112 247 -256c0 -145 -98 -256 -247 -256c-148 0 -247 111 -247 256zM124 244c0 -105 64 -182 163 -182c100 0 164 77 164 182c0 104 -64 182 -164 182c-99 0 -163 -78 -163 -182z" />
    <glyph glyph-name="ocircumflex" unicode="&#xf4;" horiz-adv-x="574" 
d="M287 626l-52 -82h-76l80 133h80h16l80 -133h-76zM287 500c149 0 247 -112 247 -256c0 -145 -98 -256 -247 -256c-148 0 -247 111 -247 256c0 144 99 256 247 256zM287 62c100 0 164 77 164 182c0 104 -64 182 -164 182c-99 0 -163 -78 -163 -182c0 -105 64 -182 163 -182
z" />
    <glyph glyph-name="odieresis" unicode="&#xf6;" horiz-adv-x="574" 
d="M198 546c-35 0 -63 29 -63 62c0 35 28 64 63 64c33 0 63 -29 63 -64c0 -33 -29 -62 -63 -62zM378 546c-35 0 -63 29 -63 62c0 35 28 64 63 64c33 0 62 -29 62 -64c0 -33 -29 -62 -62 -62zM40 244c0 144 99 256 247 256c149 0 247 -112 247 -256
c0 -145 -98 -256 -247 -256c-148 0 -247 111 -247 256zM124 244c0 -105 64 -182 163 -182c100 0 164 77 164 182c0 104 -64 182 -164 182c-99 0 -163 -78 -163 -182z" />
    <glyph glyph-name="ograve" unicode="&#xf2;" horiz-adv-x="574" 
d="M252 544l-86 133h89l66 -133h-69zM40 244c0 144 99 256 247 256c149 0 247 -112 247 -256c0 -145 -98 -256 -247 -256c-148 0 -247 111 -247 256zM124 244c0 -105 64 -182 163 -182c100 0 164 77 164 182c0 104 -64 182 -164 182c-99 0 -163 -78 -163 -182z" />
    <glyph glyph-name="ohungarumlaut" unicode="&#x151;" horiz-adv-x="574" 
d="M260 552h-69l66 133h88zM383 552h-69l80 133h88zM40 244c0 144 99 256 247 256c149 0 247 -112 247 -256c0 -145 -98 -256 -247 -256c-148 0 -247 111 -247 256zM124 244c0 -105 64 -182 163 -182c100 0 164 77 164 182c0 104 -64 182 -164 182c-99 0 -163 -78 -163 -182
z" />
    <glyph glyph-name="omacron" unicode="&#x14d;" horiz-adv-x="574" 
d="M147 614h280v-62h-280v62zM40 244c0 144 99 256 247 256c149 0 247 -112 247 -256c0 -145 -98 -256 -247 -256c-148 0 -247 111 -247 256zM124 244c0 -105 64 -182 163 -182c100 0 164 77 164 182c0 104 -64 182 -164 182c-99 0 -163 -78 -163 -182z" />
    <glyph glyph-name="oslash" unicode="&#xf8;" horiz-adv-x="574" 
d="M449 442c54 -46 85 -117 85 -198c0 -145 -98 -256 -247 -256c-38 0 -74 7 -105 21l-36 -59h-76l58 93c-56 46 -88 118 -88 201c0 144 99 256 247 256c41 0 78 -9 110 -24l32 52h73zM124 244c0 -54 16 -100 46 -133l186 300c-20 10 -43 15 -69 15
c-99 0 -163 -78 -163 -182zM287 62c100 0 164 77 164 182c0 52 -16 97 -44 129l-184 -299c19 -8 41 -12 64 -12z" />
    <glyph glyph-name="oslashacute" unicode="&#x1ff;" horiz-adv-x="574" 
d="M407 677l-85 -133h-69l66 133h88zM449 442c54 -46 85 -117 85 -198c0 -145 -98 -256 -247 -256c-38 0 -74 7 -105 21l-36 -59h-76l58 93c-56 46 -88 118 -88 201c0 144 99 256 247 256c41 0 78 -9 110 -24l32 52h73zM124 244c0 -54 16 -100 46 -133l186 300
c-20 10 -43 15 -69 15c-99 0 -163 -78 -163 -182zM287 62c100 0 164 77 164 182c0 52 -16 97 -44 129l-184 -299c19 -8 41 -12 64 -12z" />
    <glyph glyph-name="otilde" unicode="&#xf5;" horiz-adv-x="574" 
d="M135 567c-8 74 32 112 81 112c54 0 90 -45 131 -45c22 0 34 13 32 43h60c6 -73 -34 -110 -86 -110c-57 0 -93 45 -127 45c-19 0 -32 -13 -31 -45h-60zM40 244c0 144 99 256 247 256c149 0 247 -112 247 -256c0 -145 -98 -256 -247 -256c-148 0 -247 111 -247 256z
M124 244c0 -105 64 -182 163 -182c100 0 164 77 164 182c0 104 -64 182 -164 182c-99 0 -163 -78 -163 -182z" />
    <glyph glyph-name="oe" unicode="&#x153;" horiz-adv-x="961" 
d="M921 244v-39h-387c11 -100 77 -145 155 -145c71 0 122 36 148 90l65 -33c-39 -81 -118 -129 -216 -129c-92 0 -166 45 -200 116c-36 -70 -110 -116 -202 -116c-145 0 -244 111 -244 256c0 144 99 256 244 256c95 0 167 -47 204 -116c35 72 107 116 200 116
c139 0 233 -98 233 -256zM534 268h304c-2 102 -65 162 -152 162c-88 0 -149 -65 -152 -162zM288 62c99 0 163 77 163 182c0 104 -64 182 -163 182c-100 0 -164 -78 -164 -182c0 -105 64 -182 164 -182z" />
    <glyph glyph-name="p" unicode="p" horiz-adv-x="602" 
d="M562 247c1 -156 -91 -259 -231 -259c-77 0 -144 33 -178 93v-296h-78v702h71l5 -82c31 59 96 95 179 95c141 0 230 -102 232 -253zM320 62c99 0 159 75 159 182c0 108 -60 182 -159 182c-100 0 -161 -74 -161 -182c0 -107 61 -182 161 -182z" />
    <glyph glyph-name="thorn" unicode="&#xfe;" horiz-adv-x="607" 
d="M567 247c2 -156 -91 -259 -231 -259c-77 0 -145 32 -179 92v-294h-81v934h81v-310c33 57 96 90 177 90c143 0 232 -102 233 -253zM324 62c100 0 160 74 160 181c0 108 -60 183 -160 183s-160 -75 -160 -183c0 -107 60 -181 160 -181z" />
    <glyph glyph-name="q" unicode="q" horiz-adv-x="603" 
d="M458 487h71v-702h-78v296c-34 -60 -102 -93 -179 -93c-140 0 -233 103 -232 259c2 151 91 253 234 253c80 0 146 -34 179 -95zM284 62c100 0 161 75 161 182c0 108 -61 182 -161 182c-99 0 -160 -74 -160 -182c0 -107 61 -182 160 -182z" />
    <glyph glyph-name="r" unicode="r" horiz-adv-x="362" 
d="M151 425c28 58 109 79 187 62v-76c-118 27 -185 -36 -185 -141v-270h-83v486h77z" />
    <glyph glyph-name="racute" unicode="&#x155;" horiz-adv-x="362" 
d="M229 681l-85 -133h-69l66 133h88zM151 425c28 58 109 79 187 62v-76c-118 27 -185 -36 -185 -141v-270h-83v486h77z" />
    <glyph glyph-name="rcaron" unicode="&#x159;" horiz-adv-x="362" 
d="M61 548l-80 133h76l52 -82l52 82h76l-80 -133h-96zM151 425c28 58 109 79 187 62v-76c-118 27 -185 -36 -185 -141v-270h-83v486h77z" />
    <glyph glyph-name="rcommaaccent" unicode="&#x157;" horiz-adv-x="362" 
d="M151 425c28 58 109 79 187 62v-76c-118 27 -185 -36 -185 -141v-270h-83v486h77zM111 -30c30 0 57 -21 57 -68c0 -62 -49 -102 -92 -101v27c23 1 46 22 46 47c-5 -3 -11 -4 -17 -4c-24 0 -45 17 -45 47c0 31 21 52 51 52z" />
    <glyph glyph-name="s" unicode="s" horiz-adv-x="446" 
d="M114 129c6 -44 46 -73 108 -73c51 0 102 19 102 76c0 41 -30 60 -68 70l-74 20c-91 24 -130 72 -130 136c0 79 63 142 170 142c90 0 163 -44 174 -121l-73 -17c-6 44 -47 69 -99 69c-57 0 -92 -30 -92 -73c0 -39 28 -59 73 -71l73 -20c82 -21 128 -68 128 -135
c0 -87 -68 -144 -183 -144c-106 0 -173 52 -183 127z" />
    <glyph glyph-name="sacute" unicode="&#x15b;" horiz-adv-x="446" 
d="M259 564h-69l66 133h88zM114 129c6 -44 46 -73 108 -73c51 0 102 19 102 76c0 41 -30 60 -68 70l-74 20c-91 24 -130 72 -130 136c0 79 63 142 170 142c90 0 163 -44 174 -121l-73 -17c-6 44 -47 69 -99 69c-57 0 -92 -30 -92 -73c0 -39 28 -59 73 -71l73 -20
c82 -21 128 -68 128 -135c0 -87 -68 -144 -183 -144c-106 0 -173 52 -183 127z" />
    <glyph glyph-name="scaron" unicode="&#x161;" horiz-adv-x="446" 
d="M176 564l-80 133h76l52 -82l52 82h76l-80 -133h-96zM278 267c82 -21 128 -68 128 -135c0 -87 -68 -144 -183 -144c-106 0 -173 52 -183 127l74 14c6 -44 46 -73 108 -73c51 0 102 19 102 76c0 41 -30 60 -68 70l-74 20c-91 24 -130 72 -130 136c0 79 63 142 170 142
c90 0 163 -44 174 -121l-73 -17c-6 44 -47 69 -99 69c-57 0 -92 -30 -92 -73c0 -39 28 -59 73 -71z" />
    <glyph glyph-name="scedilla" unicode="&#x15f;" horiz-adv-x="446" 
d="M406 132c0 -81 -59 -136 -160 -144l-22 -23h37c45 0 67 -36 67 -71c0 -37 -26 -69 -66 -69h-98v48h83c15 0 26 10 26 25c-1 13 -11 22 -26 22h-83v45l23 25c-85 10 -138 59 -147 125l74 14c6 -44 46 -73 108 -73c51 0 102 19 102 76c0 41 -30 60 -68 70l-74 20
c-91 24 -130 72 -130 136c0 79 63 142 170 142c90 0 163 -44 174 -121l-73 -17c-6 44 -47 69 -99 69c-57 0 -92 -30 -92 -73c0 -39 28 -59 73 -71l73 -20c82 -21 128 -68 128 -135z" />
    <glyph glyph-name="scircumflex" unicode="&#x15d;" horiz-adv-x="446" 
d="M224 646l-52 -82h-76l80 133h80h16l80 -133h-76zM278 267c82 -21 128 -68 128 -135c0 -87 -68 -144 -183 -144c-106 0 -173 52 -183 127l74 14c6 -44 46 -73 108 -73c51 0 102 19 102 76c0 41 -30 60 -68 70l-74 20c-91 24 -130 72 -130 136c0 79 63 142 170 142
c90 0 163 -44 174 -121l-73 -17c-6 44 -47 69 -99 69c-57 0 -92 -30 -92 -73c0 -39 28 -59 73 -71z" />
    <glyph glyph-name="scommaaccent" unicode="&#x219;" horiz-adv-x="446" 
d="M278 267c82 -21 128 -68 128 -135c0 -87 -68 -144 -183 -144c-106 0 -173 52 -183 127l74 14c6 -44 46 -73 108 -73c51 0 102 19 102 76c0 41 -30 60 -68 70l-74 20c-91 24 -130 72 -130 136c0 79 63 142 170 142c90 0 163 -44 174 -121l-73 -17c-6 44 -47 69 -99 69
c-57 0 -92 -30 -92 -73c0 -39 28 -59 73 -71zM217 -36c30 0 57 -21 57 -68c0 -62 -49 -102 -92 -101v27c23 1 46 22 46 47c-5 -3 -11 -4 -17 -4c-24 0 -45 17 -45 47c0 31 21 52 51 52z" />
    <glyph glyph-name="germandbls" unicode="&#xdf;" horiz-adv-x="570" 
d="M406 417c75 -35 124 -103 124 -198c0 -128 -98 -219 -245 -219c-23 0 -48 4 -76 12v79c22 -10 51 -16 74 -16c107 0 165 67 165 148c0 99 -77 153 -172 151v70c73 0 119 48 119 107c0 67 -49 105 -117 105c-69 0 -117 -39 -117 -128v-528h-83v523c0 135 76 210 195 210
c114 0 199 -67 199 -179c0 -60 -25 -107 -66 -137z" />
    <glyph glyph-name="t" unicode="t" horiz-adv-x="317" 
d="M295 487v-68h-96v-419h-81v419h-96v68h96v153h81v-153h96z" />
    <glyph glyph-name="tbar" unicode="&#x167;" horiz-adv-x="317" 
d="M295 419h-96v-99h84v-66h-84v-254h-81v254h-93v66h93v99h-96v68h96v153h81v-153h96v-68z" />
    <glyph glyph-name="tcaron" unicode="&#x165;" horiz-adv-x="317" 
d="M267 740c19 0 38 -14 35 -42l-15 -157h-42l-15 157c-3 28 17 42 37 42zM195 640v-153h96v-72h-96v-415h-82v415h-96v72h96v153h82z" />
    <glyph glyph-name="uni0163" unicode="&#x163;" horiz-adv-x="317" 
d="M186 0v-3l-23 -25h37c45 0 67 -36 67 -71c0 -37 -26 -69 -66 -69h-98v48h83c15 0 26 10 26 25c-1 13 -11 22 -26 22h-83v45l25 28h-10v419h-96v68h96v153h81v-153h96v-68h-96v-419h-13z" />
    <glyph glyph-name="uni021B" unicode="&#x21b;" horiz-adv-x="317" 
d="M199 487h96v-68h-96v-419h-81v419h-96v68h96v153h81v-153zM156 -30c30 0 57 -21 57 -68c0 -62 -49 -102 -92 -101v27c23 1 46 22 46 47c-5 -3 -11 -4 -17 -4c-24 0 -45 17 -45 47c0 31 21 52 51 52z" />
    <glyph glyph-name="u" unicode="u" 
d="M512 0h-82c-4 20 -7 45 -8 68c-28 -50 -86 -80 -158 -80c-92 0 -194 48 -194 205v294h83v-282c0 -114 69 -144 127 -144c79 0 140 56 140 150v276h83v-398c0 -28 4 -67 9 -89z" />
    <glyph glyph-name="uacute" unicode="&#xfa;" 
d="M406 677l-85 -133h-69l66 133h88zM512 0h-82c-4 20 -7 45 -8 68c-28 -50 -86 -80 -158 -80c-92 0 -194 48 -194 205v294h83v-282c0 -114 69 -144 127 -144c79 0 140 56 140 150v276h83v-398c0 -28 4 -67 9 -89z" />
    <glyph glyph-name="ucircumflex" unicode="&#xfb;" 
d="M286 626l-52 -82h-76l80 133h80h16l80 -133h-76zM512 0h-82c-4 20 -7 45 -8 68c-28 -50 -86 -80 -158 -80c-92 0 -194 48 -194 205v294h83v-282c0 -114 69 -144 127 -144c79 0 140 56 140 150v276h83v-398c0 -28 4 -67 9 -89z" />
    <glyph glyph-name="udieresis" unicode="&#xfc;" 
d="M197 546c-35 0 -63 29 -63 62c0 35 28 64 63 64c33 0 63 -29 63 -64c0 -33 -29 -62 -63 -62zM377 546c-35 0 -63 29 -63 62c0 35 28 64 63 64c33 0 62 -29 62 -64c0 -33 -29 -62 -62 -62zM512 0h-82c-4 20 -7 45 -8 68c-28 -50 -86 -80 -158 -80c-92 0 -194 48 -194 205
v294h83v-282c0 -114 69 -144 127 -144c79 0 140 56 140 150v276h83v-398c0 -28 4 -67 9 -89z" />
    <glyph glyph-name="ugrave" unicode="&#xf9;" 
d="M320 544h-69l-86 133h89zM512 0h-82c-4 20 -7 45 -8 68c-28 -50 -86 -80 -158 -80c-92 0 -194 48 -194 205v294h83v-282c0 -114 69 -144 127 -144c79 0 140 56 140 150v276h83v-398c0 -28 4 -67 9 -89z" />
    <glyph glyph-name="uhungarumlaut" unicode="&#x171;" 
d="M344 677l-85 -133h-69l66 133h88zM382 544h-69l79 133h88zM512 0h-82c-4 20 -7 45 -8 68c-28 -50 -86 -80 -158 -80c-92 0 -194 48 -194 205v294h83v-282c0 -114 69 -144 127 -144c79 0 140 56 140 150v276h83v-398c0 -28 4 -67 9 -89z" />
    <glyph glyph-name="umacron" unicode="&#x16b;" 
d="M426 614v-62h-280v62h280zM512 0h-82c-4 20 -7 45 -8 68c-28 -50 -86 -80 -158 -80c-92 0 -194 48 -194 205v294h83v-282c0 -114 69 -144 127 -144c79 0 140 56 140 150v276h83v-398c0 -28 4 -67 9 -89z" />
    <glyph glyph-name="uogonek" unicode="&#x173;" 
d="M511 0c-91 -41 -60 -114 -2 -94v-63c-130 -39 -163 114 -53 157h-26c-4 20 -7 45 -8 68c-28 -50 -86 -80 -158 -80c-92 0 -194 48 -194 205v294h83v-282c0 -114 69 -144 127 -144c79 0 140 56 140 150v276h83v-398c0 -28 4 -67 9 -89h-1z" />
    <glyph glyph-name="uring" unicode="&#x16f;" 
d="M286 539c-62 0 -111 49 -111 112c0 62 51 113 111 113c62 0 113 -52 113 -113s-51 -112 -113 -112zM287 709c-32 0 -56 -25 -56 -56c0 -34 24 -58 56 -58s56 24 56 58c0 30 -24 56 -56 56zM512 0h-82c-4 20 -7 45 -8 68c-28 -50 -86 -80 -158 -80c-92 0 -194 48 -194 205
v294h83v-282c0 -114 69 -144 127 -144c79 0 140 56 140 150v276h83v-398c0 -28 4 -67 9 -89z" />
    <glyph glyph-name="utilde" unicode="&#x169;" 
d="M194 567h-60c-8 74 32 112 81 112c54 0 90 -45 131 -45c22 0 34 13 32 43h60c6 -73 -34 -110 -86 -110c-57 0 -93 45 -127 45c-19 0 -32 -13 -31 -45zM512 0h-82c-4 20 -7 45 -8 68c-28 -50 -86 -80 -158 -80c-92 0 -194 48 -194 205v294h83v-282
c0 -114 69 -144 127 -144c79 0 140 56 140 150v276h83v-398c0 -28 4 -67 9 -89z" />
    <glyph glyph-name="v" unicode="v" horiz-adv-x="508" 
d="M410 487h85l-202 -487h-82l-198 487h88l152 -390z" />
    <glyph glyph-name="w" unicode="w" horiz-adv-x="766" 
d="M662 487h87l-167 -487h-79l-120 364l-122 -364h-82l-162 487h87l117 -368l120 368h84l118 -371z" />
    <glyph glyph-name="wacute" unicode="&#x1e83;" horiz-adv-x="766" 
d="M503 676l-85 -133h-69l66 133h88zM662 487h87l-167 -487h-79l-120 364l-122 -364h-82l-162 487h87l117 -368l120 368h84l118 -371z" />
    <glyph glyph-name="wcircumflex" unicode="&#x175;" horiz-adv-x="766" 
d="M384 625l-52 -82h-76l80 133h80h16l80 -133h-76zM662 487h87l-167 -487h-79l-120 364l-122 -364h-82l-162 487h87l117 -368l120 368h84l118 -371z" />
    <glyph glyph-name="wdieresis" unicode="&#x1e85;" horiz-adv-x="766" 
d="M294 545c-35 0 -63 29 -63 62c0 35 28 64 63 64c33 0 63 -29 63 -64c0 -33 -29 -62 -63 -62zM474 545c-35 0 -63 29 -63 62c0 35 28 64 63 64c33 0 62 -29 62 -64c0 -33 -29 -62 -62 -62zM662 487h87l-167 -487h-79l-120 364l-122 -364h-82l-162 487h87l117 -368l120 368
h84l118 -371z" />
    <glyph glyph-name="wgrave" unicode="&#x1e81;" horiz-adv-x="766" 
d="M418 543h-69l-86 133h89zM662 487h87l-167 -487h-79l-120 364l-122 -364h-82l-162 487h87l117 -368l120 368h84l118 -371z" />
    <glyph glyph-name="x" unicode="x" horiz-adv-x="479" 
d="M16 0h95l126 185c28 -45 80 -118 128 -185h99l-174 242l175 245h-96l-127 -188c-40 59 -89 131 -130 188h-98l174 -245z" />
    <glyph glyph-name="y" unicode="y" horiz-adv-x="508" 
d="M409 487h85l-223 -598c-51 -138 -169 -129 -244 -90l23 75c42 -31 118 -48 150 40l20 56l-207 517h87l159 -411z" />
    <glyph glyph-name="yacute" unicode="&#xfd;" horiz-adv-x="508" 
d="M375 677l-85 -133h-69l66 133h88zM409 487h85l-223 -598c-51 -138 -169 -129 -244 -90l23 75c42 -31 118 -48 150 40l20 56l-207 517h87l159 -411z" />
    <glyph glyph-name="ycircumflex" unicode="&#x177;" horiz-adv-x="508" 
d="M255 626l-52 -82h-76l80 133h80h16l80 -133h-76zM409 487h85l-223 -598c-51 -138 -169 -129 -244 -90l23 75c42 -31 118 -48 150 40l20 56l-207 517h87l159 -411z" />
    <glyph glyph-name="ydieresis" unicode="&#xff;" horiz-adv-x="508" 
d="M166 546c-35 0 -63 29 -63 62c0 35 28 64 63 64c33 0 63 -29 63 -64c0 -33 -29 -62 -63 -62zM346 546c-35 0 -63 29 -63 62c0 35 28 64 63 64c33 0 62 -29 62 -64c0 -33 -29 -62 -62 -62zM409 487h85l-223 -598c-51 -138 -169 -129 -244 -90l23 75c42 -31 118 -48 150 40
l20 56l-207 517h87l159 -411z" />
    <glyph glyph-name="ygrave" unicode="&#x1ef3;" horiz-adv-x="508" 
d="M289 544h-69l-86 133h89zM409 487h85l-223 -598c-51 -138 -169 -129 -244 -90l23 75c42 -31 118 -48 150 40l20 56l-207 517h87l159 -411z" />
    <glyph glyph-name="z" unicode="z" horiz-adv-x="450" 
d="M38 0v76l274 338h-274v73h373v-76l-276 -338h276v-73h-373z" />
    <glyph glyph-name="zacute" unicode="&#x17a;" horiz-adv-x="450" 
d="M260 544h-69l66 133h88zM38 0v76l274 338h-274v73h373v-76l-276 -338h276v-73h-373z" />
    <glyph glyph-name="zcaron" unicode="&#x17e;" horiz-adv-x="450" 
d="M177 544l-80 133h76l52 -82l52 82h76l-80 -133h-96zM411 487v-76l-276 -338h276v-73h-373v76l274 338h-274v73h373z" />
    <glyph glyph-name="zdotaccent" unicode="&#x17c;" horiz-adv-x="450" 
d="M224 547c-34 0 -62 28 -62 62s28 63 62 63s63 -29 63 -63s-29 -62 -63 -62zM38 0v76l274 338h-274v73h373v-76l-276 -338h276v-73h-373z" />
    <glyph glyph-name="a.ss01" horiz-adv-x="599" 
d="M532 0h-82c-3 24 -5 54 -6 81c-34 -61 -100 -93 -177 -93c-143 0 -229 106 -230 251c-1 151 86 261 232 261c78 0 143 -33 177 -94l4 81h75v-378c0 -22 3 -75 7 -109zM278 62c96 0 159 74 159 182c0 109 -63 182 -159 182c-95 0 -158 -73 -158 -182s63 -182 158 -182z
" />
    <glyph glyph-name="g.ss02" horiz-adv-x="595" 
d="M454 486h74v-472c0 -153 -96 -242 -239 -242c-122 0 -204 63 -237 157l75 30c19 -71 84 -112 164 -112c97 0 157 60 157 163v95c-34 -56 -100 -91 -179 -91c-142 0 -228 106 -228 243c0 136 87 243 233 243c75 0 142 -32 176 -94zM282 87c97 0 159 78 159 171
c0 92 -59 170 -159 170s-158 -76 -158 -170c0 -95 59 -171 158 -171z" />
    <glyph glyph-name="t.ss03" horiz-adv-x="339" 
d="M286 72l10 -72c-125 -33 -203 13 -203 130v287h-76v70h76v153h82v-153h116v-70h-116v-278c-1 -76 52 -88 111 -67z" />
    <glyph glyph-name="i.ss04" horiz-adv-x="242" 
d="M121 724l66 -66l-66 -66l-65 66zM80 487h83v-487h-83v487z" />
    <glyph glyph-name="uni03A9" unicode="&#x3a9;" horiz-adv-x="645" 
d="M481 69h97v-69h-210v69c90 36 134 114 134 192c0 100 -77 167 -174 167s-175 -67 -175 -168c0 -82 50 -159 134 -191v-69h-210v69h97c-60 50 -95 120 -95 197c0 134 106 234 249 234c145 0 248 -100 248 -233c0 -79 -35 -148 -95 -198z" />
    <glyph glyph-name="pi" unicode="&#x3c0;" horiz-adv-x="616" 
d="M573 414h-103v-284c0 -43 16 -54 44 -54l59 -1v-75h-86c-68 0 -99 40 -99 118v296h-193v-414h-82v414h-95v72h177h275h103v-72z" />
    <glyph glyph-name="zero" unicode="0" horiz-adv-x="748" 
d="M62 361c0 221 122 371 311 372c197 0 313 -158 313 -376c0 -221 -122 -369 -312 -369c-198 0 -312 156 -312 373zM145 359c0 -173 87 -293 228 -293c144 -1 229 123 229 294c0 172 -86 294 -229 294c-143 -1 -228 -123 -228 -295z" />
    <glyph glyph-name="one" unicode="1" horiz-adv-x="371" 
d="M59 560v83l131 77h84v-720h-84v634z" />
    <glyph glyph-name="two" unicode="2" horiz-adv-x="578" 
d="M407 284l-229 -205h342v-78l-454 -1v90l284 252c67 60 94 108 94 166c0 86 -57 146 -149 146s-155 -60 -155 -156h-85c0 144 101 235 241 235c152 0 234 -105 234 -225c0 -99 -56 -165 -123 -224z" />
    <glyph glyph-name="three" unicode="3" horiz-adv-x="580" 
d="M319 451c117 -14 212 -99 212 -230c0 -142 -110 -233 -252 -233c-144 0 -240 96 -240 234h85c0 -97 60 -157 157 -157c96 0 164 61 164 157c0 83 -49 139 -142 152c-19 3 -31 3 -64 3h-45v60l213 204h-333v79h442v-83z" />
    <glyph glyph-name="four" unicode="4" horiz-adv-x="620" 
d="M58 149v79l317 492h99l-317 -492l258 -1v235h82v-235h88v-78h-88v-149h-82v149h-357z" />
    <glyph glyph-name="five" unicode="5" horiz-adv-x="619" 
d="M322 482c150 0 243 -110 243 -245c0 -145 -106 -249 -256 -249c-148 0 -255 104 -255 245h85c0 -98 72 -167 171 -167c96 0 169 70 169 171c0 99 -67 171 -169 171c-65 0 -115 -26 -152 -68l-80 14l91 366h352v-83h-286l-52 -198c37 28 84 43 139 43z" />
    <glyph glyph-name="six" unicode="6" horiz-adv-x="673" 
d="M357 494c143 -1 253 -99 253 -248c0 -150 -110 -258 -258 -258c-197 0 -286 161 -286 361c0 214 101 384 315 384c87 0 162 -31 213 -79l-51 -61c-50 42 -110 60 -166 60c-157 0 -228 -128 -226 -283c35 82 120 125 206 124zM350 65c97 0 175 69 175 177
c0 107 -76 176 -174 178s-175 -71 -175 -178c0 -108 77 -177 174 -177z" />
    <glyph glyph-name="seven" unicode="7" horiz-adv-x="526" 
d="M25 720h476v-81c-295 -243 -283 -607 -283 -639h-84c0 34 -10 379 265 639h-374v81z" />
    <glyph glyph-name="eight" unicode="8" horiz-adv-x="630" 
d="M430 383c91 -27 139 -105 139 -189c0 -126 -108 -206 -254 -206s-254 80 -254 206c0 87 52 160 139 189c-70 29 -110 88 -110 163c0 118 100 187 226 187c125 0 224 -68 224 -187c-1 -75 -40 -136 -110 -163zM166 541c0 -70 54 -121 149 -121c92 0 148 47 148 119
c0 77 -65 118 -148 118s-149 -41 -149 -116zM316 65c93 0 169 50 169 140c0 88 -76 134 -170 134c-92 0 -169 -44 -169 -134c0 -91 77 -140 170 -140z" />
    <glyph glyph-name="nine" unicode="9" horiz-adv-x="666" 
d="M316 733c198 0 286 -161 286 -362c0 -213 -101 -383 -314 -383c-89 0 -164 31 -214 78l52 61c53 -45 109 -60 165 -60c158 0 229 129 227 283c-36 -82 -120 -124 -207 -124c-142 2 -252 99 -252 249c0 149 110 258 257 258zM318 300c98 -2 175 71 175 178
c0 109 -78 177 -175 177s-174 -68 -174 -177c0 -107 76 -176 174 -178z" />
    <glyph glyph-name="uni2780" unicode="&#x2780;" horiz-adv-x="879" 
d="M440 -57c-216 0 -390 175 -390 390s175 390 390 390c214 0 389 -176 389 -390c0 -215 -175 -390 -389 -390zM440 13c176 0 320 143 320 320c0 176 -145 320 -320 320c-177 0 -321 -143 -321 -320s144 -320 321 -320zM348 408v63l76 39v-63zM424 142v368h63v-368h-63z" />
    <glyph glyph-name="uni2781" unicode="&#x2781;" horiz-adv-x="879" 
d="M440 723c214 0 389 -176 389 -390c0 -215 -175 -390 -389 -390c-216 0 -390 175 -390 390s175 390 390 390zM440 13c176 0 320 143 320 320c0 176 -145 320 -320 320c-177 0 -321 -143 -321 -320s144 -320 321 -320zM573 400c-1 -45 -20 -74 -62 -111l-87 -76h139v-62
l-236 -1v54l154 139c21 19 29 34 30 52c1 43 -25 67 -64 67c-43 -1 -66 -27 -64 -72h-61c-4 78 51 132 125 133c71 0 125 -48 126 -123z" />
    <glyph glyph-name="uni2782" unicode="&#x2782;" horiz-adv-x="879" 
d="M440 723c214 0 389 -176 389 -390c0 -215 -175 -390 -390 -390s-389 175 -389 389c0 216 175 391 390 391zM440 13c176 0 320 143 320 319c0 177 -145 321 -321 321s-320 -143 -320 -320s144 -320 321 -320zM471 377c54 -11 95 -54 95 -118c0 -74 -54 -124 -128 -124
c-77 0 -133 58 -128 131h61c-3 -42 26 -72 67 -72c38 0 66 27 66 65c0 43 -33 65 -69 64h-54l-1 43l79 86h-133v63h222v-56z" />
    <glyph glyph-name="uni2783" unicode="&#x2783;" horiz-adv-x="879" 
d="M440 723c214 0 389 -176 389 -390c0 -215 -175 -390 -389 -390c-216 0 -390 175 -390 390s175 390 390 390zM440 13c176 0 320 143 320 320c0 176 -145 320 -320 320c-177 0 -321 -143 -321 -320s144 -320 321 -320zM521 514v-235h48v-62h-48v-71h-64v71h-173v62l173 235
h64zM362 279h95v131z" />
    <glyph glyph-name="uni2784" unicode="&#x2784;" horiz-adv-x="879" 
d="M440 -57c-216 0 -390 175 -390 390s175 390 390 390c214 0 389 -176 389 -390c0 -215 -175 -390 -389 -390zM440 13c176 0 320 143 320 320c0 176 -145 320 -320 320c-177 0 -321 -143 -321 -320s144 -320 321 -320zM308 274h63c-3 -41 24 -73 67 -73c38 0 70 30 70 65
c1 41 -31 72 -71 72c-28 0 -50 -15 -60 -32l-59 16l47 188h192v-63h-142l-15 -56c12 4 25 7 40 7c74 0 130 -57 130 -132c0 -70 -59 -127 -132 -127c-77 0 -133 59 -130 135z" />
    <glyph glyph-name="uni2785" unicode="&#x2785;" horiz-adv-x="879" 
d="M440 -57c-216 0 -390 175 -390 390s175 390 390 390c214 0 389 -176 389 -390c0 -215 -175 -390 -389 -390zM440 13c176 0 320 143 320 320c0 176 -145 320 -320 320c-177 0 -321 -143 -321 -320s144 -320 321 -320zM317 433c22 50 74 83 128 82c55 -1 97 -26 123 -73
l-48 -33c-18 31 -43 45 -76 45c-40 0 -78 -31 -86 -85c21 29 58 43 92 40c79 -6 124 -72 117 -149c-10 -76 -65 -122 -140 -120c-136 3 -158 183 -110 293zM363 277c-2 -48 31 -75 69 -74c38 0 75 26 73 75c-1 44 -34 69 -68 71c-36 1 -73 -24 -74 -72z" />
    <glyph glyph-name="uni2786" unicode="&#x2786;" horiz-adv-x="879" 
d="M440 723c214 0 389 -176 389 -390c0 -215 -175 -390 -389 -390c-216 0 -390 175 -390 390s175 390 390 390zM440 13c176 0 320 143 320 320c0 176 -145 320 -320 320c-177 0 -321 -143 -321 -320s144 -320 321 -320zM317 444v66h262v-66c-155 -117 -142 -290 -142 -300
h-66c0 8 -9 169 123 300h-177z" />
    <glyph glyph-name="uni2787" unicode="&#x2787;" horiz-adv-x="879" 
d="M440 -57c-216 0 -390 175 -390 390s175 390 390 390c214 0 389 -176 389 -390c0 -215 -175 -390 -389 -390zM440 13c176 0 320 143 320 320c0 176 -145 320 -320 320c-177 0 -321 -143 -321 -320s144 -320 321 -320zM435 144c-91 0 -131 57 -132 111c0 37 21 71 51 90
c-26 20 -39 47 -39 74c0 53 46 105 121 105c74 0 118 -51 119 -102c1 -28 -11 -56 -39 -77c30 -18 50 -52 50 -89c0 -54 -40 -111 -131 -112zM435 375c40 1 60 24 59 47c-1 20 -21 42 -59 42c-39 -1 -59 -23 -59 -45c1 -21 20 -44 59 -44zM435 204c48 0 72 29 70 58
c-2 25 -25 48 -70 48s-67 -24 -69 -49c-2 -28 21 -57 69 -57z" />
    <glyph glyph-name="uni2788" unicode="&#x2788;" horiz-adv-x="879" 
d="M440 -57c-216 0 -390 175 -390 390s175 390 390 390c214 0 389 -176 389 -390c0 -215 -175 -390 -389 -390zM440 13c176 0 320 143 320 320c0 176 -145 320 -320 320c-177 0 -321 -143 -321 -320s144 -320 321 -320zM307 382c-5 -80 50 -133 117 -137c33 -2 75 12 92 43
c-5 -56 -43 -87 -82 -89c-26 -2 -58 10 -75 41l-51 -31c28 -48 68 -71 120 -71c136 0 179 155 135 288c-15 50 -58 84 -112 88c-74 6 -141 -54 -144 -132zM368 378c-1 46 39 79 80 75c38 -4 62 -34 63 -69c0 -51 -39 -84 -82 -80c-35 4 -62 32 -61 74z" />
    <glyph glyph-name="uni2776" unicode="&#x2776;" horiz-adv-x="796" 
d="M398 -1c-192 0 -348 157 -348 349s155 348 348 348c191 0 348 -156 348 -348c0 -193 -155 -349 -348 -349zM438 164v381h-62l-71 -36v-59l71 34v-320h62z" />
    <glyph glyph-name="uni2777" unicode="&#x2777;" horiz-adv-x="796" 
d="M398 696c192 0 348 -156 348 -349c0 -192 -155 -348 -348 -348c-192 0 -348 157 -348 349s155 348 348 348zM516 237l-139 -1l87 76c42 38 61 67 62 111c-1 76 -55 124 -126 123c-74 -1 -129 -55 -125 -132h61c-2 44 21 71 64 72c39 -1 65 -24 64 -68
c-1 -18 -9 -33 -30 -52l-154 -139v-54l236 1v63z" />
    <glyph glyph-name="uni2778" unicode="&#x2778;" horiz-adv-x="796" 
d="M398 -1c-192 0 -348 157 -348 349s155 348 348 348c191 0 348 -156 348 -348c0 -193 -155 -349 -348 -349zM276 289c-5 -73 51 -131 128 -131c74 0 128 50 128 124c0 64 -42 107 -95 118l77 82v56h-222v-63h132l-79 -86l2 -43h54c35 1 69 -21 69 -64
c0 -38 -29 -65 -66 -65c-41 0 -71 30 -67 72h-61z" />
    <glyph glyph-name="uni2779" unicode="&#x2779;" horiz-adv-x="796" 
d="M398 -1c-192 0 -348 157 -348 349s155 348 348 348c191 0 348 -156 348 -348c0 -193 -155 -349 -348 -349zM406 164h63v71h60v60h-60v250h-63l-176 -244v-66h176v-71zM293 295l113 150v-150h-113z" />
    <glyph glyph-name="uni277A" unicode="&#x277a;" horiz-adv-x="796" 
d="M398 -1c-192 0 -348 157 -348 349s155 348 348 348c191 0 348 -156 348 -348c0 -193 -155 -349 -348 -349zM338 405l13 73h153v62h-203l-36 -209l54 -10c16 25 43 39 71 39c44 0 75 -31 75 -75s-30 -75 -73 -75c-40 0 -66 21 -74 62l-61 -16c11 -65 62 -108 133 -108
c82 0 140 58 140 137c0 78 -54 137 -129 137c-26 0 -47 -5 -63 -17z" />
    <glyph glyph-name="uni277B" unicode="&#x277b;" horiz-adv-x="796" 
d="M398 -1c-192 0 -348 157 -348 349s155 348 348 348c191 0 348 -156 348 -349c0 -192 -155 -348 -348 -348zM304 389c1 55 35 100 91 100c34 0 62 -15 78 -40l59 20c-24 50 -72 81 -134 81c-103 0 -163 -80 -157 -215c5 -113 55 -180 136 -184c83 -5 150 54 152 138
c2 77 -57 138 -134 138c-25 0 -66 -6 -91 -38zM388 212c-45 0 -76 33 -76 76c0 44 32 76 77 76c42 0 74 -31 74 -76s-31 -76 -75 -76z" />
    <glyph glyph-name="uni277C" unicode="&#x277c;" horiz-adv-x="796" 
d="M398 -1c-192 0 -348 157 -348 349s155 348 348 348c191 0 348 -156 348 -348c0 -193 -155 -349 -348 -349zM454 468c-74 -94 -114 -191 -127 -304h65c12 120 58 225 135 307v53h-240v-56h167z" />
    <glyph glyph-name="uni277D" unicode="&#x277d;" horiz-adv-x="796" 
d="M398 -1c-192 0 -348 157 -348 349s155 348 348 348c191 0 348 -156 348 -348c0 -193 -155 -349 -348 -349zM396 153c86 0 141 48 141 124c0 42 -21 83 -53 97c19 12 33 42 33 72c0 63 -47 104 -121 104s-123 -43 -123 -105c0 -23 13 -55 32 -73c-30 -12 -52 -53 -52 -97
c0 -75 55 -122 143 -122zM396 396c-34 0 -58 19 -58 46s24 47 58 47c33 0 57 -20 57 -47s-23 -46 -57 -46zM396 214c-45 0 -78 27 -78 65c0 39 31 66 78 66c45 0 78 -27 78 -66c0 -38 -33 -65 -78 -65z" />
    <glyph glyph-name="uni277E" unicode="&#x277e;" horiz-adv-x="796" 
d="M398 -1c-192 0 -348 157 -348 349s155 348 348 348c191 0 348 -156 348 -348c0 -193 -155 -349 -348 -349zM482 318c0 -59 -28 -105 -88 -106c-42 1 -68 18 -81 47l-60 -21c24 -52 76 -87 144 -85c93 2 149 69 145 202c-2 121 -55 194 -147 195c-79 1 -139 -58 -139 -140
c0 -78 60 -135 138 -132c29 1 65 11 88 40zM392 489c44 2 76 -29 77 -74c1 -44 -28 -75 -73 -77c-43 -2 -77 32 -77 74c-1 44 28 75 73 77z" />
    <glyph glyph-name="four.ss03" horiz-adv-x="640" 
d="M615 228v-82h-88v-146h-82v146h-397v83l397 -1v411l-298 -410h-99l357 491h99h23v-492h88z" />
    <glyph glyph-name="zero.tf" horiz-adv-x="716" 
d="M49 361c0 217 123 371 311 372c194 0 314 -155 314 -376s-122 -369 -313 -369c-193 0 -312 148 -312 373zM132 359c0 -188 97 -293 229 -293c132 -1 228 105 228 293c0 187 -96 295 -228 295c-132 -1 -229 -108 -229 -295z" />
    <glyph glyph-name="one.tf" horiz-adv-x="532" 
d="M337 76h143v-76h-227h-148v76h148v558l-125 -67v83l125 70h84v-644z" />
    <glyph glyph-name="two.tf" horiz-adv-x="597" 
d="M424 290l-243 -211l341 2v-79l-454 -2v92l301 259c69 61 84 105 84 150c0 92 -63 154 -156 154c-91 0 -155 -61 -155 -157h-84c0 145 100 235 241 235c152 0 240 -103 240 -230c0 -95 -48 -155 -115 -213z" />
    <glyph glyph-name="three.tf" horiz-adv-x="589" 
d="M318 451c117 -14 212 -98 212 -230c0 -142 -111 -233 -245 -233c-136 0 -247 96 -247 234h86c0 -88 69 -155 163 -155c87 0 158 61 158 154c0 84 -56 146 -143 154c-19 2 -43 2 -64 2h-44v60l212 204h-333v79h442v-83z" />
    <glyph glyph-name="four.tf" horiz-adv-x="608" 
d="M571 225v-79h-88v-146h-82v146h-357v79l317 495h99l-317 -495h258v237h82v-237h88z" />
    <glyph glyph-name="five.tf" horiz-adv-x="614" 
d="M321 482c152 0 244 -110 244 -245c0 -145 -106 -249 -256 -249c-147 0 -255 104 -255 245h85c0 -97 72 -166 172 -166c95 0 169 71 169 170c0 97 -67 169 -171 169c-63 0 -114 -24 -150 -66l-81 14l91 366h352v-83h-286l-51 -196c37 27 84 41 137 41z" />
    <glyph glyph-name="six.tf" horiz-adv-x="633" 
d="M339 494c142 -1 252 -99 252 -248c0 -150 -110 -258 -257 -258c-198 0 -286 161 -286 361c0 214 101 384 314 384c87 0 163 -31 214 -79l-52 -61c-50 42 -110 60 -165 60c-158 0 -229 -128 -227 -283c36 82 120 125 207 124zM332 65c97 0 174 69 174 177
c0 107 -76 176 -174 178s-175 -71 -175 -178c0 -108 78 -177 175 -177z" />
    <glyph glyph-name="seven.tf" horiz-adv-x="561" 
d="M40 719h476v-85c-295 -244 -281 -611 -281 -634h-86c0 20 -10 373 260 634h-369v85z" />
    <glyph glyph-name="eight.tf" horiz-adv-x="617" 
d="M425 383c90 -27 138 -105 138 -189c0 -126 -108 -206 -254 -206c-147 0 -255 82 -255 206c0 86 52 160 137 189c-70 30 -108 90 -108 160c0 122 102 189 226 189c125 0 224 -67 224 -189c0 -72 -39 -132 -108 -160zM308 658c-81 0 -149 -40 -147 -121
c1 -66 54 -117 147 -117c91 0 147 48 147 117c0 81 -64 121 -147 121zM309 66c94 0 169 50 169 139c0 87 -75 133 -170 133c-92 0 -169 -44 -169 -133c0 -90 77 -139 170 -139z" />
    <glyph glyph-name="nine.tf" horiz-adv-x="639" 
d="M301 733c198 0 286 -161 286 -362c0 -213 -101 -383 -315 -383c-88 0 -163 31 -213 78l51 61c54 -45 110 -60 166 -60c158 0 229 129 227 283c-36 -82 -121 -124 -207 -124c-142 2 -252 99 -252 249c0 149 109 258 257 258zM303 300c98 -2 175 71 175 178
c0 109 -78 177 -175 177s-175 -68 -175 -177c0 -107 77 -176 175 -178z" />
    <glyph glyph-name="fraction" unicode="&#x2044;" horiz-adv-x="128" 
d="M-167 0h-80l541 710h81z" />
    <glyph glyph-name="onehalf" unicode="&#xbd;" horiz-adv-x="725" 
d="M90 0h-80l541 710h81zM43 617v62l67 31v-66zM110 710h64v-368h-63zM434 0v63l142 122c29 25 40 39 41 61c2 42 -24 64 -65 64c-42 0 -67 -29 -61 -74h-63c-6 78 52 136 131 136c71 -1 121 -50 122 -122c0 -45 -26 -81 -64 -113l-89 -75h145v-62h-239z" />
    <glyph glyph-name="onequarter" unicode="&#xbc;" horiz-adv-x="693" 
d="M551 710h81l-542 -710h-80zM110 710v-66l-67 -27v62zM174 342h-63l-1 368h64v-368zM650 130v-62h-48v-71h-64v71h-176v63l176 237h64v-238h48zM441 131l97 -1v133z" />
    <glyph glyph-name="threequarters" unicode="&#xbe;" horiz-adv-x="779" 
d="M300 460c0 -69 -57 -124 -128 -124c-76 0 -136 62 -128 137h63c-9 -41 24 -75 65 -75c36 0 65 27 65 62c0 22 -10 39 -24 51c-15 11 -37 16 -57 11c-4 -1 -8 -2 -12 -4l-31 49l80 80h-133v63h229v-57l-76 -75c21 -7 40 -19 54 -34c20 -22 33 -51 33 -84zM637 710h81
l-542 -710h-80zM736 130v-62h-48v-71h-64v71h-176v63l176 237h64v-238h48zM527 131l97 -1v133z" />
    <glyph glyph-name="oneeighth" unicode="&#x215b;" horiz-adv-x="736" 
d="M90 0h-80l541 710h81zM43 617v62l67 31v-66zM110 710h64v-368h-63zM560 -12c-91 -1 -131 57 -132 111c0 37 21 72 51 91c-28 20 -40 48 -39 76c2 52 47 102 122 103c73 -1 117 -51 118 -102c1 -29 -11 -57 -38 -77c30 -19 50 -53 50 -91c0 -53 -40 -110 -132 -111z
M560 219c39 1 60 22 59 45c1 22 -19 44 -59 44c-41 -1 -60 -23 -58 -46c0 -22 20 -43 58 -43zM560 48c46 0 70 26 70 53c1 26 -22 54 -70 54c-47 0 -70 -28 -69 -55c0 -26 23 -52 69 -52z" />
    <glyph glyph-name="threeeighths" unicode="&#x215c;" horiz-adv-x="822" 
d="M300 460c0 -69 -57 -124 -128 -124c-76 0 -136 62 -128 137h63c-9 -41 24 -75 65 -75c36 0 65 27 65 62c0 22 -10 39 -24 51c-15 11 -37 16 -57 11c-4 -1 -8 -2 -12 -4l-31 49l80 80h-133v63h229v-57l-76 -75c21 -7 40 -19 54 -34c20 -22 33 -51 33 -84zM637 710h81
l-542 -710h-80zM728 190c30 -19 50 -53 50 -91c0 -53 -40 -110 -132 -111c-91 -1 -131 57 -132 111c0 37 21 72 51 91c-28 20 -40 48 -39 76c2 52 47 102 122 103c73 -1 117 -51 118 -102c1 -29 -11 -57 -38 -77zM646 308c-41 -1 -60 -23 -58 -46c0 -22 20 -43 58 -43
c39 1 60 22 59 45c1 22 -19 44 -59 44zM716 101c1 26 -22 54 -70 54c-47 0 -70 -28 -69 -55c0 -26 23 -52 69 -52s70 26 70 53z" />
    <glyph glyph-name="fiveeighths" unicode="&#x215d;" horiz-adv-x="827" 
d="M43 474h63c-3 -41 24 -73 67 -73c38 0 70 30 70 65c1 41 -31 72 -71 72c-28 0 -50 -15 -60 -32l-59 16l47 188h192v-63h-142l-15 -56c12 4 25 7 40 7c74 0 130 -57 130 -132c0 -70 -59 -127 -132 -127c-77 0 -133 59 -130 135zM181 0h-80l541 710h81zM651 -12
c-91 -1 -131 57 -132 111c0 37 21 72 51 91c-28 20 -40 48 -39 76c2 52 47 102 122 103c73 -1 117 -51 118 -102c1 -29 -11 -57 -38 -77c30 -19 50 -53 50 -91c0 -53 -40 -110 -132 -111zM651 219c39 1 60 22 59 45c1 22 -19 44 -59 44c-41 -1 -60 -23 -58 -46
c0 -22 20 -43 58 -43zM651 48c46 0 70 26 70 53c1 26 -22 54 -70 54c-47 0 -70 -28 -69 -55c0 -26 23 -52 69 -52z" />
    <glyph glyph-name="seveneighths" unicode="&#x215e;" horiz-adv-x="771" 
d="M97 344c0 8 -8 169 123 300h-177v66h263v-66c-155 -117 -142 -290 -142 -300h-67zM586 710h81l-542 -710h-80zM678 190c30 -19 50 -53 50 -91c0 -53 -40 -110 -132 -111c-91 -1 -131 57 -132 111c0 37 21 72 51 91c-28 20 -40 48 -39 76c2 52 47 102 122 103
c73 -1 117 -51 118 -102c1 -29 -11 -57 -38 -77zM596 308c-41 -1 -60 -23 -58 -46c0 -22 20 -43 58 -43c39 1 60 22 59 45c1 22 -19 44 -59 44zM666 101c1 26 -22 54 -70 54c-47 0 -70 -28 -69 -55c0 -26 23 -52 69 -52s70 26 70 53z" />
    <glyph glyph-name="zero.dnom" horiz-adv-x="406" 
d="M363 176c0 -112 -60 -187 -154 -190c-101 -4 -166 73 -166 190c0 112 61 188 156 189c99 4 164 -74 164 -189zM203 49c58 1 96 51 96 127c0 75 -38 125 -96 125s-97 -50 -97 -125c0 -76 39 -126 97 -127z" />
    <glyph glyph-name="one.dnom" horiz-adv-x="216" 
d="M43 274v62l67 32v-66zM110 368h63v-368h-62z" />
    <glyph glyph-name="two.dnom" horiz-adv-x="340" 
d="M49 0v63l142 122c29 25 40 39 41 61c2 42 -24 64 -65 64c-42 0 -67 -29 -61 -74h-63c-6 78 52 136 131 136c71 -1 121 -50 122 -122c0 -45 -26 -81 -64 -113l-89 -75h145v-62h-239z" />
    <glyph glyph-name="three.dnom" horiz-adv-x="349" 
d="M216 237c50 -15 89 -59 89 -119c0 -72 -55 -124 -131 -124c-82 0 -139 62 -130 137h64c-9 -40 19 -75 66 -75c39 0 68 24 68 62c0 52 -54 77 -96 59l-32 48h1h-1l82 80h-137v63h234v-57z" />
    <glyph glyph-name="four.dnom" horiz-adv-x="374" 
d="M331 130v-62h-48v-71h-64v71h-176v63l176 237h64v-238h48zM123 131l96 -1v132z" />
    <glyph glyph-name="five.dnom" horiz-adv-x="355" 
d="M43 125h64c-3 -42 25 -75 69 -75c39 0 72 31 72 68c1 42 -31 74 -74 74c-27 0 -51 -15 -61 -33l-60 15l48 194h197v-64h-146l-15 -58c13 4 26 6 41 6c76 0 134 -58 134 -134c0 -73 -61 -131 -136 -131c-80 0 -136 60 -133 138z" />
    <glyph glyph-name="six.dnom" horiz-adv-x="369" 
d="M195 261c79 0 129 -62 129 -134c0 -78 -57 -138 -140 -138c-96 0 -139 81 -141 179c-1 109 51 204 159 202c56 0 100 -26 124 -65l-51 -34c-18 25 -45 37 -75 37c-50 0 -81 -35 -90 -84c18 25 50 37 85 37zM184 50c38 0 74 24 74 73c0 47 -33 75 -73 75
c-41 0 -71 -28 -71 -75c0 -49 33 -73 70 -73z" />
    <glyph glyph-name="seven.dnom" horiz-adv-x="350" 
d="M43 368h264v-67c-156 -117 -142 -291 -142 -301h-67c0 8 -9 170 123 301h-178v67z" />
    <glyph glyph-name="eight.dnom" horiz-adv-x="351" 
d="M175 -12c-91 -1 -131 57 -132 111c0 37 21 72 51 91c-28 20 -40 48 -39 76c2 52 47 102 122 103c73 -1 117 -51 118 -102c1 -29 -11 -57 -38 -77c30 -19 50 -53 50 -91c0 -53 -40 -110 -132 -111zM175 219c39 1 60 22 59 45c1 22 -19 44 -59 44c-41 -1 -60 -23 -58 -46
c0 -22 20 -43 58 -43zM175 48c46 0 70 26 70 53c1 26 -22 54 -70 54c-47 0 -70 -28 -69 -55c0 -26 23 -52 69 -52z" />
    <glyph glyph-name="nine.dnom" horiz-adv-x="366" 
d="M43 236c-3 -82 54 -135 122 -140c33 -2 77 13 93 43c-3 -58 -42 -90 -81 -92c-27 -2 -59 11 -77 43l-52 -31c30 -49 71 -73 125 -73c138 1 177 159 130 295c-18 51 -62 87 -116 90c-77 5 -142 -55 -144 -135zM105 232c-2 48 38 81 80 77c39 -5 63 -34 65 -71
c2 -53 -37 -86 -80 -82c-36 4 -65 34 -65 76z" />
    <glyph glyph-name="zero.numr" horiz-adv-x="407" 
d="M363 530c0 -109 -56 -183 -145 -191c-106 -8 -175 70 -175 191c0 111 61 188 156 190c100 4 164 -75 164 -190zM204 402c58 1 95 51 95 128c0 76 -37 125 -95 126c-59 -1 -97 -50 -97 -126c0 -77 38 -127 97 -128z" />
    <glyph glyph-name="one.numr" horiz-adv-x="217" 
d="M43 617v62l67 31v-66zM110 710h64v-368h-63z" />
    <glyph glyph-name="two.numr" horiz-adv-x="340" 
d="M49 339v64l143 122c28 24 39 39 40 61c2 41 -24 65 -65 64c-42 -1 -67 -29 -61 -75h-63c-6 79 52 137 131 136c72 0 122 -49 122 -122c0 -44 -26 -81 -64 -112l-89 -75h145v-62z" />
    <glyph glyph-name="three.numr" horiz-adv-x="343" 
d="M267 544c20 -22 33 -51 33 -84c0 -69 -57 -124 -128 -124c-76 0 -136 62 -128 137h63c-9 -41 24 -75 65 -75c36 0 65 27 65 62c0 22 -10 39 -24 51c-15 11 -37 16 -57 11c-4 -1 -8 -2 -12 -4l-31 49l80 80h-133v63h229v-57l-76 -75c21 -7 40 -19 54 -34z" />
    <glyph glyph-name="four.numr" horiz-adv-x="372" 
d="M328 474v-61h-47v-71h-64v71h-174v62l174 235h64v-236h47zM122 475l95 -1v131z" />
    <glyph glyph-name="five.numr" horiz-adv-x="348" 
d="M43 474h63c-3 -41 24 -73 67 -73c38 0 70 30 70 65c1 41 -31 72 -71 72c-28 0 -50 -15 -60 -32l-59 16l47 188h192v-63h-142l-15 -56c12 4 25 7 40 7c74 0 130 -57 130 -132c0 -70 -59 -127 -132 -127c-77 0 -133 59 -130 135z" />
    <glyph glyph-name="six.numr" horiz-adv-x="369" 
d="M195 608c79 0 129 -62 129 -134c0 -76 -57 -136 -140 -136c-96 0 -139 80 -141 177c-1 109 53 202 159 200c54 0 98 -24 124 -64l-51 -34c-18 25 -45 36 -75 36c-50 0 -81 -34 -90 -82c18 24 50 37 85 37zM184 398c38 0 74 24 74 73c0 46 -33 74 -73 74
c-41 0 -71 -28 -71 -75c0 -48 33 -72 70 -72z" />
    <glyph glyph-name="seven.numr" horiz-adv-x="349" 
d="M43 710h263v-66c-155 -117 -142 -290 -142 -300h-67c0 8 -8 169 123 300h-177v66z" />
    <glyph glyph-name="eight.numr" horiz-adv-x="350" 
d="M175 336c-91 -1 -131 56 -132 110c0 38 21 72 51 91c-26 19 -39 46 -39 73c0 53 46 105 121 106c74 -1 118 -52 119 -103c1 -28 -11 -56 -39 -76c30 -19 50 -53 50 -90c0 -54 -40 -111 -131 -111zM175 567c40 0 60 24 59 46c-1 21 -21 42 -59 42c-39 -1 -59 -22 -59 -44
c1 -22 20 -44 59 -44zM175 395c48 0 72 30 70 58c-2 25 -25 49 -70 49s-67 -25 -69 -50c-2 -28 21 -57 69 -57z" />
    <glyph glyph-name="nine.numr" horiz-adv-x="361" 
d="M43 582c-3 -80 53 -133 121 -137c33 -2 75 12 91 43c-3 -56 -41 -87 -80 -89c-27 -2 -58 10 -75 41l-52 -31c29 -48 70 -71 122 -71c136 0 175 155 128 288c-16 50 -59 84 -113 88c-75 6 -140 -54 -142 -132zM104 578c-1 46 37 79 79 75c38 -4 62 -34 64 -69
c2 -51 -36 -84 -79 -80c-36 4 -63 32 -64 74z" />
    <glyph glyph-name="uni2080" unicode="&#x2080;" horiz-adv-x="499" 
d="M459 138c0 -142 -75 -245 -208 -246h-1h-2c-134 1 -208 105 -208 246c0 142 77 245 208 246h2h1c133 -1 208 -105 208 -246zM250 -37c88 1 134 77 134 175c0 99 -48 173 -134 174c-88 -1 -136 -77 -136 -174c0 -98 48 -174 136 -175z" />
    <glyph glyph-name="uni2081" unicode="&#x2081;" horiz-adv-x="291" 
d="M135 374h70v-474h-70v403l-95 -39v70z" />
    <glyph glyph-name="uni2082" unicode="&#x2082;" horiz-adv-x="407" 
d="M46 -100v74l207 171c35 30 44 54 44 79c0 54 -36 91 -94 91c-52 0 -91 -30 -94 -89h-69c3 99 71 157 163 157c101 0 164 -69 164 -157c0 -59 -29 -100 -72 -135l-149 -122l209 1v-69z" />
    <glyph glyph-name="uni2083" unicode="&#x2083;" horiz-adv-x="408" 
d="M247 205c71 -17 121 -75 121 -153c0 -94 -74 -160 -163 -160c-95 0 -165 70 -165 158h70c0 -49 37 -90 95 -90c51 0 93 37 93 92c0 54 -36 90 -87 94c-15 1 -35 0 -50 -6l-23 56l116 109h-194v69h300v-64z" />
    <glyph glyph-name="uni2084" unicode="&#x2084;" horiz-adv-x="443" 
d="M403 61v-69h-59v-92h-68v92h-236v69l236 313h68v-313h59zM124 61h152v203z" />
    <glyph glyph-name="uni2085" unicode="&#x2085;" horiz-adv-x="417" 
d="M213 223c99 0 164 -73 164 -167c0 -91 -77 -165 -171 -165c-93 0 -166 73 -166 165h69c0 -54 42 -95 97 -95c56 0 101 43 101 95c2 64 -41 106 -104 106c-36 0 -70 -19 -83 -42l-64 16l59 238h245v-69h-191l-27 -101c20 12 44 19 71 19z" />
    <glyph glyph-name="uni2086" unicode="&#x2086;" horiz-adv-x="446" 
d="M235 234c82 0 171 -59 171 -169c0 -101 -76 -174 -180 -174c-133 0 -187 115 -186 244c1 133 62 251 198 251c64 0 121 -26 157 -80l-59 -36c-24 30 -55 45 -96 46c-80 1 -127 -66 -129 -149c25 45 74 67 124 67zM230 -41c58 0 107 41 107 105c0 63 -47 103 -104 104
c-60 2 -109 -41 -109 -104c0 -64 49 -105 106 -105z" />
    <glyph glyph-name="uni2087" unicode="&#x2087;" horiz-adv-x="403" 
d="M40 374h323v-71c-187 -148 -179 -378 -179 -403h-71c0 21 -6 242 162 403h-235v71z" />
    <glyph glyph-name="uni2088" unicode="&#x2088;" horiz-adv-x="418" 
d="M288 153c59 -19 92 -74 90 -130c-2 -80 -74 -132 -168 -132c-96 -1 -169 53 -170 136c-1 56 33 106 89 126c-43 18 -69 59 -69 107c0 76 66 124 149 124c84 0 147 -46 149 -122c2 -49 -25 -91 -70 -109zM209 320c-49 0 -88 -25 -88 -67c0 -43 39 -72 88 -72
c51 0 90 31 88 74c-2 42 -41 65 -88 65zM309 37c1 51 -44 80 -99 80c-58 0 -103 -31 -101 -81c0 -50 46 -80 101 -80c57 0 99 33 99 81z" />
    <glyph glyph-name="uni2089" unicode="&#x2089;" horiz-adv-x="446" 
d="M406 142c0 -143 -63 -251 -197 -251c-65 0 -122 26 -157 80l58 35c25 -30 53 -44 94 -45c84 -3 127 53 132 150c-26 -46 -76 -68 -126 -68c-82 1 -170 59 -170 169c0 102 75 174 180 174c133 0 185 -115 186 -244zM214 109c59 -1 107 40 107 105c0 64 -48 105 -105 105
c-58 0 -107 -41 -107 -105c0 -63 47 -104 105 -105z" />
    <glyph glyph-name="uni2070" unicode="&#x2070;" horiz-adv-x="499" 
d="M459 538c0 -142 -75 -245 -208 -246h-1h-2c-134 1 -208 105 -208 246c0 142 77 245 208 246h2h1c133 -1 208 -105 208 -246zM250 363c88 1 134 77 134 175c0 99 -48 173 -134 174c-88 -1 -136 -77 -136 -174c0 -98 48 -174 136 -175z" />
    <glyph glyph-name="uni00B9" unicode="&#xb9;" horiz-adv-x="291" 
d="M135 774h70v-474h-70v403l-95 -39v70z" />
    <glyph glyph-name="uni00B2" unicode="&#xb2;" horiz-adv-x="407" 
d="M46 300v74l207 171c35 30 44 54 44 79c0 54 -36 91 -94 91c-52 0 -91 -30 -94 -89h-69c3 99 71 157 163 157c101 0 164 -69 164 -157c0 -59 -29 -100 -72 -135l-149 -122l209 1v-69z" />
    <glyph glyph-name="uni00B3" unicode="&#xb3;" horiz-adv-x="408" 
d="M247 604c71 -18 121 -75 121 -154c0 -93 -74 -159 -163 -159c-95 0 -165 70 -165 157h70c0 -48 37 -89 95 -89c51 0 93 36 93 91c0 54 -36 91 -87 95c-15 1 -35 -1 -50 -6l-23 56l116 108l-194 1v69h300v-64z" />
    <glyph glyph-name="uni2074" unicode="&#x2074;" horiz-adv-x="443" 
d="M403 461v-69h-59v-92h-68v92h-236v69l236 313h68v-313h59zM124 461h152v203z" />
    <glyph glyph-name="uni2075" unicode="&#x2075;" horiz-adv-x="417" 
d="M213 623c99 0 164 -73 164 -167c0 -91 -77 -165 -171 -165c-93 0 -166 73 -166 165h69c0 -54 42 -95 97 -95c56 0 101 43 101 95c2 64 -41 106 -104 106c-36 0 -70 -19 -83 -42l-64 16l59 238h245v-69h-191l-27 -101c20 12 44 19 71 19z" />
    <glyph glyph-name="uni2076" unicode="&#x2076;" horiz-adv-x="446" 
d="M235 634c82 0 171 -59 171 -169c0 -101 -76 -174 -180 -174c-133 0 -187 115 -186 244c1 133 62 251 198 251c64 0 121 -26 157 -80l-59 -36c-24 30 -55 45 -96 46c-80 1 -127 -66 -129 -149c25 45 74 67 124 67zM230 359c58 0 107 41 107 105c0 63 -47 103 -104 104
c-60 2 -109 -41 -109 -104c0 -64 49 -105 106 -105z" />
    <glyph glyph-name="uni2077" unicode="&#x2077;" horiz-adv-x="403" 
d="M40 774h323v-71c-187 -148 -179 -378 -179 -403h-71c0 21 -6 242 162 403h-235v71z" />
    <glyph glyph-name="uni2078" unicode="&#x2078;" horiz-adv-x="418" 
d="M288 553c58 -19 92 -73 90 -130c-2 -81 -77 -132 -169 -132c-95 -1 -168 55 -169 136c-1 56 34 106 89 126c-43 18 -69 59 -69 107c0 76 66 124 149 124c84 0 147 -48 149 -122c2 -50 -26 -91 -70 -109zM121 654c-1 -43 39 -73 88 -73c52 0 91 32 88 75
c-3 42 -43 64 -88 64c-48 0 -87 -24 -88 -66zM309 438c1 50 -46 79 -100 79c-57 0 -102 -32 -100 -81c0 -49 46 -80 100 -80c57 0 100 36 100 82z" />
    <glyph glyph-name="uni2079" unicode="&#x2079;" horiz-adv-x="446" 
d="M406 542c0 -143 -63 -251 -197 -251c-65 0 -122 26 -157 80l58 35c25 -30 53 -44 94 -45c84 -3 127 53 132 150c-26 -46 -76 -68 -126 -68c-82 1 -170 59 -170 169c0 102 75 174 180 174c133 0 185 -115 186 -244zM214 509c59 -1 107 40 107 105c0 64 -48 105 -105 105
c-58 0 -107 -41 -107 -105c0 -63 47 -104 105 -105z" />
    <glyph glyph-name="asterisk" unicode="*" horiz-adv-x="404" 
d="M226 555c19 -17 34 -36 57 -66l36 -54l-39 -27l-37 53c-22 30 -33 54 -42 76c-7 -22 -20 -46 -40 -76l-39 -53l-39 27l37 54c22 30 39 49 57 66c-24 4 -50 8 -84 20l-63 23l17 44l61 -21c36 -12 58 -24 79 -38c-5 26 -9 51 -9 87v66h47v-66c0 -36 -3 -62 -8 -87
c20 14 42 26 78 38l61 21l18 -44l-64 -23c-33 -12 -60 -16 -84 -20z" />
    <glyph glyph-name="uni2042" unicode="&#x2042;" horiz-adv-x="877" 
d="M555 435l-38 -27l-37 53c-23 30 -34 54 -42 76c-8 -22 -20 -46 -41 -76l-39 -53l-39 27l38 54c21 30 39 49 57 66c-24 4 -51 8 -85 20l-62 23l17 44l60 -21c36 -12 58 -24 80 -38c-6 26 -9 51 -9 87v66h47v-66c0 -36 -3 -62 -9 -87c21 14 43 26 79 38l61 21l18 -44
l-64 -23c-33 -12 -60 -16 -84 -20c18 -17 34 -36 57 -66zM374 218l-64 -23c-33 -12 -60 -16 -84 -20c19 -17 34 -36 57 -66l36 -54l-39 -27l-37 53c-22 30 -33 54 -42 76c-7 -22 -20 -46 -40 -76l-39 -53l-39 27l37 54c22 30 39 49 57 66c-24 4 -50 8 -84 20l-63 23l17 44
l61 -21c36 -12 58 -24 79 -38c-5 26 -9 51 -9 87v66h47v-66c0 -36 -3 -62 -8 -87c20 14 42 26 78 38l61 21zM700 175c18 -17 34 -36 56 -66l36 -54l-38 -27l-38 53c-22 30 -33 54 -42 76c-7 -22 -19 -46 -40 -76l-39 -53l-39 27l38 54c21 30 38 49 57 66c-24 4 -51 8 -85 20
l-63 23l18 44l60 -21c36 -12 58 -24 79 -38c-5 26 -9 51 -9 87v66h47v-66c0 -36 -2 -62 -8 -87c21 14 43 26 78 38l62 21l17 -44l-63 -23c-34 -12 -60 -16 -84 -20z" />
    <glyph glyph-name="backslash" unicode="\" horiz-adv-x="363" 
d="M363 0h-81l-282 719h83z" />
    <glyph glyph-name="periodcentered" unicode="&#xb7;" horiz-adv-x="289" 
d="M145 171c-50 0 -92 41 -92 91s41 92 92 92c50 0 92 -42 92 -92c0 -49 -42 -91 -92 -91z" />
    <glyph glyph-name="bullet" unicode="&#x2022;" horiz-adv-x="390" 
d="M196 124c-78 0 -143 64 -143 140c0 77 65 143 143 143c77 0 142 -66 142 -143c0 -76 -65 -140 -142 -140z" />
    <glyph glyph-name="colon" unicode=":" horiz-adv-x="321" 
d="M161 361c-37 0 -68 31 -68 66c0 37 31 67 68 67c36 0 67 -30 67 -67c0 -35 -31 -66 -67 -66zM161 -13c-37 0 -68 30 -68 66s31 67 68 67c36 0 67 -31 67 -67s-31 -66 -67 -66z" />
    <glyph glyph-name="comma" unicode="," horiz-adv-x="254" 
d="M123 109c36 0 67 -25 67 -81c0 -73 -58 -121 -109 -120v33c28 0 55 27 55 55c-7 -3 -14 -4 -21 -4c-29 0 -54 19 -54 56c0 36 26 61 62 61z" />
    <glyph glyph-name="ellipsis" unicode="&#x2026;" horiz-adv-x="728" 
d="M137 -13c-37 0 -67 30 -67 66s30 67 67 67c36 0 67 -31 67 -67s-31 -66 -67 -66zM364 -13c-37 0 -67 30 -67 66s30 67 67 67c36 0 67 -31 67 -67s-31 -66 -67 -66zM591 -13c-37 0 -68 30 -68 66s31 67 68 67c36 0 67 -31 67 -67s-31 -66 -67 -66z" />
    <glyph glyph-name="exclam" unicode="!" horiz-adv-x="310" 
d="M189 164h-68c-10 87 -12 161 -12 253v302h93v-302c0 -92 -2 -166 -13 -253zM156 -13c-36 0 -66 27 -66 63c0 38 30 64 66 64c35 0 64 -26 64 -64c0 -36 -29 -63 -64 -63z" />
    <glyph glyph-name="exclamdown" unicode="&#xa1;" horiz-adv-x="310" 
d="M156 733c35 0 64 -27 64 -63c0 -38 -29 -64 -64 -64c-36 0 -66 26 -66 64c0 36 30 63 66 63zM189 556c11 -87 13 -161 13 -253v-302h-93v302c0 92 2 166 12 253h68z" />
    <glyph glyph-name="numbersign" unicode="#" horiz-adv-x="686" 
d="M625 432h-106l-28 -144h111l-15 -83h-112l-40 -205h-83l41 205h-163l-40 -205h-82l40 205h-102l15 83h103l28 144h-118l16 82h118l41 205h82l-40 -205h163l40 205h82l-40 -205h104zM409 288l28 144h-162l-29 -144h163z" />
    <glyph glyph-name="period" unicode="." horiz-adv-x="269" 
d="M135 -13c-37 0 -68 30 -68 66s31 67 68 67c36 0 67 -31 67 -67s-31 -66 -67 -66z" />
    <glyph glyph-name="question" unicode="?" horiz-adv-x="525" 
d="M265 733c132 0 226 -92 226 -220c0 -188 -209 -208 -212 -323v-26h-82v29c0 155 212 173 212 317c0 76 -56 141 -144 141c-84 0 -148 -66 -148 -146h-83c0 127 101 228 231 228zM243 115c37 0 66 -30 66 -65c0 -34 -29 -64 -66 -64c-39 0 -67 30 -67 64c0 35 29 65 67 65
z" />
    <glyph glyph-name="questiondown" unicode="&#xbf;" horiz-adv-x="525" 
d="M282 604c-37 0 -66 30 -66 65c0 34 29 64 66 64c39 0 67 -30 67 -64c0 -35 -29 -65 -67 -65zM408 214h83c0 -127 -101 -228 -231 -228c-132 0 -226 92 -226 220c0 188 209 208 212 323v26h82v-29c0 -155 -212 -173 -212 -317c0 -76 56 -141 144 -141c84 0 148 66 148 146
z" />
    <glyph glyph-name="quotedbl" unicode="&#x22;" horiz-adv-x="304" 
d="M126 636l-18 -184h-52l-19 184c-3 38 22 54 46 54c22 0 47 -16 43 -54zM267 636l-18 -184h-52l-19 184c-4 38 22 54 46 54c22 0 46 -16 43 -54z" />
    <glyph glyph-name="quotesingle" unicode="'" horiz-adv-x="194" 
d="M144 642l-19 -189h-56l-20 189c-4 41 23 58 49 58c24 0 50 -17 46 -58z" />
    <glyph glyph-name="semicolon" unicode=";" horiz-adv-x="257" 
d="M129 361c-37 0 -68 31 -68 66c0 37 31 67 68 67c36 0 67 -30 67 -67c0 -35 -31 -66 -67 -66zM123 109c36 0 67 -25 67 -81c0 -73 -58 -121 -109 -120v33c27 0 54 26 55 55c-6 -3 -13 -4 -20 -4c-30 0 -55 19 -55 56c0 36 26 61 62 61z" />
    <glyph glyph-name="slash" unicode="/" horiz-adv-x="363" 
d="M0 0l281 719h82l-281 -719h-82z" />
    <glyph glyph-name="underscore" unicode="_" horiz-adv-x="524" 
d="M60 -19h404v-67h-404v67z" />
    <glyph glyph-name="braceleft" unicode="{" horiz-adv-x="259" 
d="M191 468c0 -47 -18 -83 -46 -107c28 -23 46 -58 46 -105v-193c0 -43 27 -65 63 -65v-65c-8 0 -37 2 -51 4c-51 10 -84 55 -84 113v195c0 69 -45 83 -67 83v66c22 0 67 13 67 85v199c0 57 31 100 86 111c12 3 40 4 49 4v-66c-35 0 -63 -19 -63 -56v-203z" />
    <glyph glyph-name="braceright" unicode="}" horiz-adv-x="259" 
d="M140 479c0 -72 45 -85 67 -85v-66c-22 0 -67 -14 -67 -83v-195c0 -58 -34 -101 -85 -113c-13 -3 -42 -4 -50 -4v65c35 0 62 22 62 65v193c0 47 19 82 47 105c-28 24 -47 60 -47 107v203c0 37 -27 56 -62 56v66c8 0 37 -1 48 -4c56 -11 87 -54 87 -111v-199z" />
    <glyph glyph-name="bracketleft" unicode="[" horiz-adv-x="264" 
d="M259 1v-69h-203v861h203v-69h-132v-723h132z" />
    <glyph glyph-name="bracketright" unicode="]" horiz-adv-x="264" 
d="M5 1h132v723h-132v69h204v-861h-204v69z" />
    <glyph glyph-name="parenleft" unicode="(" horiz-adv-x="268" 
d="M268 -71h-72c-88 110 -146 272 -146 441c0 160 54 325 146 440h72c-79 -104 -132 -263 -134 -440c2 -169 51 -331 134 -441z" />
    <glyph glyph-name="parenright" unicode=")" horiz-adv-x="267" 
d="M0 -71c82 110 132 272 134 441c-2 177 -56 336 -134 440h71c93 -115 147 -280 147 -440c0 -169 -59 -331 -147 -441h-71z" />
    <glyph glyph-name="emdash" unicode="&#x2014;" horiz-adv-x="1137" 
d="M73 314h990v-76h-990v76z" />
    <glyph glyph-name="endash" unicode="&#x2013;" horiz-adv-x="919" 
d="M66 314h787v-76h-787v76z" />
    <glyph glyph-name="hyphen" unicode="-" horiz-adv-x="511" 
d="M63 317h385v-75h-385v75z" />
    <glyph glyph-name="guillemotleft" unicode="&#xab;" horiz-adv-x="598" 
d="M496 487l-213 -244l213 -243h-100h-26l-213 243l213 244h99h27z" />
    <glyph glyph-name="guillemotright" unicode="&#xbb;" horiz-adv-x="598" 
d="M228 487l213 -244l-213 -243h-100h-26l213 243l-213 244h99h27z" />
    <glyph glyph-name="guilsinglleft" unicode="&#x2039;" horiz-adv-x="371" 
d="M369 487l-213 -244l213 -243h-99l-213 243l213 244h99z" />
    <glyph glyph-name="guilsinglright" unicode="&#x203a;" horiz-adv-x="376" 
d="M113 487l213 -244l-213 -243h-100l213 243l-213 244h100z" />
    <glyph glyph-name="quotedblbase" unicode="&#x201e;" horiz-adv-x="407" 
d="M124 109c36 0 67 -25 67 -81c0 -73 -58 -121 -109 -120v33c27 0 55 27 55 55c-6 -3 -13 -4 -21 -4c-29 0 -54 19 -54 56c0 36 26 61 62 61zM277 109c36 0 68 -25 68 -81c0 -73 -59 -121 -110 -120v33c28 0 55 27 55 55c-6 -3 -12 -4 -21 -4c-29 0 -53 19 -53 56
c0 36 25 61 61 61z" />
    <glyph glyph-name="quotedblleft" unicode="&#x201c;" horiz-adv-x="407" 
d="M137 602c30 0 54 -20 54 -57c0 -36 -25 -61 -61 -61s-68 25 -68 82c0 71 59 120 110 120v-33c-28 -1 -55 -27 -55 -55c6 3 13 4 20 4zM290 602c30 0 55 -20 55 -57c0 -36 -26 -61 -62 -61s-67 25 -67 82c0 71 58 120 109 119v-33c-27 0 -54 -26 -55 -54c5 2 12 4 20 4z
" />
    <glyph glyph-name="quotedblright" unicode="&#x201d;" horiz-adv-x="407" 
d="M124 674c36 0 67 -25 67 -81c0 -73 -58 -121 -109 -120v33c27 0 54 26 55 55c-5 -3 -12 -4 -20 -4c-30 0 -55 19 -55 56c0 36 26 61 62 61zM277 674c36 0 68 -25 68 -81c0 -73 -59 -121 -110 -120v33c28 0 55 26 55 55c-6 -3 -13 -4 -20 -4c-30 0 -54 19 -54 56
c0 36 25 61 61 61z" />
    <glyph glyph-name="quoteleft" unicode="&#x2018;" horiz-adv-x="254" 
d="M136 602c31 0 55 -20 55 -57c0 -36 -25 -61 -61 -61s-68 25 -68 82c0 73 59 120 110 120v-33c-27 -1 -54 -26 -55 -54c5 2 11 3 19 3z" />
    <glyph glyph-name="quoteright" unicode="&#x2019;" horiz-adv-x="254" 
d="M124 674c36 0 67 -25 67 -81c0 -73 -58 -121 -109 -120v33c27 0 54 26 55 55c-7 -3 -13 -4 -20 -4c-30 0 -55 19 -55 56c0 36 26 61 62 61z" />
    <glyph glyph-name="quotesinglbase" unicode="&#x201a;" horiz-adv-x="222" 
d="M100 109c36 0 68 -25 68 -81c0 -73 -59 -121 -109 -120v33c27 0 54 26 54 55c-6 -3 -13 -4 -21 -4c-28 0 -53 19 -53 56c0 36 25 61 61 61z" />
    <glyph glyph-name="space" unicode=" " horiz-adv-x="275" 
 />
    <glyph glyph-name="cent" unicode="&#xa2;" horiz-adv-x="577" 
d="M53 362c0 125 89 231 204 252l-1 105h74l1 -102c90 -10 163 -66 192 -147l-73 -25c-20 56 -71 98 -150 98c-98 0 -165 -81 -165 -181c0 -101 67 -182 165 -182c75 0 123 37 144 87l73 -27c-30 -73 -100 -123 -186 -133l-1 -108h-74l1 111c-115 21 -204 127 -204 252z" />
    <glyph glyph-name="currency" unicode="&#xa4;" horiz-adv-x="649" 
d="M561 356c0 -51 -16 -97 -43 -136l78 -76l-55 -56l-78 77c-39 -28 -87 -44 -139 -44c-51 0 -99 16 -137 44l-79 -77l-55 56l79 77c-27 38 -43 85 -43 135c0 51 16 98 43 137l-79 77l55 56l79 -77c38 28 86 44 137 44c52 0 100 -16 139 -44l78 77l55 -56l-78 -77
c27 -38 43 -86 43 -137zM166 356c0 -87 72 -158 158 -158c88 0 160 71 160 158c0 88 -71 160 -160 160c-87 0 -158 -72 -158 -160z" />
    <glyph glyph-name="dollar" unicode="$" horiz-adv-x="646" 
d="M387 389c99 -27 184 -83 184 -204c0 -109 -82 -184 -212 -195v-80h-67v80c-125 10 -208 79 -222 187l84 13c8 -71 60 -113 138 -123v264l-25 7c-107 29 -171 87 -171 195c0 102 78 185 196 199v70h67v-70c109 -10 191 -74 214 -170l-81 -22c-15 64 -66 106 -133 115v-258
zM289 416l3 -1v238c-69 -14 -111 -64 -111 -118c0 -62 34 -98 108 -119zM359 67c89 10 128 63 128 119c0 75 -56 106 -118 123l-10 3v-245z" />
    <glyph glyph-name="Euro" unicode="&#x20ac;" horiz-adv-x="766" 
d="M656 124l50 -62c-60 -46 -142 -74 -220 -74c-155 0 -286 100 -337 240h-89v80h69c-2 16 -3 32 -3 49c0 19 2 38 4 57h-70v79h90c52 140 182 238 336 238c65 0 128 -17 191 -51l-38 -70c-53 29 -100 42 -153 42c-109 0 -203 -64 -249 -159h307l-20 -79h-313
c-3 -19 -5 -38 -5 -57c0 -17 2 -33 4 -49h289l-18 -80h-246c46 -96 141 -161 251 -161c62 0 124 21 170 57z" />
    <glyph glyph-name="florin" unicode="&#x192;" horiz-adv-x="528" 
d="M342 593l-15 -107h137v-72h-148l-5 -40l-57 -391c-11 -78 -63 -123 -141 -123h-53v78h54c32 0 54 18 58 50l53 358h-1l10 68h-118v72h128l16 107c10 77 60 131 147 131h60v-77h-68c-35 0 -52 -20 -57 -54z" />
    <glyph glyph-name="sterling" unicode="&#xa3;" horiz-adv-x="666" 
d="M528 203h78c0 -122 -61 -203 -195 -203h-341v83c72 12 126 82 126 169c0 28 -5 52 -13 76h-103v74h72c-13 32 -24 67 -24 110c0 126 92 221 226 221c116 0 199 -67 225 -160l-78 -27c-18 63 -74 106 -148 106c-88 0 -142 -61 -142 -145c0 -39 12 -71 26 -105h257v-74
h-230c6 -23 10 -48 9 -77c0 -65 -22 -136 -79 -168l222 -1c78 0 115 42 112 121z" />
    <glyph glyph-name="yen" unicode="&#xa5;" horiz-adv-x="692" 
d="M632 719l-214 -364h137v-71h-169v-79h169v-71h-169v-134h-82v134h-170v71h170v79h-170v71h139l-213 364h95l190 -341v1l192 340h95z" />
    <glyph glyph-name="approxequal" unicode="&#x2248;" horiz-adv-x="447" 
d="M355 382h52c0 -64 -45 -105 -101 -105c-71 0 -112 70 -167 70c-30 0 -47 -19 -48 -48h-51c0 62 44 103 100 103c71 0 115 -70 168 -70c28 0 46 18 47 50zM355 234h52c0 -64 -45 -105 -101 -105c-71 0 -112 70 -167 70c-30 0 -47 -19 -48 -48h-51c0 62 44 103 100 103
c71 0 115 -70 168 -70c28 0 46 18 47 50z" />
    <glyph glyph-name="asciitilde" unicode="~" horiz-adv-x="447" 
d="M355 312h52c0 -64 -45 -105 -101 -105c-71 0 -112 70 -167 70c-30 0 -47 -19 -48 -48h-51c0 62 44 103 100 103c71 0 115 -70 168 -70c28 0 46 18 47 50z" />
    <glyph glyph-name="divide" unicode="&#xf7;" horiz-adv-x="541" 
d="M271 433c-35 0 -65 29 -65 63c0 35 30 64 65 64c34 0 64 -29 64 -64c0 -34 -30 -63 -64 -63zM80 342h381v-70h-381v70zM271 47c-35 0 -65 29 -65 63c0 35 30 64 65 64c34 0 64 -29 64 -64c0 -34 -30 -63 -64 -63z" />
    <glyph glyph-name="emptyset" unicode="&#x2205;" horiz-adv-x="800" 
d="M760 635l-69 -63c38 -59 60 -134 58 -218c-4 -216 -144 -370 -347 -370c-97 0 -183 40 -245 105l-73 -66l-44 48l76 69c-38 60 -61 133 -61 214c0 213 146 371 347 371c99 0 186 -37 248 -101l66 60zM135 354c0 -60 15 -115 41 -160l415 376c-47 49 -112 78 -189 78
c-157 0 -267 -122 -267 -294zM670 354c0 63 -14 118 -40 164l-415 -377c47 -49 112 -79 187 -79c159 0 268 119 268 292z" />
    <glyph glyph-name="equal" unicode="=" horiz-adv-x="535" 
d="M73 442h382v-74h-382v74zM73 151v73h382v-73h-382z" />
    <glyph glyph-name="greater" unicode="&#x3e;" horiz-adv-x="422" 
d="M47 12v87l255 147l-255 147v87l337 -191v-86z" />
    <glyph glyph-name="greaterequal" unicode="&#x2265;" horiz-adv-x="560" 
d="M58 545l455 -158v-77l-455 -158v79l343 118l-343 117v79zM58 0v79h455v-79h-455z" />
    <glyph glyph-name="uni2206" unicode="&#x2206;" horiz-adv-x="679" 
d="M379 710l240 -640v-70h-559v70l241 640h78zM340 613l-205 -543h409z" />
    <glyph glyph-name="infinity" unicode="&#x221e;" horiz-adv-x="869" 
d="M53 283c0 104 81 184 186 184c73 0 145 -45 196 -125c50 80 122 125 195 125c105 0 186 -80 186 -184s-81 -183 -186 -183c-73 0 -145 44 -195 124c-51 -80 -123 -124 -196 -124c-105 0 -186 79 -186 183zM132 283c0 -61 44 -105 110 -105c44 0 100 27 141 105
c-41 78 -97 105 -141 105c-66 0 -110 -43 -110 -105zM486 283c41 -78 97 -105 141 -105c66 0 110 44 110 105c0 62 -44 105 -110 105c-44 0 -100 -27 -141 -105z" />
    <glyph glyph-name="integral" unicode="&#x222b;" horiz-adv-x="329" 
d="M251 734h48v-78h-44c-29 0 -49 -19 -49 -54v-256v-228c0 -77 -54 -131 -128 -131h-48v77h44c29 0 49 20 49 54v256v228c0 77 55 132 128 132z" />
    <glyph glyph-name="less" unicode="&#x3c;" horiz-adv-x="420" 
d="M35 203v86l338 191v-87l-256 -147l256 -147v-87z" />
    <glyph glyph-name="lessequal" unicode="&#x2264;" horiz-adv-x="543" 
d="M35 316v86l461 159v-88l-333 -114l333 -115v-87zM35 0v87h461v-87h-461z" />
    <glyph glyph-name="logicalnot" unicode="&#xac;" horiz-adv-x="563" 
d="M522 78h-87v183h-394v87h481v-270z" />
    <glyph glyph-name="uni00B5" unicode="&#xb5;" horiz-adv-x="667" 
d="M561 76l59 -1v-75h-87c-49 0 -79 21 -91 62c-31 -46 -79 -75 -152 -77h-2h-3c-68 2 -114 27 -145 68v-297h-81v730h81v-235c0 -124 48 -191 148 -191c94 0 142 60 147 174v252h82v-356c0 -43 16 -54 44 -54z" />
    <glyph glyph-name="minus" unicode="&#x2212;" horiz-adv-x="474" 
d="M60 363h354v-74h-354v74z" />
    <glyph glyph-name="multiply" unicode="&#xd7;" horiz-adv-x="524" 
d="M471 157l-55 -55l-154 155l-152 -156l-55 55l152 156l-154 156l56 55l153 -155l153 156l55 -55l-153 -156z" />
    <glyph glyph-name="notequal" unicode="&#x2260;" horiz-adv-x="536" 
d="M489 408h-153l-79 -144h232v-73h-272l-71 -130h-78l71 130h-92v73h132l78 144h-210v74h250l75 136h78l-74 -136h113v-74z" />
    <glyph glyph-name="partialdiff" unicode="&#x2202;" horiz-adv-x="610" 
d="M338 720c146 -113 228 -289 228 -435c0 -207 -130 -295 -260 -296c-137 -1 -264 91 -264 258c0 157 114 259 251 259c59 0 122 -20 162 -61c-35 97 -115 197 -224 275h107zM303 62c104 0 184 85 184 190s-80 187 -186 187c-108 0 -188 -85 -188 -187
c0 -105 84 -190 190 -190z" />
    <glyph glyph-name="percent" unicode="%" horiz-adv-x="900" 
d="M217 350c-101 -3 -167 75 -167 193c0 115 62 192 159 193c100 4 166 -75 166 -193c0 -114 -61 -191 -158 -193zM684 719h87l-548 -719h-87zM117 543c0 -76 38 -125 96 -126c57 1 95 50 95 126s-38 125 -96 125c-57 0 -95 -49 -95 -125zM857 177
c0 -114 -61 -191 -158 -193c-102 -3 -167 75 -167 193c0 115 62 192 159 193c100 4 166 -75 166 -193zM695 51c57 1 95 50 95 126s-38 125 -96 125c-57 0 -95 -49 -95 -125s38 -125 96 -126z" />
    <glyph glyph-name="perthousand" unicode="&#x2030;" horiz-adv-x="1270" 
d="M217 350c-101 -3 -167 75 -167 193c0 115 62 192 159 193c100 4 166 -75 166 -193c0 -114 -61 -191 -158 -193zM684 719h87l-548 -719h-87zM117 543c0 -76 38 -125 96 -126c57 1 95 50 95 126s-38 125 -96 125c-57 0 -95 -49 -95 -125zM691 370c100 4 166 -75 166 -193
c0 -114 -61 -191 -158 -193c-102 -3 -167 75 -167 193c0 115 62 192 159 193zM1227 177c0 -114 -61 -191 -158 -193c-102 -3 -167 75 -167 193c0 115 62 192 158 193c101 4 167 -75 167 -193zM695 51c57 1 95 50 95 126s-38 125 -96 125c-57 0 -95 -49 -95 -125
s38 -125 96 -126zM1064 51c58 1 95 50 95 126s-37 125 -95 125c-57 0 -95 -49 -95 -125s38 -125 95 -126z" />
    <glyph glyph-name="plus" unicode="+" horiz-adv-x="661" 
d="M581 374v-74h-213v-214h-74v214h-214v74h214v213h74v-213h213z" />
    <glyph glyph-name="plusminus" unicode="&#xb1;" horiz-adv-x="501" 
d="M287 366h174v-72h-174v-115h-72v115h-175v72h175v114h72v-114zM40 0v72h421v-72h-421z" />
    <glyph glyph-name="product" unicode="&#x220f;" horiz-adv-x="592" 
d="M551 487h-103v-322c0 -72 41 -95 103 -86v-78c-100 -15 -185 28 -185 153v333h-173v-487h-83v487h-90v82h173h255h103v-82z" />
    <glyph glyph-name="radical" unicode="&#x221a;" horiz-adv-x="704" 
d="M469 714h201v-79h-152l-251 -635h-82l-185 486h80l147 -381z" />
    <glyph glyph-name="summation" unicode="&#x2211;" horiz-adv-x="483" 
d="M30 0v89l253 272l-253 271v88h410v-82h-308l255 -277l-256 -276h309v-85h-410z" />
    <glyph glyph-name="arrowup" unicode="&#x2191;" horiz-adv-x="767" 
d="M60 445l323 318l324 -318l-49 -48l-241 236v-633h-67v633l-242 -236z" />
    <glyph glyph-name="uni2197" unicode="&#x2197;" horiz-adv-x="840" 
d="M327 720h453v-453h-68v337l-604 -604l-48 47l604 605h-337v68z" />
    <glyph glyph-name="arrowright" unicode="&#x2192;" horiz-adv-x="928" 
d="M547 617l321 -320l-321 -320l-48 48l238 239h-677v67h677l-238 239z" />
    <glyph glyph-name="uni2198" unicode="&#x2198;" horiz-adv-x="838" 
d="M778 454v-453l-452 1v67l337 1l-603 603l47 47l603 -603l1 338z" />
    <glyph glyph-name="arrowdown" unicode="&#x2193;" horiz-adv-x="760" 
d="M700 213l-320 -320l-320 320l48 48l238 -238v706h68v-706l239 238z" />
    <glyph glyph-name="uni2199" unicode="&#x2199;" horiz-adv-x="841" 
d="M513 -1h-453v453h69v-337l605 606l47 -48l-605 -606h337v-68z" />
    <glyph glyph-name="arrowleft" unicode="&#x2190;" horiz-adv-x="928" 
d="M381 -58l-321 320l321 320l48 -47l-238 -239h677v-68h-677l238 -238z" />
    <glyph glyph-name="uni2196" unicode="&#x2196;" horiz-adv-x="832" 
d="M573 471l-251 -28l249 -241l-20 -134l-411 377h98v236h162zM89 445l1 46l50 -46h-51z" />
    <glyph glyph-name="arrowboth" unicode="&#x2194;" horiz-adv-x="1073" 
d="M782 27v99l99 101l-459 -1h-231l102 -102v-98l-233 235l231 233v-100l-99 -99h228v1h235l226 -1l-100 100v99l232 -233z" />
    <glyph glyph-name="arrowupdn" unicode="&#x2195;" horiz-adv-x="587" 
d="M327 -36l100 100h100l-235 -232l-232 232h98l100 -100v229h-1l1 117l-1 117h1v226l-100 -99h-98l232 231l235 -231h-100l-100 100v-461v-229z" />
    <glyph glyph-name="uni25CF" unicode="&#x25cf;" horiz-adv-x="899" 
d="M450 -57c-216 0 -390 175 -390 390s175 390 390 390c214 0 389 -176 389 -390c0 -215 -175 -390 -389 -390z" />
    <glyph glyph-name="circle" unicode="&#x25cb;" horiz-adv-x="899" 
d="M450 -57c-216 0 -390 175 -390 390s175 390 390 390c214 0 389 -176 389 -390c0 -215 -175 -390 -389 -390zM450 13c176 0 320 143 320 320c0 176 -145 320 -320 320c-177 0 -321 -143 -321 -320s144 -320 321 -320z" />
    <glyph glyph-name="lozenge" unicode="&#x25ca;" horiz-adv-x="613" 
d="M348 710l205 -355l-205 -355h-83l-205 355l205 355h83zM306 73l162 282l-162 282l-160 -282z" />
    <glyph glyph-name="filledbox" unicode="&#x25a0;" horiz-adv-x="830" 
d="M60 710h710v-710h-710v710z" />
    <glyph glyph-name="uni25A1" unicode="&#x25a1;" horiz-adv-x="830" 
d="M60 710h710v-710h-710v710zM128 642v-574h574v574h-574z" />
    <glyph glyph-name="triagup" unicode="&#x25b2;" horiz-adv-x="966" 
d="M906 0l-423 710l-423 -710h846z" />
    <glyph glyph-name="uni25B3" unicode="&#x25b3;" horiz-adv-x="967" 
d="M907 1h-847l424 712zM790 66l-306 514l-307 -514h613z" />
    <glyph glyph-name="uni262E" unicode="&#x262e;" horiz-adv-x="899" 
d="M450 723c214 0 389 -176 389 -390c0 -215 -175 -390 -389 -390c-216 0 -390 175 -390 390s175 390 390 390zM419 652c-163 -16 -290 -153 -290 -319c0 -47 10 -91 29 -131l261 171v279zM770 333c0 165 -127 302 -288 319v-279l260 -171c18 40 28 84 28 131zM189 147
c53 -73 135 -124 230 -133v283zM482 14c94 10 176 60 229 133l-229 150v-283z" />
    <glyph glyph-name="smileface" unicode="&#x263a;" horiz-adv-x="898" 
d="M451 -55c-217 0 -391 172 -391 390c0 211 174 384 391 384c213 0 387 -173 387 -384c0 -218 -174 -390 -387 -390zM450 11c180 0 323 137 323 320c0 182 -143 324 -323 324c-185 0 -323 -142 -323 -324c0 -184 137 -320 323 -320zM323 360c-33 0 -59 29 -59 60
c0 32 26 59 59 59c32 0 57 -27 57 -59c0 -31 -25 -60 -57 -60zM578 357c-34 0 -59 28 -59 59s25 58 59 58c32 0 57 -27 57 -58s-25 -59 -57 -59zM279 293h59c-4 -65 46 -119 113 -119c66 0 116 53 113 119h60c4 -98 -74 -179 -173 -179c-100 0 -177 80 -172 179z" />
    <glyph glyph-name="uni2713" unicode="&#x2713;" horiz-adv-x="732" 
d="M33 240l52 53l160 -173l329 396l58 -48l-384 -461z" />
    <glyph glyph-name="bar" unicode="|" horiz-adv-x="159" 
d="M47 788h66v-878h-66v878z" />
    <glyph glyph-name="brokenbar" unicode="&#xa6;" horiz-adv-x="483" 
d="M205 791h74v-344h-74v344zM205 284h74v-354h-74v354z" />
    <glyph glyph-name="at" unicode="@" horiz-adv-x="935" 
d="M505 733c229 0 388 -160 380 -383c-6 -159 -93 -279 -205 -279c-65 0 -102 42 -97 104c-33 -59 -103 -95 -179 -94c-120 1 -202 97 -180 247c20 140 121 238 245 238c76 0 137 -40 160 -105l17 92h54l-61 -355c-7 -41 3 -69 33 -74c73 -11 143 88 151 220
c13 198 -122 338 -317 338c-215 0 -388 -169 -394 -386c-7 -200 129 -349 326 -349c86 0 180 28 254 76l24 -49c-78 -48 -190 -79 -285 -79c-206 0 -387 149 -380 398c6 251 204 440 454 440zM598 325c17 118 -35 189 -128 190c-99 1 -173 -81 -189 -193
c-17 -121 44 -189 133 -189c96 -1 167 75 184 192z" />
    <glyph glyph-name="ampersand" unicode="&#x26;" horiz-adv-x="695" 
d="M675 0h-99l-52 63c-52 -48 -125 -74 -214 -74c-163 -1 -256 84 -256 210c0 104 63 167 171 227c-59 68 -81 106 -82 156c-2 94 70 151 163 151c94 0 160 -59 160 -143c0 -67 -43 -123 -131 -179l180 -218c16 43 21 96 17 155h84c5 -90 -11 -165 -44 -223zM305 660
c-52 0 -83 -34 -82 -82c1 -35 25 -65 70 -117c64 37 92 79 92 122s-28 77 -80 77zM316 63c71 0 123 22 158 60l-206 251c-67 -38 -129 -94 -128 -175c0 -83 65 -137 176 -136z" />
    <glyph glyph-name="paragraph" unicode="&#xb6;" horiz-adv-x="496" 
d="M225 712h130v-783h-74v378h-56c-107 0 -185 78 -185 203c0 123 78 202 185 202zM410 710h46v-783h-46v783z" />
    <glyph glyph-name="copyright" unicode="&#xa9;" horiz-adv-x="818" 
d="M409 -14c-204 0 -369 166 -369 370c0 203 165 369 369 369c203 0 369 -165 369 -369s-165 -370 -369 -370zM409 53c167 0 302 136 302 303s-135 302 -302 302s-303 -135 -303 -302s136 -303 303 -303zM584 432l-57 -19c-15 46 -54 77 -113 77c-72 0 -124 -61 -124 -135
s52 -135 124 -135c56 0 93 29 109 69l57 -22c-25 -65 -91 -106 -166 -106c-102 0 -187 87 -187 194c0 108 85 195 187 195c80 0 147 -46 170 -118z" />
    <glyph glyph-name="registered" unicode="&#xae;" horiz-adv-x="434" 
d="M218 730c104 0 186 -83 186 -185c0 -106 -82 -188 -186 -188s-188 82 -188 188c0 102 84 185 188 185zM218 394c85 0 151 65 151 151c0 85 -66 150 -151 150c-86 0 -151 -65 -151 -150c0 -87 64 -151 151 -151zM281 575c-1 -22 -11 -37 -29 -44l30 -70h-36l-28 64h-22
v-64h-33v165h33h24c38 0 60 -14 61 -47v-2v-2zM196 595v-41h29c16 1 20 8 20 21v1v3c-1 10 -9 16 -25 16h-24z" />
    <glyph glyph-name="uni2117" unicode="&#x2117;" horiz-adv-x="531" 
d="M267 721c124 0 224 -100 224 -223c0 -126 -100 -226 -224 -226c-126 0 -227 100 -227 226c0 123 101 223 227 223zM266 310c105 0 188 80 188 186s-83 188 -188 188c-107 0 -187 -82 -187 -188c0 -107 79 -186 187 -186zM349 538v-2v-3c-1 -39 -27 -59 -68 -60h-6h-29
v-77h-39v199h39h29c45 1 73 -17 74 -57zM281 508c19 1 25 10 25 25c1 16 -9 24 -30 24h-30v-49h35z" />
    <glyph glyph-name="section" unicode="&#xa7;" horiz-adv-x="460" 
d="M402 365c0 -55 -27 -93 -71 -118c43 -22 68 -59 68 -108c0 -83 -70 -147 -169 -147c-92 0 -160 47 -177 121l68 15c9 -46 47 -73 110 -73c61 0 97 34 97 82c0 38 -24 57 -62 65l-64 12c-76 13 -145 55 -145 144c0 57 28 95 71 119c-43 22 -68 61 -68 109
c0 83 70 146 169 146c92 0 162 -46 178 -120l-67 -16c-10 46 -49 74 -112 74c-61 0 -97 -35 -97 -81c0 -40 26 -58 62 -65l64 -13c76 -14 145 -54 145 -146zM231 283c74 0 109 37 109 81c0 53 -50 78 -110 78c-76 0 -111 -37 -111 -81c0 -53 47 -78 112 -78z" />
    <glyph glyph-name="trademark" unicode="&#x2122;" horiz-adv-x="627" 
d="M38 676v44h217v-44h-90v-235h-43v235h-84zM526 720h41v-279h-41v177l-76 -177h-42l-75 174v-174h-42v279h42l96 -229z" />
    <glyph glyph-name="degree" unicode="&#xb0;" horiz-adv-x="257" 
d="M128 509c-60 0 -108 49 -108 108s49 108 108 108c60 0 109 -49 109 -108s-49 -108 -109 -108zM128 565c28 0 52 24 52 52c0 27 -24 52 -52 52s-51 -24 -51 -52s23 -52 51 -52z" />
    <glyph glyph-name="estimated" unicode="&#x212e;" horiz-adv-x="769" 
d="M55 353c2 211 138 357 330 357c193 0 328 -123 328 -329c1 -16 1 -38 0 -53h-558v-180c52 -74 136 -117 242 -117c103 0 196 54 238 133l38 -14c-49 -98 -153 -159 -278 -159c-204 0 -343 147 -340 362zM155 546v-182h459v200c-50 68 -133 107 -229 106
c-100 -2 -181 -50 -230 -124z" />
    <glyph glyph-name="uni2116" unicode="&#x2116;" horiz-adv-x="1330" 
d="M971 719c128 0 239 -98 239 -234c0 -138 -111 -237 -239 -237c-125 0 -240 103 -240 237c0 136 113 234 240 234zM572 133v577h74v-710h-74l-378 577v-577h-74v710h74zM971 319c94 0 166 72 166 165c0 97 -74 164 -166 164c-94 0 -167 -69 -167 -164
c0 -90 75 -165 167 -165zM831 108v65h279v-65h-279z" />
    <glyph glyph-name="asciicircum" unicode="^" horiz-adv-x="539" 
d="M431 480h-74l-72 152l-73 -152h-74l110 230h74z" />
    <glyph glyph-name="dagger" unicode="&#x2020;" horiz-adv-x="303" 
d="M283 610v-61h-101v-285h-61v285h-101v61h101v100h61v-100h101z" />
    <glyph glyph-name="daggerdbl" unicode="&#x2021;" horiz-adv-x="304" 
d="M284 445v-61h-100v-120h-61v120h-101v61h101v84h-103v61h103v120h61v-120h99v-61h-99v-84h100z" />
    <glyph glyph-name="minute" unicode="&#x2032;" horiz-adv-x="177" 
d="M130 682l-17 -181h-48l-18 181c-3 35 21 51 43 50c21 0 44 -15 40 -50z" />
    <glyph glyph-name="registered.ss01" horiz-adv-x="531" 
d="M267 721c124 0 224 -100 224 -223c0 -126 -100 -226 -224 -226c-126 0 -227 100 -227 226c0 123 101 223 227 223zM266 310c105 0 188 80 188 186s-83 188 -188 188c-107 0 -187 -82 -187 -188c0 -107 79 -186 187 -186zM343 535c-1 -27 -14 -45 -35 -54l37 -84h-45
l-34 78h-26v-78h-39v200h39h29c45 1 72 -17 74 -57v-3v-2zM240 558v-48h35c18 0 23 9 24 25v1v2c-1 13 -11 20 -30 20h-29z" />
    <glyph glyph-name="ampersand.ss02" horiz-adv-x="706" 
d="M585 117c40 -51 55 -44 101 -44v-73c-87 0 -109 4 -156 62l-6 8c-52 -52 -125 -80 -214 -81c-147 -2 -256 75 -256 208c0 112 76 175 176 241l-6 8c-39 49 -66 91 -66 143c0 78 61 144 153 144c88 0 151 -60 151 -142c0 -68 -57 -120 -123 -166l179 -224
c15 38 23 83 22 132h73c2 -80 -13 -147 -41 -199zM312 662c-42 0 -75 -26 -75 -75c0 -31 16 -56 53 -101l5 -6c50 32 93 64 93 108c0 46 -32 74 -76 74zM306 63c70 0 128 26 168 69l-200 251c-83 -55 -141 -102 -141 -181c0 -100 96 -140 173 -139z" />
    <glyph glyph-name="at.ss04" horiz-adv-x="928" 
d="M499 732c231 0 392 -174 378 -387c-8 -134 -85 -239 -195 -239c-65 0 -108 38 -117 88c-21 -45 -77 -81 -144 -81c-72 0 -137 41 -139 121c-3 85 61 138 152 138h134c11 71 -8 123 -91 123c-64 -1 -100 -31 -122 -80l-45 16c32 76 98 111 167 111c103 0 158 -62 145 -172
l-15 -130c-7 -61 24 -93 75 -93c87 0 138 98 143 204c9 191 -135 335 -328 335c-207 0 -380 -165 -393 -369c-14 -205 139 -372 350 -372c98 0 196 36 272 105l33 -34c-87 -78 -202 -117 -311 -117c-241 0 -411 189 -397 418c16 230 209 415 448 415zM428 159
c82 0 129 61 137 169h-106c-89 0 -124 -36 -124 -88c-1 -58 42 -81 93 -81z" />
    <glyph glyph-name="uni0308" unicode="&#x308;" horiz-adv-x="0" 
d="M-253 770c-35 0 -63 28 -63 62c0 35 28 63 63 63c33 0 63 -29 63 -63c0 -33 -29 -62 -63 -62zM-78 770c-34 0 -62 28 -62 62s28 63 62 63s63 -29 63 -63s-29 -62 -63 -62z" />
    <glyph glyph-name="uni0307" unicode="&#x307;" horiz-adv-x="0" 
d="M-149 770c-34 0 -62 28 -62 62s28 63 62 63s63 -29 63 -63s-29 -62 -63 -62z" />
    <glyph glyph-name="gravecomb" unicode="&#x300;" horiz-adv-x="0" 
d="M-130 767l-84 133h87l66 -133h-69z" />
    <glyph glyph-name="acutecomb" unicode="&#x301;" horiz-adv-x="0" 
d="M-110 767h-69l66 133h88z" />
    <glyph glyph-name="uni030B" unicode="&#x30b;" horiz-adv-x="0" 
d="M-235 767h-69l66 133h88zM-127 767h-69l86 133h88z" />
    <glyph glyph-name="uni0302" unicode="&#x302;" horiz-adv-x="0" 
d="M-40 767h-76l-52 83l-52 -83h-76l80 133h80h16z" />
    <glyph glyph-name="uni030C" unicode="&#x30c;" horiz-adv-x="0" 
d="M-112 900h76l-80 -133h-80h-16l-80 133h76l52 -83z" />
    <glyph glyph-name="uni0306" unicode="&#x306;" horiz-adv-x="0" 
d="M-97 901h71c0 -75 -62 -134 -141 -134c-80 0 -142 58 -142 134h71c0 -40 29 -64 71 -64c41 0 70 25 70 64z" />
    <glyph glyph-name="uni030A" unicode="&#x30a;" horiz-adv-x="0" 
d="M-129 762c-62 0 -111 49 -111 112c0 62 51 113 111 113c62 0 113 -52 113 -113s-51 -112 -113 -112zM-128 818c32 0 56 24 56 58c0 30 -24 56 -56 56s-56 -25 -56 -56c0 -34 24 -58 56 -58z" />
    <glyph glyph-name="tildecomb" unicode="&#x303;" horiz-adv-x="0" 
d="M-325 790c-8 74 32 112 81 112c54 0 90 -45 131 -45c22 0 34 13 32 43h60c6 -73 -34 -110 -86 -110c-57 0 -93 45 -127 45c-19 0 -32 -13 -31 -45h-60z" />
    <glyph glyph-name="uni0304" unicode="&#x304;" horiz-adv-x="0" 
d="M-307 886h280v-62h-280v62z" />
    <glyph glyph-name="uni0312" unicode="&#x312;" horiz-adv-x="0" 
d="M-90 863c24 0 44 -17 44 -47c0 -31 -21 -52 -51 -52s-57 21 -57 68c0 62 50 102 92 101v-27c-23 -1 -46 -23 -46 -47c5 2 11 4 18 4z" />
    <glyph glyph-name="uni0326" unicode="&#x326;" horiz-adv-x="0" 
d="M-96 -23c30 0 57 -21 57 -68c0 -62 -49 -102 -92 -101v27c24 1 46 23 46 47c-5 -2 -11 -4 -17 -4c-24 0 -45 17 -45 47c0 31 21 52 51 52z" />
    <glyph glyph-name="uni0327" unicode="&#x327;" horiz-adv-x="0" 
d="M-318 -165v48h83c15 0 26 10 26 25c-1 13 -11 22 -26 22h-83v45l48 53h35v-28l-23 -25h37c45 0 67 -36 67 -71c0 -37 -26 -69 -66 -69h-98z" />
    <glyph glyph-name="uni0338" unicode="&#x338;" horiz-adv-x="0" 
d="M-454 -41h-76l359 578h73z" />
    <glyph glyph-name="acute" unicode="&#xb4;" horiz-adv-x="215" 
d="M109 767h-69l66 133h88z" />
    <glyph glyph-name="breve" unicode="&#x2d8;" horiz-adv-x="338" 
d="M311 899c-1 -74 -63 -132 -141 -132c-80 0 -141 58 -142 132h71c1 -38 30 -62 71 -62c40 0 69 24 70 62h71z" />
    <glyph glyph-name="caron" unicode="&#x2c7;" horiz-adv-x="321" 
d="M201 900h76l-80 -133h-80h-16l-80 133h76l52 -83z" />
    <glyph glyph-name="cedilla" unicode="&#xb8;" horiz-adv-x="600" 
d="M242 -166v47h82c16 0 26 11 26 25c-1 14 -10 23 -26 23h-82v45l42 54h39v-28l-21 -26h36c46 0 67 -36 67 -71c0 -37 -25 -69 -66 -69h-97z" />
    <glyph glyph-name="circumflex" unicode="&#x2c6;" horiz-adv-x="323" 
d="M296 767h-76l-52 83l-52 -83h-76l80 133h80h16z" />
    <glyph glyph-name="dieresis" unicode="&#xa8;" horiz-adv-x="345" 
d="M83 769c-35 0 -63 29 -63 62c0 35 28 64 63 64c33 0 63 -29 63 -64c0 -33 -29 -62 -63 -62zM263 769c-35 0 -63 29 -63 62c0 35 28 64 63 64c33 0 62 -29 62 -64c0 -33 -29 -62 -62 -62z" />
    <glyph glyph-name="dotaccent" unicode="&#x2d9;" horiz-adv-x="166" 
d="M83 769c-35 0 -63 29 -63 62c0 35 28 64 63 64c33 0 63 -29 63 -64c0 -33 -29 -62 -63 -62z" />
    <glyph glyph-name="grave" unicode="`" horiz-adv-x="208" 
d="M106 767l-86 133h89l66 -133h-69z" />
    <glyph glyph-name="hungarumlaut" unicode="&#x2dd;" horiz-adv-x="358" 
d="M96 767h-69l66 133h88zM219 767h-69l79 133h88z" />
    <glyph glyph-name="macron" unicode="&#xaf;" horiz-adv-x="334" 
d="M27 837h280v-62h-280v62z" />
    <glyph glyph-name="ogonek" unicode="&#x2db;" horiz-adv-x="315" 
d="M158 0h55c-91 -41 -60 -114 -2 -94v-63c-130 -39 -163 114 -53 157z" />
    <glyph glyph-name="ring" unicode="&#x2da;" horiz-adv-x="261" 
d="M128 762c-62 0 -111 49 -111 112c0 62 51 113 111 113c62 0 113 -52 113 -113s-51 -112 -113 -112zM129 818c32 0 56 24 56 58c0 30 -24 56 -56 56s-56 -25 -56 -56c0 -34 24 -58 56 -58z" />
    <glyph glyph-name="tilde" unicode="&#x2dc;" horiz-adv-x="348" 
d="M21 790c-8 74 32 112 81 112c54 0 90 -45 131 -45c22 0 34 13 32 43h60c6 -73 -34 -110 -86 -110c-57 0 -93 45 -127 45c-19 0 -32 -13 -31 -45h-60z" />
    </font>
</defs>
</svg>
